<svg preserveAspectRatio="none" width="100%" height="100%" overflow="visible" style="display: block;" viewBox="0 0 22 22" fill="none" xmlns="http://www.w3.org/2000/svg">
<g id="Play">
<path id="Stroke 1" fill-rule="evenodd" clip-rule="evenodd" d="M11 1C16.5228 1 21 5.47716 21 11C21 16.5228 16.5228 21 11 21C5.47716 21 1 16.5228 1 11C1 5.47716 5.47716 1 11 1Z" stroke="var(--stroke-0, white)" stroke-width="1.5" stroke-linecap="round" stroke-linejoin="round"/>
<path id="Stroke 3" fill-rule="evenodd" clip-rule="evenodd" d="M14.0501 11.4669C13.3211 12.2529 11.3371 13.5829 10.3221 14.0099C10.1601 14.0779 9.7471 14.2219 9.6581 14.2239C9.4691 14.2299 9.2871 14.1239 9.1991 13.9539C9.1651 13.8879 9.0651 13.4569 9.0331 13.2649C8.9381 12.6809 8.8891 11.7739 8.8901 10.8619C8.8891 9.9049 8.9421 8.9549 9.0481 8.3769C9.0761 8.2209 9.1581 7.8619 9.1821 7.8039C9.2271 7.6959 9.3091 7.6109 9.4081 7.5579C9.4841 7.5169 9.5711 7.4949 9.6581 7.4979C9.7471 7.4999 10.1091 7.6269 10.2331 7.6759C11.2111 8.0559 13.2801 9.4339 14.0401 10.2439C14.1081 10.3169 14.2951 10.5129 14.3261 10.5529C14.3971 10.6429 14.4321 10.7519 14.4321 10.8619C14.4321 10.9639 14.4011 11.0679 14.3371 11.1549C14.3041 11.1999 14.1131 11.3999 14.0501 11.4669Z" stroke="var(--stroke-0, white)" stroke-width="1.5" stroke-linecap="round" stroke-linejoin="round"/>
</g>
</svg>
