<svg preserveAspectRatio="none" width="100%" height="100%" overflow="visible" style="display: block;" viewBox="0 0 64 64" fill="none" xmlns="http://www.w3.org/2000/svg">
<g id="vuesax/bold/location">
<path id="Vector" d="M54.9867 22.5333C52.1867 10.2133 41.44 4.66667 32 4.66667C32 4.66667 32 4.66667 31.9733 4.66667C22.56 4.66667 11.7867 10.1867 8.98667 22.5067C5.86667 36.2667 14.2933 47.92 21.92 55.2533C24.7467 57.9733 28.3733 59.3333 32 59.3333C35.6267 59.3333 39.2533 57.9733 42.0533 55.2533C49.68 47.92 58.1067 36.2933 54.9867 22.5333ZM32 35.8933C27.36 35.8933 23.6 32.1333 23.6 27.4933C23.6 22.8533 27.36 19.0933 32 19.0933C36.64 19.0933 40.4 22.8533 40.4 27.4933C40.4 32.1333 36.64 35.8933 32 35.8933Z" fill="var(--fill-0, #4242FF)"/>
<g id="Vector_2" opacity="0">
</g>
<g id="Vector_3" opacity="0">
</g>
</g>
</svg>
