<svg preserveAspectRatio="none" width="100%" height="100%" overflow="visible" style="display: block;" viewBox="0 0 40 40" fill="none" xmlns="http://www.w3.org/2000/svg">
<g id="stroke copy 6">
<path id="123" d="M20 0C8.95469 0 0 8.95469 0 20C0 31.0453 8.95469 40 20 40C31.0453 40 40 31.0453 40 20C40 8.95469 31.0453 0 20 0ZM13.4727 9.07734C13.9614 9.07734 14.4392 9.22227 14.8455 9.4938C15.2519 9.76533 15.5686 10.1513 15.7556 10.6028C15.9427 11.0543 15.9916 11.5512 15.8963 12.0305C15.8009 12.5099 15.5656 12.9502 15.22 13.2958C14.8744 13.6414 14.4341 13.8767 13.9547 13.972C13.4754 14.0674 12.9785 14.0185 12.527 13.8314C12.0755 13.6444 11.6895 13.3277 11.418 12.9213C11.1465 12.5149 11.0016 12.0372 11.0016 11.5484C11.0024 10.8933 11.263 10.2653 11.7262 9.80202C12.1895 9.33878 12.8175 9.07817 13.4727 9.07734ZM17.1094 29.7492H16.1195C15.2525 29.7482 14.4213 29.4033 13.8082 28.7902C13.1951 28.1771 12.8503 27.3459 12.8492 26.4789V24.8187L12.3203 25.3477C12.2485 25.4195 12.1632 25.4764 12.0694 25.5153C11.9756 25.5542 11.875 25.5742 11.7734 25.5742C11.6719 25.5742 11.5713 25.5542 11.4775 25.5153C11.3836 25.4764 11.2984 25.4195 11.2266 25.3477C11.1547 25.2758 11.0978 25.1906 11.0589 25.0967C11.02 25.0029 11 24.9023 11 24.8008C11 24.6992 11.02 24.5986 11.0589 24.5048C11.0978 24.411 11.1547 24.3257 11.2266 24.2539L13.075 22.4062C13.1468 22.3343 13.232 22.2773 13.3258 22.2384C13.4197 22.1995 13.5203 22.1794 13.6219 22.1794C13.7235 22.1794 13.8241 22.1995 13.9179 22.2384C14.0117 22.2773 14.097 22.3343 14.1688 22.4062L16.0023 24.2391C16.1474 24.3841 16.2289 24.5808 16.2289 24.7859C16.2289 24.9911 16.1474 25.1878 16.0023 25.3328C15.8573 25.4779 15.6606 25.5593 15.4555 25.5593C15.2504 25.5593 15.0536 25.4779 14.9086 25.3328L14.3945 24.8187V26.4789C14.3952 26.9361 14.5771 27.3745 14.9005 27.6977C15.2239 28.0209 15.6623 28.2027 16.1195 28.2031H17.1094C17.3143 28.2031 17.5108 28.2845 17.6557 28.4294C17.8006 28.5743 17.882 28.7709 17.882 28.9758C17.882 29.1807 17.8006 29.3772 17.6557 29.5221C17.5108 29.667 17.3143 29.7484 17.1094 29.7484V29.7492ZM17.1094 20.625H9.83516C9.63024 20.625 9.43371 20.5436 9.28881 20.3987C9.1439 20.2538 9.0625 20.0573 9.0625 19.8523C9.0625 18.6827 9.52714 17.561 10.3542 16.7339C11.1813 15.9068 12.303 15.4422 13.4727 15.4422C14.6423 15.4422 15.764 15.9068 16.5911 16.7339C17.4182 17.561 17.8828 18.6827 17.8828 19.8523C17.8828 19.9539 17.8628 20.0544 17.8239 20.1482C17.785 20.242 17.7281 20.3272 17.6562 20.399C17.5844 20.4707 17.4991 20.5276 17.4053 20.5664C17.3115 20.6052 17.2109 20.6251 17.1094 20.625ZM23.0859 9.86328H24.0766C24.9433 9.86473 25.7741 10.21 26.3866 10.8232C26.9991 11.4364 27.3433 12.2676 27.3438 13.1344V14.7953L27.8734 14.2664C28.0185 14.1214 28.2152 14.0399 28.4203 14.0399C28.6254 14.0399 28.8221 14.1214 28.9672 14.2664C29.1122 14.4114 29.1937 14.6082 29.1937 14.8133C29.1937 15.0184 29.1122 15.2151 28.9672 15.3602L27.1195 17.2086C26.9744 17.3534 26.7777 17.4348 26.5727 17.4348C26.3676 17.4348 26.1709 17.3534 26.0258 17.2086L24.1953 15.3734C24.0503 15.2284 23.9688 15.0317 23.9688 14.8266C23.9688 14.6214 24.0503 14.4247 24.1953 14.2797C24.3404 14.1346 24.5371 14.0532 24.7422 14.0532C24.9473 14.0532 25.144 14.1346 25.2891 14.2797L25.8031 14.7938V13.1344C25.8027 12.6772 25.6209 12.2389 25.2977 11.9156C24.9744 11.5924 24.5361 11.4106 24.0789 11.4102H23.0867C22.8818 11.4102 22.6853 11.3288 22.5404 11.1839C22.3955 11.0389 22.3141 10.8424 22.3141 10.6375C22.3141 10.4326 22.3955 10.2361 22.5404 10.0911C22.6853 9.94625 22.8818 9.86484 23.0867 9.86484L23.0859 9.86328ZM28.9992 21.8438C28.9998 22.3328 28.8554 22.811 28.5842 23.2179C28.3129 23.6248 27.9271 23.9421 27.4755 24.1297C27.0238 24.3173 26.5267 24.3667 26.047 24.2716C25.5673 24.1766 25.1266 23.9414 24.7806 23.5959C24.4346 23.2503 24.1988 22.8098 24.1032 22.3303C24.0076 21.8507 24.0563 21.3535 24.2433 20.9017C24.4303 20.4498 24.7472 20.0636 25.1537 19.7918C25.5603 19.5201 26.0383 19.375 26.5273 19.375C27.1822 19.3756 27.8101 19.6358 28.2734 20.0986C28.7368 20.5613 28.9978 21.1889 28.9992 21.8438ZM30.1648 30.9227H22.8906C22.6857 30.9227 22.4892 30.8413 22.3443 30.6964C22.1994 30.5515 22.118 30.3549 22.118 30.15C22.1102 29.566 22.2185 28.9862 22.4366 28.4444C22.6548 27.9025 22.9783 27.4094 23.3886 26.9937C23.7989 26.5779 24.2876 26.2478 24.8265 26.0225C25.3654 25.7972 25.9436 25.6811 26.5277 25.6811C27.1118 25.6811 27.6901 25.7972 28.229 26.0225C28.7679 26.2478 29.2566 26.5779 29.6669 26.9937C30.0771 27.4094 30.4007 27.9025 30.6188 28.4444C30.837 28.9862 30.9453 29.566 30.9375 30.15C30.9375 30.3549 30.8561 30.5515 30.7112 30.6964C30.5663 30.8413 30.3698 30.9227 30.1648 30.9227Z" fill="var(--fill-0, white)" fill-opacity="0.4"/>
</g>
</svg>
