<svg preserveAspectRatio="none" width="100%" height="100%" overflow="visible" style="display: block;" viewBox="0 0 32 32" fill="none" xmlns="http://www.w3.org/2000/svg">
<g id="Group">
<path id="Vector" d="M17.9469 5.81287L17.9197 5.8125C17.4107 5.82194 16.9995 6.239 16.9995 6.75025C16.9995 7.2615 17.4106 7.6785 17.9196 7.688L17.9454 7.68762C18.4582 7.68337 18.8753 7.26287 18.8753 6.75025C18.8754 6.23762 18.4582 5.81712 17.9469 5.81287ZM11.5466 17.1834H24.3284V19.0584H11.5466V17.1834ZM11.5466 13.4334H24.3284V15.3084H11.5466V13.4334ZM18.875 21.5259C18.875 22.0437 18.4553 22.4634 17.9375 22.4634C17.4197 22.4634 17 22.0437 17 21.5259V20.9335H11.5466V25.7218H12.4114C12.9291 25.7218 13.3489 26.1415 13.3489 26.6593V31.9958L24.3283 31.9912V20.9334H18.875V21.5259ZM0 22.0041V25.7214H4.87113V21.0666H0.9375C0.41975 21.0666 0 21.4863 0 22.0041Z" fill="var(--fill-0, white)" fill-opacity="0.4"/>
<path id="Vector_2" d="M27.8881 4.11188C25.2365 1.46031 21.7111 0 17.9611 0C14.2112 0 10.6858 1.46031 8.03413 4.11188C5.38256 6.7635 3.92225 10.2889 3.92225 14.0389V19.1903H5.80863C6.32638 19.1903 6.74613 19.6101 6.74613 20.1278V25.7204H9.67169V12.4947C9.67169 11.9769 10.0914 11.5572 10.6092 11.5572H25.2659C25.7837 11.5572 26.2034 11.9769 26.2034 12.4947V31.9891L31.0625 31.9871C31.5803 31.9871 32 31.5673 32 31.0496V14.0389C32 10.2889 30.5397 6.7635 27.8881 4.11188ZM17.9611 9.56131C17.9532 9.56138 17.9454 9.56188 17.9375 9.56188C16.3864 9.56188 15.1246 8.3 15.1246 6.74894C15.1246 5.19794 16.3864 3.936 17.9375 3.936C17.9454 3.936 17.9532 3.9365 17.9611 3.93656C19.5013 3.94938 20.7504 5.20581 20.7504 6.74888C20.7504 8.29194 19.5013 9.5485 17.9611 9.56131ZM0 31.0622C0 31.58 0.41975 31.9997 0.9375 31.9997L4.87113 31.9977V27.5952H0V31.0622ZM6.74613 31.997L11.4739 31.9953V27.5955H6.74613V31.997Z" fill="var(--fill-0, white)" fill-opacity="0.4"/>
</g>
</svg>
