<svg preserveAspectRatio="none" width="100%" height="100%" overflow="visible" style="display: block;" viewBox="0 0 17 16" fill="none" xmlns="http://www.w3.org/2000/svg">
<g id="Icon" clip-path="url(#clip0_2063_48573)">
<path id="Vector" d="M14.1856 14.7733H12.7456V15.52C12.7456 15.6622 12.7012 15.7778 12.6123 15.8667C12.5234 15.9556 12.4078 16 12.2656 16C12.1234 16 12.0078 15.9556 11.919 15.8667C11.8301 15.7778 11.7856 15.6622 11.7856 15.52V14.7733H4.74563V15.52C4.74563 15.6622 4.70118 15.7778 4.61229 15.8667C4.5234 15.9556 4.40785 16 4.26563 16C4.1234 16 4.00785 15.9556 3.91896 15.8667C3.83007 15.7778 3.78563 15.6622 3.78563 15.52V14.7733H2.34563C1.77674 14.7733 1.28785 14.5689 0.878958 14.16C0.470069 13.7511 0.265625 13.2622 0.265625 12.6933V2.08C0.265625 1.51111 0.470069 1.02222 0.878958 0.613333C1.28785 0.204444 1.77674 0 2.34563 0H14.1856C14.7545 0 15.2434 0.204444 15.6523 0.613333C16.0612 1.02222 16.2656 1.51111 16.2656 2.08V12.6933C16.2656 13.2622 16.0612 13.7511 15.6523 14.16C15.2434 14.5689 14.7545 14.7733 14.1856 14.7733ZM2.34563 13.76H3.78563V13.2267C3.78563 13.12 3.83007 13.0133 3.91896 12.9067C4.00785 12.8 4.1234 12.7467 4.26563 12.7467C4.40785 12.7467 4.5234 12.8 4.61229 12.9067C4.70118 13.0133 4.74563 13.12 4.74563 13.2267V13.76H11.7856V13.2267C11.7856 13.12 11.8301 13.0133 11.919 12.9067C12.0078 12.8 12.1234 12.7467 12.2656 12.7467C12.4078 12.7467 12.5234 12.8 12.6123 12.9067C12.7012 13.0133 12.7456 13.12 12.7456 13.2267V13.76H14.1856C14.5056 13.76 14.7634 13.6533 14.959 13.44C15.1545 13.2267 15.2523 12.9778 15.2523 12.6933V11.52H1.27896V12.6933C1.27896 12.9778 1.37674 13.2267 1.57229 13.44C1.76785 13.6533 2.02563 13.76 2.34563 13.76ZM14.1856 1.01333H2.34563C2.02563 1.01333 1.76785 1.11111 1.57229 1.30667C1.37674 1.50222 1.27896 1.76 1.27896 2.08V10.5067H15.2523V2.08C15.2523 1.76 15.1545 1.50222 14.959 1.30667C14.7634 1.11111 14.5056 1.01333 14.1856 1.01333Z" fill="var(--fill-0, #9CA3AF)"/>
</g>
<defs>
<clipPath id="clip0_2063_48573">
<rect width="16.53" height="16" fill="white"/>
</clipPath>
</defs>
</svg>
