<svg preserveAspectRatio="none" width="100%" height="100%" overflow="visible" style="display: block;" viewBox="0 0 39 39" fill="none" xmlns="http://www.w3.org/2000/svg">
<g id="Group">
<path id="Vector" fill-rule="evenodd" clip-rule="evenodd" d="M38.281 13.48V24.6016C38.2811 24.679 38.2659 24.7556 38.2363 24.8271C38.2067 24.8985 38.1633 24.9635 38.1086 25.0182C38.0539 25.0729 37.9889 25.1163 37.9174 25.1459C37.846 25.1755 37.7693 25.1907 37.692 25.1906H26.5704C25.5672 25.1906 24.7456 24.369 24.7456 23.3659C24.7456 22.3628 25.5673 21.5433 26.5704 21.5433H32.0537L22.7924 12.282L18.8261 16.246L16.2461 18.826L7.00252 9.58236L3.1115 13.4734C2.40283 14.1821 1.24236 14.1821 0.531504 13.4734C-0.177168 12.7625 -0.177168 11.6021 0.531504 10.8934L4.42252 7.00236L0.531582 3.11143C-0.17709 2.40275 -0.17709 1.24236 0.531582 0.531504C1.24244 -0.177168 2.40291 -0.177168 3.11158 0.531504L7.0026 4.42252L10.8936 0.531504C11.6023 -0.177168 12.7627 -0.177168 13.4736 0.531504C14.1823 1.24236 14.1823 2.40283 13.4736 3.11143L9.5826 7.00244L16.2462 13.6683L20.2125 9.70197L22.7925 7.12197L25.3725 9.70197L34.6338 18.9633V13.48C34.6338 12.4768 35.4532 11.6553 36.4564 11.6553C37.4596 11.6553 38.2813 12.4769 38.2813 13.48H38.281ZM32.1556 38.281H38.281V31.9296H32.1556V38.281ZM21.437 38.281H27.5625V28.8026H21.437V38.281ZM10.7185 38.281H16.844V23.1776H10.7185V38.281ZM1.95019e-05 38.281H6.12549V17.5526H9.7584e-05L1.95019e-05 38.281Z" fill="var(--fill-0, white)"/>
</g>
</svg>
