<svg preserveAspectRatio="none" width="100%" height="100%" overflow="visible" style="display: block;" viewBox="0 0 35 30" fill="none" xmlns="http://www.w3.org/2000/svg">
<g id="Group">
<path id="Vector" fill-rule="evenodd" clip-rule="evenodd" d="M12.9033 24.8107L13.7664 19.9833C13.7412 19.3336 13.4997 18.9658 12.9137 18.8569C12.3864 18.7589 10.4834 18.8569 10.4834 18.8569L5.26771 27.1947C4.65933 27.9337 4.01026 28.0356 3.48038 27.7883C2.9819 27.5556 2.76262 27.1427 2.70048 26.769C2.61528 26.2569 2.73911 26.0041 3.15548 25.2716L6.96165 18.8569V11.4461L2.82409 15.22C2.17819 15.8658 1.13096 15.8658 0.485066 15.22L0.484477 15.2194C0.330398 15.0653 0.208279 14.8823 0.125138 14.6809C0.0419962 14.4795 -0.000529269 14.2637 4.97183e-06 14.0458C0.000539213 13.8279 0.0441225 13.6123 0.128251 13.4113C0.212379 13.2103 0.335393 13.028 0.490226 12.8747L5.39603 8.00077C5.933 7.46905 6.65815 7.17077 7.41384 7.17075H12.1074C12.5232 7.17077 12.9317 7.06131 13.2918 6.85337L17.0173 4.70245C17.2078 4.59242 17.4182 4.52101 17.6363 4.49228C17.8544 4.46355 18.0761 4.47808 18.2886 4.53502C18.5011 4.59197 18.7003 4.69022 18.8749 4.82417C19.0494 4.95812 19.1959 5.12514 19.3058 5.31569L19.308 5.31952C19.5302 5.70433 19.5904 6.16161 19.4754 6.5908C19.3604 7.01998 19.0796 7.3859 18.6948 7.60806L13.9601 10.3416L14.3237 15.3461C14.3237 15.3461 15.214 16.0242 15.876 16.9003C16.4448 17.653 16.8944 18.9823 16.6886 20.3251L16.1675 22.9395C15.3066 23.5102 14.4053 24.0428 13.4813 24.5189C13.2894 24.6177 13.0968 24.715 12.9033 24.8107ZM10.133 0C11.7806 0 13.1181 1.33764 13.1181 2.98514C13.1181 4.63265 11.7806 5.97021 10.133 5.97021C8.48547 5.97021 7.1479 4.63265 7.1479 2.98514C7.1479 1.33764 8.48547 0 10.133 0ZM31.5456 8.47441C30.7941 12.7658 29.9149 19.0686 24.9352 23.1466C21.5428 25.9246 17.8076 27.1406 14.8404 27.909C8.46564 29.5601 1.7577 29.6583 1.7577 29.6583C1.7577 29.6583 7.7456 28.6349 13.954 25.4361C17.2012 23.763 20.1751 21.4156 22.1719 19.1384C25.2427 15.636 25.6372 12.0698 26.0015 8.47441H22.8039C22.7586 8.47441 22.7145 8.46051 22.6774 8.43459C22.6402 8.40867 22.612 8.37199 22.5964 8.3295C22.5808 8.28701 22.5786 8.24075 22.5901 8.19698C22.6016 8.1532 22.6263 8.11402 22.6608 8.08472L28.6602 2.99465C28.7003 2.96071 28.751 2.9421 28.8035 2.94215C28.856 2.94221 28.9067 2.96092 28.9467 2.99495L34.9223 8.08502C34.9567 8.11436 34.9813 8.15354 34.9928 8.19729C35.0042 8.24104 35.002 8.28725 34.9864 8.32969C34.9708 8.37213 34.9425 8.40875 34.9054 8.43463C34.8683 8.46051 34.8242 8.4744 34.779 8.47441H31.5456Z" fill="var(--fill-0, #4242FF)" fill-opacity="0.6"/>
</g>
</svg>
