<svg preserveAspectRatio="none" width="100%" height="100%" overflow="visible" style="display: block;" viewBox="0 0 40 40" fill="none" xmlns="http://www.w3.org/2000/svg">
<g id="tild3133-3564-4666-b365-373032646133__group_121122.svg" clip-path="url(#clip0_2053_40609)">
<path id="Vector" d="M32 0H8C3.58172 0 0 3.58172 0 8V32C0 36.4183 3.58172 40 8 40H32C36.4183 40 40 36.4183 40 32V8C40 3.58172 36.4183 0 32 0Z" fill="var(--fill-0, white)"/>
<path id="Vector_2" d="M29 20.0551C29 15.054 24.9708 11 20.0011 11C15.0292 11.0011 11 15.054 11 20.0562C11 24.5748 14.2913 28.3206 18.5928 29V22.6727H16.3093V20.0562H18.595V18.0596C18.595 15.7908 19.9393 14.5377 21.9944 14.5377C22.9798 14.5377 24.009 14.7143 24.009 14.7143V16.9415H22.874C21.757 16.9415 21.4083 17.64 21.4083 18.3566V20.0551H23.9033L23.5051 22.6715H21.4072V28.9989C25.7087 28.3195 29 24.5737 29 20.0551Z" fill="var(--fill-0, #111827)"/>
</g>
<defs>
<clipPath id="clip0_2053_40609">
<rect width="40" height="40" fill="white"/>
</clipPath>
</defs>
</svg>
