<svg preserveAspectRatio="none" width="100%" height="100%" overflow="visible" style="display: block;" viewBox="0 0 740 352" fill="none" xmlns="http://www.w3.org/2000/svg">
<g id="Ellipse 2173" opacity="0.2" filter="url(#filter0_f_2093_58565)">
<path d="M370 2.5C471.725 2.5 563.746 22.0575 630.279 53.6113C696.927 85.2193 737.5 128.591 737.5 176C737.5 223.409 696.927 266.781 630.279 298.389C563.746 329.943 471.725 349.5 370 349.5C268.275 349.5 176.254 329.943 109.721 298.389C43.0731 266.781 2.5 223.409 2.5 176C2.5 128.591 43.0731 85.2193 109.721 53.6113C176.254 22.0575 268.275 2.5 370 2.5Z" stroke="url(#paint0_linear_2093_58565)" stroke-width="3"/>
</g>
<defs>
<filter id="filter0_f_2093_58565" x="0" y="0" width="740" height="352" filterUnits="userSpaceOnUse" color-interpolation-filters="sRGB">
<feFlood flood-opacity="0" result="BackgroundImageFix"/>
<feBlend mode="normal" in="SourceGraphic" in2="BackgroundImageFix" result="shape"/>
<feGaussianBlur stdDeviation="0.5" result="effect1_foregroundBlur_2093_58565"/>
</filter>
<linearGradient id="paint0_linear_2093_58565" x1="370" y1="1" x2="370" y2="351" gradientUnits="userSpaceOnUse">
<stop stop-color="#5B5B5B"/>
<stop offset="0.307692" stop-color="white"/>
<stop offset="0.625" stop-color="#8B8B8B"/>
<stop offset="1" stop-color="white"/>
</linearGradient>
</defs>
</svg>
