<svg preserveAspectRatio="none" width="100%" height="100%" overflow="visible" style="display: block;" viewBox="0 0 1205 572" fill="none" xmlns="http://www.w3.org/2000/svg">
<g id="Ellipse 2164" opacity="0.2" filter="url(#filter0_f_2093_58590)">
<path d="M602.283 2.5C768.152 2.5 918.244 34.3251 1026.81 85.7129C1135.5 137.155 1202.07 207.927 1202.07 285.599C1202.07 363.271 1135.5 434.043 1026.81 485.485C918.244 536.873 768.152 568.698 602.283 568.698C436.415 568.698 286.323 536.873 177.754 485.485C69.07 434.043 2.5 363.271 2.5 285.599C2.50017 207.927 69.0701 137.155 177.754 85.7129C286.323 34.3252 436.415 2.50003 602.283 2.5Z" stroke="url(#paint0_linear_2093_58590)" stroke-width="3"/>
</g>
<defs>
<filter id="filter0_f_2093_58590" x="0" y="0" width="1204.57" height="571.198" filterUnits="userSpaceOnUse" color-interpolation-filters="sRGB">
<feFlood flood-opacity="0" result="BackgroundImageFix"/>
<feBlend mode="normal" in="SourceGraphic" in2="BackgroundImageFix" result="shape"/>
<feGaussianBlur stdDeviation="0.5" result="effect1_foregroundBlur_2093_58590"/>
</filter>
<linearGradient id="paint0_linear_2093_58590" x1="602.283" y1="1" x2="602.283" y2="570.198" gradientUnits="userSpaceOnUse">
<stop stop-color="#5B5B5B"/>
<stop offset="0.307692" stop-color="white"/>
<stop offset="0.625" stop-color="#8B8B8B"/>
<stop offset="1" stop-color="white"/>
</linearGradient>
</defs>
</svg>
