<svg preserveAspectRatio="none" width="100%" height="100%" overflow="visible" style="display: block;" viewBox="0 0 242 242" fill="none" xmlns="http://www.w3.org/2000/svg">
<g id="rocket-svgrepo-com 1" clip-path="url(#clip0_2179_46561)" filter="url(#filter0_f_2179_46561)">
<g id="Vector">
<path d="M53.6901 203.664C49.2156 212.969 46.387 219.175 21.4709 220.08C22.1834 196.041 26.7719 193.461 35.9417 188.887C39.7892 186.963 44.5844 184.576 49.7714 180.594L41.0931 169.514C36.9962 172.663 33.2271 174.316 29.5863 176.126C14.3031 183.75 7.09975 191.253 7.09975 227.034L7.22088 234.316L14.2248 234.159C51.9944 234.159 59.0552 225.624 66.1304 210.932C67.6765 207.711 68.5386 205.531 71.1535 201.192L60.5871 191.595C57.4236 195.919 55.4429 200.023 53.6901 203.65V203.664ZM163.964 49.009C148.203 49.009 135.385 61.8269 135.385 77.5803C135.385 93.3336 148.21 106.159 163.964 106.159C179.717 106.159 192.542 93.3336 192.542 77.5803C192.542 61.8269 179.717 49.009 163.964 49.009ZM163.964 91.8516C156.098 91.8516 149.692 85.4462 149.692 77.5874C149.692 69.7285 156.091 63.3231 163.964 63.3231C171.837 63.3231 178.235 69.7285 178.235 77.5874C178.235 85.4534 171.837 91.8516 163.964 91.8516ZM234.95 13.5265C234.736 9.97112 231.915 7.12113 228.36 6.8575C228.36 6.8575 188.488 3.9505 150.127 18.2789C136.112 23.5158 124.577 31.8021 113.811 44.3635C104.833 54.8372 95.9129 73.7613 88.0397 89.479C84.9974 95.5424 82.0904 101.349 79.6251 105.781H39.9887C37.951 105.781 36.013 106.657 34.6593 108.175L8.539 136.483C6.87175 138.371 6.316 140.993 7.0855 143.387C7.855 145.781 9.82862 147.605 12.2796 148.161L54.7945 157.879C57.6944 161.456 62.518 166.807 70.2415 175.378L86.3511 193.233L95.0222 229.913C95.5922 232.328 97.3806 234.28 99.7461 235.043C100.466 235.271 101.214 235.392 101.948 235.392C103.629 235.392 105.275 234.8 106.586 233.675L132.984 207.412C134.559 206.065 135.471 204.085 135.471 202.004V165.239C139.019 163.037 145.31 159.639 151.231 156.326C167.362 147.313 191.452 136.084 201.434 127.206C215.499 114.709 220.615 105.546 225.645 92.0013C237.601 59.7891 235.071 15.4004 234.95 13.5265ZM212.293 87.0351C207.904 98.8555 203.928 105.924 191.972 116.547C183.144 124.392 158.991 135.656 144.277 143.886C133.298 150.02 126.721 153.604 123.836 155.962C122.176 157.309 121.214 159.34 121.214 161.477V198.72L106.18 215.242L99.7746 188.167C99.4967 187.006 98.9339 185.93 98.1287 185.04C85.0259 170.519 65.2326 148.567 63.715 146.821C62.7246 145.617 61.3495 144.762 59.8034 144.406L27.1638 136.939L43.1736 120.017H83.7077C86.1872 120.017 88.4886 118.727 89.7782 116.625C92.9132 111.524 96.547 104.256 100.765 95.8559C107.904 81.6201 116.782 62.7816 124.619 53.6331C133.882 42.8316 143.28 36.0415 155.1 31.624C181.399 21.7986 208.531 20.7655 220.935 20.8581C221.163 33.9966 220.672 64.456 212.286 87.0423L212.293 87.0351Z" fill="url(#paint0_radial_2179_46561)"/>
<path d="M53.6901 203.664C49.2156 212.969 46.387 219.175 21.4709 220.08C22.1834 196.041 26.7719 193.461 35.9417 188.887C39.7892 186.963 44.5844 184.576 49.7714 180.594L41.0931 169.514C36.9962 172.663 33.2271 174.316 29.5863 176.126C14.3031 183.75 7.09975 191.253 7.09975 227.034L7.22088 234.316L14.2248 234.159C51.9944 234.159 59.0552 225.624 66.1304 210.932C67.6765 207.711 68.5386 205.531 71.1535 201.192L60.5871 191.595C57.4236 195.919 55.4429 200.023 53.6901 203.65V203.664ZM163.964 49.009C148.203 49.009 135.385 61.8269 135.385 77.5803C135.385 93.3336 148.21 106.159 163.964 106.159C179.717 106.159 192.542 93.3336 192.542 77.5803C192.542 61.8269 179.717 49.009 163.964 49.009ZM163.964 91.8516C156.098 91.8516 149.692 85.4462 149.692 77.5874C149.692 69.7285 156.091 63.3231 163.964 63.3231C171.837 63.3231 178.235 69.7285 178.235 77.5874C178.235 85.4534 171.837 91.8516 163.964 91.8516ZM234.95 13.5265C234.736 9.97112 231.915 7.12113 228.36 6.8575C228.36 6.8575 188.488 3.9505 150.127 18.2789C136.112 23.5158 124.577 31.8021 113.811 44.3635C104.833 54.8372 95.9129 73.7613 88.0397 89.479C84.9974 95.5424 82.0904 101.349 79.6251 105.781H39.9887C37.951 105.781 36.013 106.657 34.6593 108.175L8.539 136.483C6.87175 138.371 6.316 140.993 7.0855 143.387C7.855 145.781 9.82862 147.605 12.2796 148.161L54.7945 157.879C57.6944 161.456 62.518 166.807 70.2415 175.378L86.3511 193.233L95.0222 229.913C95.5922 232.328 97.3806 234.28 99.7461 235.043C100.466 235.271 101.214 235.392 101.948 235.392C103.629 235.392 105.275 234.8 106.586 233.675L132.984 207.412C134.559 206.065 135.471 204.085 135.471 202.004V165.239C139.019 163.037 145.31 159.639 151.231 156.326C167.362 147.313 191.452 136.084 201.434 127.206C215.499 114.709 220.615 105.546 225.645 92.0013C237.601 59.7891 235.071 15.4004 234.95 13.5265ZM212.293 87.0351C207.904 98.8555 203.928 105.924 191.972 116.547C183.144 124.392 158.991 135.656 144.277 143.886C133.298 150.02 126.721 153.604 123.836 155.962C122.176 157.309 121.214 159.34 121.214 161.477V198.72L106.18 215.242L99.7746 188.167C99.4967 187.006 98.9339 185.93 98.1287 185.04C85.0259 170.519 65.2326 148.567 63.715 146.821C62.7246 145.617 61.3495 144.762 59.8034 144.406L27.1638 136.939L43.1736 120.017H83.7077C86.1872 120.017 88.4886 118.727 89.7782 116.625C92.9132 111.524 96.547 104.256 100.765 95.8559C107.904 81.6201 116.782 62.7816 124.619 53.6331C133.882 42.8316 143.28 36.0415 155.1 31.624C181.399 21.7986 208.531 20.7655 220.935 20.8581C221.163 33.9966 220.672 64.456 212.286 87.0423L212.293 87.0351Z" fill="var(--fill-1, #FF8829)" fill-opacity="0.2"/>
</g>
</g>
<defs>
<filter id="filter0_f_2179_46561" x="0.5" y="0.5" width="241" height="241" filterUnits="userSpaceOnUse" color-interpolation-filters="sRGB">
<feFlood flood-opacity="0" result="BackgroundImageFix"/>
<feBlend mode="normal" in="SourceGraphic" in2="BackgroundImageFix" result="shape"/>
<feGaussianBlur stdDeviation="3.25" result="effect1_foregroundBlur_2179_46561"/>
</filter>
<radialGradient id="paint0_radial_2179_46561" cx="0" cy="0" r="1" gradientTransform="matrix(13.3 196.84 -487.659 381.83 85.6603 35.1212)" gradientUnits="userSpaceOnUse">
<stop stop-color="#713607"/>
<stop offset="0.635171" stop-color="#E0690A"/>
<stop offset="1" stop-color="#FF8829"/>
</radialGradient>
<clipPath id="clip0_2179_46561">
<rect width="228" height="228" fill="white" transform="translate(7 7)"/>
</clipPath>
</defs>
</svg>
