<svg preserveAspectRatio="none" width="100%" height="100%" overflow="visible" style="display: block;" viewBox="0 0 18 24" fill="none" xmlns="http://www.w3.org/2000/svg">
<g id="Group">
<path id="Vector" d="M15.75 9H15V6C15 2.691 12.309 0 9 0C5.691 0 3 2.691 3 6V9H2.25C1.65351 9.00079 1.08167 9.2381 0.659886 9.65989C0.238101 10.0817 0.000793738 10.6535 0 11.25V21.75C0 22.991 1.01 24 2.25 24H15.75C16.99 24 18 22.991 18 21.75V11.25C18 10.009 16.99 9 15.75 9ZM5 6C5 3.794 6.794 2 9 2C11.206 2 13 3.794 13 6V9H5V6ZM10 16.722V19C10 19.2652 9.89464 19.5196 9.70711 19.7071C9.51957 19.8946 9.26522 20 9 20C8.73478 20 8.48043 19.8946 8.29289 19.7071C8.10536 19.5196 8 19.2652 8 19V16.722C7.405 16.375 7 15.737 7 15C7 13.897 7.897 13 9 13C10.103 13 11 13.897 11 15C11 15.737 10.595 16.375 10 16.722Z" fill="var(--fill-0, white)"/>
</g>
</svg>
