<svg preserveAspectRatio="none" width="100%" height="100%" overflow="visible" style="display: block;" viewBox="0 0 52 44" fill="none" xmlns="http://www.w3.org/2000/svg">
<g id="Vector" filter="url(#filter0_d_2172_46144)">
<path d="M37.7746 7H6.10816C3.83929 7 2 8.83928 2 11.1082V33.223C2 35.4919 3.83929 37.3312 6.10816 37.3312H37.7746C40.0435 37.3312 41.8827 35.4919 41.8827 33.223V11.1082C41.8827 8.83928 40.0435 7 37.7746 7Z" fill="url(#paint0_radial_2172_46144)"/>
<path d="M37.7746 7H6.10816C3.83929 7 2 8.83928 2 11.1082V33.223C2 35.4919 3.83929 37.3312 6.10816 37.3312H37.7746C40.0435 37.3312 41.8827 35.4919 41.8827 33.223V11.1082C41.8827 8.83928 40.0435 7 37.7746 7Z" fill="url(#paint1_radial_2172_46144)"/>
</g>
<defs>
<filter id="filter0_d_2172_46144" x="0" y="0.98" width="51.9227" height="42.3712" filterUnits="userSpaceOnUse" color-interpolation-filters="sRGB">
<feFlood flood-opacity="0" result="BackgroundImageFix"/>
<feColorMatrix in="SourceAlpha" type="matrix" values="0 0 0 0 0 0 0 0 0 0 0 0 0 0 0 0 0 0 127 0" result="hardAlpha"/>
<feOffset dx="4.02"/>
<feGaussianBlur stdDeviation="3.01"/>
<feColorMatrix type="matrix" values="0 0 0 0 0 0 0 0 0 0 0 0 0 0 0 0 0 0 0.25 0"/>
<feBlend mode="normal" in2="BackgroundImageFix" result="effect1_dropShadow_2172_46144"/>
<feBlend mode="normal" in="SourceGraphic" in2="effect1_dropShadow_2172_46144" result="shape"/>
</filter>
<radialGradient id="paint0_radial_2172_46144" cx="0" cy="0" r="1" gradientUnits="userSpaceOnUse" gradientTransform="translate(31.7756 10.1238) scale(33.913 33.913)">
<stop stop-color="#4242FF"/>
<stop offset="1" stop-color="#303085"/>
</radialGradient>
<radialGradient id="paint1_radial_2172_46144" cx="0" cy="0" r="1" gradientUnits="userSpaceOnUse" gradientTransform="translate(21.7512 12.2601) scale(27.747 27.7903)">
<stop stop-color="#CE15CB"/>
<stop offset="0.81" stop-color="#D210E8"/>
<stop offset="0.93" stop-color="#D210E8"/>
<stop offset="1" stop-color="#C527F2"/>
</radialGradient>
</defs>
</svg>
