<svg preserveAspectRatio="none" width="100%" height="100%" overflow="visible" style="display: block;" viewBox="0 0 37 36" fill="none" xmlns="http://www.w3.org/2000/svg">
<g id="Group">
<path id="Vector" fill-rule="evenodd" clip-rule="evenodd" d="M23.8491 10.8974H12.2105C12.4788 7.91897 14.9815 5.58481 18.0298 5.58481C21.078 5.58481 23.5807 7.91897 23.8491 10.8974ZM18.0298 5.56596C19.5626 5.56596 20.8127 4.31579 20.8127 2.78294C20.8127 1.2501 19.5625 0 18.0298 0C16.497 0 15.2468 1.25017 15.2468 2.78294C15.2468 4.31572 16.4969 5.56596 18.0298 5.56596ZM31.2941 12.5786C28.7978 12.5786 26.7482 14.4901 26.5286 16.9292H36.0596C35.8399 14.4901 33.7904 12.5786 31.2941 12.5786H31.2941ZM31.2941 12.5632C32.5493 12.5632 33.5731 11.5395 33.5731 10.2842C33.5731 9.02893 32.5493 8.00518 31.2941 8.00518C30.0389 8.00518 29.015 9.02901 29.015 10.2842C29.015 11.5394 30.0388 12.5632 31.2941 12.5632ZM4.76548 12.5786C2.26919 12.5786 0.219665 14.4901 0 16.9292H9.53104C9.3113 14.4901 7.26178 12.5786 4.76548 12.5786ZM4.76548 12.5632C6.02069 12.5632 7.04451 11.5395 7.04451 10.2842C7.04451 9.02893 6.02076 8.00518 4.76548 8.00518C3.5102 8.00518 2.48645 9.02901 2.48645 10.2842C2.48645 11.5394 3.5102 12.5632 4.76548 12.5632ZM18.5552 24.8535V27.7714C20.6986 27.8373 22.7879 28.306 24.7249 29.1405C25.5831 26.7177 26.066 23.8932 26.117 20.9227H25.1003V23.1978C25.1003 24.1103 24.3575 24.8535 23.4442 24.8535H18.5552ZM16.0366 18.8352H12.6579C12.4372 18.8355 12.2182 18.7979 12.0103 18.7241V23.1978C12.0103 23.5312 12.2814 23.8023 12.6148 23.8023H23.4441C23.7775 23.8023 24.0486 23.5312 24.0486 23.1978V18.7241C23.8408 18.7978 23.6219 18.8354 23.4014 18.8352H20.0227C19.9879 19.2616 19.6307 19.599 19.1952 19.599H16.8641C16.4286 19.599 16.071 19.2616 16.0366 18.8352ZM16.9841 17.9488V18.6701H19.0752V17.9488H16.9841ZM12.3994 31.5788C13.8028 34.21 15.5993 35.7589 17.504 36V28.8234C15.4911 28.8896 13.5295 29.3341 11.7124 30.1225C11.9241 30.6297 12.1533 31.1162 12.3994 31.5788ZM11.472 32.0728C11.2172 31.5961 10.9808 31.0951 10.7614 30.5732C9.70805 31.1163 8.71887 31.7758 7.81233 32.5391C9.74027 34.1637 12.0591 35.3383 14.6049 35.9001C13.4364 35.0513 12.3714 33.7604 11.472 32.0728ZM24.5873 32.0728C23.6874 33.7604 22.6228 35.0512 21.454 35.9C23.9998 35.3382 26.3191 34.1636 28.2469 32.5391C27.3403 31.7757 26.3509 31.1163 25.2975 30.5731C25.0785 31.0951 24.8418 31.596 24.5873 32.0728V32.0728ZM23.6595 31.5788C23.906 31.1162 24.1351 30.6297 24.3469 30.1225C22.5293 29.3341 20.5685 28.8896 18.5552 28.8234V36C20.4607 35.7589 22.2561 34.21 23.6595 31.5788ZM11.5364 15.395C11.5237 15.3204 11.5378 15.2665 11.5867 15.2093C11.6349 15.1517 11.6852 15.1282 11.7608 15.1282H14.8777V14.4603C14.8777 14.1231 15.0157 13.8164 15.2377 13.5945C15.4596 13.3726 15.7663 13.2346 16.1035 13.2346H19.956C20.2932 13.2346 20.5999 13.3725 20.8218 13.5945C21.0437 13.8164 21.1818 14.1231 21.1818 14.4603V15.1282H24.2981C24.3741 15.1282 24.4244 15.1517 24.4722 15.2093C24.5211 15.2664 24.5356 15.3204 24.5225 15.395L24.2177 17.135C24.1533 17.5054 23.8018 17.7837 23.4015 17.7837H20.0228C19.988 17.3573 19.6307 17.0199 19.1953 17.0199H16.8642C16.4287 17.0199 16.071 17.3573 16.0366 17.7837H12.6579C12.2576 17.7837 11.9061 17.5053 11.8417 17.135L11.5366 15.395H11.5364ZM15.9291 15.1283H20.1304V14.4604C20.1304 14.4134 20.1105 14.3699 20.0785 14.3379C20.0465 14.3059 20.003 14.286 19.956 14.286H16.1035C16.0565 14.286 16.013 14.3059 15.981 14.3379C15.949 14.3699 15.9291 14.4134 15.9291 14.4604V15.1283ZM10.9591 23.1979V20.9228H9.94221C9.99328 23.8932 10.4762 26.7178 11.3344 29.1405C13.2714 28.3062 15.3607 27.8374 17.504 27.7715V24.8536H12.6148C11.7019 24.8536 10.9591 24.1104 10.9591 23.1979ZM8.89067 20.9228H2.16263C2.30231 25.1993 4.14156 29.0525 7.02476 31.8289C8.04939 30.9506 9.17556 30.1982 10.3792 29.5879C9.4594 27.0308 8.94324 24.0493 8.89075 20.9228H8.89067ZM25.6808 29.5879C26.8843 30.1982 28.0102 30.9506 29.0346 31.8289C31.9178 29.0525 33.7569 25.1993 33.8967 20.9228H27.1682C27.1165 24.0493 26.5999 27.0302 25.6808 29.5879Z" fill="var(--fill-0, white)" fill-opacity="0.4"/>
</g>
</svg>
