<svg preserveAspectRatio="none" width="100%" height="100%" overflow="visible" style="display: block;" viewBox="0 0 24 28" fill="none" xmlns="http://www.w3.org/2000/svg">
<g id="Group">
<g id="Group_2" filter="url(#filter0_i_2174_46420)">
<path id="Vector" d="M-6.56362e-05 18.4736C-6.56362e-05 12.2257 5.06534 7.16031 11.3132 7.16031H11.8671C18.114 7.16031 23.1804 12.2257 23.1804 18.4736V18.755C23.1804 21.051 22.2683 23.253 20.6448 24.8765C19.0213 26.5 16.8193 27.4121 14.5233 27.4121H8.65707C6.36105 27.4121 4.15908 26.5 2.53555 24.8765C0.912023 23.253 -6.56362e-05 21.051 -6.56362e-05 18.755V18.4736Z" fill="url(#paint0_radial_2174_46420)"/>
<path id="Vector_2" d="M-6.56362e-05 18.4736C-6.56362e-05 12.2257 5.06534 7.16031 11.3132 7.16031H11.8671C18.114 7.16031 23.1804 12.2257 23.1804 18.4736V18.755C23.1804 21.051 22.2683 23.253 20.6448 24.8765C19.0213 26.5 16.8193 27.4121 14.5233 27.4121H8.65707C6.36105 27.4121 4.15908 26.5 2.53555 24.8765C0.912023 23.253 -6.56362e-05 21.051 -6.56362e-05 18.755V18.4736Z" fill="url(#paint1_radial_2174_46420)"/>
</g>
<path id="Vector_3" d="M-6.56362e-05 18.4736C-6.56362e-05 12.2257 5.06534 7.16031 11.3132 7.16031H11.8671C18.114 7.16031 23.1804 12.2257 23.1804 18.4736V18.755C23.1804 21.051 22.2683 23.253 20.6448 24.8765C19.0213 26.5 16.8193 27.4121 14.5233 27.4121H8.65707C6.36105 27.4121 4.15908 26.5 2.53555 24.8765C0.912023 23.253 -6.56362e-05 21.051 -6.56362e-05 18.755V18.4736Z" fill="url(#paint2_radial_2174_46420)"/>
<path id="Vector_4" d="M-6.56362e-05 18.4736C-6.56362e-05 12.2257 5.06534 7.16031 11.3132 7.16031H11.8671C18.114 7.16031 23.1804 12.2257 23.1804 18.4736V18.755C23.1804 21.051 22.2683 23.253 20.6448 24.8765C19.0213 26.5 16.8193 27.4121 14.5233 27.4121H8.65707C6.36105 27.4121 4.15908 26.5 2.53555 24.8765C0.912023 23.253 -6.56362e-05 21.051 -6.56362e-05 18.755V18.4736Z" fill="url(#paint3_radial_2174_46420)"/>
<g id="Group_3" filter="url(#filter1_ii_2174_46420)">
<path id="Vector_5" d="M7.59363 2.54788C8.056 3.33588 8.72988 4.34719 9.59559 5.1765H13.5848C14.4505 4.34719 15.1234 3.33686 15.5867 2.54788C15.6422 2.45114 15.6772 2.34408 15.6897 2.23328C15.7021 2.12249 15.6918 2.01032 15.6592 1.90367C15.6267 1.79703 15.5727 1.69819 15.5005 1.61323C15.4283 1.52826 15.3394 1.45899 15.2395 1.40967C14.9246 1.24833 14.5548 1.32506 14.2488 1.50312C13.5582 1.90548 13.1598 1.43131 12.5508 0.499683C12.2449 0.0314103 11.7776 0.00681619 11.5897 0.00386489C11.4028 0.00681619 10.9355 0.0314103 10.6295 0.499683C10.0196 1.43131 9.62215 1.90548 8.93155 1.50312C8.6256 1.32506 8.2557 1.24833 7.93992 1.40967C7.84001 1.45908 7.75127 1.52842 7.67918 1.61342C7.60708 1.69842 7.55316 1.79728 7.52071 1.90391C7.48827 2.01055 7.47801 2.12269 7.49055 2.23344C7.50309 2.34419 7.53817 2.4512 7.59363 2.54788Z" fill="url(#paint4_linear_2174_46420)"/>
</g>
<g id="Group_4" filter="url(#filter2_i_2174_46420)">
<path id="Vector_6" d="M13.3536 5.18312H9.78052C9.2095 5.18312 8.74659 5.64603 8.74659 6.21706V6.22395C8.74659 6.79498 9.2095 7.25789 9.78052 7.25789H13.3536C13.9246 7.25789 14.3875 6.79498 14.3875 6.22395V6.21706C14.3875 5.64603 13.9246 5.18312 13.3536 5.18312Z" fill="url(#paint5_linear_2174_46420)"/>
<path id="Vector_7" d="M13.3536 5.18312H9.78052C9.2095 5.18312 8.74659 5.64603 8.74659 6.21706V6.22395C8.74659 6.79498 9.2095 7.25789 9.78052 7.25789H13.3536C13.9246 7.25789 14.3875 6.79498 14.3875 6.22395V6.21706C14.3875 5.64603 13.9246 5.18312 13.3536 5.18312Z" fill="url(#paint6_radial_2174_46420)"/>
</g>
<path id="Vector_8" d="M13.3536 5.18312H9.78052C9.2095 5.18312 8.74659 5.64603 8.74659 6.21706V6.22395C8.74659 6.79498 9.2095 7.25789 9.78052 7.25789H13.3536C13.9246 7.25789 14.3875 6.79498 14.3875 6.22395V6.21706C14.3875 5.64603 13.9246 5.18312 13.3536 5.18312Z" fill="url(#paint7_radial_2174_46420)"/>
</g>
<defs>
<filter id="filter0_i_2174_46420" x="-6.56362e-05" y="6.7668" width="23.4428" height="20.6453" filterUnits="userSpaceOnUse" color-interpolation-filters="sRGB">
<feFlood flood-opacity="0" result="BackgroundImageFix"/>
<feBlend mode="normal" in="SourceGraphic" in2="BackgroundImageFix" result="shape"/>
<feColorMatrix in="SourceAlpha" type="matrix" values="0 0 0 0 0 0 0 0 0 0 0 0 0 0 0 0 0 0 127 0" result="hardAlpha"/>
<feOffset dx="0.262337" dy="-0.393506"/>
<feGaussianBlur stdDeviation="0.459091"/>
<feComposite in2="hardAlpha" operator="arithmetic" k2="-1" k3="1"/>
<feColorMatrix type="matrix" values="0 0 0 0 0.713726 0 0 0 0 0.321569 0 0 0 0 0.211765 0 0 0 1 0"/>
<feBlend mode="normal" in2="shape" result="effect1_innerShadow_2174_46420"/>
</filter>
<filter id="filter1_ii_2174_46420" x="7.43289" y="-0.0617195" width="8.28811" height="5.29069" filterUnits="userSpaceOnUse" color-interpolation-filters="sRGB">
<feFlood flood-opacity="0" result="BackgroundImageFix"/>
<feBlend mode="normal" in="SourceGraphic" in2="BackgroundImageFix" result="shape"/>
<feColorMatrix in="SourceAlpha" type="matrix" values="0 0 0 0 0 0 0 0 0 0 0 0 0 0 0 0 0 0 127 0" result="hardAlpha"/>
<feOffset dx="-0.0524675" dy="0.0524675"/>
<feGaussianBlur stdDeviation="0.0393506"/>
<feComposite in2="hardAlpha" operator="arithmetic" k2="-1" k3="1"/>
<feColorMatrix type="matrix" values="0 0 0 0 1 0 0 0 0 0.92549 0 0 0 0 0.403922 0 0 0 1 0"/>
<feBlend mode="normal" in2="shape" result="effect1_innerShadow_2174_46420"/>
<feColorMatrix in="SourceAlpha" type="matrix" values="0 0 0 0 0 0 0 0 0 0 0 0 0 0 0 0 0 0 127 0" result="hardAlpha"/>
<feOffset dx="0.0262337" dy="-0.0655844"/>
<feGaussianBlur stdDeviation="0.0655844"/>
<feComposite in2="hardAlpha" operator="arithmetic" k2="-1" k3="1"/>
<feColorMatrix type="matrix" values="0 0 0 0 0.788235 0 0 0 0 0.364706 0 0 0 0 0.12549 0 0 0 1 0"/>
<feBlend mode="normal" in2="effect1_innerShadow_2174_46420" result="effect2_innerShadow_2174_46420"/>
</filter>
<filter id="filter2_i_2174_46420" x="8.74659" y="5.02572" width="5.64091" height="2.23216" filterUnits="userSpaceOnUse" color-interpolation-filters="sRGB">
<feFlood flood-opacity="0" result="BackgroundImageFix"/>
<feBlend mode="normal" in="SourceGraphic" in2="BackgroundImageFix" result="shape"/>
<feColorMatrix in="SourceAlpha" type="matrix" values="0 0 0 0 0 0 0 0 0 0 0 0 0 0 0 0 0 0 127 0" result="hardAlpha"/>
<feOffset dy="-0.157402"/>
<feGaussianBlur stdDeviation="0.131169"/>
<feComposite in2="hardAlpha" operator="arithmetic" k2="-1" k3="1"/>
<feColorMatrix type="matrix" values="0 0 0 0 0.388235 0 0 0 0 0.223529 0 0 0 0 0.109804 0 0 0 1 0"/>
<feBlend mode="normal" in2="shape" result="effect1_innerShadow_2174_46420"/>
</filter>
<radialGradient id="paint0_radial_2174_46420" cx="0" cy="0" r="1" gradientUnits="userSpaceOnUse" gradientTransform="translate(14.7556 9.05916) rotate(100.07) scale(18.1097 18.9679)">
<stop stop-color="#F6C93B"/>
<stop offset="1" stop-color="#E88340"/>
</radialGradient>
<radialGradient id="paint1_radial_2174_46420" cx="0" cy="0" r="1" gradientUnits="userSpaceOnUse" gradientTransform="translate(19.3067 11.8862) rotate(133.199) scale(6.91621 11.5874)">
<stop stop-color="#FFE065"/>
<stop offset="1" stop-color="#FFE065" stop-opacity="0"/>
</radialGradient>
<radialGradient id="paint2_radial_2174_46420" cx="0" cy="0" r="1" gradientUnits="userSpaceOnUse" gradientTransform="translate(1.59855 11.8873) rotate(31.6513) scale(5.2727 13.0676)">
<stop offset="0.187" stop-color="#FFA45D"/>
<stop offset="1" stop-color="#FFA45D" stop-opacity="0"/>
</radialGradient>
<radialGradient id="paint3_radial_2174_46420" cx="0" cy="0" r="1" gradientUnits="userSpaceOnUse" gradientTransform="translate(11.5897 22.7697) rotate(-90) scale(16.0477 24.1782)">
<stop offset="0.928" stop-color="#F3BD46" stop-opacity="0"/>
<stop offset="0.98" stop-color="#917011"/>
</radialGradient>
<linearGradient id="paint4_linear_2174_46420" x1="12.8233" y1="1.75694" x2="11.5897" y2="5.1765" gradientUnits="userSpaceOnUse">
<stop stop-color="#F3C048"/>
<stop offset="1" stop-color="#E67A41"/>
</linearGradient>
<linearGradient id="paint5_linear_2174_46420" x1="9.53065" y1="6.221" x2="14.3875" y2="6.221" gradientUnits="userSpaceOnUse">
<stop stop-color="#834B41"/>
<stop offset="1" stop-color="#735854"/>
</linearGradient>
<radialGradient id="paint6_radial_2174_46420" cx="0" cy="0" r="1" gradientUnits="userSpaceOnUse" gradientTransform="translate(13.4037 5.89832) rotate(180) scale(1.83688 1.38342)">
<stop stop-color="#7D5A54"/>
<stop offset="1" stop-color="#7D5A54" stop-opacity="0"/>
</radialGradient>
<radialGradient id="paint7_radial_2174_46420" cx="0" cy="0" r="1" gradientUnits="userSpaceOnUse" gradientTransform="translate(13.6497 6.221) rotate(180) scale(5.44145 4.35909)">
<stop offset="0.695" stop-color="#B3624D" stop-opacity="0"/>
<stop offset="0.96" stop-color="#B3624D"/>
</radialGradient>
</defs>
</svg>
