<svg preserveAspectRatio="none" width="100%" height="100%" overflow="visible" style="display: block;" viewBox="0 0 264 257" fill="none" xmlns="http://www.w3.org/2000/svg">
<g id="calendar-alt-svgrepo-com 1" clip-path="url(#clip0_2179_46564)" filter="url(#filter0_f_2179_46564)">
<g id="Vector">
<path d="M77 92.25H269.75M119.833 28V49.4167M226.917 28V49.4167M109.125 135.083H130.542M109.125 177.917H130.542M162.667 135.083H184.083M162.667 177.917H184.083M216.208 135.083H237.625M216.208 177.917H237.625M111.267 220.75H235.483C247.478 220.75 253.475 220.75 258.057 218.416C262.086 216.363 265.363 213.086 267.416 209.057C269.75 204.475 269.75 198.478 269.75 186.483V83.6833C269.75 71.6888 269.75 65.6916 267.416 61.1104C265.363 57.0805 262.086 53.8042 258.057 51.751C253.475 49.4167 247.478 49.4167 235.483 49.4167H111.267C99.2723 49.4167 93.275 49.4167 88.6937 51.751C84.6638 53.8042 81.3875 57.0805 79.3343 61.1104C77 65.6916 77 71.6888 77 83.6833V186.483C77 198.478 77 204.475 79.3343 209.057C81.3875 213.086 84.6638 216.363 88.6937 218.416C93.275 220.75 99.2722 220.75 111.267 220.75Z" stroke="url(#paint0_radial_2179_46564)" stroke-width="12" stroke-linecap="round" stroke-linejoin="round"/>
<path d="M77 92.25H269.75M119.833 28V49.4167M226.917 28V49.4167M109.125 135.083H130.542M109.125 177.917H130.542M162.667 135.083H184.083M162.667 177.917H184.083M216.208 135.083H237.625M216.208 177.917H237.625M111.267 220.75H235.483C247.478 220.75 253.475 220.75 258.057 218.416C262.086 216.363 265.363 213.086 267.416 209.057C269.75 204.475 269.75 198.478 269.75 186.483V83.6833C269.75 71.6888 269.75 65.6916 267.416 61.1104C265.363 57.0805 262.086 53.8042 258.057 51.751C253.475 49.4167 247.478 49.4167 235.483 49.4167H111.267C99.2723 49.4167 93.275 49.4167 88.6937 51.751C84.6638 53.8042 81.3875 57.0805 79.3343 61.1104C77 65.6916 77 71.6888 77 83.6833V186.483C77 198.478 77 204.475 79.3343 209.057C81.3875 213.086 84.6638 216.363 88.6937 218.416C93.275 220.75 99.2722 220.75 111.267 220.75Z" stroke="var(--stroke-1, #FF8829)" stroke-opacity="0.2" stroke-width="12" stroke-linecap="round" stroke-linejoin="round"/>
</g>
</g>
<defs>
<filter id="filter0_f_2179_46564" x="-6.5" y="-6.5" width="270" height="270" filterUnits="userSpaceOnUse" color-interpolation-filters="sRGB">
<feFlood flood-opacity="0" result="BackgroundImageFix"/>
<feBlend mode="normal" in="SourceGraphic" in2="BackgroundImageFix" result="shape"/>
<feGaussianBlur stdDeviation="3.25" result="effect1_foregroundBlur_2179_46564"/>
</filter>
<radialGradient id="paint0_radial_2179_46564" cx="0" cy="0" r="1" gradientTransform="matrix(3.34268 68.6518 -172.58 129.795 142.319 12.2685)" gradientUnits="userSpaceOnUse">
<stop stop-color="#713607"/>
<stop offset="0.635171" stop-color="#E0690A"/>
<stop offset="1" stop-color="#FF8829"/>
</radialGradient>
<clipPath id="clip0_2179_46564">
<rect width="257" height="257" fill="white"/>
</clipPath>
</defs>
</svg>
