<svg preserveAspectRatio="none" width="100%" height="100%" overflow="visible" style="display: block;" viewBox="0 0 187 48" fill="none" xmlns="http://www.w3.org/2000/svg">
<g id="Company logo">
<g id="Logomark">
<path id="Ring" fill-rule="evenodd" clip-rule="evenodd" d="M22 36.4667C28.8851 36.4667 34.4667 30.8851 34.4667 24C34.4667 17.1148 28.8851 11.5333 22 11.5333C15.1148 11.5333 9.53333 17.1148 9.53333 24C9.53333 30.8851 15.1148 36.4667 22 36.4667ZM22 46C34.1503 46 44 36.1503 44 24C44 11.8497 34.1503 2 22 2C9.84973 2 0 11.8497 0 24C0 36.1503 9.84973 46 22 46Z" fill="var(--fill-0, #6938EF)"/>
<path id="Descender" d="M22.2501 24.4804C24.5412 22.1893 28.2557 22.1893 30.5468 24.4804L41.9548 35.8884C44.2459 38.1795 44.2459 41.894 41.9548 44.1851V44.1851C39.6637 46.4762 35.9491 46.4762 33.6581 44.1851L22.2501 32.7771C19.959 30.486 19.959 26.7715 22.2501 24.4804V24.4804Z" fill="var(--fill-0, #F670C7)"/>
<path id="Intersect" d="M25.4531 35.9825L32.6985 43.2279C36.1736 41.2897 39.0689 38.4367 41.0586 34.9946L33.8726 27.8086C32.6104 31.748 29.4422 34.8344 25.4531 35.9825Z" fill="var(--fill-0, #6519BA)"/>
</g>
<g id="Logotype">
<path d="M79.5218 36.1008C78.8871 36.8848 78.1124 37.4822 77.1978 37.8928C76.3018 38.3035 75.3124 38.5088 74.2298 38.5088C72.7738 38.5088 71.4578 38.1915 70.2818 37.5568C69.1058 36.9408 67.7618 35.8395 66.2498 34.2528C64.4764 34.0288 62.8898 33.4595 61.4898 32.5448C60.1084 31.6302 59.0258 30.4542 58.2418 29.0168C57.4764 27.5608 57.0938 25.9555 57.0938 24.2008C57.0938 22.2782 57.5511 20.5515 58.4658 19.0208C59.3991 17.4715 60.6778 16.2582 62.3018 15.3808C63.9444 14.5035 65.7831 14.0648 67.8178 14.0648C69.8524 14.0648 71.6818 14.5035 73.3058 15.3808C74.9298 16.2582 76.2084 17.4715 77.1418 19.0208C78.0751 20.5515 78.5418 22.2782 78.5418 24.2008C78.5418 26.4782 77.8978 28.4755 76.6098 30.1928C75.3404 31.9102 73.6511 33.1048 71.5417 33.7768C72.0084 34.2622 72.4564 34.6075 72.8858 34.8128C73.3338 35.0368 73.8098 35.1488 74.3138 35.1488C75.5271 35.1488 76.5911 34.6635 77.5057 33.6928L79.5218 36.1008ZM61.6858 24.2008C61.6858 25.4142 61.9471 26.4968 62.4698 27.4488C63.0111 28.4008 63.7484 29.1475 64.6818 29.6888C65.6151 30.2115 66.6604 30.4728 67.8178 30.4728C68.9751 30.4728 70.0204 30.2115 70.9538 29.6888C71.8871 29.1475 72.6151 28.4008 73.1378 27.4488C73.6791 26.4968 73.9498 25.4142 73.9498 24.2008C73.9498 22.9875 73.6791 21.9048 73.1378 20.9528C72.6151 20.0008 71.8871 19.2635 70.9538 18.7408C70.0204 18.1995 68.9751 17.9288 67.8178 17.9288C66.6604 17.9288 65.6151 18.1995 64.6818 18.7408C63.7484 19.2635 63.0111 20.0008 62.4698 20.9528C61.9471 21.9048 61.6858 22.9875 61.6858 24.2008Z" fill="var(--fill-0, #101828)"/>
<path d="M96.8188 18.9368V34.0008H92.6748V32.2088C92.0961 32.8622 91.4054 33.3662 90.6028 33.7208C89.8001 34.0568 88.9321 34.2248 87.9988 34.2248C86.0201 34.2248 84.4521 33.6555 83.2948 32.5168C82.1374 31.3782 81.5588 29.6888 81.5588 27.4488V18.9368H85.9268V26.8048C85.9268 29.2315 86.9441 30.4448 88.9788 30.4448C90.0241 30.4448 90.8641 30.1088 91.4988 29.4368C92.1334 28.7462 92.4508 27.7288 92.4508 26.3848V18.9368H96.8188Z" fill="var(--fill-0, #101828)"/>
<path d="M108.033 34.2248C106.447 34.2248 105.019 33.8982 103.749 33.2448C102.499 32.5728 101.519 31.6488 100.809 30.4728C100.1 29.2968 99.7454 27.9622 99.7454 26.4688C99.7454 24.9755 100.1 23.6408 100.809 22.4648C101.519 21.2888 102.499 20.3742 103.749 19.7208C105.019 19.0488 106.447 18.7128 108.033 18.7128C109.62 18.7128 111.039 19.0488 112.289 19.7208C113.54 20.3742 114.52 21.2888 115.229 22.4648C115.939 23.6408 116.293 24.9755 116.293 26.4688C116.293 27.9622 115.939 29.2968 115.229 30.4728C114.52 31.6488 113.54 32.5728 112.289 33.2448C111.039 33.8982 109.62 34.2248 108.033 34.2248ZM108.033 30.6408C109.153 30.6408 110.068 30.2675 110.777 29.5208C111.505 28.7555 111.869 27.7382 111.869 26.4688C111.869 25.1995 111.505 24.1915 110.777 23.4448C110.068 22.6795 109.153 22.2968 108.033 22.2968C106.913 22.2968 105.989 22.6795 105.261 23.4448C104.533 24.1915 104.169 25.1995 104.169 26.4688C104.169 27.7382 104.533 28.7555 105.261 29.5208C105.989 30.2675 106.913 30.6408 108.033 30.6408Z" fill="var(--fill-0, #101828)"/>
<path d="M128.929 33.2728C128.5 33.5902 127.968 33.8328 127.333 34.0008C126.717 34.1502 126.064 34.2248 125.373 34.2248C123.581 34.2248 122.19 33.7675 121.201 32.8528C120.23 31.9382 119.745 30.5942 119.745 28.8208V22.6328H117.421V19.2728H119.745V15.6048H124.113V19.2728H127.865V22.6328H124.113V28.7648C124.113 29.3995 124.272 29.8942 124.589 30.2488C124.925 30.5848 125.392 30.7528 125.989 30.7528C126.68 30.7528 127.268 30.5662 127.753 30.1928L128.929 33.2728Z" fill="var(--fill-0, #101828)"/>
<path d="M131.381 18.9368H135.749V34.0008H131.381V18.9368ZM133.565 16.8368C132.762 16.8368 132.109 16.6035 131.605 16.1368C131.101 15.6702 130.849 15.0915 130.849 14.4008C130.849 13.7102 131.101 13.1315 131.605 12.6648C132.109 12.1982 132.762 11.9648 133.565 11.9648C134.368 11.9648 135.021 12.1888 135.525 12.6368C136.029 13.0848 136.281 13.6448 136.281 14.3168C136.281 15.0448 136.029 15.6515 135.525 16.1368C135.021 16.6035 134.368 16.8368 133.565 16.8368Z" fill="var(--fill-0, #101828)"/>
<path d="M154.559 26.5248C154.559 26.5808 154.531 26.9728 154.475 27.7008H143.079C143.284 28.6342 143.77 29.3715 144.535 29.9128C145.3 30.4542 146.252 30.7248 147.391 30.7248C148.175 30.7248 148.866 30.6128 149.463 30.3888C150.079 30.1462 150.648 29.7728 151.171 29.2688L153.495 31.7888C152.076 33.4128 150.004 34.2248 147.279 34.2248C145.58 34.2248 144.078 33.8982 142.771 33.2448C141.464 32.5728 140.456 31.6488 139.747 30.4728C139.038 29.2968 138.683 27.9622 138.683 26.4688C138.683 24.9942 139.028 23.6688 139.719 22.4928C140.428 21.2982 141.39 20.3742 142.603 19.7208C143.835 19.0488 145.207 18.7128 146.719 18.7128C148.194 18.7128 149.528 19.0302 150.723 19.6648C151.918 20.2995 152.851 21.2142 153.523 22.4088C154.214 23.5848 154.559 24.9568 154.559 26.5248ZM146.747 22.0168C145.758 22.0168 144.927 22.2968 144.255 22.8568C143.583 23.4168 143.172 24.1822 143.023 25.1528H150.443C150.294 24.2008 149.883 23.4448 149.211 22.8848C148.539 22.3062 147.718 22.0168 146.747 22.0168Z" fill="var(--fill-0, #101828)"/>
<path d="M166.623 18.7128C168.49 18.7128 169.992 19.2728 171.131 20.3928C172.288 21.5128 172.867 23.1742 172.867 25.3768V34.0008H168.499V26.0488C168.499 24.8542 168.238 23.9675 167.715 23.3888C167.192 22.7915 166.436 22.4928 165.447 22.4928C164.346 22.4928 163.468 22.8382 162.815 23.5288C162.162 24.2008 161.835 25.2088 161.835 26.5528V34.0008H157.467V18.9368H161.639V20.7008C162.218 20.0662 162.936 19.5808 163.795 19.2448C164.654 18.8902 165.596 18.7128 166.623 18.7128Z" fill="var(--fill-0, #101828)"/>
<path d="M186.542 33.2728C186.113 33.5902 185.581 33.8328 184.946 34.0008C184.33 34.1502 183.677 34.2248 182.986 34.2248C181.194 34.2248 179.804 33.7675 178.814 32.8528C177.844 31.9382 177.358 30.5942 177.358 28.8208V22.6328H175.034V19.2728H177.358V15.6048H181.726V19.2728H185.478V22.6328H181.726V28.7648C181.726 29.3995 181.885 29.8942 182.202 30.2488C182.538 30.5848 183.005 30.7528 183.602 30.7528C184.293 30.7528 184.881 30.5662 185.366 30.1928L186.542 33.2728Z" fill="var(--fill-0, #101828)"/>
</g>
</g>
</svg>
