<svg preserveAspectRatio="none" width="100%" height="100%" overflow="visible" style="display: block;" viewBox="0 0 29 29" fill="none" xmlns="http://www.w3.org/2000/svg">
<g id="Group">
<path id="Vector" fill-rule="evenodd" clip-rule="evenodd" d="M9.33062 0.94375C6.0075 2.28875 3.3625 4.96938 2.06625 8.31688L2.99 9.93062L4.70875 10.8594L4.93937 10.23L4.165 9.45813C4.097 9.39056 4.05743 9.29956 4.05437 9.20375L4.01125 7.79938C4.005 7.6 4.15625 7.43062 4.355 7.41437L7.59375 7.14437L9.77437 5.62625L11.1769 3.48625C11.2243 3.41435 11.2949 3.36078 11.3769 3.33437L12.6388 2.93375L12.7775 2.1275L10.3175 1.75312C10.245 1.74187 10.1769 1.70937 10.1225 1.66L9.33062 0.94375ZM19.7262 22.7194L19.2969 23.4769L19.6887 24.7794C20.1656 24.5563 20.63 24.3019 21.0812 24.0194V19.995L19.8994 21.84L20.0444 22.1231C20.1356 22.3006 20.0719 22.5181 19.8994 22.6187L19.7262 22.7194ZM16.4694 19.9944V25.7944C17.3338 25.6429 18.1803 25.4029 18.9956 25.0781L18.5325 23.5394C18.5025 23.4413 18.5144 23.3356 18.565 23.2463L18.5931 23.1975C18.5268 23.1674 18.4706 23.1188 18.4312 23.0575L16.4694 19.9944ZM9.95125 23.0575C9.89919 23.139 9.81761 23.1972 9.72359 23.2199C9.62957 23.2427 9.53041 23.2281 9.44687 23.1794L8.48312 22.6187C8.40007 22.5704 8.33872 22.4921 8.31174 22.3999C8.28476 22.3076 8.29421 22.2086 8.33813 22.1231L8.48375 21.84L7.30125 19.995V24.0194C8.72125 24.9094 10.2694 25.5056 11.9131 25.795V19.995L9.95125 23.0575ZM5.69938 16.9088C6.75375 16.9088 7.635 17.4469 8.11687 18.3856L9.18625 20.47L8.87937 21.0675L7.24187 18.5112C7.19814 18.443 7.13345 18.3907 7.05752 18.3624C6.98158 18.334 6.89849 18.3309 6.82069 18.3537C6.7429 18.3766 6.67459 18.424 6.62601 18.4889C6.57744 18.5538 6.5512 18.6327 6.55125 18.7138V28.625H5.39812V23.0906C5.39812 22.8831 5.23062 22.7156 5.02312 22.7156C4.81625 22.7156 4.64812 22.8831 4.64812 23.0906V28.625H3.49563V18.7138C3.49563 18.6326 3.46931 18.5537 3.42062 18.4888C3.37194 18.4238 3.30352 18.3765 3.22563 18.3538C3.14782 18.331 3.06475 18.3341 2.98882 18.3625C2.9129 18.3909 2.8482 18.4431 2.80437 18.5112L0.345625 22.35L0 22.1488L1.93 18.3856C2.41187 17.4469 3.2925 16.9088 4.3475 16.9088H5.69938ZM5.02312 15.5606C5.685 15.5606 6.22375 15.0219 6.22375 14.36C6.22375 13.6981 5.685 13.16 5.02312 13.16C4.36187 13.16 3.82312 13.6981 3.82312 14.36C3.82312 15.0219 4.36187 15.5606 5.02312 15.5606ZM14.1912 15.5606C14.8531 15.5606 15.3913 15.0219 15.3913 14.36C15.3913 13.6981 14.8531 13.16 14.1912 13.16C13.5294 13.16 12.9913 13.6981 12.9913 14.36C12.9913 15.0219 13.5294 15.5606 14.1912 15.5606ZM19.215 22.1488L18.8694 22.35L16.41 18.5112C16.3662 18.443 16.3015 18.3908 16.2256 18.3624C16.1496 18.334 16.0666 18.331 15.9888 18.3538C15.911 18.3766 15.8427 18.424 15.7942 18.4889C15.7456 18.5538 15.7194 18.6327 15.7194 18.7138V28.625H14.5662V23.0906C14.5662 22.8831 14.3981 22.7156 14.1912 22.7156C13.9844 22.7156 13.8162 22.8831 13.8162 23.0906V28.625H12.6631V18.7138C12.6631 18.5469 12.5538 18.4006 12.3938 18.3538C12.3159 18.331 12.2329 18.3341 12.1569 18.3625C12.081 18.3909 12.0163 18.4431 11.9725 18.5112L9.51375 22.35L9.1675 22.1488L11.0981 18.3856C11.5794 17.4469 12.4606 16.9088 13.5156 16.9088H14.8669C15.9219 16.9088 16.8031 17.4469 17.285 18.3856L19.215 22.1488ZM24.035 16.9088C25.09 16.9088 25.9706 17.4469 26.4525 18.3856L28.3825 22.1488L28.0369 22.35L25.5781 18.5112C25.5343 18.4431 25.4696 18.3909 25.3937 18.3625C25.3178 18.3341 25.2347 18.331 25.1569 18.3538C25.079 18.3765 25.0106 18.4238 24.9619 18.4888C24.9132 18.5537 24.8869 18.6326 24.8869 18.7138V28.625H23.7344V23.0906C23.7344 22.8831 23.5662 22.7156 23.3594 22.7156C23.1525 22.7156 22.9844 22.8831 22.9844 23.0906V28.625H21.8312V18.7138C21.8312 18.5469 21.7212 18.4006 21.5619 18.3538C21.4019 18.3069 21.2306 18.3712 21.1406 18.5112L19.5031 21.0669L19.1969 20.4694L20.2656 18.3856C20.7475 17.4469 21.6287 16.9088 22.6831 16.9088H24.035ZM23.3594 13.16C22.6975 13.16 22.1588 13.6981 22.1588 14.36C22.1588 15.0219 22.6975 15.5606 23.3594 15.5606C24.0213 15.5606 24.5594 15.0219 24.5594 14.36C24.5594 13.6981 24.0213 13.16 23.3594 13.16ZM19.3862 7.135L17.655 7.70437L16.6381 10.5312L18.5963 13.2325L20.3294 14.0375C20.4026 14.0713 20.4628 14.1279 20.5012 14.1988L21.2362 15.5569C21.2925 15.6613 21.2963 15.7863 21.2469 15.8931L20.8994 16.6413C21.4031 16.3406 21.9863 16.1725 22.61 16.16C21.9056 15.8656 21.4088 15.1694 21.4088 14.3594C21.4088 13.2844 22.2838 12.4094 23.3594 12.4094C24.4344 12.4094 25.3094 13.2844 25.3094 14.3594C25.3094 15.1694 24.8131 15.8656 24.1081 16.16C25.0394 16.1781 25.8806 16.545 26.5006 17.1794C26.9569 15.8369 27.1881 14.4331 27.1881 12.9969C27.1881 12.9281 27.1869 12.8594 27.1856 12.79L24.9231 10.8L22.975 10.5606C22.9127 10.5529 22.8534 10.5297 22.8024 10.4931C22.7514 10.4565 22.7104 10.4078 22.6831 10.3513L21.7856 8.48875L19.3862 7.135ZM16.1944 3.59437C16.7912 3.9 17.6331 3.78687 18.7031 3.2575C18.7963 3.21125 18.9044 3.20625 19.0019 3.24312L22.4144 4.53687L23.3713 3.80625C22.381 2.81713 21.2384 1.99351 19.9869 1.36688L18.895 2.13312C18.8359 2.17482 18.766 2.19849 18.6938 2.20125L16.8919 2.26813L16.1944 3.59437ZM11.7312 4.00875L13.0831 3.57937C13.1487 3.55871 13.2073 3.52036 13.2526 3.46853C13.2978 3.41671 13.3278 3.35342 13.3394 3.28562L13.5813 1.8775C13.5988 1.77875 13.575 1.67687 13.5162 1.595C13.4575 1.51312 13.3681 1.45875 13.2681 1.44375L10.5419 1.02812L10.1256 0.651875C11.4056 0.229375 12.7719 0 14.1912 0C15.965 0 17.6563 0.3575 19.1981 1.00375L18.555 1.45562L16.6475 1.52687C16.5816 1.52928 16.5174 1.54904 16.4616 1.58415C16.4057 1.61927 16.3601 1.6685 16.3294 1.72687L15.3731 3.54437C15.3329 3.62062 15.3202 3.70845 15.3373 3.79297C15.3544 3.87749 15.4001 3.9535 15.4669 4.00812C16.2888 4.68437 17.4388 4.68125 18.8869 4.00062L22.3438 5.31125C22.3869 5.3275 22.4319 5.33562 22.4762 5.33562C22.5575 5.33562 22.6375 5.30937 22.7044 5.25875L23.8888 4.35375C25.6775 6.35875 26.855 8.91875 27.1275 11.74L25.3319 10.1606C25.275 10.1106 25.2044 10.0788 25.13 10.07L23.27 9.84125L22.41 8.0575C22.3769 7.98834 22.3232 7.93113 22.2563 7.89375L19.6106 6.40062C19.5652 6.37503 19.515 6.35915 19.4632 6.35399C19.4113 6.34882 19.3589 6.35449 19.3094 6.37063L17.2469 7.04938C17.1928 7.0673 17.1435 7.09725 17.1027 7.13698C17.0619 7.17671 17.0306 7.22519 17.0112 7.27875L15.8656 10.4637C15.8238 10.5806 15.8419 10.7106 15.915 10.8106L18.0462 13.7513C18.0837 13.8031 18.1338 13.8444 18.1919 13.8713L19.9006 14.665L20.4869 15.7488L19.8094 17.2087C19.7894 17.2525 19.7775 17.2988 19.775 17.3469L19.7525 17.7725C19.6981 17.86 19.6462 17.95 19.5987 18.0431L18.775 19.6481L17.9519 18.0431C17.3581 16.885 16.2356 16.1856 14.9406 16.16C15.645 15.8656 16.1413 15.1694 16.1413 14.3594C16.1413 13.2844 15.2669 12.4094 14.1912 12.4094C13.1162 12.4094 12.2413 13.2844 12.2413 14.3594C12.2413 15.1694 12.7375 15.8656 13.4425 16.16C12.1469 16.1856 11.025 16.885 10.4306 18.0431L9.6075 19.6481L8.78375 18.0431C8.19 16.885 7.06813 16.1856 5.7725 16.16C6.47688 15.8656 6.97375 15.1694 6.97375 14.3594C6.97375 13.2844 6.09875 12.4094 5.02312 12.4094C3.94812 12.4094 3.07312 13.2844 3.07312 14.3594C3.07312 15.1694 3.56937 15.8656 4.27437 16.16C3.34312 16.1781 2.50188 16.545 1.88188 17.1794C1.42563 15.8369 1.19438 14.4331 1.19438 12.9969C1.19438 11.6988 1.38625 10.445 1.7425 9.26125L2.39187 10.3963C2.42666 10.457 2.47776 10.5068 2.53937 10.54L4.73375 11.725C4.78111 11.7506 4.83342 11.7657 4.88713 11.7692C4.94084 11.7728 4.99468 11.7647 5.045 11.7456C5.09534 11.7265 5.14099 11.6969 5.17885 11.6586C5.2167 11.6203 5.24587 11.5743 5.26437 11.5238L5.72625 10.2631C5.77625 10.1256 5.74188 9.97187 5.63875 9.86812L4.79938 9.03188L4.77187 8.13188L7.75688 7.88312C7.8225 7.8775 7.88562 7.855 7.94 7.8175L10.2625 6.20062C10.3019 6.17312 10.3356 6.13812 10.3619 6.09812L11.7312 4.00875Z" fill="var(--fill-0, #FDFDFD)" fill-opacity="0.4"/>
</g>
</svg>
