<svg preserveAspectRatio="none" width="100%" height="100%" overflow="visible" style="display: block;" viewBox="0 0 800 380" fill="none" xmlns="http://www.w3.org/2000/svg">
<g id="Ellipse 2172" opacity="0.2" filter="url(#filter0_f_2093_58567)">
<path d="M400 2.5C510.009 2.5 609.53 23.6252 681.493 57.7129C753.57 91.8548 797.5 138.726 797.5 190C797.5 241.274 753.57 288.145 681.493 322.287C609.53 356.375 510.009 377.5 400 377.5C289.991 377.5 190.47 356.375 118.507 322.287C46.4295 288.145 2.5 241.274 2.5 190C2.5 138.726 46.4295 91.8548 118.507 57.7129C190.47 23.6252 289.991 2.5 400 2.5Z" stroke="url(#paint0_linear_2093_58567)" stroke-width="3"/>
</g>
<defs>
<filter id="filter0_f_2093_58567" x="0" y="0" width="800" height="380" filterUnits="userSpaceOnUse" color-interpolation-filters="sRGB">
<feFlood flood-opacity="0" result="BackgroundImageFix"/>
<feBlend mode="normal" in="SourceGraphic" in2="BackgroundImageFix" result="shape"/>
<feGaussianBlur stdDeviation="0.5" result="effect1_foregroundBlur_2093_58567"/>
</filter>
<linearGradient id="paint0_linear_2093_58567" x1="400" y1="1" x2="400" y2="379" gradientUnits="userSpaceOnUse">
<stop stop-color="#5B5B5B"/>
<stop offset="0.307692" stop-color="white"/>
<stop offset="0.625" stop-color="#8B8B8B"/>
<stop offset="1" stop-color="white"/>
</linearGradient>
</defs>
</svg>
