<svg preserveAspectRatio="none" width="100%" height="100%" overflow="visible" style="display: block;" viewBox="0 0 146 48" fill="none" xmlns="http://www.w3.org/2000/svg">
<g id="Company logo">
<g id="Logomark">
<path id="Isometric square" d="M13.2768 22.3173C14.099 19.249 17.2529 16.0951 20.3212 15.2729L39.4502 10.1465C42.5185 9.32425 44.3392 11.145 43.5169 14.2133L38.3906 33.3422C37.5683 36.4105 34.4144 39.5644 31.3461 40.3867L12.2172 45.513C9.1489 46.3353 7.32815 44.5146 8.15042 41.4463L13.2768 22.3173Z" fill="var(--fill-0, #9E77ED)"/>
<path id="Isometric square_2" d="M5.60884 14.6493C6.4311 11.5811 9.585 8.42718 12.6533 7.60492L31.7823 2.47855C34.8505 1.65628 36.6713 3.47703 35.849 6.5453L30.7227 25.6743C29.9004 28.7425 26.7465 31.8964 23.6782 32.7187L4.54923 37.8451C1.48096 38.6673 -0.339792 36.8466 0.482472 33.7783L5.60884 14.6493Z" fill="var(--fill-0, #6941C6)"/>
</g>
<g id="Logotype">
<path d="M61.2936 31.4231H67.8736V33.9991H58.1016V14.5391H61.2936V31.4231Z" fill="var(--fill-0, #101828)"/>
<path d="M69.479 26.2151C69.479 24.6657 69.7963 23.2937 70.431 22.0991C71.0843 20.9044 71.9616 19.9804 73.063 19.3271C74.183 18.6551 75.415 18.3191 76.759 18.3191C77.9723 18.3191 79.027 18.5617 79.923 19.0471C80.8376 19.5137 81.5656 20.1017 82.107 20.8111V18.5711H85.327V33.9991H82.107V31.7031C81.5656 32.4311 80.8283 33.0377 79.895 33.5231C78.9616 34.0084 77.8976 34.2511 76.703 34.2511C75.3776 34.2511 74.1643 33.9151 73.063 33.2431C71.9616 32.5524 71.0843 31.6004 70.431 30.3871C69.7963 29.1551 69.479 27.7644 69.479 26.2151ZM82.107 26.2711C82.107 25.2071 81.883 24.2831 81.435 23.4991C81.0056 22.7151 80.4363 22.1177 79.727 21.7071C79.0176 21.2964 78.2523 21.0911 77.431 21.0911C76.6096 21.0911 75.8443 21.2964 75.135 21.7071C74.4256 22.0991 73.847 22.6871 73.399 23.4711C72.9696 24.2364 72.755 25.1511 72.755 26.2151C72.755 27.2791 72.9696 28.2124 73.399 29.0151C73.847 29.8177 74.4256 30.4337 75.135 30.8631C75.863 31.2737 76.6283 31.4791 77.431 31.4791C78.2523 31.4791 79.0176 31.2737 79.727 30.8631C80.4363 30.4524 81.0056 29.8551 81.435 29.0711C81.883 28.2684 82.107 27.3351 82.107 26.2711Z" fill="var(--fill-0, #101828)"/>
<path d="M103.408 18.5711L93.9435 41.2511H90.6395L93.7755 33.7471L87.6995 18.5711H91.2555L95.5955 30.3311L100.104 18.5711H103.408Z" fill="var(--fill-0, #101828)"/>
<path d="M119.956 25.9071C119.956 26.4857 119.919 27.0084 119.844 27.4751H108.056C108.15 28.7071 108.607 29.6964 109.428 30.4431C110.25 31.1897 111.258 31.5631 112.452 31.5631C114.17 31.5631 115.383 30.8444 116.092 29.4071H119.536C119.07 30.8257 118.22 31.9924 116.988 32.9071C115.775 33.8031 114.263 34.2511 112.452 34.2511C110.978 34.2511 109.652 33.9244 108.476 33.2711C107.319 32.5991 106.404 31.6657 105.732 30.4711C105.079 29.2577 104.752 27.8577 104.752 26.2711C104.752 24.6844 105.07 23.2937 105.704 22.0991C106.358 20.8857 107.263 19.9524 108.42 19.2991C109.596 18.6457 110.94 18.3191 112.452 18.3191C113.908 18.3191 115.206 18.6364 116.344 19.2711C117.483 19.9057 118.37 20.8017 119.004 21.9591C119.639 23.0977 119.956 24.4137 119.956 25.9071ZM116.624 24.8991C116.606 23.7231 116.186 22.7804 115.364 22.0711C114.543 21.3617 113.526 21.0071 112.312 21.0071C111.211 21.0071 110.268 21.3617 109.484 22.0711C108.7 22.7617 108.234 23.7044 108.084 24.8991H116.624Z" fill="var(--fill-0, #101828)"/>
<path d="M126.29 20.8111C126.756 20.0271 127.372 19.4204 128.138 18.9911C128.922 18.5431 129.846 18.3191 130.91 18.3191V21.6231H130.098C128.847 21.6231 127.895 21.9404 127.242 22.5751C126.607 23.2097 126.29 24.3111 126.29 25.8791V33.9991H123.098V18.5711H126.29V20.8111Z" fill="var(--fill-0, #101828)"/>
<path d="M139.444 34.2511C138.23 34.2511 137.138 34.0364 136.168 33.6071C135.216 33.1591 134.46 32.5617 133.9 31.8151C133.34 31.0497 133.041 30.2004 133.004 29.2671H136.308C136.364 29.9204 136.672 30.4711 137.232 30.9191C137.81 31.3484 138.529 31.5631 139.388 31.5631C140.284 31.5631 140.974 31.3951 141.46 31.0591C141.964 30.7044 142.216 30.2564 142.216 29.7151C142.216 29.1364 141.936 28.7071 141.376 28.4271C140.834 28.1471 139.966 27.8391 138.772 27.5031C137.614 27.1857 136.672 26.8777 135.944 26.5791C135.216 26.2804 134.581 25.8231 134.04 25.2071C133.517 24.5911 133.256 23.7791 133.256 22.7711C133.256 21.9497 133.498 21.2031 133.984 20.5311C134.469 19.8404 135.16 19.2991 136.056 18.9071C136.97 18.5151 138.016 18.3191 139.192 18.3191C140.946 18.3191 142.356 18.7671 143.42 19.6631C144.502 20.5404 145.081 21.7444 145.156 23.2751H141.964C141.908 22.5844 141.628 22.0337 141.124 21.6231C140.62 21.2124 139.938 21.0071 139.08 21.0071C138.24 21.0071 137.596 21.1657 137.148 21.4831C136.7 21.8004 136.476 22.2204 136.476 22.7431C136.476 23.1537 136.625 23.4991 136.924 23.7791C137.222 24.0591 137.586 24.2831 138.016 24.4511C138.445 24.6004 139.08 24.7964 139.92 25.0391C141.04 25.3377 141.954 25.6457 142.664 25.9631C143.392 26.2617 144.017 26.7097 144.54 27.3071C145.062 27.9044 145.333 28.6977 145.352 29.6871C145.352 30.5644 145.109 31.3484 144.624 32.0391C144.138 32.7297 143.448 33.2711 142.552 33.6631C141.674 34.0551 140.638 34.2511 139.444 34.2511Z" fill="var(--fill-0, #101828)"/>
</g>
</g>
</svg>
