<svg preserveAspectRatio="none" width="100%" height="100%" overflow="visible" style="display: block;" viewBox="0 0 128 129" fill="none" xmlns="http://www.w3.org/2000/svg">
<g id="Group">
<path id="Vector" fill-rule="evenodd" clip-rule="evenodd" d="M41.9878 4.24688C27.0337 10.2994 15.1312 22.3622 9.29812 37.4259L13.455 44.6878L21.1894 48.8672L22.2272 46.035L18.7425 42.5616C18.4365 42.2575 18.2584 41.848 18.2447 41.4169L18.0506 35.0972C18.0225 34.2 18.7031 33.4378 19.5975 33.3647L34.1719 32.1497L43.9847 25.3181L50.2959 15.6881C50.5095 15.3646 50.8269 15.1235 51.1959 15.0047L56.8744 13.2019L57.4988 9.57375L46.4288 7.88906C46.1025 7.83844 45.7959 7.69219 45.5512 7.47L41.9878 4.24688ZM88.7681 102.237L86.8359 105.646L88.5994 111.507C90.7453 110.503 92.835 109.358 94.8656 108.087V89.9775L89.5472 98.28L90.1997 99.5541C90.6103 100.353 90.3234 101.332 89.5472 101.784L88.7681 102.237ZM74.1122 89.9747V116.075C78.0021 115.393 81.8116 114.313 85.4803 112.852L83.3962 105.927C83.2612 105.486 83.3147 105.01 83.5425 104.608L83.6691 104.389C83.3707 104.253 83.1178 104.034 82.9406 103.759L74.1122 89.9747ZM44.7806 103.759C44.5463 104.126 44.1792 104.388 43.7562 104.49C43.3331 104.592 42.8869 104.527 42.5109 104.307L38.1741 101.784C37.8003 101.567 37.5243 101.214 37.4029 100.799C37.2814 100.384 37.3239 99.9386 37.5216 99.5541L38.1769 98.28L32.8556 89.9775V108.087C39.2456 112.092 46.2122 114.775 53.6091 116.078V89.9775L44.7806 103.759ZM25.6472 76.0894C30.3919 76.0894 34.3575 78.5109 36.5259 82.7353L41.3381 92.115L39.9572 94.8038L32.5884 83.3006C32.3916 82.9935 32.1005 82.7584 31.7588 82.6306C31.4171 82.5028 31.0432 82.4892 30.6931 82.5919C30.343 82.6945 30.0357 82.9079 29.8171 83.1999C29.5985 83.492 29.4804 83.8471 29.4806 84.2119V128.812H24.2916V103.908C24.2916 102.974 23.5378 102.22 22.6041 102.22C21.6731 102.22 20.9166 102.974 20.9166 103.908V128.812H15.7303V84.2119C15.7303 83.8468 15.6119 83.4915 15.3928 83.1994C15.1737 82.9073 14.8658 82.6941 14.5153 82.5919C14.1652 82.4897 13.7914 82.5035 13.4497 82.6312C13.1081 82.7589 12.8169 82.9938 12.6197 83.3006L1.55531 100.575L0 99.6694L8.685 82.7353C10.8534 78.5109 14.8162 76.0894 19.5637 76.0894H25.6472ZM22.6041 70.0228C25.5825 70.0228 28.0069 67.5984 28.0069 64.62C28.0069 61.6416 25.5825 59.22 22.6041 59.22C19.6284 59.22 17.2041 61.6416 17.2041 64.62C17.2041 67.5984 19.6284 70.0228 22.6041 70.0228ZM63.8606 70.0228C66.8391 70.0228 69.2606 67.5984 69.2606 64.62C69.2606 61.6416 66.8391 59.22 63.8606 59.22C60.8822 59.22 58.4606 61.6416 58.4606 64.62C58.4606 67.5984 60.8822 70.0228 63.8606 70.0228ZM86.4675 99.6694L84.9122 100.575L73.845 83.3006C73.648 82.9936 73.3568 82.7586 73.0151 82.6308C72.6734 82.503 72.2995 82.4894 71.9494 82.5919C71.5995 82.6947 71.2922 82.9082 71.0737 83.2002C70.8552 83.4922 70.7371 83.8471 70.7372 84.2119V128.812H65.5481V103.908C65.5481 102.974 64.7916 102.22 63.8606 102.22C62.9297 102.22 62.1731 102.974 62.1731 103.908V128.812H56.9841V84.2119C56.9841 83.4609 56.4919 82.8028 55.7719 82.5919C55.4217 82.4897 55.0479 82.5035 54.7063 82.6312C54.3646 82.7589 54.0734 82.9938 53.8762 83.3006L42.8119 100.575L41.2537 99.6694L49.9416 82.7353C52.1072 78.5109 56.0728 76.0894 60.8203 76.0894H66.9009C71.6484 76.0894 75.6141 78.5109 77.7825 82.7353L86.4675 99.6694ZM108.157 76.0894C112.905 76.0894 116.868 78.5109 119.036 82.7353L127.721 99.6694L126.166 100.575L115.102 83.3006C114.904 82.9938 114.613 82.7589 114.272 82.6312C113.93 82.5035 113.556 82.4897 113.206 82.5919C112.855 82.6941 112.548 82.9073 112.328 83.1994C112.109 83.4915 111.991 83.8468 111.991 84.2119V128.812H106.805V103.908C106.805 102.974 106.048 102.22 105.117 102.22C104.186 102.22 103.43 102.974 103.43 103.908V128.812H98.2406V84.2119C98.2406 83.4609 97.7456 82.8028 97.0284 82.5919C96.3084 82.3809 95.5378 82.6706 95.1328 83.3006L87.7641 94.8009L86.3859 92.1122L91.1953 82.7353C93.3638 78.5109 97.3294 76.0894 102.074 76.0894H108.157ZM105.117 59.22C102.139 59.22 99.7144 61.6416 99.7144 64.62C99.7144 67.5984 102.139 70.0228 105.117 70.0228C108.096 70.0228 110.517 67.5984 110.517 64.62C110.517 61.6416 108.096 59.22 105.117 59.22ZM87.2381 32.1075L79.4475 34.6697L74.8716 47.3906L83.6831 59.5463L91.4822 63.1688C91.8115 63.3209 92.0828 63.5754 92.2556 63.8944L95.5631 70.0059C95.8162 70.4756 95.8331 71.0381 95.6109 71.5191L94.0472 74.8856C96.3141 73.5328 98.9381 72.7762 101.745 72.72C98.5753 71.3953 96.3394 68.2622 96.3394 64.6172C96.3394 59.7797 100.277 55.8422 105.117 55.8422C109.955 55.8422 113.892 59.7797 113.892 64.6172C113.892 68.2622 111.659 71.3953 108.487 72.72C112.677 72.8016 116.463 74.4525 119.253 77.3072C121.306 71.2659 122.347 64.9491 122.347 58.4859C122.347 58.1766 122.341 57.8672 122.335 57.555L112.154 48.6L103.388 47.5228C103.107 47.488 102.84 47.3835 102.611 47.2189C102.381 47.0543 102.197 46.8349 102.074 46.5806L98.0353 38.1994L87.2381 32.1075ZM72.8747 16.1747C75.5606 17.55 79.3491 17.0409 84.1641 14.6587C84.5831 14.4506 85.0697 14.4281 85.5084 14.5941L100.865 20.4159L105.171 17.1281C100.715 12.6771 95.5726 8.97082 89.9409 6.15094L85.0275 9.59906C84.7616 9.78671 84.4471 9.8932 84.1219 9.90563L76.0134 10.2066L72.8747 16.1747ZM52.7906 18.0394L58.8741 16.1072C59.1692 16.0142 59.4331 15.8416 59.6365 15.6084C59.8399 15.3752 59.9751 15.0904 60.0272 14.7853L61.1156 8.44875C61.1944 8.00437 61.0875 7.54594 60.8231 7.1775C60.5587 6.80906 60.1566 6.56438 59.7066 6.49688L47.4384 4.62656L45.5653 2.93344C51.3253 1.03219 57.4734 0 63.8606 0C71.8425 0 79.4531 1.60875 86.3916 4.51687L83.4975 6.55031L74.9137 6.87094C74.617 6.88176 74.3285 6.97067 74.0771 7.12869C73.8258 7.28671 73.6205 7.50825 73.4822 7.77094L69.1791 15.9497C68.9979 16.2928 68.9409 16.688 69.0177 17.0684C69.0946 17.4487 69.3007 17.7908 69.6009 18.0366C73.2994 21.0797 78.4744 21.0656 84.9909 18.0028L100.547 23.9006C100.741 23.9737 100.943 24.0103 101.143 24.0103C101.509 24.0103 101.869 23.8922 102.17 23.6644L107.499 19.5919C115.549 28.6144 120.848 40.1344 122.074 52.83L113.993 45.7228C113.737 45.4978 113.42 45.3544 113.085 45.315L104.715 44.2856L100.845 36.2587C100.696 35.9475 100.454 35.6901 100.153 35.5219L88.2478 28.8028C88.0435 28.6877 87.8175 28.6162 87.5842 28.593C87.3508 28.5697 87.1152 28.5952 86.8922 28.6678L77.6109 31.7222C77.3676 31.8028 77.1458 31.9376 76.9622 32.1164C76.7785 32.2952 76.6378 32.5133 76.5506 32.7544L71.3953 47.0869C71.2069 47.6128 71.2884 48.1978 71.6175 48.6478L81.2081 61.8806C81.3769 62.1141 81.6019 62.2997 81.8634 62.4206L89.5528 65.9925L92.1909 70.8694L89.1422 77.4394C89.0522 77.6362 88.9987 77.8444 88.9875 78.0609L88.8863 79.9763C88.6416 80.37 88.4081 80.775 88.1944 81.1941L84.4875 88.4166L80.7834 81.1941C78.1116 75.9825 73.0603 72.8353 67.2328 72.72C70.4025 71.3953 72.6356 68.2622 72.6356 64.6172C72.6356 59.7797 68.7009 55.8422 63.8606 55.8422C59.0231 55.8422 55.0856 59.7797 55.0856 64.6172C55.0856 68.2622 57.3188 71.3953 60.4913 72.72C54.6609 72.8353 49.6125 75.9825 46.9378 81.1941L43.2338 88.4166L39.5269 81.1941C36.855 75.9825 31.8066 72.8353 25.9763 72.72C29.1459 71.3953 31.3819 68.2622 31.3819 64.6172C31.3819 59.7797 27.4444 55.8422 22.6041 55.8422C17.7666 55.8422 13.8291 59.7797 13.8291 64.6172C13.8291 68.2622 16.0622 71.3953 19.2347 72.72C15.0441 72.8016 11.2584 74.4525 8.46844 77.3072C6.41531 71.2659 5.37469 64.9491 5.37469 58.4859C5.37469 52.6444 6.23812 47.0025 7.84125 41.6756L10.7634 46.7831C10.92 47.0565 11.1499 47.2806 11.4272 47.43L21.3019 52.7625C21.515 52.8776 21.7504 52.9454 21.9921 52.9615C22.2338 52.9775 22.4761 52.9413 22.7025 52.8553C22.929 52.7695 23.1345 52.6359 23.3048 52.4636C23.4751 52.2913 23.6064 52.0844 23.6897 51.8569L25.7681 46.1841C25.9931 45.5653 25.8384 44.8734 25.3744 44.4066L21.5972 40.6434L21.4734 36.5934L34.9059 35.4741C35.2013 35.4487 35.4853 35.3475 35.73 35.1787L46.1812 27.9028C46.3584 27.7791 46.5103 27.6216 46.6284 27.4416L52.7906 18.0394Z" fill="url(#paint0_linear_2067_48643)"/>
</g>
<defs>
<linearGradient id="paint0_linear_2067_48643" x1="0" y1="0" x2="110.488" y2="111.37" gradientUnits="userSpaceOnUse">
<stop stop-color="white" stop-opacity="0.24"/>
<stop offset="0.3" stop-color="white" stop-opacity="0.12"/>
<stop offset="1" stop-color="white" stop-opacity="0.04"/>
</linearGradient>
</defs>
</svg>
