<svg preserveAspectRatio="none" width="100%" height="100%" overflow="visible" style="display: block;" viewBox="0 0 36 43" fill="none" xmlns="http://www.w3.org/2000/svg">
<g id="Group">
<path id="Vector" d="M17.8755 14.1337C21.7784 14.1337 24.9423 10.9698 24.9423 7.06686C24.9423 3.16394 21.7784 0 17.8755 0C13.9725 0 10.8086 3.16394 10.8086 7.06686C10.8086 10.9698 13.9725 14.1337 17.8755 14.1337Z" fill="var(--fill-0, white)" fill-opacity="0.4"/>
<path id="Vector_2" d="M23.0665 15.0938C21.5702 16.0654 19.7868 16.6306 17.8736 16.6306C15.9605 16.6306 14.1771 16.0654 12.6808 15.0938C11.0173 15.7295 9.48484 16.6656 8.1597 17.8553L17.8736 21.4981L27.5876 17.8553C26.2625 16.6656 24.73 15.7295 23.0665 15.0938ZM32.8388 25.7759H32.0074C31.3186 25.7759 30.7603 26.3343 30.7603 27.023V30.3486C30.7603 31.0373 31.3186 31.5957 32.0074 31.5957H32.8388C34.4458 31.5957 35.7486 30.2929 35.7486 28.6858C35.7486 27.0787 34.4458 25.7759 32.8388 25.7759ZM3.86097 19.4803C3.69534 19.5951 3.56 19.7483 3.46652 19.9268C3.37304 20.1053 3.32422 20.3038 3.32422 20.5053V23.2817H3.73992C5.80286 23.2817 7.4812 24.9601 7.4812 27.023V30.3486C7.4812 32.4115 5.80286 34.0899 3.73992 34.0899H3.32422V36.7175C3.32422 36.9714 3.40169 37.2192 3.54629 37.4278C3.69088 37.6365 3.89572 37.7961 4.13342 37.8852L16.6265 42.5701V23.6941L5.00921 19.3376C4.82054 19.2668 4.61751 19.2428 4.41753 19.2676C4.21754 19.2925 4.02656 19.3654 3.86097 19.4803Z" fill="var(--fill-0, white)" fill-opacity="0.4"/>
<path id="Vector_3" d="M28.2674 30.3404V27.0148C28.2674 24.9519 29.9458 23.2735 32.0087 23.2735H32.4244V20.4971C32.4244 20.2956 32.3756 20.0971 32.2821 19.9186C32.1886 19.7401 32.0533 19.5869 31.8877 19.4721C31.722 19.3573 31.5311 19.2844 31.3311 19.2595C31.1311 19.2347 30.9281 19.2587 30.7394 19.3294L19.1221 23.6859V42.5619L31.6152 37.877C31.8529 37.7879 32.0578 37.6283 32.2024 37.4196C32.3469 37.211 32.4244 36.9632 32.4244 36.7093V34.0817H32.0087C29.9458 34.0817 28.2674 32.4033 28.2674 30.3404ZM4.98837 30.3404V27.0148C4.98837 26.3261 4.43001 25.7677 3.74128 25.7677H2.90988C1.3028 25.7677 0 27.0705 0 28.6776C0 30.2847 1.3028 31.5875 2.90988 31.5875H3.74128C4.43001 31.5875 4.98837 31.0291 4.98837 30.3404Z" fill="var(--fill-0, white)" fill-opacity="0.4"/>
</g>
</svg>
