<svg preserveAspectRatio="none" width="100%" height="100%" overflow="visible" style="display: block;" viewBox="0 0 37 25" fill="none" xmlns="http://www.w3.org/2000/svg">
<g id="Group">
<path id="Vector" d="M19.4308 8.01023C17.6077 8.26792 16.0154 9.97946 16 9.99485C15.9771 10.0186 15.9513 10.0393 15.9231 10.0564C13.4462 11.6641 12.05 10.441 11.9923 10.3679C10.4077 8.941 11.8615 6.54869 11.9231 6.44869C12.5722 5.36984 13.3582 4.37956 14.2615 3.50254H7.53462L4.61538 13.1333C4.64674 13.1507 4.67527 13.1727 4.7 13.1987C9.23077 18.3218 15.2462 22.8679 17.6192 24.5833C17.8662 24.7659 18.1733 24.8479 18.4784 24.8127C18.7836 24.7775 19.0639 24.6277 19.2628 24.3937C19.4617 24.1596 19.5643 23.8587 19.5498 23.5519C19.5352 23.2451 19.4047 22.9552 19.1846 22.741L15.9192 19.4756C15.8476 19.4036 15.8074 19.3061 15.8074 19.2045C15.8074 19.1028 15.8476 19.0054 15.9192 18.9333C15.955 18.8973 15.9975 18.8686 16.0444 18.8491C16.0913 18.8296 16.1415 18.8195 16.1923 18.8195C16.2431 18.8195 16.2934 18.8296 16.3402 18.8491C16.3871 18.8686 16.4296 18.8973 16.4654 18.9333L18.2038 20.6718L19.7423 22.2102L20.5115 22.9987C20.7875 23.2675 21.1577 23.4174 21.5429 23.4165C21.9281 23.4156 22.2976 23.2638 22.5723 22.9937C22.8469 22.7236 23.0048 22.3566 23.0121 21.9715C23.0195 21.5864 22.8757 21.2137 22.6115 20.9333L19.6154 17.8064L19.0462 17.2179C19.0101 17.1822 18.9815 17.1396 18.962 17.0928C18.9424 17.0459 18.9324 16.9956 18.9324 16.9448C18.9324 16.8941 18.9424 16.8438 18.962 16.7969C18.9815 16.7501 19.0101 16.7075 19.0462 16.6718C19.0819 16.6357 19.1244 16.6071 19.1713 16.5876C19.2182 16.5681 19.2685 16.558 19.3192 16.558C19.37 16.558 19.4203 16.5681 19.4671 16.5876C19.514 16.6071 19.5566 16.6357 19.5923 16.6718L23.9654 21.2102C24.1771 21.4198 24.4452 21.5634 24.737 21.6235C25.0288 21.6837 25.3318 21.6578 25.6092 21.5491C25.8865 21.4403 26.1264 21.2534 26.2995 21.0109C26.4727 20.7685 26.5717 20.481 26.5846 20.1833C26.591 19.9736 26.5532 19.7649 26.4737 19.5708C26.3942 19.3766 26.2747 19.2014 26.1231 19.0564L23.5 16.5179L21.6731 14.7448C21.6324 14.7109 21.5992 14.6689 21.5755 14.6216C21.5518 14.5742 21.5381 14.5225 21.5354 14.4696C21.5326 14.4167 21.5408 14.3638 21.5594 14.3142C21.5781 14.2646 21.6068 14.2194 21.6437 14.1814C21.6806 14.1435 21.725 14.1135 21.774 14.0935C21.823 14.0734 21.8757 14.0638 21.9286 14.065C21.9816 14.0663 22.0337 14.0784 22.0817 14.1008C22.1297 14.1231 22.1726 14.1552 22.2077 14.1948L27.4 19.2218C27.5362 19.3616 27.6993 19.4725 27.8794 19.5476C28.0596 19.6228 28.2531 19.6607 28.4483 19.6591C28.6435 19.6574 28.8363 19.6163 29.0152 19.5381C29.1941 19.46 29.3553 19.3464 29.4891 19.2043C29.6229 19.0622 29.7266 18.8944 29.7938 18.7112C29.8611 18.5279 29.8905 18.3329 29.8804 18.138C29.8703 17.943 29.8208 17.7521 29.7349 17.5768C29.6491 17.4015 29.5286 17.2454 29.3808 17.1179L19.4308 8.01023ZM6.36154 1.24869C4.36484 0.351012 2.18763 -0.0728469 0 0.0102291V15.0948H2.35C2.60081 15.0954 2.84498 15.0143 3.04555 14.8637C3.24611 14.7131 3.39215 14.5012 3.46154 14.2602L6.99231 2.63331C7.07301 2.36527 7.05352 2.07704 6.93748 1.8223C6.82143 1.56757 6.61674 1.3637 6.36154 1.24869Z" fill="var(--fill-0, white)"/>
<path id="Vector_2" d="M20.6769 1.99484C19.8475 1.65341 18.9207 1.63285 18.0769 1.93715C16.6038 2.47561 14.4538 3.76792 12.5654 6.85254C12.5654 6.87561 11.3846 8.77561 12.4962 9.79869C12.5346 9.83331 13.5269 10.6641 15.45 9.43715C15.7269 9.14869 17.4615 7.41023 19.5115 7.22177C19.5645 7.21732 19.6179 7.22392 19.6682 7.24113C19.7185 7.25834 19.7647 7.2858 19.8038 7.32177L29.8846 16.5525C29.9308 16.5948 29.9731 16.641 30.0154 16.6872C31.1692 16.5102 31.9385 15.4564 32.1615 15.0718L28.5077 5.11407L20.6769 1.99484ZM36.1538 1.84484C33.96 1.83027 31.7841 2.24038 29.7462 3.05254C29.4721 3.16999 29.2541 3.38898 29.138 3.6636C29.0218 3.93822 29.0165 4.24715 29.1231 4.52561L33.4038 16.1756C33.4874 16.4004 33.6374 16.5943 33.8339 16.7317C34.0304 16.8691 34.2641 16.9435 34.5038 16.9448H36.9231V1.86407C36.7308 1.85254 36.4654 1.84484 36.1538 1.84484Z" fill="var(--fill-0, white)"/>
</g>
</svg>
