<svg preserveAspectRatio="none" width="100%" height="100%" overflow="visible" style="display: block;" viewBox="0 0 75 22" fill="none" xmlns="http://www.w3.org/2000/svg">
<g id="Group">
<path id="Vector" d="M0.867271 13.8164C0.290937 13.2676 0 12.497 0 11.5075V3.25874C0 2.29694 0.277084 1.54856 0.834022 1.01084C1.39096 0.475892 2.16402 0.207031 3.15321 0.207031H7.91628C9.50951 0.207031 10.7398 0.545186 11.607 1.21872C12.4715 1.89226 12.9066 2.86792 12.9066 4.14571C12.9066 4.77767 12.7209 5.36528 12.3496 5.90855C11.9783 6.45181 11.4962 6.85926 10.906 7.13644V7.15584C11.5655 7.41639 12.1058 7.83215 12.5242 8.40313C12.9426 8.97412 13.1532 9.58945 13.1532 10.2491C13.1532 11.6239 12.7098 12.6994 11.8232 13.4755C10.9365 14.2516 9.71732 14.6396 8.16288 14.6396H3.29729C2.25269 14.6396 1.44084 14.3652 0.864502 13.8136L0.867271 13.8164ZM7.91628 6.16632C8.6173 6.16632 9.16316 5.99447 9.55661 5.65077C9.9473 5.30707 10.144 4.81093 10.144 4.16511C10.144 3.51929 9.95839 3.06472 9.58709 2.7626C9.2158 2.46047 8.65886 2.30803 7.91628 2.30803H3.58823C3.31392 2.30803 3.09779 2.39672 2.93986 2.57689C2.78192 2.75428 2.70156 3.00374 2.70156 3.31972V6.16632H7.91628ZM7.91628 12.5386C9.56492 12.5386 10.3906 11.7902 10.3906 10.2907C10.3906 9.64488 10.1745 9.14319 9.74226 8.78564C9.31001 8.42808 8.70042 8.25069 7.91905 8.25069H2.70434V11.5297C2.70434 11.8457 2.78469 12.0923 2.94263 12.2725C3.10057 12.4499 3.31669 12.5414 3.591 12.5414H7.91905L7.91628 12.5386Z" fill="var(--fill-0, white)"/>
<path id="Vector_2" d="M17.2651 13.9115C16.1041 13.2851 15.2202 12.412 14.6162 11.2922C14.0121 10.1724 13.7101 8.8835 13.7101 7.42555C13.7101 5.96761 14.0121 4.67874 14.6162 3.55894C15.2202 2.43915 16.1041 1.56605 17.2651 0.939627C18.4261 0.313209 19.8115 -1.99766e-07 21.4186 -1.99766e-07C23.0256 -1.99766e-07 24.4111 0.313209 25.572 0.939627C26.733 1.56605 27.6169 2.43915 28.221 3.55894C28.825 4.67874 29.127 5.96761 29.127 7.42555C29.127 8.8835 28.825 10.1724 28.221 11.2922C27.6169 12.412 26.733 13.2851 25.572 13.9115C24.4111 14.5379 23.0256 14.8511 21.4186 14.8511C19.8115 14.8511 18.4261 14.5379 17.2651 13.9115ZM25.0678 11.2728C25.935 10.3304 26.3673 9.04981 26.3673 7.42555C26.3673 5.8013 25.9156 4.50411 25.0179 3.57003C24.1174 2.63595 22.8511 2.16752 21.2135 2.16752C19.7145 2.16752 18.5507 2.64426 17.7195 3.60052C16.8882 4.55678 16.4726 5.83179 16.4726 7.42555C16.4726 9.01932 16.9049 10.3304 17.7721 11.2728C18.6366 12.2152 19.853 12.6864 21.4213 12.6864C22.9896 12.6864 24.2032 12.2152 25.0705 11.2728H25.0678Z" fill="var(--fill-0, white)"/>
<path id="Vector_3" d="M32.7483 14.1379C32.2883 13.664 31.9614 12.9184 31.7702 11.9011L29.7281 1.40447C29.7004 1.24093 29.6865 1.12175 29.6865 1.05522C29.6865 0.711524 29.8001 0.450979 30.0273 0.270814C30.2545 0.0934211 30.5676 0.00195312 30.9666 0.00195312C31.7924 0.00195312 32.2717 0.367826 32.4103 1.09403L34.3692 12.1284C34.4247 12.3474 34.4718 12.4971 34.5133 12.5719C34.5549 12.6467 34.6103 12.6855 34.6796 12.6855C34.8458 12.6855 34.9483 12.5081 34.9899 12.1506L36.2894 2.27203C36.3864 1.55691 36.6496 0.999788 37.0819 0.600654C37.5141 0.20152 38.0683 0.00195312 38.7416 0.00195312C39.4149 0.00195312 39.9691 0.20152 40.4013 0.600654C40.8336 0.999788 41.0996 1.55691 41.1938 2.27203L42.4933 12.1506C42.5349 12.5081 42.6374 12.6855 42.8037 12.6855C42.8729 12.6855 42.9283 12.6467 42.9699 12.5719C43.0115 12.4971 43.0586 12.3474 43.114 12.1284L45.073 1.09403C45.2115 0.365054 45.6909 0.00195312 46.5166 0.00195312C46.9156 0.00195312 47.2287 0.0906494 47.4559 0.270814C47.6831 0.448207 47.7967 0.711524 47.7967 1.05522C47.7967 1.12452 47.7828 1.24093 47.7551 1.40447L45.713 11.9011C45.5191 12.9184 45.1949 13.664 44.7349 14.1379C44.275 14.6119 43.6598 14.8503 42.8896 14.8503C42.1193 14.8503 41.5208 14.6175 41.0968 14.149C40.6701 13.6834 40.3903 12.9544 40.2517 11.9621L39.0353 2.72382C39.0076 2.51871 38.9744 2.37458 38.9328 2.29143C38.8912 2.20828 38.8303 2.1667 38.7472 2.1667C38.664 2.1667 38.6031 2.20828 38.5615 2.29143C38.5199 2.37458 38.4867 2.51871 38.459 2.72382L37.2426 11.9621C37.1041 12.9516 36.8242 13.6806 36.3975 14.149C35.9708 14.6175 35.3723 14.8503 34.6048 14.8503C33.8372 14.8503 33.2193 14.6119 32.7594 14.1379H32.7483Z" fill="var(--fill-0, white)"/>
<path id="Vector_4" d="M49.9303 13.8164C49.3539 13.2676 49.063 12.497 49.063 11.5075V3.25874C49.063 2.29694 49.3401 1.54856 49.897 1.01084C50.454 0.475892 51.227 0.207031 52.2162 0.207031H58.6279C59.0408 0.207031 59.3566 0.298499 59.5755 0.484208C59.7944 0.669916 59.9053 0.936005 59.9053 1.27693C59.9053 1.61786 59.7917 1.86455 59.5645 2.05025C59.3372 2.23596 59.0241 2.32743 58.6251 2.32743H52.6872C52.4129 2.32743 52.1968 2.41613 52.0389 2.59629C51.8809 2.77646 51.8006 3.02314 51.8006 3.33912V6.20513H57.0569C57.4697 6.20513 57.7856 6.29659 58.0045 6.4823C58.2234 6.66801 58.3342 6.9341 58.3342 7.27503C58.3342 7.61595 58.2206 7.86264 57.9934 8.04835C57.7662 8.23406 57.4531 8.32552 57.0541 8.32552H51.7978V11.502C51.7978 11.8179 51.8782 12.0646 52.0361 12.2448C52.194 12.425 52.4102 12.5137 52.6845 12.5137H59.074C59.4869 12.5137 59.8028 12.6079 60.0216 12.7908C60.2405 12.9765 60.3514 13.2426 60.3514 13.5836C60.3514 13.9245 60.2378 14.1712 60.0106 14.3569C59.7834 14.5426 59.4702 14.6341 59.0712 14.6341H52.3492C51.3046 14.6341 50.4927 14.3597 49.9164 13.8081L49.9303 13.8164Z" fill="var(--fill-0, white)"/>
<path id="Vector_5" d="M61.6401 3.25874C61.6401 2.29694 61.9172 1.54856 62.4742 1.01084C63.0311 0.475892 63.8042 0.207031 64.7933 0.207031H68.4619C70.5096 0.207031 72.0557 0.606165 73.1003 1.40166C74.1449 2.19993 74.6686 3.38901 74.6686 4.96892C74.6686 6.44072 74.2308 7.58824 73.358 8.41145C72.4852 9.23743 71.3131 9.64765 69.8418 9.64765L72.9756 12.7603C73.2222 13.007 73.3469 13.2897 73.3469 13.6057C73.3469 13.9217 73.2028 14.2238 72.9147 14.4705C72.6126 14.7033 72.3162 14.8198 72.028 14.8198C71.629 14.8198 71.266 14.6424 70.9363 14.2848L66.4836 9.72804H64.3805V13.6057C64.3805 13.991 64.2503 14.2931 63.9898 14.5121C63.7293 14.7311 63.3996 14.8419 63.0006 14.8419C62.6016 14.8419 62.258 14.7311 62.0114 14.5121C61.7648 14.2931 61.6401 13.991 61.6401 13.6057V3.25874ZM68.3816 7.61041C69.2876 7.61041 69.997 7.52171 70.504 7.34155C71.0111 7.16416 71.3741 6.88421 71.5874 6.50725C71.8008 6.13029 71.9061 5.61751 71.9061 4.97169C71.9061 4.03761 71.6207 3.36407 71.0499 2.95108C70.4791 2.53808 69.5897 2.33297 68.3816 2.33297H65.2699C64.9956 2.33297 64.7795 2.42167 64.6216 2.60183C64.4636 2.77923 64.3833 3.02869 64.3833 3.34467V7.61318H68.3816V7.61041Z" fill="var(--fill-0, white)"/>
<path id="Vector_6" d="M2.15572 20.309C1.91189 20.309 1.69299 20.2841 1.49903 20.2314C1.30507 20.1815 1.13882 20.1067 1.00305 20.0069C0.864511 19.9071 0.761989 19.7824 0.689947 19.6327C0.617905 19.483 0.579113 19.314 0.570801 19.1227L1.29953 18.9148C1.3023 19.0867 1.34386 19.2308 1.42145 19.3444C1.49903 19.4581 1.60432 19.5412 1.74009 19.5939C1.87586 19.6466 2.03103 19.6743 2.20282 19.6743C2.36076 19.6743 2.49653 19.6549 2.60737 19.6161C2.7182 19.5773 2.8041 19.5218 2.86505 19.4553C2.92601 19.3888 2.95649 19.3112 2.95649 19.228C2.95649 19.131 2.9177 19.0506 2.84289 18.9869C2.76807 18.9259 2.66555 18.8732 2.53532 18.8317C2.4051 18.7901 2.25824 18.7513 2.09753 18.7125C1.91743 18.6681 1.74009 18.6182 1.56553 18.5684C1.39097 18.5185 1.2358 18.4519 1.09449 18.3688C0.953176 18.2856 0.842343 18.1803 0.759218 18.0473C0.676093 17.9142 0.634531 17.7507 0.634531 17.5511C0.634531 17.3211 0.692718 17.1243 0.809093 16.958C0.925468 16.7917 1.09449 16.6614 1.31062 16.5671C1.52951 16.4729 1.78997 16.4258 2.09476 16.4258C2.39955 16.4258 2.66555 16.4729 2.88999 16.5671C3.1172 16.6614 3.29176 16.7944 3.41368 16.969C3.5356 17.1437 3.59932 17.3488 3.59932 17.5899L2.85951 17.7701C2.86228 17.6537 2.84843 17.5511 2.81241 17.4624C2.77639 17.3737 2.72374 17.3017 2.65724 17.2435C2.59074 17.1852 2.50761 17.1409 2.41064 17.1076C2.31366 17.0771 2.2056 17.0605 2.08091 17.0605C1.93682 17.0605 1.81491 17.0799 1.71516 17.116C1.61264 17.1548 1.53782 17.2046 1.48518 17.2684C1.43253 17.3321 1.40482 17.407 1.40482 17.4874C1.40482 17.5899 1.44361 17.6731 1.52397 17.7368C1.60432 17.8006 1.71239 17.8532 1.84816 17.8948C1.9867 17.9364 2.13632 17.9752 2.30257 18.014C2.46328 18.0528 2.62676 18.0944 2.79301 18.147C2.95926 18.1997 3.11166 18.2662 3.25574 18.3466C3.39982 18.4298 3.51343 18.5406 3.59932 18.6765C3.68522 18.815 3.72955 18.9869 3.72955 19.192C3.72955 19.4221 3.6686 19.6216 3.54945 19.7879C3.4303 19.9542 3.2502 20.0845 3.01745 20.1732C2.78193 20.2647 2.49376 20.309 2.15572 20.309Z" fill="var(--fill-0, white)"/>
<path id="Vector_7" d="M5.63865 20.3087C5.38373 20.3087 5.1593 20.2699 4.97088 20.1951C4.78246 20.1202 4.62176 20.0121 4.49707 19.8763C4.36961 19.7377 4.2754 19.577 4.21167 19.3913C4.14794 19.2055 4.11469 19.0032 4.11469 18.7842C4.11469 18.5542 4.14517 18.3435 4.21167 18.1523C4.2754 17.961 4.36961 17.7919 4.49707 17.645C4.62453 17.4981 4.77969 17.3845 4.96534 17.3069C5.15098 17.2265 5.36711 17.1877 5.61094 17.1877C5.8714 17.1877 6.0903 17.232 6.2704 17.3207C6.45051 17.4094 6.59459 17.5286 6.69711 17.6811C6.79963 17.8335 6.86336 18.0081 6.88553 18.2022L6.14571 18.399C6.1374 18.2742 6.10969 18.1689 6.05982 18.083C6.00994 17.9971 5.94622 17.9305 5.86309 17.889C5.77996 17.8446 5.68576 17.8252 5.58046 17.8252C5.47517 17.8252 5.38373 17.8446 5.30338 17.8834C5.22303 17.9222 5.15653 17.9832 5.10388 18.0608C5.04846 18.1412 5.0069 18.2382 4.97919 18.3518C4.95148 18.4655 4.93763 18.5985 4.93763 18.751C4.93763 18.9533 4.96534 19.1252 5.01798 19.2665C5.07063 19.4079 5.14821 19.516 5.25628 19.588C5.36157 19.6629 5.49457 19.6989 5.65251 19.6989C5.79936 19.6989 5.91574 19.6684 6.00163 19.6047C6.08753 19.5437 6.15126 19.4633 6.19282 19.3663C6.23438 19.2693 6.25655 19.1723 6.26209 19.0697L6.98528 19.1945C6.97696 19.3497 6.94371 19.4938 6.88553 19.6269C6.82734 19.7599 6.74422 19.8791 6.63338 19.9789C6.52532 20.0814 6.38678 20.159 6.22053 20.22C6.05428 20.2782 5.86032 20.3087 5.63865 20.3087Z" fill="var(--fill-0, white)"/>
<path id="Vector_8" d="M7.40381 20.229V16.2266H8.21566V17.1024C8.21566 17.1773 8.21566 17.2632 8.20735 17.3602C8.20181 17.4572 8.1935 17.5542 8.17964 17.654C8.16579 17.7538 8.15193 17.8536 8.13808 17.9561C8.12422 18.0587 8.1076 18.1529 8.09375 18.2444H8.20181C8.24614 18.0143 8.30987 17.8231 8.39299 17.6651C8.47612 17.5099 8.58419 17.3907 8.71719 17.3103C8.85019 17.2299 9.01644 17.1884 9.21039 17.1884C9.55398 17.1884 9.80612 17.3075 9.97237 17.5459C10.1386 17.7843 10.2217 18.1502 10.2217 18.638V20.229H9.40989V18.7378C9.40989 18.444 9.36833 18.2278 9.28243 18.0864C9.19654 17.9451 9.06631 17.8758 8.88898 17.8758C8.74489 17.8758 8.62575 17.9201 8.52877 18.0116C8.43179 18.103 8.35698 18.2305 8.30156 18.3969C8.24891 18.5632 8.2212 18.7572 8.21566 18.9789V20.2318H7.40381V20.229Z" fill="var(--fill-0, white)"/>
<path id="Vector_9" d="M12.1972 20.3087C11.9035 20.3087 11.6458 20.2505 11.4214 20.1341C11.1969 20.0177 11.0224 19.843 10.8949 19.6102C10.7675 19.3774 10.7037 19.0891 10.7037 18.7454C10.7037 18.4017 10.7675 18.0996 10.8977 17.8696C11.0279 17.6395 11.2053 17.4676 11.4297 17.3568C11.6541 17.2431 11.9118 17.1877 12.1972 17.1877C12.4826 17.1877 12.7514 17.2459 12.9758 17.3623C13.2003 17.4787 13.3776 17.6534 13.5051 17.8834C13.6325 18.1162 13.6962 18.4045 13.6962 18.751C13.6962 19.0974 13.6297 19.3968 13.4995 19.6296C13.3693 19.8625 13.1892 20.0315 12.9647 20.1424C12.7375 20.2533 12.4826 20.3087 12.1972 20.3087ZM12.2249 19.7045C12.3635 19.7045 12.4826 19.6684 12.5796 19.5991C12.6766 19.5298 12.7514 19.4273 12.8013 19.2915C12.8511 19.1557 12.8788 18.9893 12.8788 18.7953C12.8788 18.5874 12.8511 18.4128 12.7957 18.2715C12.7403 18.1273 12.6627 18.0165 12.5602 17.9388C12.4577 17.8585 12.3302 17.8197 12.1751 17.8197C12.0365 17.8197 11.9174 17.8557 11.8176 17.925C11.7179 17.9943 11.6431 18.0968 11.5904 18.2327C11.5405 18.3685 11.5156 18.5348 11.5156 18.7343C11.5156 19.0476 11.5766 19.2859 11.7012 19.455C11.8259 19.6213 11.9977 19.7072 12.2194 19.7072L12.2249 19.7045Z" fill="var(--fill-0, white)"/>
<path id="Vector_10" d="M15.5666 20.3087C15.2728 20.3087 15.0152 20.2505 14.7907 20.1341C14.5663 20.0177 14.3917 19.843 14.2643 19.6102C14.1368 19.3774 14.0731 19.0891 14.0731 18.7454C14.0731 18.4017 14.1368 18.0996 14.267 17.8696C14.3973 17.6395 14.5746 17.4676 14.799 17.3568C15.0235 17.2431 15.2812 17.1877 15.5666 17.1877C15.852 17.1877 16.1207 17.2459 16.3452 17.3623C16.5696 17.4787 16.7469 17.6534 16.8744 17.8834C17.0018 18.1162 17.0656 18.4045 17.0656 18.751C17.0656 19.0974 16.9991 19.3968 16.8688 19.6296C16.7386 19.8625 16.5585 20.0315 16.3341 20.1424C16.1069 20.2533 15.852 20.3087 15.5666 20.3087ZM15.5943 19.7045C15.7328 19.7045 15.852 19.6684 15.9489 19.5991C16.0459 19.5298 16.1207 19.4273 16.1706 19.2915C16.2205 19.1557 16.2482 18.9893 16.2482 18.7953C16.2482 18.5874 16.2205 18.4128 16.1651 18.2715C16.1096 18.1273 16.0321 18.0165 15.9295 17.9388C15.827 17.8585 15.6996 17.8197 15.5444 17.8197C15.4058 17.8197 15.2867 17.8557 15.1869 17.925C15.0872 17.9943 15.0124 18.0968 14.9597 18.2327C14.9099 18.3685 14.8849 18.5348 14.8849 18.7343C14.8849 19.0476 14.9459 19.2859 15.0706 19.455C15.1953 19.6213 15.3671 19.7072 15.5887 19.7072L15.5943 19.7045Z" fill="var(--fill-0, white)"/>
<path id="Vector_11" d="M17.5864 20.229V16.2266H18.3872V20.229H17.5864Z" fill="var(--fill-0, white)"/>
<path id="Vector_12" d="M21.6679 20.3087C21.3742 20.3087 21.1165 20.2505 20.8921 20.1341C20.6677 20.0177 20.4931 19.843 20.3656 19.6102C20.2382 19.3774 20.1745 19.0891 20.1745 18.7454C20.1745 18.4017 20.2382 18.0996 20.3684 17.8696C20.4986 17.6395 20.676 17.4676 20.9004 17.3568C21.1249 17.2431 21.3825 17.1877 21.6679 17.1877C21.9533 17.1877 22.2221 17.2459 22.4465 17.3623C22.671 17.4787 22.8483 17.6534 22.9758 17.8834C23.1032 18.1162 23.167 18.4045 23.167 18.751C23.167 19.0974 23.1005 19.3968 22.9702 19.6296C22.84 19.8625 22.6599 20.0315 22.4355 20.1424C22.2082 20.2533 21.9533 20.3087 21.6679 20.3087ZM21.6956 19.7045C21.8342 19.7045 21.9533 19.6684 22.0503 19.5991C22.1473 19.5298 22.2221 19.4273 22.272 19.2915C22.3219 19.1557 22.3496 18.9893 22.3496 18.7953C22.3496 18.5874 22.3219 18.4128 22.2664 18.2715C22.211 18.1273 22.1334 18.0165 22.0309 17.9388C21.9284 17.8585 21.8009 17.8197 21.6458 17.8197C21.5072 17.8197 21.3881 17.8557 21.2883 17.925C21.1886 17.9943 21.1138 18.0968 21.0611 18.2327C21.0112 18.3685 20.9863 18.5348 20.9863 18.7343C20.9863 19.0476 21.0473 19.2859 21.172 19.455C21.2966 19.6213 21.4684 19.7072 21.6901 19.7072L21.6956 19.7045Z" fill="var(--fill-0, white)"/>
<path id="Vector_13" d="M23.9206 20.229V18.3387H23.4634V17.7455L24.2752 17.7844V17.6929C24.1201 17.6652 23.9981 17.618 23.9095 17.546C23.818 17.4739 23.7543 17.3908 23.7155 17.2937C23.6767 17.1967 23.6573 17.0997 23.6573 16.9972C23.6573 16.8309 23.6989 16.6895 23.782 16.5703C23.8651 16.4511 23.9815 16.3597 24.1339 16.2931C24.2863 16.2266 24.4636 16.1934 24.6659 16.1934C24.8349 16.1934 24.9901 16.2155 25.1286 16.2571C25.2672 16.3015 25.3836 16.3569 25.4722 16.429L25.4168 17.1635C25.3226 17.097 25.2229 17.0415 25.1148 17.0027C25.0067 16.9639 24.9042 16.9445 24.8017 16.9445C24.6881 16.9445 24.5939 16.975 24.5191 17.036C24.4443 17.097 24.4055 17.1912 24.4055 17.3187C24.4055 17.4046 24.4249 17.4767 24.4636 17.5293C24.5024 17.5848 24.5523 17.6236 24.616 17.6513C24.6798 17.679 24.7435 17.6957 24.8155 17.7012H25.4528V18.3332H24.713V20.2235H23.9178L23.9206 20.229Z" fill="var(--fill-0, white)"/>
<path id="Vector_14" d="M27.1763 20.2292V16.5039H27.9937V20.2292H27.1763ZM27.7471 17.1691V16.5039H29.9776V17.1691H27.7471ZM27.7471 18.6492V18.045H29.706V18.6492H27.7471ZM27.7471 20.2292V19.5639H29.9831V20.2292H27.7471Z" fill="var(--fill-0, white)"/>
<path id="Vector_15" d="M30.4627 20.2289V17.2659H31.1333L31.1277 18.2527H31.2192C31.2607 18.0115 31.3245 17.812 31.4104 17.654C31.4963 17.496 31.6099 17.3768 31.7484 17.302C31.8869 17.2244 32.056 17.1855 32.2499 17.1855C32.588 17.1855 32.8429 17.302 33.0174 17.5376C33.1892 17.7732 33.2779 18.139 33.2779 18.6352V20.2262H32.466V18.7239C32.466 18.4273 32.4217 18.2111 32.3358 18.0753C32.2499 17.9395 32.1197 17.8729 31.9451 17.8729C31.801 17.8729 31.6791 17.9201 31.5821 18.0115C31.4824 18.103 31.4048 18.2305 31.3522 18.3968C31.2995 18.5603 31.2718 18.7544 31.2718 18.9761V20.2289H30.46H30.4627Z" fill="var(--fill-0, white)"/>
<path id="Vector_16" d="M35.0039 20.298C34.6686 20.298 34.4248 20.2093 34.2669 20.0346C34.1117 19.86 34.0313 19.5828 34.0313 19.2087V17.9032H33.624L33.6351 17.2989H33.8679C34.0064 17.2906 34.1089 17.2601 34.1726 17.2047C34.2364 17.1492 34.2752 17.0578 34.2918 16.9303L34.3472 16.5977H34.8155V17.2629H35.5498V17.9226H34.8155V19.1643C34.8155 19.3001 34.846 19.3999 34.9125 19.4609C34.9762 19.5219 35.0704 19.5551 35.1951 19.5551C35.2616 19.5551 35.3309 19.5468 35.3946 19.533C35.4611 19.5191 35.5165 19.4941 35.5664 19.4609V20.2065C35.4528 20.2453 35.3503 20.2675 35.2533 20.2786C35.1563 20.2896 35.0732 20.2952 35.0011 20.2952L35.0039 20.298Z" fill="var(--fill-0, white)"/>
<path id="Vector_17" d="M36.0791 20.2288V17.2657H36.7607L36.7552 18.3329H36.8522C36.8799 18.0668 36.927 17.8478 36.999 17.6815C37.0711 17.5152 37.168 17.3905 37.2927 17.3156C37.4174 17.238 37.5698 17.1992 37.7499 17.1992C37.7915 17.1992 37.8358 17.1992 37.8829 17.2075C37.93 17.2131 37.9827 17.2242 38.0381 17.2436L38.0048 18.1139C37.9411 18.0834 37.8746 18.0612 37.8053 18.0501C37.7361 18.0363 37.6751 18.0307 37.6225 18.0307C37.4784 18.0307 37.3565 18.0668 37.2567 18.1361C37.1542 18.2054 37.0738 18.3079 37.0129 18.441C36.9519 18.574 36.9131 18.7403 36.8937 18.9343V20.2343H36.0819L36.0791 20.2288Z" fill="var(--fill-0, white)"/>
<path id="Vector_18" d="M39.8031 20.3087C39.5509 20.3087 39.3292 20.2727 39.1408 20.2006C38.9496 20.1285 38.7917 20.0288 38.6642 19.8985C38.5368 19.7682 38.4398 19.6102 38.3733 19.4245C38.3068 19.2388 38.2736 19.0309 38.2736 18.8009C38.2736 18.5708 38.304 18.3574 38.3705 18.1634C38.4343 17.9666 38.5285 17.7975 38.6532 17.6506C38.7778 17.5037 38.9302 17.39 39.1159 17.3097C39.3015 17.2293 39.5093 17.1877 39.7421 17.1877C39.9748 17.1877 40.1799 17.2265 40.3572 17.3041C40.5346 17.3817 40.6786 17.4926 40.795 17.6395C40.9086 17.7864 40.9917 17.9666 41.0444 18.1772C41.0943 18.3879 41.1081 18.6262 41.086 18.8896L38.8 18.9117V18.4655L40.5789 18.4433L40.3351 18.6817C40.3572 18.4904 40.3461 18.3297 40.299 18.2022C40.2519 18.0747 40.1799 17.9804 40.0857 17.9167C39.9887 17.8557 39.8806 17.8224 39.756 17.8224C39.6091 17.8224 39.4844 17.8612 39.3819 17.9388C39.2794 18.0165 39.199 18.1273 39.1436 18.2687C39.0882 18.4128 39.0577 18.5819 39.0577 18.7815C39.0577 19.1002 39.1242 19.3358 39.2572 19.4883C39.3902 19.6379 39.5731 19.7155 39.8086 19.7155C39.9139 19.7155 40.0026 19.7017 40.0746 19.674C40.1466 19.6463 40.2048 19.6074 40.2519 19.5603C40.299 19.5132 40.3351 19.4605 40.36 19.3996C40.3849 19.3386 40.4016 19.2804 40.4126 19.2194L41.1303 19.3441C41.1109 19.4799 41.0721 19.6074 41.0111 19.7239C40.9502 19.843 40.8671 19.9456 40.759 20.0315C40.6509 20.1175 40.5207 20.1867 40.3628 20.2366C40.2076 20.2865 40.022 20.3142 39.8058 20.3142L39.8031 20.3087Z" fill="var(--fill-0, white)"/>
<path id="Vector_19" d="M41.6263 21.1436V17.2632H42.3079V18.1169L42.3938 18.1224C42.4326 17.9145 42.4936 17.7427 42.5767 17.6041C42.6598 17.4655 42.7707 17.3602 42.9037 17.2909C43.0367 17.2216 43.1946 17.1855 43.3747 17.1855C43.6268 17.1855 43.843 17.2493 44.0258 17.374C44.2087 17.5015 44.3473 17.6789 44.4442 17.9145C44.5412 18.1501 44.5883 18.4273 44.5883 18.7544C44.5883 19.0814 44.544 19.3392 44.4526 19.572C44.3611 19.8049 44.2309 19.985 44.0536 20.1153C43.879 20.2428 43.6629 20.3066 43.408 20.3066C43.2223 20.3066 43.0671 20.2705 42.9369 20.1957C42.8067 20.1236 42.6986 20.0183 42.6127 19.8797C42.5268 19.7411 42.4576 19.5776 42.4105 19.3863H42.319C42.3384 19.4944 42.3578 19.6053 42.3744 19.7134C42.3938 19.8215 42.4077 19.9296 42.4188 20.0349C42.4298 20.1402 42.4354 20.24 42.4354 20.3343V21.1409H41.6235L41.6263 21.1436ZM43.1281 19.6469C43.2611 19.6469 43.3719 19.6081 43.4634 19.5332C43.5548 19.4584 43.6269 19.3531 43.674 19.22C43.7238 19.087 43.746 18.9345 43.746 18.7655C43.746 18.5797 43.7211 18.4218 43.6684 18.2887C43.6158 18.1557 43.5437 18.0503 43.4495 17.9755C43.3525 17.9007 43.2417 17.8619 43.1142 17.8619C43.0006 17.8619 42.9037 17.8868 42.8178 17.9395C42.7319 17.9921 42.6626 18.0559 42.6072 18.139C42.5518 18.2222 42.5074 18.3137 42.477 18.4134C42.4465 18.5132 42.4326 18.613 42.4326 18.7156V18.807C42.4326 18.8902 42.4437 18.9706 42.4631 19.0509C42.4825 19.1313 42.513 19.2062 42.5545 19.2782C42.5933 19.3503 42.6432 19.414 42.6986 19.4695C42.754 19.5249 42.8178 19.5693 42.8898 19.6025C42.9618 19.6358 43.0394 19.6496 43.1281 19.6496V19.6469Z" fill="var(--fill-0, white)"/>
<path id="Vector_20" d="M45.1201 20.2288V17.2657H45.8017L45.7962 18.3329H45.8932C45.9209 18.0668 45.968 17.8478 46.04 17.6815C46.1121 17.5152 46.209 17.3905 46.3337 17.3156C46.4584 17.238 46.6108 17.1992 46.7909 17.1992C46.8325 17.1992 46.8768 17.1992 46.9239 17.2075C46.971 17.2131 47.0237 17.2242 47.0791 17.2436L47.0458 18.1139C46.9821 18.0834 46.9156 18.0612 46.8463 18.0501C46.7771 18.0363 46.7161 18.0307 46.6635 18.0307C46.5194 18.0307 46.3975 18.0668 46.2977 18.1361C46.1952 18.2054 46.1148 18.3079 46.0539 18.441C45.9929 18.574 45.9541 18.7403 45.9347 18.9343V20.2343H45.1229L45.1201 20.2288Z" fill="var(--fill-0, white)"/>
<path id="Vector_21" d="M48.8443 20.3087C48.5921 20.3087 48.3705 20.2727 48.1821 20.2006C47.9909 20.1285 47.8329 20.0288 47.7055 19.8985C47.578 19.7682 47.481 19.6102 47.4145 19.4245C47.348 19.2388 47.3148 19.0309 47.3148 18.8009C47.3148 18.5708 47.3453 18.3574 47.4118 18.1634C47.4755 17.9666 47.5697 17.7975 47.6944 17.6506C47.8191 17.5037 47.9715 17.39 48.1571 17.3097C48.3428 17.2293 48.5506 17.1877 48.7833 17.1877C49.0161 17.1877 49.2211 17.2265 49.3985 17.3041C49.5758 17.3817 49.7199 17.4926 49.8363 17.6395C49.9499 17.7864 50.033 17.9666 50.0856 18.1772C50.1383 18.3879 50.1494 18.6262 50.1272 18.8896L47.8412 18.9117V18.4655L49.6201 18.4433L49.3763 18.6817C49.3985 18.4904 49.3874 18.3297 49.3403 18.2022C49.2932 18.0747 49.2211 17.9804 49.1269 17.9167C49.0299 17.8557 48.9219 17.8224 48.7972 17.8224C48.6503 17.8224 48.5256 17.8612 48.4231 17.9388C48.3206 18.0165 48.2403 18.1273 48.1848 18.2687C48.1294 18.4128 48.0989 18.5819 48.0989 18.7815C48.0989 19.1002 48.1654 19.3358 48.2984 19.4883C48.4314 19.6379 48.6143 19.7155 48.8498 19.7155C48.9551 19.7155 49.0438 19.7017 49.1158 19.674C49.1879 19.6463 49.2461 19.6074 49.2932 19.5603C49.3403 19.5132 49.3763 19.4605 49.4012 19.3996C49.4262 19.3386 49.4428 19.2804 49.4539 19.2194L50.1715 19.3441C50.1521 19.4799 50.1133 19.6074 50.0524 19.7239C49.9914 19.843 49.9083 19.9456 49.8002 20.0315C49.6922 20.1175 49.5619 20.1867 49.404 20.2366C49.2488 20.2865 49.0632 20.3142 48.8471 20.3142L48.8443 20.3087Z" fill="var(--fill-0, white)"/>
<path id="Vector_22" d="M50.6673 20.2289V17.2659H51.3379L51.3323 18.2527H51.4238C51.4653 18.0115 51.5291 17.812 51.615 17.654C51.7008 17.496 51.8145 17.3768 51.953 17.302C52.0915 17.2244 52.2606 17.1855 52.4545 17.1855C52.7926 17.1855 53.0475 17.302 53.222 17.5376C53.3938 17.7732 53.4825 18.139 53.4825 18.6352V20.2262H52.6706V18.7239C52.6706 18.4273 52.6263 18.2111 52.5404 18.0753C52.4545 17.9395 52.3243 17.8729 52.1497 17.8729C52.0056 17.8729 51.8837 17.9201 51.7867 18.0115C51.687 18.103 51.6094 18.2305 51.5568 18.3968C51.5041 18.5603 51.4764 18.7544 51.4764 18.9761V20.2289H50.6646H50.6673Z" fill="var(--fill-0, white)"/>
<path id="Vector_23" d="M55.4943 20.3087C55.2422 20.3087 55.0205 20.2727 54.8321 20.2006C54.6409 20.1285 54.4829 20.0288 54.3555 19.8985C54.228 19.7682 54.131 19.6102 54.0645 19.4245C53.998 19.2388 53.9648 19.0309 53.9648 18.8009C53.9648 18.5708 53.9953 18.3574 54.0618 18.1634C54.1255 17.9666 54.2197 17.7975 54.3444 17.6506C54.4691 17.5037 54.6215 17.39 54.8071 17.3097C54.9928 17.2293 55.2006 17.1877 55.4333 17.1877C55.6661 17.1877 55.8711 17.2265 56.0485 17.3041C56.2258 17.3817 56.3699 17.4926 56.4863 17.6395C56.5999 17.7864 56.683 17.9666 56.7356 18.1772C56.7883 18.3879 56.7994 18.6262 56.7772 18.8896L54.4913 18.9117V18.4655L56.2701 18.4433L56.0263 18.6817C56.0485 18.4904 56.0374 18.3297 55.9903 18.2022C55.9432 18.0747 55.8711 17.9804 55.7769 17.9167C55.6799 17.8557 55.5719 17.8224 55.4472 17.8224C55.3003 17.8224 55.1756 17.8612 55.0731 17.9388C54.9706 18.0165 54.8903 18.1273 54.8348 18.2687C54.7794 18.4128 54.7489 18.5819 54.7489 18.7815C54.7489 19.1002 54.8154 19.3358 54.9484 19.4883C55.0814 19.6379 55.2643 19.7155 55.4998 19.7155C55.6051 19.7155 55.6938 19.7017 55.7658 19.674C55.8379 19.6463 55.8961 19.6074 55.9432 19.5603C55.9903 19.5132 56.0263 19.4605 56.0512 19.3996C56.0762 19.3386 56.0928 19.2804 56.1039 19.2194L56.8215 19.3441C56.8021 19.4799 56.7633 19.6074 56.7024 19.7239C56.6414 19.843 56.5583 19.9456 56.4502 20.0315C56.3422 20.1175 56.2119 20.1867 56.054 20.2366C55.8988 20.2865 55.7132 20.3142 55.4971 20.3142L55.4943 20.3087Z" fill="var(--fill-0, white)"/>
<path id="Vector_24" d="M58.3232 20.309C57.9796 20.309 57.7247 20.1926 57.5557 19.957C57.3867 19.7214 57.3008 19.3638 57.3008 18.8871V17.2656H58.1126V18.8067C58.1126 19.0894 58.1542 19.2973 58.2373 19.4276C58.3205 19.5579 58.4451 19.6244 58.6169 19.6244C58.7194 19.6244 58.8081 19.5994 58.8857 19.5468C58.9633 19.4969 59.0298 19.4221 59.0852 19.3278C59.1406 19.2308 59.185 19.1172 59.2154 18.9813C59.2459 18.8455 59.2625 18.6959 59.2653 18.5295V17.2656H60.0772V20.2286H59.4066L59.4122 19.2336H59.3207C59.2764 19.483 59.2099 19.6854 59.1268 19.8434C59.0436 20.0014 58.9328 20.1178 58.8026 20.1926C58.6723 20.2674 58.5116 20.3062 58.3232 20.3062V20.309Z" fill="var(--fill-0, white)"/>
<path id="Vector_25" d="M60.7451 20.2288V17.2657H61.4267L61.4212 18.3329H61.5182C61.5459 18.0668 61.593 17.8478 61.665 17.6815C61.7371 17.5152 61.8341 17.3905 61.9587 17.3156C62.0834 17.238 62.2358 17.1992 62.4159 17.1992C62.4575 17.1992 62.5018 17.1992 62.5489 17.2075C62.596 17.2131 62.6487 17.2242 62.7041 17.2436L62.6709 18.1139C62.6071 18.0834 62.5406 18.0612 62.4714 18.0501C62.4021 18.0363 62.3411 18.0307 62.2885 18.0307C62.1444 18.0307 62.0225 18.0668 61.9227 18.1361C61.8202 18.2054 61.7398 18.3079 61.6789 18.441C61.6179 18.574 61.5791 18.7403 61.5597 18.9343V20.2343H60.7479L60.7451 20.2288Z" fill="var(--fill-0, white)"/>
<path id="Vector_26" d="M64.3109 20.3093C64.1114 20.3093 63.9285 20.2899 63.765 20.2511C63.6015 20.2123 63.4602 20.1541 63.3411 20.0793C63.2219 20.0044 63.1277 19.9102 63.0584 19.7993C62.9892 19.6884 62.9476 19.5582 62.9365 19.4113L63.5794 19.2145C63.5904 19.3087 63.6292 19.3946 63.693 19.4723C63.7567 19.5499 63.8426 19.6081 63.9534 19.6496C64.0615 19.6912 64.1973 19.7106 64.3552 19.7106C64.5131 19.7106 64.6461 19.6857 64.7403 19.6386C64.8345 19.5914 64.8816 19.5166 64.8816 19.4196C64.8816 19.3475 64.8567 19.2921 64.8096 19.2533C64.7597 19.2145 64.6877 19.1784 64.5907 19.148C64.4937 19.1175 64.3718 19.087 64.225 19.0565C64.0753 19.0232 63.9257 18.9844 63.7789 18.9428C63.632 18.9013 63.499 18.8458 63.3799 18.7793C63.2607 18.71 63.1665 18.6241 63.0945 18.516C63.0224 18.4079 62.9864 18.2721 62.9864 18.1058C62.9864 17.9228 63.0363 17.7593 63.136 17.6235C63.2358 17.4849 63.3799 17.3796 63.5683 17.302C63.7567 17.2244 63.9811 17.1855 64.2471 17.1855C64.4882 17.1855 64.7015 17.2188 64.89 17.2881C65.0784 17.3574 65.2308 17.4572 65.3472 17.5875C65.4635 17.7177 65.5328 17.884 65.555 18.0781L64.8844 18.2582C64.8761 18.1557 64.8456 18.0697 64.7902 17.9977C64.7348 17.9256 64.66 17.8729 64.5658 17.8369C64.4716 17.8009 64.3635 17.7842 64.2388 17.7842C64.0809 17.7842 63.959 17.812 63.8731 17.8646C63.7872 17.9173 63.7428 17.9894 63.7428 18.0781C63.7428 18.1473 63.7705 18.2028 63.8287 18.2471C63.8841 18.2915 63.9645 18.3303 64.0698 18.358C64.1723 18.3857 64.297 18.4162 64.4383 18.4467C64.5852 18.4772 64.7293 18.5104 64.8706 18.552C65.0119 18.5908 65.1393 18.6435 65.2557 18.71C65.3721 18.7765 65.4663 18.8625 65.5356 18.9678C65.6048 19.0731 65.6409 19.2117 65.6409 19.3808C65.6409 19.572 65.5882 19.7383 65.4829 19.8769C65.3776 20.0155 65.228 20.1236 65.0313 20.1985C64.8345 20.2733 64.5963 20.3121 64.3136 20.3121L64.3109 20.3093Z" fill="var(--fill-0, white)"/>
<path id="Vector_27" d="M66.1289 20.229V16.2266H66.9408V17.1024C66.9408 17.1773 66.9408 17.2632 66.9325 17.3602C66.9269 17.4572 66.9186 17.5542 66.9047 17.654C66.8909 17.7538 66.877 17.8536 66.8632 17.9561C66.8493 18.0587 66.8327 18.1529 66.8189 18.2444H66.9269C66.9712 18.0143 67.035 17.8231 67.1181 17.6651C67.2012 17.5099 67.3093 17.3907 67.4423 17.3103C67.5753 17.2299 67.7415 17.1884 67.9355 17.1884C68.2791 17.1884 68.5312 17.3075 68.6975 17.5459C68.8637 17.7843 68.9468 18.1502 68.9468 18.638V20.229H68.135V18.7378C68.135 18.444 68.0934 18.2278 68.0075 18.0864C67.9216 17.9451 67.7914 17.8758 67.6141 17.8758C67.47 17.8758 67.3508 17.9201 67.2539 18.0116C67.1569 18.103 67.0821 18.2305 67.0267 18.3969C66.974 18.5632 66.9463 18.7572 66.9408 18.9789V20.2318H66.1289V20.229Z" fill="var(--fill-0, white)"/>
<path id="Vector_28" d="M69.9773 16.8692C69.8193 16.8692 69.6974 16.836 69.6143 16.7694C69.5311 16.7029 69.4868 16.6059 69.4868 16.4784C69.4868 16.3509 69.5284 16.2483 69.6143 16.1818C69.7002 16.1153 69.8193 16.082 69.9773 16.082C70.1352 16.082 70.2626 16.1153 70.343 16.1846C70.4261 16.2539 70.4677 16.3509 70.4677 16.4784C70.4677 16.6059 70.4261 16.6974 70.343 16.7667C70.2599 16.8332 70.138 16.8692 69.9773 16.8692ZM69.5727 20.2286V17.2656H70.3846V20.2286H69.5727Z" fill="var(--fill-0, white)"/>
<path id="Vector_29" d="M71.0496 21.1436V17.2632H71.7313V18.1169L71.8172 18.1224C71.856 17.9145 71.9169 17.7427 72 17.6041C72.0832 17.4655 72.194 17.3602 72.327 17.2909C72.46 17.2216 72.6179 17.1855 72.798 17.1855C73.0502 17.1855 73.2663 17.2493 73.4492 17.374C73.6321 17.5015 73.7706 17.6789 73.8676 17.9145C73.9646 18.1501 74.0117 18.4273 74.0117 18.7544C74.0117 19.0814 73.9673 19.3392 73.8759 19.572C73.7845 19.8049 73.6542 19.985 73.4769 20.1153C73.3023 20.2428 73.0862 20.3066 72.8313 20.3066C72.6456 20.3066 72.4905 20.2705 72.3603 20.1957C72.23 20.1236 72.122 20.0183 72.0361 19.8797C71.9502 19.7411 71.8809 19.5776 71.8338 19.3863H71.7424C71.7618 19.4944 71.7812 19.6053 71.7978 19.7134C71.8172 19.8215 71.831 19.9296 71.8421 20.0349C71.8532 20.1402 71.8587 20.24 71.8587 20.3343V21.1409H71.0469L71.0496 21.1436ZM72.5514 19.6469C72.6844 19.6469 72.7953 19.6081 72.8867 19.5332C72.9782 19.4584 73.0502 19.3531 73.0973 19.22C73.1472 19.087 73.1693 18.9345 73.1693 18.7655C73.1693 18.5797 73.1444 18.4218 73.0918 18.2887C73.0391 18.1557 72.9671 18.0503 72.8729 17.9755C72.7759 17.9007 72.665 17.8619 72.5376 17.8619C72.424 17.8619 72.327 17.8868 72.2411 17.9395C72.1552 17.9921 72.0859 18.0559 72.0305 18.139C71.9751 18.2222 71.9308 18.3137 71.9003 18.4134C71.8698 18.5132 71.856 18.613 71.856 18.7156V18.807C71.856 18.8902 71.867 18.9706 71.8864 19.0509C71.9058 19.1313 71.9363 19.2062 71.9779 19.2782C72.0167 19.3503 72.0665 19.414 72.122 19.4695C72.1774 19.5249 72.2411 19.5693 72.3131 19.6025C72.3852 19.6358 72.4628 19.6496 72.5514 19.6496V19.6469Z" fill="var(--fill-0, white)"/>
</g>
</svg>
