<svg preserveAspectRatio="none" width="100%" height="100%" overflow="visible" style="display: block;" viewBox="0 0 167 167" fill="none" xmlns="http://www.w3.org/2000/svg">
<g id="Group" style="mix-blend-mode:screen">
<path id="Vector" d="M1 83.8176C1 49.471 0.999994 32.2977 9.68692 20.2195C12.6064 16.1601 16.1663 12.6017 20.2274 9.68339C32.3105 1.00001 49.4907 1 83.8513 1C118.212 1 135.392 1.00001 147.475 9.68339C151.536 12.6017 155.096 16.1601 158.016 20.2195C166.703 32.2977 166.703 49.471 166.703 83.8176C166.703 118.164 166.703 135.337 158.016 147.416C155.096 151.475 151.536 155.033 147.475 157.952C135.392 166.635 118.212 166.635 83.8513 166.635C49.4907 166.635 32.3105 166.635 20.2274 157.952C16.1663 155.033 12.6064 151.475 9.68692 147.416C0.999994 135.337 1 118.164 1 83.8176Z" fill="url(#paint0_linear_2180_50744)" fill-opacity="0.7"/>
<path id="Vector_2" d="M1.36719 83.8183C1.36719 66.637 1.36792 53.7797 2.45085 43.7075C3.53378 33.6419 5.69378 26.4008 9.98519 20.4343C12.8814 16.4069 16.413 12.8767 20.442 9.98168C26.411 5.69202 33.655 3.5329 43.7247 2.45041C53.8011 1.36792 66.6635 1.36719 83.8519 1.36719C101.04 1.36719 113.903 1.36792 123.979 2.45041C134.049 3.5329 141.293 5.69202 147.262 9.98168C151.291 12.8767 154.822 16.4069 157.719 20.4343C162.01 26.4008 164.17 33.6419 165.253 43.7075C166.336 53.7797 166.337 66.637 166.337 83.8183C166.337 101 166.336 113.857 165.253 123.929C164.17 133.995 162.01 141.236 157.719 147.202C154.822 151.23 151.291 154.76 147.262 157.655C141.293 161.945 134.049 164.104 123.979 165.186C113.903 166.269 101.04 166.269 83.8519 166.269C66.6635 166.269 53.8011 166.269 43.7247 165.186C33.655 164.104 26.411 161.945 20.442 157.655C16.413 154.76 12.8814 151.23 9.98519 147.202C5.69378 141.236 3.53378 133.995 2.45085 123.929C1.36792 113.857 1.36719 101 1.36719 83.8183Z" stroke="url(#paint1_linear_2180_50744)" stroke-opacity="0.4"/>
<path id="Vector_3" d="M1.36719 83.8183C1.36719 66.637 1.36792 53.7797 2.45085 43.7075C3.53378 33.6419 5.69378 26.4008 9.98519 20.4343C12.8814 16.4069 16.413 12.8767 20.442 9.98168C26.411 5.69202 33.655 3.5329 43.7247 2.45041C53.8011 1.36792 66.6635 1.36719 83.8519 1.36719C101.04 1.36719 113.903 1.36792 123.979 2.45041C134.049 3.5329 141.293 5.69202 147.262 9.98168C151.291 12.8767 154.822 16.4069 157.719 20.4343C162.01 26.4008 164.17 33.6419 165.253 43.7075C166.336 53.7797 166.337 66.637 166.337 83.8183C166.337 101 166.336 113.857 165.253 123.929C164.17 133.995 162.01 141.236 157.719 147.202C154.822 151.23 151.291 154.76 147.262 157.655C141.293 161.945 134.049 164.104 123.979 165.186C113.903 166.269 101.04 166.269 83.8519 166.269C66.6635 166.269 53.8011 166.269 43.7247 165.186C33.655 164.104 26.411 161.945 20.442 157.655C16.413 154.76 12.8814 151.23 9.98519 147.202C5.69378 141.236 3.53378 133.995 2.45085 123.929C1.36792 113.857 1.36719 101 1.36719 83.8183Z" stroke="var(--stroke-0, #DDDDDD)" stroke-opacity="0.1"/>
</g>
<defs>
<linearGradient id="paint0_linear_2180_50744" x1="59.0978" y1="10.6794" x2="64.7901" y2="139.02" gradientUnits="userSpaceOnUse">
<stop stop-color="#12151A"/>
<stop offset="1" stop-color="#1B2026" stop-opacity="0.35"/>
</linearGradient>
<linearGradient id="paint1_linear_2180_50744" x1="-4.39135" y1="-15.4169" x2="53.1512" y2="42.9108" gradientUnits="userSpaceOnUse">
<stop stop-color="white"/>
<stop offset="1" stop-color="white" stop-opacity="0"/>
</linearGradient>
</defs>
</svg>
