<svg preserveAspectRatio="none" width="100%" height="100%" overflow="visible" style="display: block;" viewBox="0 0 40 40" fill="none" xmlns="http://www.w3.org/2000/svg">
<g id="Group">
<path id="Vector" d="M40 11.7188V37.6562H28.0805C24.8051 37.6562 23.0825 39.8772 22.907 40H17.093C16.915 39.8755 15.217 37.6562 11.9195 37.6562H0V9.375H2.34375V35.3125H11.9297C15.5923 35.3125 17.6311 37.379 18.1391 37.6562H21.8609C22.3687 37.3791 24.408 35.3125 28.0703 35.3125H37.6562V11.7188H40Z" fill="var(--fill-0, white)"/>
<path id="Vector_2" d="M16.4789 33.9039C15.0555 33.2883 13.5156 32.9688 11.9297 32.9688H4.6875V4.6875H7.03125V28.2812H10.5469C13.7406 28.2812 16.3531 30.782 16.4789 33.9039ZM28.0703 7.03125C25.588 7.03125 23.1971 7.68156 21.0895 8.92508C21.1445 9.46393 21.172 10.0052 21.1719 10.5469V35.2634C21.3492 35.1344 21.5295 35.0096 21.7127 34.8891C25.3312 32.4759 27.8244 32.9688 35.3125 32.9688V7.03125H28.0703Z" fill="var(--fill-0, white)"/>
<path id="Vector_3" d="M18.8281 34.1406C18.8281 29.6174 15.1132 25.9375 10.5469 25.9375H9.375V0C15.2337 0 18.8281 4.73133 18.8281 10.5469V34.1406Z" fill="var(--fill-0, white)"/>
</g>
</svg>
