<svg preserveAspectRatio="none" width="100%" height="100%" overflow="visible" style="display: block;" viewBox="0 0 135 40" fill="none" xmlns="http://www.w3.org/2000/svg">
<g id="tild6232-3930-4532-a261-306531303064__google_play.svg">
<path id="Vector" d="M46.2887 9.45937H47.2787C47.0087 8.13937 45.9487 7.35938 44.5487 7.35938C42.6687 7.35938 41.4688 8.70937 41.4688 10.7294C41.4688 12.7394 42.5687 14.1294 44.4287 14.1294C45.3087 14.1294 46.0487 13.8294 46.4587 13.2094L46.4987 14.0094H47.2987V10.6394H44.6488V11.5194H46.3487V11.6594C46.3487 12.9194 45.3287 13.2694 44.5087 13.2694C43.3287 13.2694 42.5287 12.3394 42.5287 10.7294C42.5287 9.07937 43.3787 8.22937 44.5087 8.22937C45.4687 8.22937 46.0687 8.69937 46.2887 9.45937Z" fill="var(--fill-0, #111827)"/>
<path id="Vector_2" fill-rule="evenodd" clip-rule="evenodd" d="M52.9181 12.5881H51.9681C51.7681 13.0481 51.3681 13.3281 50.6981 13.3281C49.9481 13.3281 49.3781 12.7681 49.2881 11.8781H52.9781C53.0781 10.2981 52.2081 9.07812 50.7081 9.07812C49.3281 9.07812 48.3281 10.0781 48.3281 11.5781C48.3281 12.9781 49.1681 14.1281 50.7281 14.1281C51.9681 14.1281 52.6881 13.3881 52.9181 12.5881ZM51.9981 11.1381H49.2981C49.4181 10.2181 49.9581 9.83813 50.6981 9.83813C51.4681 9.83813 51.9681 10.4181 51.9981 11.1381Z" fill="var(--fill-0, #111827)"/>
<path id="Vector_3" d="M55.1114 7.93437H54.1814V9.17438H53.4414V9.87437H54.1814V12.7744C54.1814 13.7744 54.3914 14.0144 55.3814 14.0144H56.0614V13.2644H55.6614C55.1914 13.2644 55.1114 13.1444 55.1114 12.6444V9.88438H56.0714V9.17438H55.1114V7.93437ZM60.2014 8.52438V7.48438H59.2714V8.52438H60.2014ZM60.2014 14.0144V9.17438H59.2714V14.0044H60.2014V14.0144ZM62.6814 7.93437H61.7414V9.17438H61.0014V9.87437H61.7414V12.7744C61.7414 13.7744 61.9614 14.0144 62.9414 14.0144H63.6214V13.2644H63.2214C62.7614 13.2644 62.6814 13.1444 62.6814 12.6444V9.88438H63.6314V9.17438H62.6814V7.93437Z" fill="var(--fill-0, #111827)"/>
<path id="Vector_4" fill-rule="evenodd" clip-rule="evenodd" d="M68.8578 14.1281C70.0078 14.1281 71.2078 13.3481 71.2078 11.6081C71.2078 9.84812 70.0078 9.07812 68.8578 9.07812C67.7078 9.07812 66.5078 9.84812 66.5078 11.6081C66.5078 13.3481 67.7078 14.1281 68.8578 14.1281ZM70.2178 11.6081C70.2178 12.7881 69.5678 13.3281 68.8578 13.3281C68.1578 13.3281 67.4978 12.7981 67.4978 11.6081C67.4978 10.3781 68.1478 9.86812 68.8578 9.86812C69.5578 9.86812 70.2178 10.3981 70.2178 11.6081Z" fill="var(--fill-0, #111827)"/>
<path id="Vector_5" d="M74.7022 9.08031C73.9422 9.08031 73.4522 9.39031 73.1722 9.87031V9.17031H72.2422V14.0003H73.1722V11.4003C73.1722 10.4403 73.5722 9.85031 74.3822 9.85031C75.2622 9.85031 75.3822 10.5003 75.3822 11.2003V14.0003H76.3122V10.9503C76.3122 9.82031 75.8622 9.07031 74.6922 9.07031L74.7022 9.08031Z" fill="var(--fill-0, #111827)"/>
<path id="Vector_6" fill-rule="evenodd" clip-rule="evenodd" d="M63.8689 26.0006C63.8621 25.4389 63.9681 24.8816 64.1806 24.3616C64.393 23.8416 64.7076 23.3695 65.1057 22.9732C65.5039 22.5769 65.9774 22.2645 66.4984 22.0545C67.0194 21.8445 67.5772 21.7412 68.1389 21.7506C68.7005 21.7412 69.2584 21.8445 69.7794 22.0545C70.3004 22.2645 70.7739 22.5769 71.1721 22.9732C71.5702 23.3695 71.8848 23.8416 72.0972 24.3616C72.3097 24.8816 72.4157 25.4389 72.4089 26.0006C72.4157 26.5623 72.3097 27.1196 72.0972 27.6396C71.8848 28.1596 71.5702 28.6317 71.1721 29.028C70.7739 29.4243 70.3004 29.7366 69.7794 29.9466C69.2584 30.1566 68.7005 30.26 68.1389 30.2506C67.5772 30.26 67.0194 30.1566 66.4984 29.9466C65.9774 29.7366 65.5039 29.4243 65.1057 29.028C64.7076 28.6317 64.393 28.1596 64.1806 27.6396C63.9681 27.1196 63.8621 26.5623 63.8689 26.0006ZM65.7389 26.0006C65.7389 27.5206 66.8489 28.5806 68.1389 28.5806C69.4289 28.5806 70.5389 27.5306 70.5389 26.0006C70.5389 24.4706 69.4289 23.4206 68.1389 23.4206C66.8489 23.4206 65.7389 24.4806 65.7389 26.0006ZM54.5589 26.0006C54.5521 25.4389 54.6581 24.8816 54.8706 24.3616C55.083 23.8416 55.3976 23.3695 55.7957 22.9732C56.1939 22.5769 56.6674 22.2645 57.1884 22.0545C57.7094 21.8445 58.2673 21.7412 58.8289 21.7506C59.3905 21.7412 59.9484 21.8445 60.4694 22.0545C60.9904 22.2645 61.4639 22.5769 61.8621 22.9732C62.2602 23.3695 62.5748 23.8416 62.7872 24.3616C62.9997 24.8816 63.1057 25.4389 63.0989 26.0006C63.1057 26.5623 62.9997 27.1196 62.7872 27.6396C62.5748 28.1596 62.2602 28.6317 61.8621 29.028C61.4639 29.4243 60.9904 29.7366 60.4694 29.9466C59.9484 30.1566 59.3905 30.26 58.8289 30.2506C58.2673 30.26 57.7094 30.1566 57.1884 29.9466C56.6674 29.7366 56.1939 29.4243 55.7957 29.028C55.3976 28.6317 55.083 28.1596 54.8706 27.6396C54.6581 27.1196 54.5521 26.5623 54.5589 26.0006ZM56.4289 26.0006C56.4289 27.5206 57.5389 28.5806 58.8289 28.5806C60.1189 28.5806 61.2289 27.5306 61.2289 26.0006C61.2289 24.4706 60.1189 23.4206 58.8289 23.4206C57.5389 23.4206 56.4289 24.4806 56.4289 26.0006Z" fill="var(--fill-0, #111827)"/>
<path id="Vector_7" d="M47.7508 24.8499V23.0599H53.8208C53.8908 23.3799 53.9208 23.7699 53.9208 24.1899C53.9208 25.5399 53.5508 27.2199 52.3608 28.4099C51.7678 29.0279 51.05 29.5126 50.2551 29.8316C49.4602 30.1506 48.6065 30.2966 47.7508 30.2599C45.9893 30.26 44.2986 29.5665 43.0447 28.3294C41.7908 27.0923 41.0744 25.4112 41.0508 23.6499C41.0744 21.8885 41.7908 20.2074 43.0447 18.9703C44.2986 17.7332 45.9893 17.0397 47.7508 17.0399C48.589 17.0266 49.4214 17.1807 50.1992 17.4932C50.9771 17.8057 51.6848 18.2704 52.2808 18.8599L51.0108 20.1299C50.3335 19.4917 49.4833 19.0671 48.5663 18.9089C47.6493 18.7507 46.706 18.8659 45.854 19.2402C45.002 19.6144 44.279 20.2312 43.7752 21.0136C43.2714 21.796 43.009 22.7094 43.0208 23.6399C43.0208 26.2999 45.1008 28.4399 47.7608 28.4399C49.4808 28.4399 50.4608 27.7499 51.0908 27.1199C51.6614 26.4936 52.0063 25.6946 52.0708 24.8499H47.7508Z" fill="var(--fill-0, #111827)"/>
<path id="Vector_8" fill-rule="evenodd" clip-rule="evenodd" d="M89.4211 21.7344C91.6311 21.7344 92.7111 23.4944 93.0611 24.4444H93.0711L93.2611 24.9244L87.5711 27.2744C87.7443 27.6721 88.0337 28.0082 88.4014 28.2384C88.769 28.4686 89.1977 28.5823 89.6311 28.5644C90.5811 28.5644 91.2411 28.0944 91.7211 27.3844L93.1711 28.3544C92.7838 28.9373 92.2573 29.4144 91.6392 29.7427C91.0211 30.0709 90.331 30.2399 89.6311 30.2344C89.0721 30.2426 88.5173 30.138 87.9996 29.927C87.4819 29.7159 87.0121 29.4027 86.6182 29.0059C86.2243 28.6092 85.9144 28.1372 85.707 27.6181C85.4996 27.0989 85.399 26.5433 85.4111 25.9844C85.4111 23.4544 87.2111 21.7344 89.4211 21.7344ZM89.4811 23.3844C88.5311 23.3844 87.2111 24.2244 87.2611 25.8644L91.0611 24.2844C90.8511 23.7544 90.2211 23.3844 89.4811 23.3844Z" fill="var(--fill-0, #111827)"/>
<path id="Vector_9" d="M84.5106 29.9844H82.6406V17.4844H84.5106V29.9844Z" fill="var(--fill-0, #111827)"/>
<path id="Vector_10" fill-rule="evenodd" clip-rule="evenodd" d="M79.5194 22.6844H79.5794V21.9944H81.3494V29.6344C81.3494 32.7744 79.4994 34.0644 77.3094 34.0644C76.5025 34.0692 75.7125 33.8328 75.0408 33.3856C74.3691 32.9384 73.8463 32.3007 73.5394 31.5544L75.1694 30.8744C75.4594 31.5644 76.1694 32.3844 77.3094 32.3844C78.7094 32.3844 79.5794 31.5144 79.5794 29.8844V29.2744H79.5194C79.239 29.5892 78.8933 29.839 78.5065 30.0065C78.1196 30.1741 77.7009 30.2552 77.2794 30.2444C76.1795 30.213 75.1358 29.7512 74.3728 28.9583C73.6098 28.1654 73.1885 27.1047 73.1994 26.0044C73.1994 23.6044 75.1494 21.7344 77.2794 21.7344C78.2994 21.7344 79.0994 22.1844 79.5194 22.6844ZM75.0694 26.0044C75.0694 27.4844 76.1494 28.5644 77.4394 28.5644C78.7094 28.5644 79.7094 27.4944 79.7094 26.0044C79.7094 24.5144 78.7294 23.4144 77.4394 23.4144C76.1494 23.4144 75.0694 24.5244 75.0694 26.0044ZM97.3494 17.4844H101.829C103.899 17.4844 105.929 18.9844 105.929 21.3644C105.929 23.7444 103.899 25.2444 101.829 25.2444H99.2194V29.9844H97.3494V17.4844ZM99.2194 23.5144H101.869V23.5044C103.269 23.5044 104.059 22.3444 104.059 21.3644C104.059 20.3844 103.269 19.2244 101.869 19.2244H99.2194V23.5144ZM110.069 23.6244C110.649 22.3144 112.049 21.7144 113.399 21.7144L113.379 21.7044C115.519 21.7044 117.179 22.9444 117.179 25.1644V29.9544H115.379V28.9944H115.319C115.068 29.392 114.715 29.7149 114.296 29.9295C113.877 30.1441 113.409 30.2424 112.939 30.2144C111.299 30.2144 109.839 29.1344 109.839 27.4644C109.839 25.6344 111.649 24.6544 113.439 24.6544C114.329 24.6544 115.049 24.9444 115.389 25.1344V25.0044C115.379 23.9744 114.389 23.3944 113.429 23.3944C112.739 23.3944 112.079 23.6244 111.729 24.3144L110.069 23.6244ZM111.709 27.5044C111.709 28.2544 112.559 28.5644 113.169 28.5644V28.5744C114.249 28.5744 115.249 27.7544 115.389 26.5944C114.871 26.3038 114.284 26.1587 113.689 26.1744C112.769 26.1744 111.709 26.5444 111.709 27.5044Z" fill="var(--fill-0, #111827)"/>
<path id="Vector_11" d="M121.611 27.4044L123.751 21.9844H125.831L120.701 33.7744H118.751L120.651 29.5644L117.321 21.9844H119.331L121.551 27.4044H121.611ZM108.811 29.9844H106.941V17.4844H108.811V29.9844Z" fill="var(--fill-0, #111827)"/>
<path id="Vector_12" d="M20.7203 19.4163L10.0703 30.7162C10.1861 31.144 10.399 31.5392 10.6924 31.8712C10.9859 32.2032 11.352 32.463 11.7623 32.6304C12.1725 32.7977 12.6159 32.8682 13.0578 32.8363C13.4998 32.8044 13.9284 32.6709 14.3103 32.4463L14.3403 32.4263L26.3203 25.5163L20.7103 19.4062L20.7203 19.4163Z" fill="var(--fill-0, #EA4335)"/>
<path id="Vector_13" d="M31.4905 17.4944H31.4805L26.3105 14.4844L20.4805 19.6744L26.3305 25.5244L31.4805 22.5544C31.9335 22.307 32.3118 21.9424 32.5757 21.4987C32.8395 21.055 32.9793 20.5485 32.9803 20.0323C32.9813 19.5161 32.8436 19.0091 32.5815 18.5644C32.3194 18.1197 31.9426 17.7536 31.4905 17.5044V17.4944Z" fill="var(--fill-0, #FBBC04)"/>
<path id="Vector_14" d="M10.0687 9.28125C10.0047 9.52279 9.97113 9.77138 9.96875 10.0213V29.9912C9.96875 30.2512 9.99875 30.4913 10.0687 30.7313L21.0787 19.7212L10.0687 9.28125Z" fill="var(--fill-0, #4285F4)"/>
<path id="Vector_15" d="M20.8003 19.9995L26.3103 14.4896L14.3403 7.54955C13.9576 7.32096 13.5272 7.18399 13.0828 7.14936C12.6384 7.11473 12.192 7.18338 11.7785 7.34993C11.365 7.51649 10.9957 7.77644 10.6993 8.10945C10.403 8.44247 10.1877 8.83952 10.0703 9.26955L20.8003 19.9895V19.9995Z" fill="var(--fill-0, #34A853)"/>
</g>
</svg>
