<svg preserveAspectRatio="none" width="100%" height="100%" overflow="visible" style="display: block;" viewBox="0 0 32 34" fill="none" xmlns="http://www.w3.org/2000/svg">
<g id="Group">
<path id="Vector" d="M17.9844 5.97271C19.084 4.87316 19.084 3.09045 17.9844 1.9909C16.8849 0.891358 15.1022 0.891358 14.0026 1.9909C12.9031 3.09045 12.9031 4.87316 14.0026 5.97271C15.1022 7.07226 16.8849 7.07226 17.9844 5.97271Z" fill="var(--fill-0, white)" fill-opacity="0.4"/>
<path id="Vector_2" d="M24.3294 28.2601L23.7951 28.4067L21.851 14.9814C22.8784 14.4058 22.6393 12.8807 21.5098 12.6247L21.2836 11.0633C21.2719 10.9821 21.2443 10.9039 21.2023 10.8334C21.1604 10.7628 21.1049 10.7012 21.0392 10.6521C20.9734 10.603 20.8986 10.5673 20.8191 10.5471C20.7395 10.5269 20.6567 10.5225 20.5755 10.5343C20.2339 10.5838 19.9971 10.9008 20.0466 11.2424L20.2442 12.6073L16.7969 12.6596L15.1151 10.2101L16.3993 11.3227L16.7449 10.4625C17.1364 9.48774 16.6636 8.38018 15.6888 7.98862L12.6959 6.78649L9.13425 15.654C8.73219 16.6551 7.61013 17.105 6.64412 16.717L6.50119 16.6596L7.4355 22.9073L5.71144 29.3423C5.49088 30.1653 6.00662 31.0111 6.85162 31.183L0 32.5668V33.1661H32V26.3141L24.3294 28.2601ZM8.74006 30.8016L7.98138 30.9549C8.26606 30.7616 8.48588 30.4699 8.58194 30.1115L10.3901 23.3632C10.4454 23.1568 10.4556 22.9409 10.4198 22.7302L9.6385 18.1246L9.96169 18.2544L13.0866 23.1621V29.7269C13.0862 30.0569 13.1961 30.3775 13.3989 30.6377C12.0358 30.6856 10.1633 30.7515 8.74006 30.8016ZM16 30.5461L15.8075 30.5529C15.9714 30.3086 16.0586 30.021 16.0582 29.7269V22.7291C16.0582 22.4516 15.9804 22.1736 15.8257 21.9311L13.5647 18.3801L14.7513 15.4261C14.6194 15.3031 14.4473 15.1077 14.3819 14.9396L13.2236 11.9627L15.0808 14.6676C15.2002 14.8406 15.3603 14.9817 15.5471 15.0782C15.7339 15.1747 15.9416 15.2238 16.1518 15.221L20.6129 15.1533L22.5804 28.7401L16 30.5461Z" fill="var(--fill-0, white)" fill-opacity="0.4"/>
<path id="Vector_3" d="M4.69564 15.1257L6.92264 16.0202C7.51952 16.2599 8.19758 15.9704 8.43727 15.3736L12.115 6.21732C12.3546 5.62051 12.0652 4.94238 11.4684 4.7027L9.24139 3.8082C8.64458 3.56851 7.96646 3.85801 7.72677 4.45476L4.04908 13.6111C3.80933 14.2078 4.09883 14.8859 4.69564 15.1257Z" fill="var(--fill-0, white)" fill-opacity="0.4"/>
</g>
</svg>
