<svg preserveAspectRatio="none" width="100%" height="100%" overflow="visible" style="display: block;" viewBox="0 0 35 35" fill="none" xmlns="http://www.w3.org/2000/svg">
<g id="Group">
<path id="Vector" d="M34.5211 18.9076C34.2556 18.4964 33.891 18.1587 33.4608 17.9254C33.0305 17.6921 32.5485 17.5708 32.0591 17.5727C31.4956 17.5727 30.9431 17.7368 30.4671 18.0432C29.8769 18.428 29.4449 19.0123 29.2501 19.6894C29.0552 20.3664 29.1104 21.091 29.4057 21.7306L26.0301 24.023C25.3215 23.0188 24.3611 22.2187 23.2454 21.7033L26.063 13.6938C26.6538 13.8634 27.2775 13.9509 27.9176 13.9509C29.4714 13.9509 30.9157 13.4421 32.0755 12.5722C32.1029 12.5504 32.1248 12.534 32.1467 12.5121C33.8098 11.2373 34.8876 9.23497 34.8876 6.96999C34.8876 3.12938 31.7582 0 27.9176 0C25.0235 0 22.5342 1.76712 21.4783 4.28376L19.5908 3.49594C19.7057 2.87225 19.6127 2.23215 19.3118 1.6577C19.1392 1.31641 18.9003 1.01292 18.6091 0.764943C18.3179 0.516964 17.9802 0.329458 17.6158 0.213367C17.3259 0.11489 17.0195 0.0711224 16.7186 0.0711224C16.2645 0.0711224 15.8049 0.180541 15.3891 0.388438C14.6943 0.74405 14.1855 1.34585 13.9448 2.0899C13.7041 2.83395 13.7697 3.6163 14.1253 4.31111C14.481 5.00592 15.0828 5.52019 15.8268 5.76091C16.1168 5.85392 16.4177 5.90316 16.7186 5.90316C17.1781 5.90316 17.6322 5.78827 18.048 5.58037C18.5934 5.30036 19.0373 4.85647 19.3173 4.31111L21.1993 5.09346C21.0242 5.68979 20.9367 6.31895 20.9367 6.96999C20.9367 7.79064 21.0789 8.57298 21.3361 9.30062L14.8475 12.1291C13.6986 9.85866 11.3406 8.29943 8.62704 8.29943C7.73527 8.29943 6.87086 8.46903 6.08304 8.78088L4.48553 5.50378C5.01621 5.18646 5.42653 4.69955 5.66725 4.10869C5.81536 3.75126 5.89113 3.36802 5.89019 2.98112C5.88926 2.59423 5.81162 2.21136 5.66178 1.85465C5.44093 1.31711 5.06475 0.857656 4.58136 0.535069C4.09796 0.212482 3.52933 0.0414216 2.94819 0.0437676C2.55975 0.0437676 2.17678 0.120361 1.8157 0.273548C0.311189 0.891765 -0.400034 2.62606 0.229125 4.1251C0.375829 4.48356 0.592733 4.80907 0.867081 5.08248C1.14143 5.35589 1.46768 5.57167 1.82664 5.71715C2.41931 5.96461 3.07724 6.00886 3.69771 5.84298L5.30617 9.13649C3.1342 10.3237 1.65157 12.627 1.65157 15.264C1.65157 17.518 2.72935 19.5313 4.39799 20.806C4.41987 20.8279 4.44723 20.8498 4.47458 20.8662C5.63443 21.7306 7.07329 22.2394 8.62704 22.2394C10.1753 22.2394 11.6142 21.7306 12.774 20.8662C12.8066 20.8493 12.8362 20.8271 12.8616 20.8006C12.9546 20.7294 13.0421 20.6583 13.1242 20.5817L15.2852 23.2351C14.0522 24.5304 13.3646 26.2503 13.3649 28.0386C13.3649 28.4818 13.4086 28.914 13.4907 29.3407L10.8482 29.9206C10.6085 29.2612 10.141 28.7091 9.53008 28.364C8.91914 28.0189 8.20497 27.9035 7.51643 28.0386C6.7505 28.1918 6.08852 28.635 5.65084 29.2915C5.43693 29.6103 5.28814 29.9682 5.21303 30.3447C5.13792 30.7212 5.13796 31.1088 5.21316 31.4853C5.49218 32.8585 6.69579 33.8488 8.09088 33.8488C8.28784 33.8488 8.47385 33.8269 8.66533 33.7886C9.43127 33.6354 10.0987 33.1923 10.5309 32.5412C10.8865 32.0105 11.0561 31.3869 11.0178 30.7577L13.7041 30.1723C14.1418 31.54 14.9952 32.7218 16.1058 33.5698L16.1113 33.5752C16.1441 33.5971 16.177 33.6245 16.2098 33.6464C17.3696 34.5053 18.7975 35.0086 20.3403 35.0086C21.8886 35.0086 23.3275 34.4998 24.4873 33.6354C24.5199 33.6185 24.5495 33.5963 24.5749 33.5698C26.238 32.295 27.3103 30.2927 27.3103 28.0332C27.3103 26.846 27.0149 25.7244 26.4842 24.7451L29.8762 22.4418C30.1508 22.7526 30.4885 23.0012 30.8668 23.1711C31.2452 23.3409 31.6554 23.428 32.0701 23.4266C32.6336 23.4266 33.1861 23.257 33.6621 22.9506C34.3186 22.5294 34.7672 21.8674 34.9314 21.1015C35.101 20.341 34.9533 19.5587 34.5211 18.9076ZM22.2607 29.6143C22.8023 29.1055 23.136 28.3833 23.136 27.5845C23.136 26.0472 21.8777 24.7889 20.3403 24.7889C19.5993 24.7903 18.8891 25.0853 18.3651 25.6093C17.8411 26.1333 17.5461 26.8435 17.5447 27.5845C17.5447 28.3833 17.8784 29.1 18.42 29.6143C17.0687 30.0684 16.2809 31.0039 16.0566 32.388C15.2793 31.6286 14.7201 30.6745 14.4372 29.6252C14.4372 29.6088 14.4317 29.5924 14.4317 29.5814C14.4277 29.5568 14.4204 29.5329 14.4098 29.5103C14.4044 29.5048 14.4044 29.4994 14.4044 29.4939C14.2895 29.0289 14.2293 28.542 14.2293 28.0386C14.2293 24.6685 16.9702 21.9221 20.3458 21.9221C21.1282 21.9221 21.8777 22.0698 22.567 22.3379L22.5725 22.3434H22.578C23.8253 22.8358 24.8703 23.7275 25.5651 24.8545C26.1501 25.8135 26.4587 26.9154 26.4569 28.0386C26.4569 29.7401 25.7566 31.2774 24.6296 32.3935C24.4107 31.0039 23.612 30.0684 22.2607 29.6143ZM6.06663 9.71641C6.84898 9.35533 7.71339 9.1529 8.63251 9.1529C11.1491 9.1529 13.3102 10.6793 14.2512 12.8513V12.8622C14.2512 12.8677 14.2566 12.8677 14.2566 12.8732C14.574 13.6117 14.749 14.4214 14.749 15.2694C14.749 16.9709 14.0488 18.5082 12.9217 19.6243C12.7029 18.2347 11.9096 17.3046 10.5528 16.8451C11.0944 16.3417 11.4282 15.6196 11.4282 14.8208C11.4282 13.278 10.1698 12.0252 8.63251 12.0252C7.0897 12.0252 5.83685 13.278 5.83685 14.8208C5.83685 15.6196 6.17058 16.3363 6.7122 16.8505C5.36088 17.3046 4.57306 18.2347 4.34875 19.6188C3.76923 19.0526 3.30898 18.376 2.99514 17.629C2.68131 16.882 2.52024 16.0797 2.52145 15.2694C2.51598 12.813 3.97673 10.6902 6.06663 9.71641ZM27.9176 0.85894C31.2823 0.85894 34.0287 3.59989 34.0287 6.97546C34.0287 8.67146 33.3284 10.2143 32.2068 11.3249C31.9825 9.93525 31.1892 9.01066 29.8379 8.55657C30.3795 8.04777 30.7133 7.32561 30.7133 6.52685C30.7133 4.98404 29.455 3.73119 27.9176 3.73119C26.3748 3.73119 25.122 4.98404 25.122 6.52685C25.122 7.32561 25.4557 8.0423 25.9973 8.55657C24.646 9.01066 23.8582 9.94072 23.6339 11.3249C23.0594 10.7659 22.6019 10.0983 22.288 9.3608V9.35533C21.7083 7.97899 21.65 6.43858 22.1239 5.02233C22.1348 4.99498 22.1403 4.96762 22.1512 4.94027C22.9883 2.56588 25.2587 0.85894 27.9176 0.85894ZM13.7533 19.9909C14.9022 18.749 15.6025 17.0913 15.6025 15.2694C15.6025 14.4433 15.4603 13.6555 15.1977 12.9224V12.9169L21.6807 10.0884C22.1567 11.0404 22.8515 11.872 23.694 12.5066C23.7105 12.5285 23.7378 12.5449 23.7597 12.5668C24.2193 12.906 24.7171 13.1959 25.2533 13.4148L22.4412 21.3914C21.3352 21.0429 20.1598 20.9755 19.0212 21.1952C17.8827 21.4149 16.8168 21.9148 15.9198 22.6497L13.7533 19.9909Z" fill="var(--fill-0, #4242FF)" fill-opacity="0.6"/>
</g>
</svg>
