<svg preserveAspectRatio="none" width="100%" height="100%" overflow="visible" style="display: block;" viewBox="0 0 29 32" fill="none" xmlns="http://www.w3.org/2000/svg">
<g id="Group">
<path id="Vector" d="M15.1824 16.9379H17.1902C17.345 15.842 17.7716 14.8101 18.4464 13.9101C18.809 13.4267 19.0003 12.8536 19.0003 12.2502C19.0003 10.6992 17.7386 9.4375 16.1877 9.4375C14.6367 9.4375 13.375 10.6992 13.375 12.2502C13.375 12.8526 13.5664 13.4258 13.9271 13.9083C14.5918 14.7946 15.024 15.8456 15.1824 16.9379ZM15.2501 19.7506C15.2501 20.2679 15.6704 20.6881 16.1877 20.6881C16.7049 20.6881 17.1252 20.2679 17.1252 19.7506V18.813H15.2501V19.7506Z" fill="var(--fill-0, white)" fill-opacity="0.4"/>
<path id="Vector_2" d="M4.00023 22.4796V28.1873H9.62555V32H22.7513V29.9983C22.7513 26.2921 23.969 22.5702 26.3697 18.9372C28.0297 16.4258 28.6907 13.3769 28.232 10.3509C27.3829 4.74779 22.3685 0.0102048 16.2328 1.67545e-05C9.40316 -0.0111714 4.00023 5.58246 4.00023 12.2489V13.8402L0 19.8683L1.09319 20.9615C1.88698 21.7554 2.9006 22.2855 4.00023 22.4796ZM24.6264 15.0616H21.8137V13.1865H24.6264V15.0616ZM23.0259 7.83584L24.3517 9.1616L22.4766 11.0367L21.1508 9.71094L23.0259 7.83584ZM16.1884 7.56113C18.7731 7.56113 20.8762 9.66419 20.8762 12.2489C20.8762 13.2615 20.5548 14.2247 19.9469 15.0341C19.328 15.859 19.0011 16.8397 19.0011 17.8669V19.7493C19.0011 21.3003 17.7394 22.562 16.1884 22.562C14.6375 22.562 13.3758 21.3003 13.3758 19.7493V17.8742C13.3758 16.857 13.0388 15.8471 12.4281 15.0314C11.8211 14.2229 11.5007 13.2606 11.5007 12.2489C11.5007 9.66419 13.6037 7.56113 16.1884 7.56113ZM9.35084 7.83584L11.2259 9.71094L9.90019 11.0367L8.02508 9.1616L9.35084 7.83584ZM7.75044 13.1865H10.5631V15.0616H7.75044V13.1865Z" fill="var(--fill-0, white)" fill-opacity="0.4"/>
</g>
</svg>
