<svg preserveAspectRatio="none" width="100%" height="100%" overflow="visible" style="display: block;" viewBox="0 0 1442 2464" fill="none" xmlns="http://www.w3.org/2000/svg">
<g id="Frame 2087330692">
<g id="Vector">
<path d="M1441 91.4199L1441 1L1321 0.999995M1441 91.4199L1321 91.4199M1441 91.4199L1441 181.84M1321 91.4199L1321 0.999995M1321 91.4199L1321 181.84M1321 91.4199L1201 91.4199M1321 0.999995L1201 0.99999M1441 181.84L1321 181.84M1441 181.84L1441 272.26M1321 181.84L1321 272.26M1321 181.84L1201 181.84M1441 272.26L1321 272.26M1441 272.26L1441 362.68M1321 272.26L1321 362.68M1321 272.26L1201 272.26M1441 362.68L1321 362.68M1441 362.68L1441 453.1M1321 362.68L1321 453.1M1321 362.68L1201 362.68M1441 453.1L1321 453.1M1441 453.1L1441 543.519M1321 453.1L1321 543.519M1321 453.1L1201 453.1M1441 543.519L1321 543.519M1441 543.519L1441 633.939M1321 543.519L1321 633.939M1321 543.519L1201 543.519M1441 633.939L1321 633.939M1441 633.939L1441 724.359M1321 633.939L1321 724.359M1321 633.939L1201 633.939M1441 724.359L1321 724.359M1441 724.359L1441 814.779M1321 724.359L1321 814.779M1321 724.359L1201 724.359M1441 814.779L1321 814.779M1441 814.779L1441 905.199M1321 814.779L1321 905.199M1321 814.779L1201 814.779M1441 905.199L1321 905.199M1441 905.199L1441 995.619M1321 905.199L1321 995.619M1321 905.199L1201 905.199M1441 995.619L1321 995.619M1441 995.619L1441 1086.04M1321 995.619L1321 1086.04M1321 995.619L1201 995.619M1441 1086.04L1321 1086.04M1441 1086.04L1441 1176.46M1321 1086.04L1321 1176.46M1321 1086.04L1201 1086.04M1441 1176.46L1321 1176.46M1441 1176.46L1441 1266.88M1321 1176.46L1321 1266.88M1321 1176.46L1201 1176.46M1441 1266.88L1321 1266.88M1441 1266.88L1441 1357.3M1321 1266.88L1321 1357.3M1321 1266.88L1201 1266.88M1441 1357.3L1321 1357.3M1441 1357.3L1441 1447.72M1321 1357.3L1321 1447.72M1321 1357.3L1201 1357.3M1441 1447.72L1321 1447.72M1441 1447.72L1441 1538.14L1321 1538.14M1321 1447.72L1321 1538.14M1321 1447.72L1201 1447.72M1321 1538.14L1201 1538.14M1201 91.4199L1201 0.99999M1201 91.4199L1201 181.84M1201 91.4199L1081 91.4199M1201 0.99999L1081 0.999984M1201 181.84L1201 272.26M1201 181.84L1081 181.84M1201 272.26L1201 362.68M1201 272.26L1081 272.26M1201 362.68L1201 453.1M1201 362.68L1081 362.68M1201 453.1L1201 543.519M1201 453.1L1081 453.1M1201 543.519L1201 633.939M1201 543.519L1081 543.519M1201 633.939L1201 724.359M1201 633.939L1081 633.939M1201 724.359L1201 814.779M1201 724.359L1081 724.359M1201 814.779L1201 905.199M1201 814.779L1081 814.779M1201 905.199L1201 995.619M1201 905.199L1081 905.199M1201 995.619L1201 1086.04M1201 995.619L1081 995.619M1201 1086.04L1201 1176.46M1201 1086.04L1081 1086.04M1201 1176.46L1201 1266.88M1201 1176.46L1081 1176.46M1201 1266.88L1201 1357.3M1201 1266.88L1081 1266.88M1201 1357.3L1201 1447.72M1201 1357.3L1081 1357.3M1201 1447.72L1201 1538.14M1201 1447.72L1081 1447.72M1201 1538.14L1081 1538.14M1081 91.4199L1081 0.999984M1081 91.4199L1081 181.84M1081 91.4199L961 91.4199M1081 0.999984L961 0.999979M1081 181.84L1081 272.26M1081 181.84L961 181.84M1081 272.26L1081 362.68M1081 272.26L961 272.26M1081 362.68L1081 453.1M1081 362.68L961 362.68M1081 453.1L1081 543.519M1081 453.1L961 453.1M1081 543.519L1081 633.939M1081 543.519L961 543.519M1081 633.939L1081 724.359M1081 633.939L961 633.939M1081 724.359L1081 814.779M1081 724.359L961 724.359M1081 814.779L1081 905.199M1081 814.779L961 814.779M1081 905.199L1081 995.619M1081 905.199L961 905.199M1081 995.619L1081 1086.04M1081 995.619L961 995.619M1081 1086.04L1081 1176.46M1081 1086.04L961 1086.04M1081 1176.46L1081 1266.88M1081 1176.46L961 1176.46M1081 1266.88L1081 1357.3M1081 1266.88L961 1266.88M1081 1357.3L1081 1447.72M1081 1357.3L961 1357.3M1081 1447.72L1081 1538.14M1081 1447.72L961 1447.72M1081 1538.14L961 1538.14M961 91.4199L961 0.999979M961 91.4199L961 181.84M961 91.4199L841 91.4199M961 0.999979L841 0.999974M961 181.84L961 272.26M961 181.84L841 181.84M961 272.26L961 362.68M961 272.26L841 272.26M961 362.68L961 453.1M961 362.68L841 362.68M961 453.1L961 543.519M961 453.1L841 453.1M961 543.519L961 633.939M961 543.519L841 543.519M961 633.939L961 724.359M961 633.939L841 633.939M961 724.359L961 814.779M961 724.359L841 724.359M961 814.779L961 905.199M961 814.779L841 814.779M961 905.199L961 995.619M961 905.199L841 905.199M961 995.619L961 1086.04M961 995.619L841 995.619M961 1086.04L961 1176.46M961 1086.04L841 1086.04M961 1176.46L961 1266.88M961 1176.46L841 1176.46M961 1266.88L961 1357.3M961 1266.88L841 1266.88M961 1357.3L961 1447.72M961 1357.3L841 1357.3M961 1447.72L961 1538.14M961 1447.72L841 1447.72M961 1538.14L841 1538.14M841 91.4199L841 0.999974M841 91.4199L841 181.84M841 91.4199L721 91.4199M841 0.999974L721 0.999969M841 181.84L841 272.26M841 181.84L721 181.84M841 272.26L841 362.68M841 272.26L721 272.26M841 362.68L841 453.1M841 362.68L721 362.68M841 453.1L841 543.519M841 453.1L721 453.1M841 543.519L841 633.939M841 543.519L721 543.519M841 633.939L841 724.359M841 633.939L721 633.939M841 724.359L841 814.779M841 724.359L721 724.359M841 814.779L841 905.199M841 814.779L721 814.779M841 905.199L841 995.619M841 905.199L721 905.199M841 995.619L841 1086.04M841 995.619L721 995.619M841 1086.04L841 1176.46M841 1086.04L721 1086.04M841 1176.46L841 1266.88M841 1176.46L721 1176.46M841 1266.88L841 1357.3M841 1266.88L721 1266.88M841 1357.3L841 1447.72M841 1357.3L721 1357.3M841 1447.72L841 1538.14M841 1447.72L721 1447.72M841 1538.14L721 1538.14M721 91.4199L721 0.999969M721 91.4199L721 181.84M721 91.4199L601 91.4199M721 0.999969L601 0.999963M721 181.84L721 272.26M721 181.84L601 181.84M721 272.26L721 362.68M721 272.26L601 272.26M721 362.68L721 453.1M721 362.68L601 362.68M721 453.1L721 543.519M721 453.1L601 453.1M721 543.519L721 633.939M721 543.519L601 543.519M721 633.939L721 724.359M721 633.939L601 633.939M721 724.359L721 814.779M721 724.359L601 724.359M721 814.779L721 905.199M721 814.779L601 814.779M721 905.199L721 995.619M721 905.199L601 905.199M721 995.619L721 1086.04M721 995.619L601 995.619M721 1086.04L721 1176.46M721 1086.04L601 1086.04M721 1176.46L721 1266.88M721 1176.46L601 1176.46M721 1266.88L721 1357.3M721 1266.88L601 1266.88M721 1357.3L721 1447.72M721 1357.3L601 1357.3M721 1447.72L721 1538.14M721 1447.72L601 1447.72M721 1538.14L601 1538.14M601 91.4199L601 0.999963M601 91.4199L601 181.84M601 91.4199L481 91.4199M601 0.999963L481 0.999958M601 181.84L601 272.26M601 181.84L481 181.84M601 272.26L601 362.68M601 272.26L481 272.26M601 362.68L601 453.1M601 362.68L481 362.68M601 453.1L601 543.519M601 453.1L481 453.1M601 543.519L601 633.939M601 543.519L481 543.519M601 633.939L601 724.359M601 633.939L481 633.939M601 724.359L601 814.779M601 724.359L481 724.359M601 814.779L601 905.199M601 814.779L481 814.779M601 905.199L601 995.619M601 905.199L481 905.199M601 995.619L601 1086.04M601 995.619L481 995.619M601 1086.04L601 1176.46M601 1086.04L481 1086.04M601 1176.46L601 1266.88M601 1176.46L481 1176.46M601 1266.88L601 1357.3M601 1266.88L481 1266.88M601 1357.3L601 1447.72M601 1357.3L481 1357.3M601 1447.72L601 1538.14M601 1447.72L481 1447.72M601 1538.14L481 1538.14M481 91.4199L481 0.999958M481 91.4199L481 181.84M481 91.4199L361 91.4199M481 0.999958L361 0.999953M481 181.84L481 272.26M481 181.84L361 181.84M481 272.26L481 362.68M481 272.26L361 272.26M481 362.68L481 453.1M481 362.68L361 362.68M481 453.1L481 543.519M481 453.1L361 453.1M481 543.519L481 633.939M481 543.519L361 543.519M481 633.939L481 724.359M481 633.939L361 633.939M481 724.359L481 814.779M481 724.359L361 724.359M481 814.779L481 905.199M481 814.779L361 814.779M481 905.199L481 995.619M481 905.199L361 905.199M481 995.619L481 1086.04M481 995.619L361 995.619M481 1086.04L481 1176.46M481 1086.04L361 1086.04M481 1176.46L481 1266.88M481 1176.46L361 1176.46M481 1266.88L481 1357.3M481 1266.88L361 1266.88M481 1357.3L481 1447.72M481 1357.3L361 1357.3M481 1447.72L481 1538.14M481 1447.72L361 1447.72M481 1538.14L361 1538.14M361 91.4199L361 0.999953M361 91.4199L361 181.84M361 91.4199L241 91.4199M361 0.999953L241 0.999948M361 181.84L361 272.26M361 181.84L241 181.84M361 272.26L361 362.68M361 272.26L241 272.26M361 362.68L361 453.1M361 362.68L241 362.68M361 453.1L361 543.519M361 453.1L241 453.1M361 543.519L361 633.939M361 543.519L241 543.519M361 633.939L361 724.359M361 633.939L241 633.939M361 724.359L361 814.779M361 724.359L241 724.359M361 814.779L361 905.199M361 814.779L241 814.779M361 905.199L361 995.619M361 905.199L241 905.199M361 995.619L361 1086.04M361 995.619L241 995.619M361 1086.04L361 1176.46M361 1086.04L241 1086.04M361 1176.46L361 1266.88M361 1176.46L241 1176.46M361 1266.88L361 1357.3M361 1266.88L241 1266.88M361 1357.3L361 1447.72M361 1357.3L241 1357.3M361 1447.72L361 1538.14M361 1447.72L241 1447.72M361 1538.14L241 1538.14M241 91.4199L241 0.999948M241 91.4199L241 181.84M241 91.4199L121 91.4199M241 0.999948L121 0.999942M241 181.84L241 272.26M241 181.84L121 181.84M241 272.26L241 362.68M241 272.26L121 272.26M241 362.68L241 453.1M241 362.68L121 362.68M241 453.1L241 543.519M241 453.1L121 453.1M241 543.519L241 633.939M241 543.519L121 543.519M241 633.939L241 724.359M241 633.939L121 633.939M241 724.359L241 814.779M241 724.359L121 724.359M241 814.779L241 905.199M241 814.779L121 814.779M241 905.199L241 995.619M241 905.199L121 905.199M241 995.619L241 1086.04M241 995.619L121 995.619M241 1086.04L241 1176.46M241 1086.04L121 1086.04M241 1176.46L241 1266.88M241 1176.46L121 1176.46M241 1266.88L241 1357.3M241 1266.88L121 1266.88M241 1357.3L241 1447.72M241 1357.3L121 1357.3M241 1447.72L241 1538.14M241 1447.72L121 1447.72M241 1538.14L121 1538.14M121 91.4199L121 0.999942M121 91.4199L121 181.84M121 91.4199L0.99997 91.4198M121 0.999942L0.999974 0.999937L0.99997 91.4198M121 181.84L121 272.26M121 181.84L0.999966 181.84M121 272.26L121 362.68M121 272.26L0.999962 272.26M121 362.68L121 453.1M121 362.68L0.999958 362.68M121 453.1L121 543.519M121 453.1L0.999954 453.099M121 543.519L121 633.939M121 543.519L0.999951 543.519M121 633.939L121 724.359M121 633.939L0.999947 633.939M121 724.359L121 814.779M121 724.359L0.999943 724.359M121 814.779L121 905.199M121 814.779L0.999939 814.779M121 905.199L121 995.619M121 905.199L0.999935 905.199M121 995.619L121 1086.04M121 995.619L0.999931 995.619M121 1086.04L121 1176.46M121 1086.04L0.999927 1086.04M121 1176.46L121 1266.88M121 1176.46L0.999923 1176.46M121 1266.88L121 1357.3M121 1266.88L0.999919 1266.88M121 1357.3L121 1447.72M121 1357.3L0.999915 1357.3M121 1447.72L121 1538.14M121 1447.72L0.999911 1447.72M121 1538.14L0.999907 1538.14L0.999911 1447.72M0.99997 91.4198L0.999966 181.84M0.999966 181.84L0.999962 272.26M0.999962 272.26L0.999958 362.68M0.999958 362.68L0.999954 453.099M0.999954 453.099L0.999951 543.519M0.999951 543.519L0.999947 633.939M0.999947 633.939L0.999943 724.359M0.999943 724.359L0.999939 814.779M0.999939 814.779L0.999935 905.199M0.999935 905.199L0.999931 995.619M0.999931 995.619L0.999927 1086.04M0.999927 1086.04L0.999923 1176.46M0.999923 1176.46L0.999919 1266.88M0.999919 1266.88L0.999915 1357.3M0.999915 1357.3L0.999911 1447.72" stroke="url(#paint0_radial_2112_58962)" stroke-width="2" style="mix-blend-mode:luminosity"/>
</g>
<g id="Vector_2">
<path d="M1441 997.42L1441 907L1321.25 907M1441 997.42L1321.25 997.42M1441 997.42L1441 1087.84M1321.25 997.42L1321.25 907M1321.25 997.42L1321.25 1087.84M1321.25 997.42L1201.5 997.42M1321.25 907L1201.5 907M1441 1087.84L1321.25 1087.84M1441 1087.84L1441 1178.26M1321.25 1087.84L1321.25 1178.26M1321.25 1087.84L1201.5 1087.84M1441 1178.26L1321.25 1178.26M1441 1178.26L1441 1268.68M1321.25 1178.26L1321.25 1268.68M1321.25 1178.26L1201.5 1178.26M1441 1268.68L1321.25 1268.68M1441 1268.68L1441 1359.1M1321.25 1268.68L1321.25 1359.1M1321.25 1268.68L1201.5 1268.68M1441 1359.1L1321.25 1359.1M1441 1359.1L1441 1449.52M1321.25 1359.1L1321.25 1449.52M1321.25 1359.1L1201.5 1359.1M1441 1449.52L1321.25 1449.52M1441 1449.52L1441 1539.94M1321.25 1449.52L1321.25 1539.94M1321.25 1449.52L1201.5 1449.52M1441 1539.94L1321.25 1539.94M1441 1539.94L1441 1630.36M1321.25 1539.94L1321.25 1630.36M1321.25 1539.94L1201.5 1539.94M1441 1630.36L1321.25 1630.36M1441 1630.36L1441 1720.78M1321.25 1630.36L1321.25 1720.78M1321.25 1630.36L1201.5 1630.36M1441 1720.78L1321.25 1720.78M1441 1720.78L1441 1811.2M1321.25 1720.78L1321.25 1811.2M1321.25 1720.78L1201.5 1720.78M1441 1811.2L1321.25 1811.2M1441 1811.2L1441 1901.62M1321.25 1811.2L1321.25 1901.62M1321.25 1811.2L1201.5 1811.2M1441 1901.62L1321.25 1901.62M1441 1901.62L1441 1992.04M1321.25 1901.62L1321.25 1992.04M1321.25 1901.62L1201.5 1901.62M1441 1992.04L1321.25 1992.04M1441 1992.04L1441 2082.46M1321.25 1992.04L1321.25 2082.46M1321.25 1992.04L1201.5 1992.04M1441 2082.46L1321.25 2082.46M1441 2082.46L1441 2172.88M1321.25 2082.46L1321.25 2172.88M1321.25 2082.46L1201.5 2082.46M1441 2172.88L1321.25 2172.88M1441 2172.88L1441 2263.3M1321.25 2172.88L1321.25 2263.3M1321.25 2172.88L1201.5 2172.88M1441 2263.3L1321.25 2263.3M1441 2263.3L1441 2353.72M1321.25 2263.3L1321.25 2353.72M1321.25 2263.3L1201.5 2263.3M1441 2353.72L1321.25 2353.72M1441 2353.72L1441 2444.14L1321.25 2444.14M1321.25 2353.72L1321.25 2444.14M1321.25 2353.72L1201.5 2353.72M1321.25 2444.14L1201.5 2444.14M1201.5 997.42L1201.5 907M1201.5 997.42L1201.5 1087.84M1201.5 997.42L1081.75 997.42M1201.5 907L1081.75 907M1201.5 1087.84L1201.5 1178.26M1201.5 1087.84L1081.75 1087.84M1201.5 1178.26L1201.5 1268.68M1201.5 1178.26L1081.75 1178.26M1201.5 1268.68L1201.5 1359.1M1201.5 1268.68L1081.75 1268.68M1201.5 1359.1L1201.5 1449.52M1201.5 1359.1L1081.75 1359.1M1201.5 1449.52L1201.5 1539.94M1201.5 1449.52L1081.75 1449.52M1201.5 1539.94L1201.5 1630.36M1201.5 1539.94L1081.75 1539.94M1201.5 1630.36L1201.5 1720.78M1201.5 1630.36L1081.75 1630.36M1201.5 1720.78L1201.5 1811.2M1201.5 1720.78L1081.75 1720.78M1201.5 1811.2L1201.5 1901.62M1201.5 1811.2L1081.75 1811.2M1201.5 1901.62L1201.5 1992.04M1201.5 1901.62L1081.75 1901.62M1201.5 1992.04L1201.5 2082.46M1201.5 1992.04L1081.75 1992.04M1201.5 2082.46L1201.5 2172.88M1201.5 2082.46L1081.75 2082.46M1201.5 2172.88L1201.5 2263.3M1201.5 2172.88L1081.75 2172.88M1201.5 2263.3L1201.5 2353.72M1201.5 2263.3L1081.75 2263.3M1201.5 2353.72L1201.5 2444.14M1201.5 2353.72L1081.75 2353.72M1201.5 2444.14L1081.75 2444.14M1081.75 997.42L1081.75 907M1081.75 997.42L1081.75 1087.84M1081.75 997.42L962 997.42M1081.75 907L962 907M1081.75 1087.84L1081.75 1178.26M1081.75 1087.84L962 1087.84M1081.75 1178.26L1081.75 1268.68M1081.75 1178.26L962 1178.26M1081.75 1268.68L1081.75 1359.1M1081.75 1268.68L962 1268.68M1081.75 1359.1L1081.75 1449.52M1081.75 1359.1L962 1359.1M1081.75 1449.52L1081.75 1539.94M1081.75 1449.52L962 1449.52M1081.75 1539.94L1081.75 1630.36M1081.75 1539.94L962 1539.94M1081.75 1630.36L1081.75 1720.78M1081.75 1630.36L962 1630.36M1081.75 1720.78L1081.75 1811.2M1081.75 1720.78L962 1720.78M1081.75 1811.2L1081.75 1901.62M1081.75 1811.2L962 1811.2M1081.75 1901.62L1081.75 1992.04M1081.75 1901.62L962 1901.62M1081.75 1992.04L1081.75 2082.46M1081.75 1992.04L962 1992.04M1081.75 2082.46L1081.75 2172.88M1081.75 2082.46L962 2082.46M1081.75 2172.88L1081.75 2263.3M1081.75 2172.88L962 2172.88M1081.75 2263.3L1081.75 2353.72M1081.75 2263.3L962 2263.3M1081.75 2353.72L1081.75 2444.14M1081.75 2353.72L962 2353.72M1081.75 2444.14L962 2444.14M962 997.42L962 907M962 997.42L962 1087.84M962 997.42L842.25 997.42M962 907L842.25 907M962 1087.84L962 1178.26M962 1087.84L842.25 1087.84M962 1178.26L962 1268.68M962 1178.26L842.25 1178.26M962 1268.68L962 1359.1M962 1268.68L842.25 1268.68M962 1359.1L962 1449.52M962 1359.1L842.25 1359.1M962 1449.52L962 1539.94M962 1449.52L842.25 1449.52M962 1539.94L962 1630.36M962 1539.94L842.25 1539.94M962 1630.36L962 1720.78M962 1630.36L842.25 1630.36M962 1720.78L962 1811.2M962 1720.78L842.25 1720.78M962 1811.2L962 1901.62M962 1811.2L842.25 1811.2M962 1901.62L962 1992.04M962 1901.62L842.25 1901.62M962 1992.04L962 2082.46M962 1992.04L842.25 1992.04M962 2082.46L962 2172.88M962 2082.46L842.25 2082.46M962 2172.88L962 2263.3M962 2172.88L842.25 2172.88M962 2263.3L962 2353.72M962 2263.3L842.25 2263.3M962 2353.72L962 2444.14M962 2353.72L842.25 2353.72M962 2444.14L842.25 2444.14M842.25 997.42L842.25 907M842.25 997.42L842.25 1087.84M842.25 997.42L722.5 997.42M842.25 907L722.5 907M842.25 1087.84L842.25 1178.26M842.25 1087.84L722.5 1087.84M842.25 1178.26L842.25 1268.68M842.25 1178.26L722.5 1178.26M842.25 1268.68L842.25 1359.1M842.25 1268.68L722.5 1268.68M842.25 1359.1L842.25 1449.52M842.25 1359.1L722.5 1359.1M842.25 1449.52L842.25 1539.94M842.25 1449.52L722.5 1449.52M842.25 1539.94L842.25 1630.36M842.25 1539.94L722.5 1539.94M842.25 1630.36L842.25 1720.78M842.25 1630.36L722.5 1630.36M842.25 1720.78L842.25 1811.2M842.25 1720.78L722.5 1720.78M842.25 1811.2L842.25 1901.62M842.25 1811.2L722.5 1811.2M842.25 1901.62L842.25 1992.04M842.25 1901.62L722.5 1901.62M842.25 1992.04L842.25 2082.46M842.25 1992.04L722.5 1992.04M842.25 2082.46L842.25 2172.88M842.25 2082.46L722.5 2082.46M842.25 2172.88L842.25 2263.3M842.25 2172.88L722.5 2172.88M842.25 2263.3L842.25 2353.72M842.25 2263.3L722.5 2263.3M842.25 2353.72L842.25 2444.14M842.25 2353.72L722.5 2353.72M842.25 2444.14L722.5 2444.14M722.5 997.42L722.5 907M722.5 997.42L722.5 1087.84M722.5 997.42L602.75 997.42M722.5 907L602.75 907M722.5 1087.84L722.5 1178.26M722.5 1087.84L602.75 1087.84M722.5 1178.26L722.5 1268.68M722.5 1178.26L602.75 1178.26M722.5 1268.68L722.5 1359.1M722.5 1268.68L602.75 1268.68M722.5 1359.1L722.5 1449.52M722.5 1359.1L602.75 1359.1M722.5 1449.52L722.5 1539.94M722.5 1449.52L602.75 1449.52M722.5 1539.94L722.5 1630.36M722.5 1539.94L602.75 1539.94M722.5 1630.36L722.5 1720.78M722.5 1630.36L602.75 1630.36M722.5 1720.78L722.5 1811.2M722.5 1720.78L602.75 1720.78M722.5 1811.2L722.5 1901.62M722.5 1811.2L602.75 1811.2M722.5 1901.62L722.5 1992.04M722.5 1901.62L602.75 1901.62M722.5 1992.04L722.5 2082.46M722.5 1992.04L602.75 1992.04M722.5 2082.46L722.5 2172.88M722.5 2082.46L602.75 2082.46M722.5 2172.88L722.5 2263.3M722.5 2172.88L602.75 2172.88M722.5 2263.3L722.5 2353.72M722.5 2263.3L602.75 2263.3M722.5 2353.72L722.5 2444.14M722.5 2353.72L602.75 2353.72M722.5 2444.14L602.75 2444.14M602.75 997.42L602.75 907M602.75 997.42L602.75 1087.84M602.75 997.42L483 997.42M602.75 907L483 907M602.75 1087.84L602.75 1178.26M602.75 1087.84L483 1087.84M602.75 1178.26L602.75 1268.68M602.75 1178.26L483 1178.26M602.75 1268.68L602.75 1359.1M602.75 1268.68L483 1268.68M602.75 1359.1L602.75 1449.52M602.75 1359.1L483 1359.1M602.75 1449.52L602.75 1539.94M602.75 1449.52L483 1449.52M602.75 1539.94L602.75 1630.36M602.75 1539.94L483 1539.94M602.75 1630.36L602.75 1720.78M602.75 1630.36L483 1630.36M602.75 1720.78L602.75 1811.2M602.75 1720.78L483 1720.78M602.75 1811.2L602.75 1901.62M602.75 1811.2L483 1811.2M602.75 1901.62L602.75 1992.04M602.75 1901.62L483 1901.62M602.75 1992.04L602.75 2082.46M602.75 1992.04L483 1992.04M602.75 2082.46L602.75 2172.88M602.75 2082.46L483 2082.46M602.75 2172.88L602.75 2263.3M602.75 2172.88L483 2172.88M602.75 2263.3L602.75 2353.72M602.75 2263.3L483 2263.3M602.75 2353.72L602.75 2444.14M602.75 2353.72L483 2353.72M602.75 2444.14L483 2444.14M483 997.42L483 907M483 997.42L483 1087.84M483 997.42L363.25 997.42M483 907L363.25 907M483 1087.84L483 1178.26M483 1087.84L363.25 1087.84M483 1178.26L483 1268.68M483 1178.26L363.25 1178.26M483 1268.68L483 1359.1M483 1268.68L363.25 1268.68M483 1359.1L483 1449.52M483 1359.1L363.25 1359.1M483 1449.52L483 1539.94M483 1449.52L363.25 1449.52M483 1539.94L483 1630.36M483 1539.94L363.25 1539.94M483 1630.36L483 1720.78M483 1630.36L363.25 1630.36M483 1720.78L483 1811.2M483 1720.78L363.25 1720.78M483 1811.2L483 1901.62M483 1811.2L363.25 1811.2M483 1901.62L483 1992.04M483 1901.62L363.25 1901.62M483 1992.04L483 2082.46M483 1992.04L363.25 1992.04M483 2082.46L483 2172.88M483 2082.46L363.25 2082.46M483 2172.88L483 2263.3M483 2172.88L363.25 2172.88M483 2263.3L483 2353.72M483 2263.3L363.25 2263.3M483 2353.72L483 2444.14M483 2353.72L363.25 2353.72M483 2444.14L363.25 2444.14M363.25 997.42L363.25 907M363.25 997.42L363.25 1087.84M363.25 997.42L243.5 997.42M363.25 907L243.5 907M363.25 1087.84L363.25 1178.26M363.25 1087.84L243.5 1087.84M363.25 1178.26L363.25 1268.68M363.25 1178.26L243.5 1178.26M363.25 1268.68L363.25 1359.1M363.25 1268.68L243.5 1268.68M363.25 1359.1L363.25 1449.52M363.25 1359.1L243.5 1359.1M363.25 1449.52L363.25 1539.94M363.25 1449.52L243.5 1449.52M363.25 1539.94L363.25 1630.36M363.25 1539.94L243.5 1539.94M363.25 1630.36L363.25 1720.78M363.25 1630.36L243.5 1630.36M363.25 1720.78L363.25 1811.2M363.25 1720.78L243.5 1720.78M363.25 1811.2L363.25 1901.62M363.25 1811.2L243.5 1811.2M363.25 1901.62L363.25 1992.04M363.25 1901.62L243.5 1901.62M363.25 1992.04L363.25 2082.46M363.25 1992.04L243.5 1992.04M363.25 2082.46L363.25 2172.88M363.25 2082.46L243.5 2082.46M363.25 2172.88L363.25 2263.3M363.25 2172.88L243.5 2172.88M363.25 2263.3L363.25 2353.72M363.25 2263.3L243.5 2263.3M363.25 2353.72L363.25 2444.14M363.25 2353.72L243.5 2353.72M363.25 2444.14L243.5 2444.14M243.5 997.42L243.5 907M243.5 997.42L243.5 1087.84M243.5 997.42L123.75 997.42M243.5 907L123.75 907M243.5 1087.84L243.5 1178.26M243.5 1087.84L123.75 1087.84M243.5 1178.26L243.5 1268.68M243.5 1178.26L123.75 1178.26M243.5 1268.68L243.5 1359.1M243.5 1268.68L123.75 1268.68M243.5 1359.1L243.5 1449.52M243.5 1359.1L123.75 1359.1M243.5 1449.52L243.5 1539.94M243.5 1449.52L123.75 1449.52M243.5 1539.94L243.5 1630.36M243.5 1539.94L123.75 1539.94M243.5 1630.36L243.5 1720.78M243.5 1630.36L123.75 1630.36M243.5 1720.78L243.5 1811.2M243.5 1720.78L123.75 1720.78M243.5 1811.2L243.5 1901.62M243.5 1811.2L123.75 1811.2M243.5 1901.62L243.5 1992.04M243.5 1901.62L123.75 1901.62M243.5 1992.04L243.5 2082.46M243.5 1992.04L123.75 1992.04M243.5 2082.46L243.5 2172.88M243.5 2082.46L123.75 2082.46M243.5 2172.88L243.5 2263.3M243.5 2172.88L123.75 2172.88M243.5 2263.3L243.5 2353.72M243.5 2263.3L123.75 2263.3M243.5 2353.72L243.5 2444.14M243.5 2353.72L123.75 2353.72M243.5 2444.14L123.75 2444.14M123.75 997.42L123.75 907M123.75 997.42L123.75 1087.84M123.75 997.42L4.00002 997.42M123.75 907L4.00002 907L4.00002 997.42M123.75 1087.84L123.75 1178.26M123.75 1087.84L4.00001 1087.84M123.75 1178.26L123.75 1268.68M123.75 1178.26L4.00001 1178.26M123.75 1268.68L123.75 1359.1M123.75 1268.68L4.00001 1268.68M123.75 1359.1L123.75 1449.52M123.75 1359.1L4 1359.1M123.75 1449.52L123.75 1539.94M123.75 1449.52L4 1449.52M123.75 1539.94L123.75 1630.36M123.75 1539.94L4 1539.94M123.75 1630.36L123.75 1720.78M123.75 1630.36L3.99999 1630.36M123.75 1720.78L123.75 1811.2M123.75 1720.78L3.99999 1720.78M123.75 1811.2L123.75 1901.62M123.75 1811.2L3.99998 1811.2M123.75 1901.62L123.75 1992.04M123.75 1901.62L3.99998 1901.62M123.75 1992.04L123.75 2082.46M123.75 1992.04L3.99998 1992.04M123.75 2082.46L123.75 2172.88M123.75 2082.46L3.99997 2082.46M123.75 2172.88L123.75 2263.3M123.75 2172.88L3.99997 2172.88M123.75 2263.3L123.75 2353.72M123.75 2263.3L3.99996 2263.3M123.75 2353.72L123.75 2444.14M123.75 2353.72L3.99996 2353.72M123.75 2444.14L3.99996 2444.14L3.99996 2353.72M4.00002 997.42L4.00001 1087.84M4.00001 1087.84L4.00001 1178.26M4.00001 1178.26L4.00001 1268.68M4.00001 1268.68L4 1359.1M4 1359.1L4 1449.52M4 1449.52L4 1539.94M4 1539.94L3.99999 1630.36M3.99999 1630.36L3.99999 1720.78M3.99999 1720.78L3.99998 1811.2M3.99998 1811.2L3.99998 1901.62M3.99998 1901.62L3.99998 1992.04M3.99998 1992.04L3.99997 2082.46M3.99997 2082.46L3.99997 2172.88M3.99997 2172.88L3.99996 2263.3M3.99996 2263.3L3.99996 2353.72" stroke="url(#paint1_radial_2112_58962)" stroke-width="2" style="mix-blend-mode:luminosity"/>
</g>
</g>
<defs>
<radialGradient id="paint0_radial_2112_58962" cx="0" cy="0" r="1" gradientUnits="userSpaceOnUse" gradientTransform="translate(682.538 769.569) rotate(-180) scale(680 769.729)">
<stop stop-color="#444444"/>
<stop offset="1" stop-color="#444444" stop-opacity="0"/>
</radialGradient>
<radialGradient id="paint1_radial_2112_58962" cx="0" cy="0" r="1" gradientUnits="userSpaceOnUse" gradientTransform="translate(684.119 1675.57) rotate(-180) scale(678.583 769.729)">
<stop stop-color="#444444"/>
<stop offset="1" stop-color="#444444" stop-opacity="0"/>
</radialGradient>
</defs>
</svg>
