<svg preserveAspectRatio="none" width="100%" height="100%" overflow="visible" style="display: block;" viewBox="0 0 36 43" fill="none" xmlns="http://www.w3.org/2000/svg">
<g id="Group">
<path id="Vector" d="M17.8755 14.1337C21.7784 14.1337 24.9423 10.9698 24.9423 7.06686C24.9423 3.16394 21.7784 0 17.8755 0C13.9725 0 10.8086 3.16394 10.8086 7.06686C10.8086 10.9698 13.9725 14.1337 17.8755 14.1337Z" fill="var(--fill-0, #4242FF)" fill-opacity="0.6"/>
<path id="Vector_2" d="M23.0665 15.0898C21.5702 16.0615 19.7868 16.6267 17.8736 16.6267C15.9605 16.6267 14.1771 16.0615 12.6808 15.0898C11.0173 15.7256 9.48484 16.6617 8.1597 17.8514L17.8736 21.4942L27.5876 17.8514C26.2625 16.6617 24.73 15.7256 23.0665 15.0898ZM32.8388 25.772H32.0074C31.3186 25.772 30.7603 26.3304 30.7603 27.0191V30.3447C30.7603 31.0334 31.3186 31.5918 32.0074 31.5918H32.8388C34.4458 31.5918 35.7486 30.289 35.7486 28.6819C35.7486 27.0748 34.4458 25.772 32.8388 25.772ZM3.86097 19.4764C3.69534 19.5911 3.56 19.7444 3.46652 19.9229C3.37304 20.1014 3.32422 20.2999 3.32422 20.5014V23.2778H3.73992C5.80286 23.2778 7.4812 24.9562 7.4812 27.0191V30.3447C7.4812 32.4076 5.80286 34.086 3.73992 34.086H3.32422V36.7136C3.32422 36.9675 3.40169 37.2153 3.54629 37.4239C3.69088 37.6326 3.89572 37.7922 4.13342 37.8813L16.6265 42.5662V23.6902L5.00921 19.3337C4.82054 19.2629 4.61751 19.2389 4.41753 19.2637C4.21754 19.2885 4.02656 19.3615 3.86097 19.4764Z" fill="var(--fill-0, #4242FF)" fill-opacity="0.6"/>
<path id="Vector_3" d="M28.2674 30.3443V27.0187C28.2674 24.9558 29.9458 23.2775 32.0087 23.2775H32.4244V20.501C32.4244 20.2995 32.3756 20.101 32.2821 19.9225C32.1886 19.744 32.0533 19.5908 31.8877 19.476C31.722 19.3612 31.5311 19.2883 31.3311 19.2634C31.1311 19.2386 30.9281 19.2626 30.7394 19.3333L19.1221 23.6898V42.5658L31.6152 37.8809C31.8529 37.7918 32.0578 37.6322 32.2024 37.4236C32.3469 37.2149 32.4244 36.9671 32.4244 36.7132V34.0856H32.0087C29.9458 34.0856 28.2674 32.4073 28.2674 30.3443ZM4.98837 30.3443V27.0187C4.98837 26.33 4.43001 25.7716 3.74128 25.7716H2.90988C1.3028 25.7716 0 27.0744 0 28.6815C0 30.2886 1.3028 31.5914 2.90988 31.5914H3.74128C4.43001 31.5914 4.98837 31.033 4.98837 30.3443Z" fill="var(--fill-0, #4242FF)" fill-opacity="0.6"/>
</g>
</svg>
