<svg preserveAspectRatio="none" width="100%" height="100%" overflow="visible" style="display: block;" viewBox="0 0 32 27" fill="none" xmlns="http://www.w3.org/2000/svg">
<g id="Group">
<path id="Vector" d="M26.8976 5.145L25.8921 8.7655C25.7288 9.33332 25.6457 9.92117 25.6451 10.512V26.7885H13.2551C15.2391 25.4075 16.5376 22.637 16.9036 19.8755C17.4336 15.852 15.6966 12.8805 12.4776 12.3225C12.0661 12.2495 11.6726 12.2125 11.2891 12.2125C10.7861 12.2125 10.3471 12.2675 9.96307 12.359C9.99957 12.259 10.0546 12.149 10.1096 12.039C10.4815 11.3087 10.9906 10.6568 11.6091 10.119C12.1761 9.616 12.2401 8.7475 11.7371 8.1805C11.4811 7.8785 11.1061 7.714 10.7036 7.714C10.3746 7.714 10.0546 7.833 9.80757 8.0525C9.15674 8.61214 8.59274 9.26545 8.13407 9.991C8.16014 9.65995 8.21842 9.33224 8.30807 9.0125L9.28657 5.5105H25.5626C26.0381 5.5105 26.5046 5.3825 26.8976 5.1445V5.145ZM28.2086 0.00200009H25.3051V0H11.7751C11.1901 0 10.6451 0.2995 10.3316 0.792L8.56057 3.5845C8.49719 3.68412 8.46175 3.79895 8.45798 3.91696C8.45421 4.03498 8.48224 4.15184 8.53913 4.2553C8.59603 4.35876 8.6797 4.44503 8.78137 4.50505C8.88305 4.56508 8.999 4.59667 9.11707 4.5965H25.5646C26.1496 4.5965 26.6946 4.297 27.0081 3.804L29.1731 0.3915C28.9231 0.1415 28.5791 0.00200009 28.2086 0.00200009ZM28.8271 2.648L28.3241 3.444L26.7696 9.0125C26.6326 9.506 26.5596 10.009 26.5596 10.5125V25.91L28.8271 22.1795V2.648ZM27.0991 26.788H29.6681C30.2351 26.788 30.7381 26.5965 31.1406 26.267L29.2841 23.195L27.0991 26.788ZM31.7896 9.0125L29.7416 1.67V22.18L31.7531 25.499C31.9181 25.188 32.0001 24.8315 32.0001 24.4565V10.512C32.0001 10.009 31.9361 9.497 31.7901 9.012L31.7896 9.0125ZM7.10107 10.9145C6.76257 10.5575 6.36957 10.2925 5.97607 10.0915C4.98857 9.6065 3.97357 9.5885 3.67207 9.8715C3.42507 10.1095 3.36107 10.8415 3.58957 11.655C3.64457 11.865 3.72707 12.085 3.83657 12.295C4.16557 12.24 4.48607 12.213 4.79657 12.213C5.70157 12.213 6.42457 12.414 6.97307 12.615C7.09207 12.167 7.23807 11.728 7.42107 11.3075C7.32221 11.1703 7.21536 11.0391 7.10107 10.9145ZM11.0511 8.784C10.9708 8.69229 10.8576 8.636 10.736 8.62738C10.6145 8.61877 10.4945 8.65853 10.4021 8.738C9.61036 9.43443 8.95872 10.2754 8.48207 11.216C8.19714 11.7672 7.9791 12.3505 7.83257 12.9535C7.92407 12.99 8.00607 13.0175 8.04257 13.0175C8.12507 13.0085 8.39057 12.8985 8.58257 12.8255C8.66457 12.789 8.75607 12.7525 8.84757 12.7155C8.95757 12.3685 9.10357 12.0025 9.29557 11.6275C9.71798 10.7895 10.2987 10.0412 11.0056 9.424C11.0508 9.38513 11.0879 9.33768 11.1148 9.28438C11.1416 9.23108 11.1576 9.173 11.1618 9.11349C11.166 9.05398 11.1584 8.99422 11.1394 8.93766C11.1204 8.88111 11.0904 8.82888 11.0511 8.784ZM15.9981 19.7565C15.4861 23.6335 12.6241 28.663 8.04307 26.0845C3.46157 28.663 0.599574 23.6335 0.0875735 19.7565C-0.406426 16.0165 1.23957 13.6575 3.76357 13.2185C6.17757 12.807 7.26557 13.932 8.04307 13.932C8.82007 13.932 9.90807 12.807 12.3221 13.2185C14.8461 13.6575 16.4921 16.0165 15.9981 19.7565ZM2.67557 19.345C2.70257 18.9975 2.49257 18.696 2.20907 18.6775C1.92557 18.6595 1.67907 18.9335 1.65107 19.281C1.63307 19.638 1.84307 19.9395 2.12657 19.958C2.41007 19.976 2.65657 19.7015 2.67557 19.345ZM3.26057 15.23C2.71207 15.0475 2.07157 15.4955 1.83407 16.227C1.58707 16.9585 1.83407 17.699 2.37357 17.882C2.92207 18.056 3.55357 17.617 3.80007 16.8855C4.04657 16.154 3.80007 15.413 3.26057 15.2305V15.23Z" fill="var(--fill-0, white)" fill-opacity="0.4"/>
</g>
</svg>
