<svg preserveAspectRatio="none" width="100%" height="100%" overflow="visible" style="display: block;" viewBox="0 0 60 60" fill="none" xmlns="http://www.w3.org/2000/svg">
<g id="Layer 2">
<path id="Vector" d="M30 9C25.8466 9 21.7865 10.2316 18.333 12.5391C14.8796 14.8466 12.188 18.1264 10.5985 21.9636C9.0091 25.8009 8.59323 30.0233 9.40352 34.0969C10.2138 38.1705 12.2139 41.9123 15.1508 44.8492C18.0877 47.7861 21.8295 49.7862 25.9031 50.5965C29.9767 51.4068 34.1991 50.9909 38.0364 49.4015C41.8736 47.812 45.1534 45.1204 47.4609 41.667C49.7684 38.2135 51 34.1534 51 30C50.9942 24.4322 48.7798 19.0942 44.8428 15.1572C40.9058 11.2202 35.5678 9.00582 30 9ZM39.56 37.24C39.3739 37.4758 39.1369 37.6666 38.8668 37.7982C38.5967 37.9298 38.3005 37.9988 38 38C37.5478 38.0036 37.1088 37.8478 36.76 37.56L28.76 31.56C28.5243 31.3737 28.3336 31.1368 28.202 30.8667C28.0704 30.5966 28.0014 30.3004 28 30V16C28 15.4696 28.2107 14.9609 28.5858 14.5858C28.9609 14.2107 29.4696 14 30 14C30.5304 14 31.0392 14.2107 31.4142 14.5858C31.7893 14.9609 32 15.4696 32 16V29.04L39.24 34.44C39.4481 34.6005 39.6219 34.8011 39.7511 35.0299C39.8803 35.2588 39.9622 35.5112 39.9921 35.7723C40.0219 36.0334 39.999 36.2979 39.9248 36.55C39.8506 36.8021 39.7266 37.0367 39.56 37.24Z" fill="url(#paint0_linear_2100_58678)"/>
<path id="Vector_2" d="M30 0C24.0666 0 18.2664 1.75947 13.3329 5.05591C8.39943 8.35235 4.55426 13.0377 2.28363 18.5195C0.0129988 24.0013 -0.581102 30.0333 0.576455 35.8527C1.73401 41.6721 4.59123 47.0176 8.78681 51.2132C12.9824 55.4088 18.3279 58.266 24.1473 59.4236C29.9667 60.5811 35.9987 59.987 41.4805 57.7164C46.9623 55.4458 51.6477 51.6006 54.9441 46.6671C58.2405 41.7336 60 35.9334 60 30C59.9905 22.0464 56.8267 14.4213 51.2027 8.79732C45.5787 3.17329 37.9536 0.00952715 30 0ZM30 55.134C25.029 55.134 20.1696 53.6599 16.0363 50.8982C11.903 48.1364 8.68156 44.211 6.77923 39.6184C4.87689 35.0257 4.37916 29.9721 5.34896 25.0966C6.31876 20.2211 8.71254 15.7426 12.2276 12.2276C15.7426 8.71253 20.2211 6.31874 25.0966 5.34894C29.9721 4.37914 35.0257 4.87688 39.6184 6.77921C44.211 8.68155 48.1364 11.903 50.8982 16.0363C53.6599 20.1696 55.134 25.029 55.134 30C55.1277 36.664 52.4776 43.0532 47.7654 47.7654C43.0533 52.4776 36.664 55.1277 30 55.134Z" fill="url(#paint1_linear_2100_58678)"/>
</g>
<defs>
<linearGradient id="paint0_linear_2100_58678" x1="9" y1="9" x2="45.0214" y2="45.6192" gradientUnits="userSpaceOnUse">
<stop stop-color="#FF8829" stop-opacity="0.48"/>
<stop offset="0.3" stop-color="#FF8829" stop-opacity="0.24"/>
<stop offset="1" stop-color="#FF8829" stop-opacity="0.08"/>
</linearGradient>
<linearGradient id="paint1_linear_2100_58678" x1="0" y1="0" x2="51.4591" y2="52.3132" gradientUnits="userSpaceOnUse">
<stop stop-color="#FF8829" stop-opacity="0.48"/>
<stop offset="0.3" stop-color="#FF8829" stop-opacity="0.24"/>
<stop offset="1" stop-color="#FF8829" stop-opacity="0.08"/>
</linearGradient>
</defs>
</svg>
