<svg preserveAspectRatio="none" width="100%" height="100%" overflow="visible" style="display: block;" viewBox="0 0 29 32" fill="none" xmlns="http://www.w3.org/2000/svg">
<g id="Group">
<path id="Vector" d="M16.0316 14.9232C16.0316 13.9316 15.2249 13.125 14.2334 13.125C13.2419 13.125 12.4352 13.9316 12.4352 14.9232C12.4352 15.9147 13.2418 16.7214 14.2334 16.7214C15.2249 16.7214 16.0316 15.9147 16.0316 14.9232ZM17.6621 22.0251C17.6621 20.1344 16.124 18.5964 14.2334 18.5964C12.3427 18.5964 10.8047 20.1344 10.8047 22.0251V24.5H13.2959V26.5362C12.2047 26.9232 11.4209 27.9653 11.4209 29.1875C11.4209 30.7383 12.6826 32 14.2334 32C15.7842 32 17.0459 30.7383 17.0459 29.1875C17.0459 27.9653 16.2621 26.9232 15.1709 26.5362V24.5H17.6621V22.0251Z" fill="var(--fill-0, white)" fill-opacity="0.4"/>
<path id="Vector_2" d="M27.0596 20.1581C26.0012 19.547 24.7068 19.7047 23.8261 20.4562L22.0626 19.4381L24.0476 16L22.0626 12.5619L23.8257 11.5439C24.3389 11.9817 24.9924 12.2182 25.658 12.2182C26.1502 12.2183 26.6336 12.0885 27.0596 11.8419C28.4026 11.0665 28.8644 9.343 28.089 7.99994C27.3137 6.65688 25.5902 6.19512 24.2471 6.9705C23.1887 7.58156 22.6781 8.78144 22.8886 9.91988L21.1251 10.938L19.1401 7.5H15.1701V5.46375C16.2613 5.07675 17.0451 4.03469 17.0451 2.8125C17.0451 1.26169 15.7834 0 14.2326 0C12.6818 0 11.4201 1.26169 11.4201 2.8125C11.4201 4.03469 12.2039 5.07675 13.2951 5.46375V7.5H9.32512L7.34012 10.9381L5.57662 9.92C5.78706 8.7815 5.27649 7.58169 4.21812 6.97062C2.87524 6.19512 1.15168 6.65694 0.376243 8C-0.399132 9.343 0.0626181 11.0665 1.40568 11.8419C1.83158 12.0886 2.31507 12.2184 2.80724 12.2183C3.47274 12.2183 4.12631 11.9818 4.63943 11.5439L6.40268 12.5619L4.41768 16L6.40268 19.4381L4.63924 20.4562C3.75856 19.7047 2.46412 19.547 1.40568 20.1581C0.0626181 20.9335 -0.399132 22.657 0.376243 24C0.896556 24.9013 1.84381 25.4057 2.81662 25.4057C3.30879 25.4058 3.79227 25.276 4.21818 25.0294C5.27656 24.4183 5.78712 23.2184 5.57668 22.08L7.34018 21.0619L8.92893 23.8137V22.0251C8.92893 20.0728 9.98993 18.3648 11.5648 17.4441C10.9424 16.7857 10.5595 15.8986 10.5595 14.9231C10.5594 12.8978 12.2072 11.25 14.2326 11.25C16.258 11.25 17.9058 12.8977 17.9058 14.9232C17.9058 15.8986 17.5229 16.7857 16.9005 17.4441C18.4754 18.3648 19.5364 20.0729 19.5364 22.0251V23.8137L21.1251 21.0619L22.8886 22.0801C22.6782 23.2186 23.1887 24.4184 24.2471 25.0294C24.673 25.2761 25.1565 25.4059 25.6487 25.4058C26.6213 25.4058 27.5687 24.9013 28.0891 24.0001C28.8644 22.657 28.4026 20.9335 27.0596 20.1581Z" fill="var(--fill-0, white)" fill-opacity="0.4"/>
</g>
</svg>
