<svg preserveAspectRatio="none" width="100%" height="100%" overflow="visible" style="display: block;" viewBox="0 0 40 40" fill="none" xmlns="http://www.w3.org/2000/svg">
<g id="tild6163-3065-4032-b464-623935343931__yb.svg" clip-path="url(#clip0_2053_40635)">
<path id="Vector" d="M32 0H8C3.58172 0 0 3.58172 0 8V32C0 36.4183 3.58172 40 8 40H32C36.4183 40 40 36.4183 40 32V8C40 3.58172 36.4183 0 32 0Z" fill="var(--fill-0, white)"/>
<path id="Vector_2" d="M28.6216 15.6481C28.417 14.8709 27.8034 14.2572 27.0261 14.0425C25.625 13.6641 20 13.6641 20 13.6641C20 13.6641 14.375 13.6641 12.9636 14.0425C12.1864 14.247 11.583 14.8606 11.3682 15.6481C11 17.0595 11 20.005 11 20.005C11 20.005 11 22.9504 11.3784 24.3618C11.583 25.1391 12.1966 25.7527 12.9739 25.9675C14.375 26.3459 20 26.3459 20 26.3459C20 26.3459 25.625 26.3459 27.0364 25.9675C27.8136 25.7629 28.417 25.1493 28.6318 24.3618C29 22.9504 29 20.005 29 20.005C29 20.005 29 17.0595 28.6216 15.6481ZM18.1591 22.6845V17.3254L22.8636 20.005L18.1591 22.6845Z" fill="var(--fill-0, #111827)"/>
</g>
<defs>
<clipPath id="clip0_2053_40635">
<rect width="40" height="40" fill="white"/>
</clipPath>
</defs>
</svg>
