<svg preserveAspectRatio="none" width="100%" height="100%" overflow="visible" style="display: block;" viewBox="0 0 16 16" fill="none" xmlns="http://www.w3.org/2000/svg">
<g id="vscode-icons:file-type-excel2">
<path id="Vector" fill-rule="evenodd" clip-rule="evenodd" d="M14.3905 2.20131H9.3255V1.00781L1 2.29281V13.5563L9.3255 14.9903V13.2213H14.3905C14.544 13.2294 14.6943 13.1762 14.8086 13.0734C14.9229 12.9707 14.9917 12.8268 15 12.6733V2.74881C14.9916 2.59545 14.9227 2.45168 14.8085 2.34904C14.6942 2.2464 14.5439 2.19327 14.3905 2.20131ZM14.4705 12.7643H9.3085L9.3 11.8198H10.5435V10.7198H9.2905L9.2845 10.0698H10.5435V8.96981H9.275L9.269 8.31981H10.5435V7.21981H9.265V6.56981H10.5435V5.46981H9.265V4.81981H10.5435V3.71981H9.265V2.71981H14.4705V12.7643Z" fill="var(--fill-0, white)"/>
<path id="Vector_2" d="M11.2422 3.71875H13.4037V4.81875H11.2422V3.71875ZM11.2422 5.46925H13.4037V6.56925H11.2422V5.46925ZM11.2422 7.21975H13.4037V8.31975H11.2422V7.21975ZM11.2422 8.97025H13.4037V10.0703H11.2422V8.97025ZM11.2422 10.7208H13.4037V11.8207H11.2422V10.7208Z" fill="var(--fill-0, white)"/>
<path id="Vector_3" fill-rule="evenodd" clip-rule="evenodd" d="M3.17013 5.33622L4.24312 5.27472L4.91762 7.12922L5.71462 5.19822L6.78762 5.13672L5.48462 7.76972L6.78762 10.4092L5.65312 10.3327L4.88713 8.32072L4.12063 10.2562L3.07812 10.1642L4.28912 7.83272L3.17013 5.33622Z" fill="var(--fill-0, #00640C)"/>
</g>
</svg>
