<svg preserveAspectRatio="none" width="100%" height="100%" overflow="visible" style="display: block;" viewBox="0 0 135 40" fill="none" xmlns="http://www.w3.org/2000/svg">
<g id="tild6138-3262-4436-a363-373761303261__app_store.svg">
<path id="Vector" d="M24.2588 9.84875C25.219 8.69604 25.6924 7.21467 25.5788 5.71875C24.1093 5.87374 22.7523 6.57721 21.7788 7.68875C20.8176 8.77977 20.3285 10.2075 20.4188 11.6588C21.1534 11.6692 21.8807 11.5125 22.5459 11.2007C23.2112 10.8889 23.7968 10.43 24.2588 9.85875V9.84875ZM27.4888 19.4288C27.5009 18.4399 27.7631 17.4701 28.2509 16.6099C28.7387 15.7496 29.4364 15.0268 30.2788 14.5088C29.7428 13.7453 29.0363 13.1173 28.2152 12.6746C27.3941 12.232 26.4811 11.9869 25.5488 11.9588C24.3388 11.8288 23.1488 12.3087 22.1688 12.6887C21.5488 12.9387 21.0188 13.1487 20.6288 13.1487C20.1788 13.1487 19.6288 12.9288 19.0188 12.6788C18.2188 12.3588 17.3088 11.9988 16.3488 12.0188C15.2627 12.0528 14.2038 12.3672 13.2751 12.9315C12.3465 13.4957 11.5795 14.2905 11.0488 15.2388C8.76878 19.2088 10.4788 25.0388 12.6688 28.2388C13.7688 29.8088 15.0488 31.5588 16.7288 31.4988C17.3753 31.4542 18.007 31.2844 18.5888 30.9988C19.3313 30.6406 20.1444 30.4527 20.9688 30.4488C21.9688 30.4488 22.6088 30.7188 23.2188 30.9888C23.8188 31.2388 24.3788 31.4787 25.2188 31.4587C26.9788 31.4287 28.0888 29.8787 29.1488 28.2987C29.9388 27.1787 30.5488 25.9488 30.9488 24.6388C29.9239 24.2064 29.0492 23.4817 28.4338 22.5551C27.8184 21.6285 27.4897 20.5411 27.4888 19.4288Z" fill="var(--fill-0, #111827)"/>
<path id="Vector_2" fill-rule="evenodd" clip-rule="evenodd" d="M45.5697 26.6516H50.2997L51.4397 30.0016H53.4797L48.9897 17.6016H46.9097L42.4297 30.0016H44.4297L45.5697 26.6516ZM49.8097 25.1016H46.0597L47.9097 19.6516H47.9597L49.8097 25.1016ZM63.1597 25.4816C63.1597 28.2916 61.6597 30.1016 59.3797 30.1016C58.8042 30.1322 58.2318 30.0003 57.7278 29.7209C57.2237 29.4415 56.8086 29.0259 56.5297 28.5216H56.4897V33.0016H54.6297V20.9516H56.4297V22.4516H56.4597C56.7512 21.948 57.174 21.5331 57.6831 21.2513C58.1921 20.9695 58.7682 20.8313 59.3497 20.8516C61.6497 20.8516 63.1597 22.6716 63.1597 25.4816ZM61.2497 25.4816C61.2497 23.6516 60.2997 22.4416 58.8497 22.4416C57.4397 22.4416 56.4797 23.6716 56.4797 25.4816C56.4797 27.3016 57.4397 28.5216 58.8597 28.5216C60.2997 28.5216 61.2497 27.3216 61.2497 25.4816ZM69.3497 30.1016C71.6197 30.1016 73.1197 28.3016 73.1197 25.4816C73.1197 22.6816 71.6097 20.8616 69.3197 20.8616C68.7365 20.8395 68.1584 20.9767 67.6474 21.2587C67.1364 21.5406 66.712 21.9564 66.4197 22.4616H66.3897V20.9616H64.5897V33.0016H66.4497V28.5216H66.4997C66.7786 29.0259 67.1937 29.4415 67.6978 29.7209C68.2018 30.0003 68.7742 30.1322 69.3497 30.1016ZM68.8197 22.4416C70.2697 22.4416 71.2197 23.6416 71.2197 25.4816C71.2197 27.3316 70.2697 28.5216 68.8197 28.5216C67.3997 28.5216 66.4497 27.3016 66.4497 25.4816C66.4497 23.6816 67.3997 22.4416 68.8197 22.4416Z" fill="var(--fill-0, #111827)"/>
<path id="Vector_3" d="M79.7086 26.545C79.8486 27.775 81.0386 28.585 82.6786 28.585C84.2486 28.585 85.3786 27.775 85.3786 26.665C85.3786 25.695 84.6886 25.115 83.0786 24.725L81.4786 24.335C79.1886 23.785 78.1386 22.715 78.1386 20.985C78.1386 18.845 79.9986 17.375 82.6486 17.375C85.2786 17.375 87.0786 18.845 87.1386 20.985H85.2586C85.1486 19.745 84.1186 19.005 82.6286 19.005C81.1286 19.005 80.1086 19.755 80.1086 20.865C80.1086 21.735 80.7586 22.255 82.3586 22.655L83.7286 22.985C86.2786 23.585 87.3286 24.615 87.3286 26.425C87.3286 28.755 85.4786 30.205 82.5386 30.205C79.7886 30.205 77.9286 28.785 77.8086 26.535H79.7086V26.545ZM91.3486 20.945V18.805H89.4786V20.945H88.1586V22.415H89.4786V27.615C89.4786 29.365 90.1886 30.055 92.0286 30.055C92.3686 30.055 92.7186 30.025 93.0586 29.965V28.505C92.8586 28.525 92.6586 28.545 92.4486 28.545C91.6886 28.545 91.3486 28.185 91.3486 27.405V22.415H93.0686V20.945H91.3486Z" fill="var(--fill-0, #111827)"/>
<path id="Vector_4" fill-rule="evenodd" clip-rule="evenodd" d="M94.0586 25.4837C94.0586 22.6337 95.7386 20.8438 98.3586 20.8438C100.979 20.8438 102.659 22.6337 102.659 25.4837C102.659 28.3437 100.989 30.1238 98.3586 30.1238C95.7286 30.1238 94.0586 28.3337 94.0586 25.4837ZM100.759 25.4837C100.759 23.5237 99.8586 22.3837 98.3586 22.3837C96.8586 22.3837 95.9586 23.5337 95.9586 25.4837C95.9586 27.4437 96.8586 28.5837 98.3586 28.5837C99.8586 28.5837 100.759 27.4437 100.759 25.4837Z" fill="var(--fill-0, #111827)"/>
<path id="Vector_5" d="M105.961 20.9511H104.191V30.0011H106.041V24.6311C105.999 24.2271 106.088 23.8202 106.295 23.4708C106.502 23.1213 106.817 22.8479 107.191 22.6911C107.441 22.5911 107.711 22.5411 107.991 22.5511C108.261 22.5511 108.551 22.5811 108.821 22.6611V20.9311C108.611 20.8811 108.391 20.8611 108.181 20.8611C107.686 20.8414 107.199 20.9927 106.802 21.2895C106.405 21.5863 106.123 22.0105 106.001 22.4911H105.961V20.9511Z" fill="var(--fill-0, #111827)"/>
<path id="Vector_6" fill-rule="evenodd" clip-rule="evenodd" d="M117.382 27.3494C117.132 28.9894 115.532 30.1194 113.482 30.1194C110.852 30.1194 109.222 28.3494 109.222 25.5194C109.222 22.6794 110.862 20.8394 113.412 20.8394C115.912 20.8394 117.492 22.5594 117.492 25.3094V25.9394H111.092V26.0494C111.06 26.3837 111.1 26.721 111.21 27.0384C111.32 27.3558 111.496 27.6461 111.727 27.8896C111.958 28.1331 112.239 28.3243 112.55 28.4502C112.862 28.5761 113.196 28.6338 113.532 28.6194C113.971 28.662 114.412 28.5613 114.788 28.3323C115.165 28.1034 115.458 27.7585 115.622 27.3494H117.382ZM111.102 24.6494H115.632C115.65 24.3494 115.606 24.049 115.501 23.7671C115.397 23.4852 115.236 23.2279 115.027 23.0117C114.818 22.7955 114.567 22.625 114.289 22.511C114.011 22.397 113.712 22.342 113.412 22.3494C112.802 22.3494 112.217 22.5917 111.786 23.0231C111.354 23.4544 111.112 24.0394 111.112 24.6494H111.102ZM47.0319 8.09942C46.6619 7.95942 46.2619 7.89942 45.8619 7.92942H43.6719V13.9994H45.8719C48.0719 13.9994 49.2619 11.7494 48.6119 9.76942C48.487 9.39345 48.2806 9.04971 48.0075 8.76275C47.7344 8.47579 47.4012 8.2527 47.0319 8.10942V8.09942ZM45.7619 13.1394H44.6019V8.79942H45.7519C46.1769 8.77577 46.5976 8.89478 46.9473 9.13755C47.297 9.38032 47.5555 9.73294 47.6819 10.1394C47.8319 10.6194 47.8419 11.3194 47.6819 11.8094C47.557 12.2169 47.2989 12.5705 46.9488 12.8135C46.5988 13.0565 46.1772 13.1748 45.7519 13.1494L45.7619 13.1394ZM49.8919 10.8194C50.0353 10.3864 50.3115 10.0095 50.6813 9.74241C51.0511 9.47531 51.4957 9.33155 51.9519 9.33155C52.4081 9.33155 52.8526 9.47531 53.2224 9.74241C53.5923 10.0095 53.8685 10.3864 54.0119 10.8194C54.1919 11.3494 54.1919 12.0694 54.0119 12.5994C53.8685 13.0325 53.5923 13.4093 53.2224 13.6764C52.8526 13.9435 52.4081 14.0873 51.9519 14.0873C51.4957 14.0873 51.0511 13.9435 50.6813 13.6764C50.3115 13.4093 50.0353 13.0325 49.8919 12.5994C49.7155 12.0192 49.7155 11.3996 49.8919 10.8194ZM53.1819 11.7094C53.1819 10.7094 52.7319 10.1294 51.9519 10.1294C51.1619 10.1294 50.7219 10.7194 50.7219 11.7094C50.7219 12.7094 51.1619 13.2894 51.9519 13.2894C52.7319 13.2894 53.1819 12.7094 53.1819 11.7094Z" fill="var(--fill-0, #111827)"/>
<path id="Vector_7" d="M58.9178 13.995H59.8478L61.1078 9.415H60.2078L59.3878 12.915H59.3178L58.3778 9.415H57.5078L56.5678 12.915H56.4978L55.6778 9.415H54.7578L56.0278 13.995H56.9478L57.8978 10.625H57.9678L58.9178 13.995ZM62.1778 9.415H63.0478V10.145H63.1078C63.2218 9.88227 63.4153 9.66188 63.661 9.51479C63.9067 9.36771 64.1924 9.30133 64.4778 9.325C64.7002 9.30956 64.9233 9.34389 65.1308 9.4255C65.3382 9.50711 65.5249 9.63394 65.6772 9.79677C65.8295 9.9596 65.9436 10.1543 66.0112 10.3668C66.0787 10.5793 66.0981 10.8041 66.0678 11.025V13.995H65.1678V11.255C65.1678 10.525 64.8378 10.155 64.1678 10.155C64.0168 10.1484 63.8662 10.1745 63.7262 10.2314C63.5863 10.2884 63.4602 10.3749 63.3567 10.485C63.2533 10.5951 63.1748 10.7263 63.1266 10.8695C63.0785 11.0128 63.0618 11.1647 63.0778 11.315V13.995H62.1778V9.415ZM68.4078 7.625H67.5078V13.995H68.4078V7.625Z" fill="var(--fill-0, #111827)"/>
<path id="Vector_8" fill-rule="evenodd" clip-rule="evenodd" d="M69.6702 11.7006C69.6411 11.3995 69.6754 11.0956 69.7708 10.8086C69.8661 10.5215 70.0205 10.2575 70.2239 10.0335C70.4272 9.80961 70.6752 9.63068 70.9518 9.50823C71.2285 9.38579 71.5276 9.32254 71.8302 9.32254C72.1327 9.32254 72.4318 9.38579 72.7085 9.50823C72.9851 9.63068 73.2331 9.80961 73.4365 10.0335C73.6399 10.2575 73.7942 10.5215 73.8895 10.8086C73.9849 11.0956 74.0192 11.3995 73.9902 11.7006C74.0192 12.0017 73.9849 12.3056 73.8895 12.5927C73.7942 12.8798 73.6399 13.1438 73.4365 13.3677C73.2331 13.5916 72.9851 13.7706 72.7085 13.893C72.4318 14.0155 72.1327 14.0787 71.8302 14.0787C71.5276 14.0787 71.2285 14.0155 70.9518 13.893C70.6752 13.7706 70.4272 13.5916 70.2239 13.3677C70.0205 13.1438 69.8661 12.8798 69.7708 12.5927C69.6754 12.3056 69.6411 12.0017 69.6702 11.7006ZM73.0702 11.7006C73.0702 10.7206 72.6202 10.1406 71.8302 10.1406C71.0502 10.1406 70.6002 10.7206 70.6002 11.7106C70.6002 12.7106 71.0502 13.2906 71.8302 13.2906C72.6202 13.2906 73.0602 12.7106 73.0602 11.7106L73.0702 11.7006ZM76.6502 11.3406C75.5602 11.4106 74.9502 11.8806 74.9502 12.7106C74.9521 12.9029 74.9939 13.0928 75.073 13.2681C75.152 13.4434 75.2666 13.6005 75.4095 13.7292C75.5523 13.858 75.7204 13.9557 75.903 14.0162C76.0855 14.0767 76.2787 14.0986 76.4702 14.0806C76.7434 14.094 77.0153 14.0344 77.2578 13.9078C77.5004 13.7813 77.7048 13.5924 77.8502 13.3606H77.9202V14.0006H78.7902V10.8706C78.7902 9.90062 78.1402 9.33063 76.9902 9.33063C75.9602 9.33063 75.2102 9.83063 75.1202 10.6306H76.0002C76.1002 10.3006 76.4502 10.1106 76.9502 10.1106C77.5702 10.1106 77.8902 10.3906 77.8902 10.8706V11.2706L76.6502 11.3406ZM77.8902 11.9406V12.3206C77.8802 12.4654 77.8412 12.6066 77.7754 12.7359C77.7097 12.8652 77.6186 12.98 77.5075 13.0733C77.3964 13.1667 77.2677 13.2367 77.129 13.2791C76.9903 13.3216 76.8444 13.3357 76.7002 13.3206C76.2102 13.3206 75.8502 13.0806 75.8502 12.6606C75.8502 12.2606 76.1502 12.0506 76.7702 12.0006L77.8902 11.9306V11.9406ZM79.9802 11.7006C79.9802 10.2606 80.7202 9.34063 81.8802 9.34063C82.1653 9.32805 82.4481 9.39652 82.6959 9.53811C82.9437 9.6797 83.1462 9.88861 83.2802 10.1406H83.3602V7.64062H84.2602V14.0006H83.3902V13.2806H83.3202C83.1752 13.532 82.9647 13.7393 82.711 13.8802C82.4574 14.0211 82.1702 14.0904 81.8802 14.0806C80.7202 14.0806 79.9802 13.1606 79.9802 11.7106V11.7006ZM80.9102 11.7006C80.9102 12.6806 81.3702 13.2706 82.1402 13.2706C82.9002 13.2706 83.3702 12.6706 83.3702 11.7106C83.3702 10.7606 82.9002 10.1606 82.1402 10.1606C81.3802 10.1606 80.9102 10.7506 80.9102 11.7106V11.7006ZM88.1002 10.8206C88.0002 11.1006 87.9702 11.4106 88.0002 11.7106C87.9711 12.0117 88.0054 12.3156 88.1008 12.6027C88.1961 12.8898 88.3505 13.1538 88.5539 13.3777C88.7572 13.6016 89.0052 13.7806 89.2818 13.903C89.5585 14.0255 89.8576 14.0887 90.1602 14.0887C90.4627 14.0887 90.7618 14.0255 91.0385 13.903C91.3151 13.7806 91.5631 13.6016 91.7665 13.3777C91.9699 13.1538 92.1242 12.8898 92.2195 12.6027C92.3149 12.3156 92.3492 12.0117 92.3202 11.7106C92.3749 11.1783 92.2311 10.6444 91.9162 10.2117C91.6013 9.77898 91.1376 9.47788 90.6142 9.36625C90.0908 9.25463 89.5446 9.34035 89.0805 9.60695C88.6165 9.87356 88.2673 10.3022 88.1002 10.8106V10.8206ZM90.1602 10.1306C90.9502 10.1306 91.3902 10.7206 91.3902 11.7106C91.3902 12.7106 90.9502 13.2906 90.1602 13.2906C89.3802 13.2906 88.9402 12.7106 88.9402 11.7106C88.9402 10.7106 89.3802 10.1306 90.1602 10.1306Z" fill="var(--fill-0, #111827)"/>
<path id="Vector_9" d="M93.5391 9.415H94.4091V10.145H94.4791C94.5925 9.88399 94.7844 9.66479 95.0281 9.51784C95.2718 9.37089 95.5553 9.30349 95.8391 9.325C96.0619 9.30767 96.2859 9.34071 96.4942 9.42167C96.7026 9.50264 96.8901 9.62945 97.0428 9.79272C97.1955 9.95599 97.3095 10.1515 97.3764 10.3648C97.4432 10.5782 97.4612 10.8038 97.4291 11.025V13.995H96.5291V11.255C96.5291 10.525 96.2091 10.155 95.5291 10.155C95.3781 10.1484 95.2275 10.1745 95.0875 10.2314C94.9475 10.2884 94.8215 10.3749 94.718 10.485C94.6145 10.5951 94.536 10.7263 94.4879 10.8695C94.4397 11.0128 94.4231 11.1647 94.4391 11.315V13.995H93.5391V9.415ZM102.329 9.435V8.275H101.419V9.435H100.689V10.195H101.419V12.795C101.419 13.665 101.819 14.025 102.819 14.025C102.989 14.025 103.159 14.005 103.319 13.975V13.225L102.969 13.245C102.519 13.245 102.329 13.035 102.329 12.545V10.195H103.319V9.435H102.319H102.329ZM104.549 7.625H105.449V10.155H105.519C105.638 9.88987 105.837 9.66846 106.088 9.52152C106.339 9.37458 106.629 9.30939 106.919 9.335C107.14 9.32271 107.362 9.35935 107.568 9.44231C107.773 9.52527 107.958 9.65251 108.109 9.815C108.409 10.135 108.499 10.535 108.499 11.035V13.995H107.599V11.265C107.599 10.525 107.249 10.165 106.609 10.165C106.454 10.1545 106.299 10.1774 106.154 10.2321C106.01 10.2868 105.878 10.3721 105.769 10.4822C105.66 10.5922 105.576 10.7244 105.522 10.8698C105.469 11.0153 105.447 11.1705 105.459 11.325V13.995H104.559V7.625H104.549Z" fill="var(--fill-0, #111827)"/>
<path id="Vector_10" fill-rule="evenodd" clip-rule="evenodd" d="M113.021 13.7938C113.381 13.5538 113.651 13.1938 113.771 12.7638H112.901C112.795 12.9547 112.635 13.1099 112.441 13.2097C112.247 13.3094 112.027 13.3491 111.811 13.3238C111.642 13.3258 111.475 13.2925 111.32 13.2262C111.165 13.1598 111.026 13.0619 110.911 12.9385C110.796 12.8152 110.708 12.6692 110.653 12.51C110.598 12.3508 110.577 12.1818 110.591 12.0138V11.9638H113.831V11.6438C113.831 10.2038 113.061 9.34381 111.781 9.34381C111.326 9.34043 110.882 9.48346 110.514 9.75177C110.147 10.0201 109.876 10.3994 109.741 10.8338C109.581 11.4198 109.581 12.0378 109.741 12.6238C109.873 13.0605 110.145 13.4413 110.516 13.7072C110.887 13.973 111.335 14.1089 111.791 14.0938C112.221 14.1438 112.661 14.0338 113.021 13.7938ZM112.911 11.2938H110.591C110.588 11.1368 110.617 10.9808 110.676 10.8352C110.735 10.6896 110.822 10.5574 110.933 10.4463C111.044 10.3353 111.176 10.2477 111.322 10.1889C111.468 10.13 111.624 10.1011 111.781 10.1038C112.012 10.0988 112.238 10.1666 112.429 10.2976C112.619 10.4286 112.763 10.6162 112.841 10.8338C112.891 10.9838 112.921 11.1338 112.901 11.2938H112.911Z" fill="var(--fill-0, #111827)"/>
</g>
</svg>
