<svg preserveAspectRatio="none" width="100%" height="100%" overflow="visible" style="display: block;" viewBox="0 0 183 48" fill="none" xmlns="http://www.w3.org/2000/svg">
<g id="Company logo">
<g id="Logomark">
<path id="Intersect" d="M15.7132 33.4275C24.3919 33.4275 31.4274 26.3919 31.4274 17.7132C31.4274 16.7296 31.3371 15.7671 31.1642 14.8336C30.2307 14.6607 29.2682 14.5703 28.2846 14.5703C19.6058 14.5703 12.5703 21.6058 12.5703 30.2846C12.5703 31.2682 12.6607 32.2307 12.8336 33.1642C13.7671 33.3371 14.7296 33.4275 15.7132 33.4275Z" fill="var(--fill-0, #175CD3)"/>
<path id="Circle" fill-rule="evenodd" clip-rule="evenodd" d="M12.8347 33.1653C5.53118 31.8127 0 25.4095 0 17.7143C0 9.03553 7.03553 2 15.7143 2C23.4095 2 29.8128 7.53118 31.1653 14.8347C30.2318 14.6618 29.2693 14.5714 28.2857 14.5714C19.607 14.5714 12.5714 21.607 12.5714 30.2857C12.5714 31.2693 12.6618 32.2318 12.8347 33.1653Z" fill="var(--fill-0, #1570EF)"/>
<path id="Circle_2" fill-rule="evenodd" clip-rule="evenodd" d="M15.7155 33.4298C24.3943 33.4298 31.4298 26.3943 31.4298 17.7155C31.4298 16.732 31.3395 15.7695 31.1666 14.8359C38.4701 16.1885 44.0013 22.5918 44.0013 30.287C44.0013 38.9657 36.9657 46.0013 28.287 46.0013C20.5918 46.0013 14.1885 40.4701 12.8359 33.1666C13.7695 33.3395 14.732 33.4298 15.7155 33.4298Z" fill="var(--fill-0, #2E90FA)"/>
</g>
<g id="Logotype">
<path d="M74.2284 28.9032C73.6684 30.7139 72.6884 32.0672 71.2884 32.9632C69.8884 33.8405 68.255 34.2792 66.3884 34.2792C64.559 34.2792 62.9724 33.8965 61.6284 33.1312C60.303 32.3659 59.2764 31.2739 58.5484 29.8552C57.839 28.4365 57.4844 26.7379 57.4844 24.7592C57.4844 22.7805 57.8484 21.0819 58.5764 19.6632C59.3044 18.2445 60.331 17.1525 61.6564 16.3872C62.9817 15.6219 64.5404 15.2392 66.3324 15.2392C68.2177 15.2392 69.8324 15.6405 71.1764 16.4432C72.539 17.2272 73.4724 18.4219 73.9764 20.0272L70.4764 21.5112C70.159 20.3912 69.6737 19.5979 69.0204 19.1312C68.367 18.6459 67.527 18.4032 66.5004 18.4032C64.9697 18.4032 63.747 18.9539 62.8324 20.0552C61.9364 21.1379 61.4884 22.7059 61.4884 24.7592C61.4884 26.7939 61.9177 28.3619 62.7764 29.4632C63.635 30.5645 64.8764 31.1152 66.5004 31.1152C67.5084 31.1152 68.3764 30.8445 69.1044 30.3032C69.851 29.7619 70.3737 28.9405 70.6724 27.8392L74.2284 28.9032Z" fill="var(--fill-0, #101828)"/>
<path d="M79.0617 17.9832C77.475 17.9832 76.6817 17.3019 76.6817 15.9392C76.6817 14.5579 77.475 13.8672 79.0617 13.8672C80.6483 13.8672 81.4417 14.5579 81.4417 15.9392C81.4417 17.3019 80.6483 17.9832 79.0617 17.9832ZM80.9657 19.9992V33.9992H77.1297V19.9992H80.9657Z" fill="var(--fill-0, #101828)"/>
<path d="M85.032 33.9992V19.9992H88.364L88.616 22.7432C88.9707 21.7912 89.5027 21.0539 90.212 20.5312C90.94 19.9899 91.8547 19.7192 92.956 19.7192C93.6093 19.7192 94.1133 19.8219 94.468 20.0272L94.02 23.2472C93.8333 23.1912 93.6 23.1445 93.32 23.1072C93.0587 23.0512 92.7133 23.0232 92.284 23.0232C91.7053 23.0232 91.1547 23.1632 90.632 23.4432C90.128 23.7045 89.708 24.1152 89.372 24.6752C89.036 25.2165 88.868 25.9072 88.868 26.7472V33.9992H85.032Z" fill="var(--fill-0, #101828)"/>
<path d="M102.927 19.7192C104.794 19.7192 106.24 20.1205 107.267 20.9232C108.312 21.7259 109.003 22.6965 109.339 23.8352L105.755 25.1232C105.382 23.4245 104.458 22.5752 102.983 22.5752C101.919 22.5752 101.088 22.9485 100.491 23.6952C99.9124 24.4419 99.6231 25.5525 99.6231 27.0272C99.6231 28.5205 99.9217 29.6312 100.519 30.3592C101.135 31.0685 101.966 31.4232 103.011 31.4232C104.635 31.4232 105.606 30.5925 105.923 28.9312L109.395 30.0512C109.078 31.3019 108.368 32.3192 107.267 33.1032C106.184 33.8872 104.775 34.2792 103.039 34.2792C101.583 34.2792 100.304 33.9899 99.2031 33.4112C98.1204 32.8325 97.2804 32.0019 96.6831 30.9192C96.0857 29.8365 95.7871 28.5299 95.7871 26.9992C95.7871 25.4685 96.0857 24.1619 96.6831 23.0792C97.2991 21.9965 98.1391 21.1659 99.2031 20.5872C100.286 20.0085 101.527 19.7192 102.927 19.7192Z" fill="var(--fill-0, #101828)"/>
<path d="M118.76 19.7192C120.16 19.7192 121.401 20.0085 122.484 20.5872C123.566 21.1659 124.406 21.9965 125.004 23.0792C125.62 24.1619 125.928 25.4685 125.928 26.9992C125.928 28.5299 125.62 29.8365 125.004 30.9192C124.406 32.0019 123.566 32.8325 122.484 33.4112C121.401 33.9899 120.16 34.2792 118.76 34.2792C117.341 34.2792 116.09 33.9899 115.008 33.4112C113.944 32.8325 113.104 32.0019 112.488 30.9192C111.89 29.8365 111.592 28.5299 111.592 26.9992C111.592 25.4685 111.89 24.1619 112.488 23.0792C113.104 21.9965 113.944 21.1659 115.008 20.5872C116.09 20.0085 117.341 19.7192 118.76 19.7192ZM118.76 22.5752C117.714 22.5752 116.893 22.9485 116.296 23.6952C115.717 24.4232 115.428 25.5245 115.428 26.9992C115.428 28.4739 115.717 29.5845 116.296 30.3312C116.893 31.0592 117.714 31.4232 118.76 31.4232C119.786 31.4232 120.589 31.0592 121.168 30.3312C121.765 29.5845 122.064 28.4739 122.064 26.9992C122.064 25.5245 121.765 24.4232 121.168 23.6952C120.589 22.9485 119.786 22.5752 118.76 22.5752Z" fill="var(--fill-0, #101828)"/>
<path d="M135.521 19.7192C136.921 19.7192 138.163 20.0085 139.245 20.5872C140.328 21.1659 141.168 21.9965 141.765 23.0792C142.381 24.1619 142.689 25.4685 142.689 26.9992C142.689 28.5299 142.381 29.8365 141.765 30.9192C141.168 32.0019 140.328 32.8325 139.245 33.4112C138.163 33.9899 136.921 34.2792 135.521 34.2792C134.103 34.2792 132.852 33.9899 131.769 33.4112C130.705 32.8325 129.865 32.0019 129.249 30.9192C128.652 29.8365 128.353 28.5299 128.353 26.9992C128.353 25.4685 128.652 24.1619 129.249 23.0792C129.865 21.9965 130.705 21.1659 131.769 20.5872C132.852 20.0085 134.103 19.7192 135.521 19.7192ZM135.521 22.5752C134.476 22.5752 133.655 22.9485 133.057 23.6952C132.479 24.4232 132.189 25.5245 132.189 26.9992C132.189 28.4739 132.479 29.5845 133.057 30.3312C133.655 31.0592 134.476 31.4232 135.521 31.4232C136.548 31.4232 137.351 31.0592 137.929 30.3312C138.527 29.5845 138.825 28.4739 138.825 26.9992C138.825 25.5245 138.527 24.4232 137.929 23.6952C137.351 22.9485 136.548 22.5752 135.521 22.5752Z" fill="var(--fill-0, #101828)"/>
<path d="M149.679 13.8672V29.6872C149.679 30.3405 149.791 30.7979 150.015 31.0592C150.239 31.3205 150.612 31.4512 151.135 31.4512C151.452 31.4512 151.714 31.4325 151.919 31.3952C152.125 31.3579 152.386 31.2832 152.703 31.1712L152.367 33.6912C152.05 33.8779 151.648 34.0179 151.163 34.1112C150.696 34.2232 150.23 34.2792 149.763 34.2792C148.4 34.2792 147.402 33.9525 146.767 33.2992C146.151 32.6272 145.843 31.5632 145.843 30.1072V13.8672H149.679Z" fill="var(--fill-0, #101828)"/>
<path d="M161.337 34.2792C159.134 34.2792 157.37 33.6445 156.045 32.3752C154.719 31.0872 154.057 29.2952 154.057 26.9992C154.057 25.4685 154.355 24.1619 154.953 23.0792C155.55 21.9965 156.381 21.1659 157.445 20.5872C158.527 20.0085 159.759 19.7192 161.141 19.7192C162.559 19.7192 163.763 20.0085 164.753 20.5872C165.742 21.1472 166.498 21.9219 167.021 22.9112C167.543 23.8819 167.805 24.9925 167.805 26.2432C167.805 26.6165 167.795 26.9712 167.777 27.3072C167.758 27.6432 167.73 27.9419 167.693 28.2032H157.809C157.958 29.2859 158.331 30.0979 158.929 30.6392C159.545 31.1619 160.338 31.4232 161.309 31.4232C162.13 31.4232 162.793 31.2645 163.297 30.9472C163.801 30.6299 164.193 30.1912 164.473 29.6312L167.525 30.8072C167.077 31.9085 166.293 32.7672 165.173 33.3832C164.053 33.9805 162.774 34.2792 161.337 34.2792ZM161.113 22.5472C159.302 22.5472 158.21 23.5459 157.837 25.5432H164.137C164.025 24.5725 163.707 23.8352 163.185 23.3312C162.681 22.8085 161.99 22.5472 161.113 22.5472Z" fill="var(--fill-0, #101828)"/>
<path d="M176.655 34.2792C175.237 34.2792 173.939 34.0272 172.763 33.5232C171.606 33.0192 170.663 32.3099 169.935 31.3952L172.147 29.1552C172.595 29.8272 173.193 30.3779 173.939 30.8072C174.686 31.2365 175.573 31.4512 176.599 31.4512C177.327 31.4512 177.906 31.3485 178.335 31.1432C178.783 30.9192 179.007 30.5739 179.007 30.1072C179.007 29.8085 178.905 29.5565 178.699 29.3512C178.494 29.1272 178.083 28.9499 177.467 28.8192L175.003 28.3152C173.379 27.9792 172.222 27.4752 171.531 26.8032C170.859 26.1125 170.523 25.2259 170.523 24.1432C170.523 23.3779 170.747 22.6592 171.195 21.9872C171.662 21.3152 172.353 20.7739 173.267 20.3632C174.182 19.9339 175.321 19.7192 176.683 19.7192C179.521 19.7192 181.555 20.5872 182.787 22.3232L180.491 24.5632C180.081 23.9099 179.539 23.4152 178.867 23.0792C178.214 22.7245 177.523 22.5472 176.795 22.5472C175.153 22.5472 174.331 23.0045 174.331 23.9192C174.331 24.2179 174.462 24.4792 174.723 24.7032C174.985 24.9085 175.461 25.0859 176.151 25.2352L179.007 25.8232C180.389 26.1032 181.378 26.5792 181.975 27.2512C182.573 27.9045 182.871 28.6979 182.871 29.6312C182.871 30.9752 182.33 32.0859 181.247 32.9632C180.183 33.8405 178.653 34.2792 176.655 34.2792Z" fill="var(--fill-0, #101828)"/>
</g>
</g>
</svg>
