<svg preserveAspectRatio="none" width="100%" height="100%" overflow="visible" style="display: block;" viewBox="0 0 36 40" fill="none" xmlns="http://www.w3.org/2000/svg">
<g id="Group">
<path id="Vector" fill-rule="evenodd" clip-rule="evenodd" d="M19.1298 0H19.019C16.0085 0.0102344 13.1262 0.740938 10.6467 2.12695C7.75381 3.74154 5.47615 6.26762 4.16859 9.31164C3.78468 10.2197 3.23523 11.8258 2.53515 14.0846C2.45717 14.3267 2.44396 14.5849 2.49686 14.8336C2.54976 15.0824 2.66691 15.3129 2.83664 15.5023L3.91343 16.7314C4.25125 17.6619 4.08836 18.5201 3.41679 19.3524C3.41461 19.355 3.4125 19.3576 3.41047 19.3602L0.179762 23.5469C0.107262 23.6404 0.0549077 23.748 0.0259921 23.8627C-0.00292338 23.9775 -0.00777404 24.097 0.0117453 24.2138C0.0312646 24.3305 0.0747314 24.4419 0.139411 24.541C0.204091 24.6402 0.288584 24.7248 0.387575 24.7897L2.49968 26.1797L1.71172 27.7366C1.61305 27.9322 1.59267 28.158 1.65472 28.3681C1.71678 28.5781 1.8566 28.7566 2.0457 28.8672L3.08328 29.4726L2.71297 29.9051C2.63557 29.9953 2.57776 30.1006 2.54321 30.2143C2.50865 30.328 2.4981 30.4477 2.51222 30.5657C2.52635 30.6837 2.56484 30.7975 2.62526 30.8999C2.68568 31.0022 2.7667 31.0909 2.8632 31.1603C3.26591 31.4509 3.58362 31.6808 3.81632 31.8498C3.892 31.902 3.95261 31.9731 3.99206 32.0561C4.03152 32.1391 4.04843 32.2311 4.04109 32.3227C3.96562 33.6635 4.29578 35.3845 5.44898 36.1923C5.9639 36.5534 6.85523 36.8646 8.17882 36.2981L12.1023 34.6184C13.4472 36.1084 14.5086 37.8316 15.2341 39.7031C15.2686 39.7907 15.3286 39.8658 15.4064 39.9187C15.4842 39.9717 15.5761 40 15.6702 40H33.1233C33.2113 40 33.2976 39.9752 33.3722 39.9285C33.4469 39.8817 33.5068 39.8149 33.5452 39.7357C33.5836 39.6564 33.5989 39.568 33.5894 39.4804C33.5798 39.3929 33.5458 39.3098 33.4912 39.2407C29.6604 34.3902 29.4347 28.5666 32.8559 22.8432C34.171 20.6416 35.1222 18.7656 35.4895 16.7635C35.8733 14.6722 35.615 12.5651 34.6521 9.93187C33.5661 6.96141 31.502 4.45602 28.6827 2.68687C26.0476 1.03305 22.9258 0.106953 19.655 0.00851562C19.4795 0.00330729 19.3045 0.000494792 19.1298 7.8125e-05V0ZM8.87586 16.1302C8.63633 16.1305 8.40127 16.0653 8.19612 15.9416C7.99097 15.818 7.82353 15.6406 7.7119 15.4287C7.60028 15.2167 7.54873 14.9783 7.56282 14.7392C7.57691 14.5001 7.65611 14.2694 7.79185 14.072C7.92759 13.8747 8.11471 13.7182 8.33297 13.6195C8.55122 13.5208 8.79231 13.4837 9.03014 13.5121C9.26798 13.5405 9.49351 13.6334 9.68236 13.7808C9.8712 13.9282 10.0162 14.1243 10.1016 14.3481H13.5723V13.0399H11.3655C11.1937 13.0399 10.8823 12.9731 10.7227 12.5275L10.2294 11.1518C9.92195 11.1458 9.62625 11.0323 9.39377 10.8309C9.16128 10.6296 9.0067 10.3531 8.95688 10.0496C8.90707 9.74613 8.96518 9.43477 9.1211 9.16966C9.27703 8.90456 9.52092 8.70247 9.81038 8.59852C10.0998 8.49457 10.4166 8.49533 10.7055 8.60067C10.9945 8.70602 11.2374 8.90928 11.3921 9.17513C11.5467 9.44099 11.6033 9.75262 11.552 10.0559C11.5008 10.3591 11.3449 10.6348 11.1114 10.8351L11.5658 12.1025H13.5723V9.61328C13.5723 9.48896 13.6217 9.36973 13.7096 9.28182C13.7975 9.19392 13.9168 9.14453 14.0411 9.14453H16.5304V7.13883L15.2623 6.68437C15.0624 6.91702 14.7873 7.07229 14.4848 7.12322C14.1823 7.17415 13.8715 7.11751 13.6065 6.96315C13.3414 6.80879 13.1387 6.56646 13.0337 6.27824C12.9287 5.99002 12.928 5.67412 13.0316 5.38541C13.1353 5.09671 13.3368 4.85342 13.6011 4.69782C13.8655 4.54222 14.176 4.48413 14.4787 4.53364C14.7815 4.58315 15.0573 4.73713 15.2583 4.96884C15.4593 5.20054 15.5728 5.49534 15.5791 5.80203L16.955 6.295C17.4003 6.45516 17.4673 6.76672 17.4673 6.93789V9.14453H18.7755V5.67414C18.4886 5.56457 18.2491 5.35796 18.0987 5.0902C17.9483 4.82245 17.8965 4.51046 17.9522 4.20845C18.0079 3.90644 18.1676 3.63349 18.4037 3.43701C18.6397 3.24053 18.9371 3.13295 19.2442 3.13295C19.5513 3.13295 19.8487 3.24053 20.0848 3.43701C20.3208 3.63349 20.4805 3.90644 20.5362 4.20845C20.592 4.51046 20.5401 4.82245 20.3897 5.0902C20.2393 5.35796 19.9999 5.56457 19.713 5.67414V9.14453H21.0209V6.93789C21.0209 6.76672 21.0876 6.45516 21.5332 6.295L22.9091 5.80203C22.9151 5.49457 23.0286 5.19893 23.23 4.9665C23.4314 4.73407 23.7078 4.57954 24.0113 4.52976C24.3147 4.47998 24.626 4.53809 24.8911 4.69401C25.1562 4.84992 25.3582 5.09378 25.4622 5.38321C25.5661 5.67263 25.5654 5.98932 25.4601 6.27825C25.3547 6.56718 25.1515 6.81008 24.8857 6.96474C24.6199 7.11939 24.3083 7.17604 24.0051 7.12482C23.7019 7.0736 23.4262 6.91776 23.2259 6.68437L21.9586 7.13883V9.14453H24.4473C24.5717 9.14453 24.6909 9.19392 24.7788 9.28182C24.8667 9.36973 24.9161 9.48896 24.9161 9.61328V12.1025H26.9219L27.3762 10.8351C27.1433 10.6351 26.9879 10.3599 26.9369 10.0572C26.8859 9.7546 26.9425 9.44364 27.0969 9.17838C27.2513 8.91313 27.4937 8.71033 27.782 8.60523C28.0704 8.50012 28.3865 8.49934 28.6753 8.60302C28.9642 8.7067 29.2077 8.9083 29.3634 9.17279C29.5191 9.43728 29.5772 9.74795 29.5277 10.0508C29.4781 10.3537 29.3241 10.6297 29.0922 10.8308C28.8604 11.032 28.5654 11.1455 28.2586 11.1518L27.7654 12.5275C27.6056 12.9728 27.2941 13.0399 27.1225 13.0399H24.9161V14.3481H28.3862C28.4958 14.0613 28.7024 13.822 28.9701 13.6716C29.2378 13.5213 29.5497 13.4695 29.8516 13.5252C30.1535 13.5809 30.4264 13.7406 30.6228 13.9766C30.8192 14.2125 30.9268 14.5099 30.9268 14.8169C30.9268 15.1239 30.8192 15.4212 30.6228 15.6572C30.4264 15.8932 30.1535 16.0529 29.8516 16.1086C29.5497 16.1643 29.2378 16.1125 28.9701 15.9621C28.7024 15.8118 28.4958 15.5724 28.3862 15.2856H24.9161V16.5937H27.1225C27.2944 16.5937 27.6055 16.6602 27.7654 17.1059L28.2586 18.482C28.566 18.4881 28.8615 18.6017 29.0938 18.8031C29.3262 19.0045 29.4806 19.2809 29.5303 19.5843C29.5799 19.8878 29.5218 20.199 29.3658 20.464C29.2098 20.7289 28.966 20.9309 28.6766 21.0347C28.3872 21.1386 28.0706 21.1377 27.7817 21.0324C27.4929 20.927 27.2501 20.7238 27.0955 20.458C26.9409 20.1922 26.8844 19.8807 26.9357 19.5775C26.9869 19.2744 27.1428 18.9988 27.3762 18.7986L26.9219 17.5312H24.9161V20.0204C24.9161 20.1447 24.8667 20.2639 24.7788 20.3518C24.6909 20.4398 24.5717 20.4891 24.4473 20.4891H21.9584V22.4945L23.2257 22.9489C23.4256 22.7163 23.7007 22.5611 24.0032 22.5101C24.3057 22.4592 24.6164 22.5159 24.8815 22.6702C25.1466 22.8246 25.3492 23.0669 25.4542 23.3551C25.5592 23.6433 25.56 23.9592 25.4564 24.2479C25.3527 24.5366 25.1513 24.7798 24.887 24.9355C24.6226 25.0911 24.3122 25.1492 24.0095 25.0998C23.7067 25.0503 23.4309 24.8964 23.2298 24.6648C23.0288 24.4331 22.9152 24.1384 22.9088 23.8317L21.5333 23.338C21.088 23.1781 21.021 22.8666 21.021 22.6951V20.4888H19.713V23.9587C19.9998 24.0683 20.2393 24.2749 20.3896 24.5427C20.54 24.8104 20.5919 25.1224 20.5362 25.4244C20.4805 25.7263 20.3207 25.9993 20.0847 26.1957C19.8487 26.3922 19.5513 26.4998 19.2442 26.4998C18.9371 26.4998 18.6397 26.3922 18.4037 26.1957C18.1677 25.9993 18.008 25.7263 17.9523 25.4244C17.8966 25.1224 17.9484 24.8104 18.0988 24.5427C18.2492 24.2749 18.4886 24.0683 18.7755 23.9587V20.4888H17.4673V22.6953C17.4673 22.8672 17.4007 23.1784 16.955 23.3382L15.5791 23.8316C15.573 24.139 15.4593 24.4345 15.2579 24.6669C15.0565 24.8992 14.78 25.0536 14.4766 25.1033C14.1731 25.1529 13.8619 25.0947 13.5969 24.9387C13.3319 24.7828 13.1299 24.5389 13.0261 24.2495C12.9222 23.9601 12.923 23.6434 13.0284 23.3545C13.1337 23.0657 13.337 22.8228 13.6028 22.6682C13.8686 22.5137 14.1801 22.4571 14.4833 22.5083C14.7865 22.5595 15.0621 22.7154 15.2623 22.9487L16.5298 22.4944V20.4888H14.0405C13.9162 20.4888 13.797 20.4394 13.7091 20.3515C13.6212 20.2635 13.5718 20.1443 13.5718 20.02V17.5312H11.566L11.1114 18.7982C11.3442 18.9982 11.4997 19.2734 11.5507 19.576C11.6017 19.8786 11.5452 20.1896 11.3908 20.4548C11.2364 20.7201 10.994 20.9229 10.7056 21.028C10.4173 21.1331 10.1012 21.1339 9.81236 21.0302C9.5235 20.9265 9.28008 20.7249 9.12439 20.4604C8.9687 20.1959 8.91058 19.8853 8.96012 19.5824C9.00966 19.2795 9.16373 19.0035 9.39557 18.8024C9.62741 18.6013 9.92237 18.4878 10.2292 18.4816L10.7224 17.1058C10.8821 16.6598 11.1937 16.5934 11.3653 16.5934H13.5723V15.2852H10.1016C10.0066 15.5335 9.83866 15.7471 9.61984 15.8979C9.40102 16.0488 9.14162 16.1297 8.87586 16.1302ZM10.257 20.1702C10.1826 20.1702 10.1098 20.1482 10.0479 20.1068C9.98601 20.0655 9.93777 20.0067 9.90927 19.9379C9.88078 19.8692 9.87333 19.7935 9.88785 19.7205C9.90238 19.6475 9.93823 19.5804 9.99087 19.5278C10.0435 19.4751 10.1106 19.4393 10.1836 19.4248C10.2566 19.4103 10.3323 19.4178 10.4011 19.4463C10.4698 19.4748 10.5286 19.523 10.5699 19.5849C10.6113 19.6468 10.6333 19.7196 10.6333 19.7941C10.6331 19.8938 10.5934 19.9894 10.5229 20.0599C10.4523 20.1304 10.3568 20.1701 10.257 20.1702ZM14.2667 24.1797C14.1923 24.1797 14.1196 24.1576 14.0577 24.1163C13.9959 24.0749 13.9477 24.0162 13.9192 23.9474C13.8908 23.8787 13.8833 23.803 13.8979 23.7301C13.9124 23.6571 13.9482 23.5901 14.0008 23.5375C14.0534 23.4849 14.1205 23.4491 14.1934 23.4346C14.2664 23.4201 14.342 23.4275 14.4108 23.456C14.4795 23.4845 14.5382 23.5327 14.5796 23.5945C14.6209 23.6564 14.643 23.7291 14.643 23.8035C14.6429 23.9033 14.6032 23.9989 14.5327 24.0694C14.4621 24.14 14.3665 24.1796 14.2667 24.1797ZM19.2439 25.5609C19.1695 25.561 19.0967 25.5389 19.0348 25.4976C18.9728 25.4563 18.9246 25.3975 18.8961 25.3287C18.8675 25.26 18.86 25.1843 18.8745 25.1113C18.889 25.0382 18.9249 24.9711 18.9775 24.9185C19.0301 24.8658 19.0972 24.8299 19.1702 24.8154C19.2432 24.8008 19.3189 24.8083 19.3876 24.8367C19.4564 24.8652 19.5152 24.9134 19.5566 24.9753C19.598 25.0372 19.6201 25.1099 19.6202 25.1844C19.6201 25.2842 19.5804 25.3799 19.5099 25.4504C19.4393 25.521 19.3437 25.5608 19.2439 25.5609ZM24.2212 23.4273C24.2956 23.4274 24.3684 23.4494 24.4302 23.4908C24.4921 23.5321 24.5403 23.5909 24.5687 23.6596C24.5972 23.7284 24.6046 23.804 24.5901 23.877C24.5756 23.9499 24.5397 24.0169 24.4871 24.0695C24.4345 24.1221 24.3675 24.158 24.2945 24.1725C24.2216 24.187 24.1459 24.1795 24.0772 24.151C24.0085 24.1226 23.9497 24.0744 23.9084 24.0125C23.8671 23.9506 23.845 23.8779 23.845 23.8035C23.8451 23.7038 23.8847 23.6081 23.9553 23.5376C24.0258 23.4671 24.1215 23.4274 24.2212 23.4273ZM28.6074 19.7938C28.6074 19.8683 28.5853 19.941 28.5439 20.0029C28.5026 20.0647 28.4438 20.1129 28.375 20.1414C28.3062 20.1699 28.2306 20.1773 28.1576 20.1627C28.0846 20.1482 28.0175 20.1124 27.9649 20.0597C27.9123 20.0071 27.8765 19.94 27.862 19.867C27.8475 19.794 27.8549 19.7184 27.8834 19.6496C27.9119 19.5809 27.9601 19.5221 28.022 19.4808C28.0839 19.4394 28.1567 19.4173 28.2311 19.4173C28.3309 19.4175 28.4266 19.4572 28.4971 19.5278C28.5677 19.5983 28.6073 19.694 28.6074 19.7938ZM29.6122 14.4401C29.6866 14.4401 29.7594 14.4621 29.8213 14.5035C29.8832 14.5448 29.9314 14.6036 29.9599 14.6724C29.9884 14.7411 29.9959 14.8168 29.9814 14.8898C29.9668 14.9628 29.931 15.0299 29.8783 15.0825C29.8257 15.1352 29.7586 15.171 29.6856 15.1855C29.6126 15.2 29.5369 15.1926 29.4682 15.1641C29.3994 15.1355 29.3406 15.0873 29.2993 15.0254C29.2579 14.9635 29.2359 14.8907 29.2359 14.8162C29.236 14.7165 29.2757 14.6209 29.3462 14.5503C29.4168 14.4798 29.5124 14.4401 29.6122 14.4401ZM28.2311 9.46281C28.3055 9.4628 28.3783 9.48487 28.4403 9.52623C28.5022 9.56759 28.5504 9.62638 28.5789 9.69517C28.6074 9.76397 28.6149 9.83966 28.6003 9.91269C28.5858 9.98572 28.5499 10.0528 28.4973 10.1054C28.4446 10.1581 28.3775 10.1939 28.3045 10.2084C28.2315 10.2229 28.1558 10.2154 28.087 10.1869C28.0182 10.1584 27.9594 10.1101 27.9181 10.0482C27.8768 9.98624 27.8547 9.91344 27.8548 9.83898C27.8549 9.73925 27.8947 9.64365 27.9652 9.57314C28.0357 9.50263 28.1314 9.46296 28.2311 9.46281ZM24.2212 5.45313C24.2956 5.45314 24.3684 5.47522 24.4302 5.51656C24.4921 5.5579 24.5403 5.61666 24.5687 5.6854C24.5972 5.75413 24.6046 5.82977 24.5901 5.90273C24.5756 5.9757 24.5397 6.04272 24.4871 6.09532C24.4345 6.14792 24.3675 6.18374 24.2945 6.19825C24.2216 6.21275 24.1459 6.2053 24.0772 6.17683C24.0085 6.14835 23.9497 6.10014 23.9084 6.03828C23.8671 5.97642 23.845 5.90369 23.845 5.8293C23.8451 5.72954 23.8847 5.6339 23.9553 5.56337C24.0258 5.49284 24.1215 5.45319 24.2212 5.45313ZM19.2442 4.07219C19.3187 4.07217 19.3914 4.09423 19.4533 4.13558C19.5152 4.17693 19.5635 4.23571 19.592 4.30448C19.6205 4.37326 19.6279 4.44893 19.6134 4.52194C19.5989 4.59495 19.563 4.66202 19.5104 4.71465C19.4577 4.76728 19.3907 4.80312 19.3176 4.81763C19.2446 4.83214 19.169 4.82467 19.1002 4.79616C19.0314 4.76766 18.9727 4.7194 18.9313 4.65749C18.89 4.59558 18.8679 4.5228 18.868 4.44836C18.8681 4.34862 18.9078 4.25301 18.9783 4.1825C19.0489 4.11198 19.1445 4.07231 19.2442 4.07219ZM14.2667 6.2057C14.1923 6.20569 14.1196 6.18361 14.0577 6.14226C13.9959 6.10092 13.9477 6.04216 13.9192 5.97341C13.8908 5.90467 13.8833 5.82903 13.8979 5.75607C13.9124 5.6831 13.9482 5.61608 14.0009 5.56348C14.0535 5.51088 14.1205 5.47507 14.1935 5.46057C14.2665 5.44607 14.3421 5.45354 14.4108 5.48202C14.4796 5.51051 14.5383 5.55874 14.5796 5.62061C14.6209 5.68248 14.643 5.75521 14.643 5.82961C14.6429 5.92935 14.6032 6.02498 14.5326 6.09549C14.4621 6.166 14.3665 6.20564 14.2667 6.2057ZM14.5094 10.082H23.9786V19.5512H14.5094V10.082ZM9.88062 9.83922C9.88067 9.7648 9.90278 9.69207 9.94415 9.63021C9.98553 9.56836 10.0443 9.52016 10.1131 9.49171C10.1818 9.46326 10.2575 9.45584 10.3305 9.47038C10.4035 9.48492 10.4705 9.52077 10.5231 9.5734C10.5757 9.62604 10.6115 9.69308 10.6261 9.76607C10.6406 9.83906 10.6331 9.91471 10.6046 9.98347C10.5762 10.0522 10.5279 10.111 10.4661 10.1523C10.4042 10.1937 10.3314 10.2158 10.257 10.2158C10.1572 10.2157 10.0615 10.1759 9.99095 10.1053C9.92038 10.0347 9.8807 9.93904 9.88062 9.83922ZM8.87586 14.4403C8.9503 14.4403 9.02307 14.4624 9.08497 14.5037C9.14687 14.5451 9.19512 14.6038 9.22361 14.6726C9.2521 14.7414 9.25955 14.8171 9.24503 14.8901C9.2305 14.9631 9.19465 15.0301 9.14201 15.0828C9.08937 15.1354 9.0223 15.1712 8.94928 15.1858C8.87627 15.2003 8.8006 15.1928 8.73183 15.1643C8.66306 15.1358 8.60429 15.0875 8.56296 15.0256C8.52162 14.9637 8.49957 14.8909 8.49961 14.8165C8.49969 14.7167 8.53936 14.6211 8.6099 14.5506C8.68045 14.48 8.7761 14.4404 8.87586 14.4403ZM22.2125 11.3795C22.3368 11.3795 22.456 11.4289 22.544 11.5168C22.6319 11.6047 22.6812 11.724 22.6812 11.8483V17.7851C22.6812 17.9094 22.6319 18.0286 22.544 18.1165C22.456 18.2044 22.3368 18.2538 22.2125 18.2538H16.2755C16.1511 18.2538 16.0319 18.2044 15.944 18.1165C15.8561 18.0286 15.8067 17.9094 15.8067 17.7851V11.8483C15.8067 11.724 15.8561 11.6047 15.944 11.5168C16.0319 11.4289 16.1511 11.3795 16.2755 11.3795H22.2125ZM21.7437 17.3163H16.7442V12.317H21.7435L21.7437 17.3163Z" fill="var(--fill-0, white)"/>
</g>
</svg>
