<svg preserveAspectRatio="none" width="100%" height="100%" overflow="visible" style="display: block;" viewBox="0 0 510 242" fill="none" xmlns="http://www.w3.org/2000/svg">
<g id="Ellipse 2177" opacity="0.2" filter="url(#filter0_f_2093_58549)">
<path d="M255 2.5C324.969 2.5 388.241 15.9023 433.965 37.5039C479.804 59.1602 507.5 88.7822 507.5 121C507.5 153.218 479.804 182.84 433.965 204.496C388.241 226.098 324.969 239.5 255 239.5C185.031 239.5 121.759 226.098 76.0352 204.496C30.1964 182.84 2.5 153.218 2.5 121C2.5 88.7822 30.1964 59.1602 76.0352 37.5039C121.759 15.9023 185.031 2.5 255 2.5Z" stroke="url(#paint0_linear_2093_58549)" stroke-width="3"/>
</g>
<defs>
<filter id="filter0_f_2093_58549" x="0" y="0" width="510" height="242" filterUnits="userSpaceOnUse" color-interpolation-filters="sRGB">
<feFlood flood-opacity="0" result="BackgroundImageFix"/>
<feBlend mode="normal" in="SourceGraphic" in2="BackgroundImageFix" result="shape"/>
<feGaussianBlur stdDeviation="0.5" result="effect1_foregroundBlur_2093_58549"/>
</filter>
<linearGradient id="paint0_linear_2093_58549" x1="255" y1="1" x2="255" y2="241" gradientUnits="userSpaceOnUse">
<stop stop-color="#5B5B5B"/>
<stop offset="0.307692" stop-color="white"/>
<stop offset="0.625" stop-color="#8B8B8B"/>
<stop offset="1" stop-color="white"/>
</linearGradient>
</defs>
</svg>
