<svg preserveAspectRatio="none" width="100%" height="100%" overflow="visible" style="display: block;" viewBox="0 0 1481 866" fill="none" xmlns="http://www.w3.org/2000/svg">
<g id="Grid" opacity="0.4">
<g id="Vector">
<path d="M437.206 144.07H347.957V217.913H437.206V144.07Z" stroke="url(#paint0_radial_2184_51473)" stroke-width="1.30527" style="mix-blend-mode:luminosity"/>
</g>
<g id="Vector_2">
<path d="M350.187 576.039H260.938V649.881H350.187V576.039Z" stroke="url(#paint1_radial_2184_51473)" stroke-width="1.30527" style="mix-blend-mode:luminosity"/>
</g>
<g id="Vector_3">
<path d="M1220.37 216.062H1131.12V289.905H1220.37V216.062Z" stroke="url(#paint2_radial_2184_51473)" stroke-width="1.30527" style="mix-blend-mode:luminosity"/>
</g>
<g id="Vector_4">
<path d="M88.0178 1H1V72.9962M88.0178 1V72.9962M88.0178 1H175.036M88.0178 72.9962H1M88.0178 72.9962H175.036M88.0178 72.9962V144.992M1 72.9962V144.992M175.036 1V72.9962M175.036 1H262.054M175.036 72.9962H262.054M175.036 72.9962V144.992M262.054 1V72.9962M262.054 1H349.071M262.054 72.9962H349.071M262.054 72.9962V144.992M349.071 1V72.9962M349.071 1H436.089M349.071 72.9962H436.089M349.071 72.9962V144.992M436.089 1V72.9962M436.089 1H523.107M436.089 72.9962H523.107M436.089 72.9962V144.992M523.107 1V72.9962M523.107 1H610.125M523.107 72.9962H610.125M523.107 72.9962V144.992M610.125 1V72.9962M610.125 1H697.143M610.125 72.9962H697.143M610.125 72.9962V144.992M697.143 1V72.9962M697.143 1H784.161M697.143 72.9962H784.161M697.143 72.9962V144.992M784.161 1V72.9962M784.161 1H871.178M784.161 72.9962H871.178M784.161 72.9962V144.992M871.178 1V72.9962M871.178 1H958.196M871.178 72.9962H958.196M871.178 72.9962V144.992M958.196 1V72.9962M958.196 1H1045.21M958.196 72.9962H1045.21M958.196 72.9962V144.992M1045.21 1V72.9962M1045.21 1H1132.23M1045.21 72.9962H1132.23M1045.21 72.9962V144.992M1132.23 1V72.9962M1132.23 1H1219.25M1132.23 72.9962H1219.25M1132.23 72.9962V144.992M1219.25 1V72.9962M1219.25 1H1306.27M1219.25 72.9962H1306.27M1219.25 72.9962V144.992M1306.27 1V72.9962M1306.27 1H1393.29M1306.27 72.9962H1393.29M1306.27 72.9962V144.992M1393.29 1V72.9962M1393.29 1H1480.3V72.9962M1393.29 72.9962H1480.3M1393.29 72.9962V144.992M1480.3 72.9962V144.992M88.0178 144.992H1M88.0178 144.992H175.036M88.0178 144.992V216.989M1 144.992V216.989M175.036 144.992H262.054M175.036 144.992V216.989M262.054 144.992H349.071M262.054 144.992V216.989M349.071 144.992H436.089M349.071 144.992V216.989M436.089 144.992H523.107M436.089 144.992V216.989M523.107 144.992H610.125M523.107 144.992V216.989M610.125 144.992H697.143M610.125 144.992V216.989M697.143 144.992H784.161M697.143 144.992V216.989M784.161 144.992H871.178M784.161 144.992V216.989M871.178 144.992H958.196M871.178 144.992V216.989M958.196 144.992H1045.21M958.196 144.992V216.989M1045.21 144.992H1132.23M1045.21 144.992V216.989M1132.23 144.992H1219.25M1132.23 144.992V216.989M1219.25 144.992H1306.27M1219.25 144.992V216.989M1306.27 144.992H1393.29M1306.27 144.992V216.989M1393.29 144.992H1480.3M1393.29 144.992V216.989M1480.3 144.992V216.989M88.0178 216.989H1M88.0178 216.989H175.036M88.0178 216.989V288.985M1 216.989V288.985M175.036 216.989H262.054M175.036 216.989V288.985M262.054 216.989H349.071M262.054 216.989V288.985M349.071 216.989H436.089M349.071 216.989V288.985M436.089 216.989H523.107M436.089 216.989V288.985M523.107 216.989H610.125M523.107 216.989V288.985M610.125 216.989H697.143M610.125 216.989V288.985M697.143 216.989H784.161M697.143 216.989V288.985M784.161 216.989H871.178M784.161 216.989V288.985M871.178 216.989H958.196M871.178 216.989V288.985M958.196 216.989H1045.21M958.196 216.989V288.985M1045.21 216.989H1132.23M1045.21 216.989V288.985M1132.23 216.989H1219.25M1132.23 216.989V288.985M1219.25 216.989H1306.27M1219.25 216.989V288.985M1306.27 216.989H1393.29M1306.27 216.989V288.985M1393.29 216.989H1480.3M1393.29 216.989V288.985M1480.3 216.989V288.985M88.0178 288.985H1M88.0178 288.985H175.036M88.0178 288.985V360.981M1 288.985V360.981M175.036 288.985H262.054M175.036 288.985V360.981M262.054 288.985H349.071M262.054 288.985V360.981M349.071 288.985H436.089M349.071 288.985V360.981M436.089 288.985H523.107M436.089 288.985V360.981M523.107 288.985H610.125M523.107 288.985V360.981M610.125 288.985H697.143M610.125 288.985V360.981M697.143 288.985H784.161M697.143 288.985V360.981M784.161 288.985H871.178M784.161 288.985V360.981M871.178 288.985H958.196M871.178 288.985V360.981M958.196 288.985H1045.21M958.196 288.985V360.981M1045.21 288.985H1132.23M1045.21 288.985V360.981M1132.23 288.985H1219.25M1132.23 288.985V360.981M1219.25 288.985H1306.27M1219.25 288.985V360.981M1306.27 288.985H1393.29M1306.27 288.985V360.981M1393.29 288.985H1480.3M1393.29 288.985V360.981M1480.3 288.985V360.981M88.0178 360.981H1M88.0178 360.981H175.036M88.0178 360.981V432.977M1 360.981V432.977M175.036 360.981H262.054M175.036 360.981V432.977M262.054 360.981H349.071M262.054 360.981V432.977M349.071 360.981H436.089M349.071 360.981V432.977M436.089 360.981H523.107M436.089 360.981V432.977M523.107 360.981H610.125M523.107 360.981V432.977M610.125 360.981H697.143M610.125 360.981V432.977M697.143 360.981H784.161M697.143 360.981V432.977M784.161 360.981H871.178M784.161 360.981V432.977M871.178 360.981H958.196M871.178 360.981V432.977M958.196 360.981H1045.21M958.196 360.981V432.977M1045.21 360.981H1132.23M1045.21 360.981V432.977M1132.23 360.981H1219.25M1132.23 360.981V432.977M1219.25 360.981H1306.27M1219.25 360.981V432.977M1306.27 360.981H1393.29M1306.27 360.981V432.977M1393.29 360.981H1480.3M1393.29 360.981V432.977M1480.3 360.981V432.977M88.0178 432.977H1M88.0178 432.977H175.036M88.0178 432.977V504.973M1 432.977V504.973M175.036 432.977H262.054M175.036 432.977V504.973M262.054 432.977H349.071M262.054 432.977V504.973M349.071 432.977H436.089M349.071 432.977V504.973M436.089 432.977H523.107M436.089 432.977V504.973M523.107 432.977H610.125M523.107 432.977V504.973M610.125 432.977H697.143M610.125 432.977V504.973M697.143 432.977H784.161M697.143 432.977V504.973M784.161 432.977H871.178M784.161 432.977V504.973M871.178 432.977H958.196M871.178 432.977V504.973M958.196 432.977H1045.21M958.196 432.977V504.973M1045.21 432.977H1132.23M1045.21 432.977V504.973M1132.23 432.977H1219.25M1132.23 432.977V504.973M1219.25 432.977H1306.27M1219.25 432.977V504.973M1306.27 432.977H1393.29M1306.27 432.977V504.973M1393.29 432.977H1480.3M1393.29 432.977V504.973M1480.3 432.977V504.973M88.0178 504.973H1M88.0178 504.973H175.036M88.0178 504.973V576.969M1 504.973V576.969M175.036 504.973H262.054M175.036 504.973V576.969M262.054 504.973H349.071M262.054 504.973V576.969M349.071 504.973H436.089M349.071 504.973V576.969M436.089 504.973H523.107M436.089 504.973V576.969M523.107 504.973H610.125M523.107 504.973V576.969M610.125 504.973H697.143M610.125 504.973V576.969M697.143 504.973H784.161M697.143 504.973V576.969M784.161 504.973H871.178M784.161 504.973V576.969M871.178 504.973H958.196M871.178 504.973V576.969M958.196 504.973H1045.21M958.196 504.973V576.969M1045.21 504.973H1132.23M1045.21 504.973V576.969M1132.23 504.973H1219.25M1132.23 504.973V576.969M1219.25 504.973H1306.27M1219.25 504.973V576.969M1306.27 504.973H1393.29M1306.27 504.973V576.969M1393.29 504.973H1480.3M1393.29 504.973V576.969M1480.3 504.973V576.969M88.0178 576.969H1M88.0178 576.969H175.036M88.0178 576.969V648.966M1 576.969V648.966M175.036 576.969H262.054M175.036 576.969V648.966M262.054 576.969H349.071M262.054 576.969V648.966M349.071 576.969H436.089M349.071 576.969V648.966M436.089 576.969H523.107M436.089 576.969V648.966M523.107 576.969H610.125M523.107 576.969V648.966M610.125 576.969H697.143M610.125 576.969V648.966M697.143 576.969H784.161M697.143 576.969V648.966M784.161 576.969H871.178M784.161 576.969V648.966M871.178 576.969H958.196M871.178 576.969V648.966M958.196 576.969H1045.21M958.196 576.969V648.966M1045.21 576.969H1132.23M1045.21 576.969V648.966M1132.23 576.969H1219.25M1132.23 576.969V648.966M1219.25 576.969H1306.27M1219.25 576.969V648.966M1306.27 576.969H1393.29M1306.27 576.969V648.966M1393.29 576.969H1480.3M1393.29 576.969V648.966M1480.3 576.969V648.966M88.0178 648.966H1M88.0178 648.966H175.036M88.0178 648.966V720.962M1 648.966V720.962M175.036 648.966H262.054M175.036 648.966V720.962M262.054 648.966H349.071M262.054 648.966V720.962M349.071 648.966H436.089M349.071 648.966V720.962M436.089 648.966H523.107M436.089 648.966V720.962M523.107 648.966H610.125M523.107 648.966V720.962M610.125 648.966H697.143M610.125 648.966V720.962M697.143 648.966H784.161M697.143 648.966V720.962M784.161 648.966H871.178M784.161 648.966V720.962M871.178 648.966H958.196M871.178 648.966V720.962M958.196 648.966H1045.21M958.196 648.966V720.962M1045.21 648.966H1132.23M1045.21 648.966V720.962M1132.23 648.966H1219.25M1132.23 648.966V720.962M1219.25 648.966H1306.27M1219.25 648.966V720.962M1306.27 648.966H1393.29M1306.27 648.966V720.962M1393.29 648.966H1480.3M1393.29 648.966V720.962M1480.3 648.966V720.962M88.0178 720.962H1M88.0178 720.962H175.036M88.0178 720.962V792.958M1 720.962V792.958M175.036 720.962H262.054M175.036 720.962V792.958M262.054 720.962H349.071M262.054 720.962V792.958M349.071 720.962H436.089M349.071 720.962V792.958M436.089 720.962H523.107M436.089 720.962V792.958M523.107 720.962H610.125M523.107 720.962V792.958M610.125 720.962H697.143M610.125 720.962V792.958M697.143 720.962H784.161M697.143 720.962V792.958M784.161 720.962H871.178M784.161 720.962V792.958M871.178 720.962H958.196M871.178 720.962V792.958M958.196 720.962H1045.21M958.196 720.962V792.958M1045.21 720.962H1132.23M1045.21 720.962V792.958M1132.23 720.962H1219.25M1132.23 720.962V792.958M1219.25 720.962H1306.27M1219.25 720.962V792.958M1306.27 720.962H1393.29M1306.27 720.962V792.958M1393.29 720.962H1480.3M1393.29 720.962V792.958M1480.3 720.962V792.958M88.0178 792.958H1M88.0178 792.958H175.036M88.0178 792.958V864.954M1 792.958V864.954H88.0178M175.036 792.958H262.054M175.036 792.958V864.954M262.054 792.958H349.071M262.054 792.958V864.954M349.071 792.958H436.089M349.071 792.958V864.954M436.089 792.958H523.107M436.089 792.958V864.954M523.107 792.958H610.125M523.107 792.958V864.954M610.125 792.958H697.143M610.125 792.958V864.954M697.143 792.958H784.161M697.143 792.958V864.954M784.161 792.958H871.178M784.161 792.958V864.954M871.178 792.958H958.196M871.178 792.958V864.954M958.196 792.958H1045.21M958.196 792.958V864.954M1045.21 792.958H1132.23M1045.21 792.958V864.954M1132.23 792.958H1219.25M1132.23 792.958V864.954M1219.25 792.958H1306.27M1219.25 792.958V864.954M1306.27 792.958H1393.29M1306.27 792.958V864.954M1393.29 792.958H1480.3M1393.29 792.958V864.954M1480.3 792.958V864.954H1393.29M88.0178 864.954H175.036M175.036 864.954H262.054M262.054 864.954H349.071M349.071 864.954H436.089M436.089 864.954H523.107M523.107 864.954H610.125M610.125 864.954H697.143M697.143 864.954H784.161M784.161 864.954H871.178M871.178 864.954H958.196M958.196 864.954H1045.21M1045.21 864.954H1132.23M1132.23 864.954H1219.25M1219.25 864.954H1306.27M1306.27 864.954H1393.29" stroke="url(#paint3_radial_2184_51473)" stroke-width="1.30527" style="mix-blend-mode:luminosity"/>
</g>
</g>
<defs>
<radialGradient id="paint0_radial_2184_51473" cx="0" cy="0" r="1" gradientUnits="userSpaceOnUse" gradientTransform="translate(392.582 182.964) rotate(90) scale(34.8699 44.6918)">
<stop stop-color="#444444"/>
<stop offset="1" stop-color="#444444" stop-opacity="0"/>
</radialGradient>
<radialGradient id="paint1_radial_2184_51473" cx="0" cy="0" r="1" gradientUnits="userSpaceOnUse" gradientTransform="translate(305.562 614.932) rotate(90) scale(34.8699 44.6918)">
<stop stop-color="#444444"/>
<stop offset="1" stop-color="#444444" stop-opacity="0"/>
</radialGradient>
<radialGradient id="paint2_radial_2184_51473" cx="0" cy="0" r="1" gradientUnits="userSpaceOnUse" gradientTransform="translate(1175.74 254.956) rotate(90) scale(34.8699 44.6918)">
<stop stop-color="#444444"/>
<stop offset="1" stop-color="#444444" stop-opacity="0"/>
</radialGradient>
<radialGradient id="paint3_radial_2184_51473" cx="0" cy="0" r="1" gradientUnits="userSpaceOnUse" gradientTransform="translate(740.652 456.053) rotate(90) scale(407.978 740.767)">
<stop stop-color="#444444"/>
<stop offset="1" stop-color="#444444" stop-opacity="0"/>
</radialGradient>
</defs>
</svg>
