<svg preserveAspectRatio="none" width="100%" height="100%" overflow="visible" style="display: block;" viewBox="0 0 23 28" fill="none" xmlns="http://www.w3.org/2000/svg">
<g id="Group">
<path id="Vector" d="M8.66529 15.3095H13.9986C13.9986 16.0167 13.7177 16.695 13.2176 17.1951C12.7175 17.6952 12.0392 17.9761 11.332 17.9761C10.6247 17.9761 9.94644 17.6952 9.44634 17.1951C8.94624 16.695 8.66529 16.0167 8.66529 15.3095ZM7.57863 11.6761V12.8095H10.6653V8.91881L9.52729 7.78081C9.40585 7.65508 9.33866 7.48668 9.34018 7.31188C9.34169 7.13708 9.41181 6.96987 9.53541 6.84627C9.65902 6.72266 9.82623 6.65255 10.001 6.65103C10.1758 6.64951 10.3442 6.71671 10.47 6.83815L11.332 7.70015L12.194 6.83815C12.3197 6.71671 12.4881 6.64951 12.6629 6.65103C12.8377 6.65255 13.0049 6.72266 13.1285 6.84627C13.2521 6.96987 13.3222 7.13708 13.3237 7.31188C13.3253 7.48668 13.2581 7.65508 13.1366 7.78081L11.9986 8.91881V12.8095H15.0853V11.6761C16.1936 10.8815 17.0211 9.75562 17.4486 8.46064C17.8761 7.16565 17.8816 5.76839 17.4642 4.47009C17.0469 3.17179 16.2283 2.03944 15.1263 1.23613C14.0242 0.432823 12.6957 0 11.332 0C9.96823 0 8.63969 0.432823 7.53766 1.23613C6.43564 2.03944 5.61701 3.17179 5.19967 4.47009C4.78233 5.76839 4.78781 7.16565 5.21533 8.46064C5.64284 9.75562 6.47033 10.8815 7.57863 11.6761Z" fill="var(--fill-0, white)" fill-opacity="0.4"/>
<path id="Vector_2" d="M11.7733 13.8095H7.58V13.9761C7.58 14.5066 7.79071 15.0153 8.16579 15.3904C8.54086 15.7654 9.04957 15.9761 9.58 15.9761H13.0867C13.6171 15.9761 14.1258 15.7654 14.5009 15.3904C14.876 15.0153 15.0867 14.5066 15.0867 13.9761V13.8095H11.7733ZM22 7.30948H20.048C19.8712 7.30948 19.7016 7.23924 19.5766 7.11422C19.4516 6.98919 19.3813 6.81962 19.3813 6.64281C19.3813 6.466 19.4516 6.29643 19.5766 6.17141C19.7016 6.04638 19.8712 5.97615 20.048 5.97615H22C22.1768 5.97615 22.3464 6.04638 22.4714 6.17141C22.5964 6.29643 22.6667 6.466 22.6667 6.64281C22.6667 6.81962 22.5964 6.98919 22.4714 7.11422C22.3464 7.23924 22.1768 7.30948 22 7.30948ZM19.3333 4.65015C19.2017 4.65012 19.0729 4.6111 18.9634 4.53801C18.8539 4.46492 18.7685 4.36103 18.7179 4.23945C18.6673 4.11787 18.6539 3.98404 18.6793 3.85484C18.7047 3.72565 18.7678 3.60686 18.8607 3.51348L20.194 2.17281C20.3194 2.05097 20.4876 1.98326 20.6624 1.98426C20.8373 1.98527 21.0047 2.05491 21.1287 2.17818C21.2526 2.30146 21.3232 2.4685 21.3252 2.64332C21.3272 2.81814 21.2605 2.98674 21.1393 3.11281L19.806 4.45348C19.7442 4.51594 19.6705 4.56549 19.5894 4.59925C19.5083 4.63301 19.4212 4.65031 19.3333 4.65015ZM20.6667 11.3095C20.5788 11.3096 20.4917 11.2923 20.4106 11.2586C20.3295 11.2248 20.2558 11.1753 20.194 11.1128L18.8607 9.77215C18.7395 9.64608 18.6728 9.47747 18.6748 9.30265C18.6768 9.12783 18.7474 8.96079 18.8713 8.83752C18.9953 8.71424 19.1627 8.6446 19.3376 8.6436C19.5124 8.64259 19.6806 8.7103 19.806 8.83215L21.1393 10.1721C21.2324 10.2655 21.2957 10.3843 21.3212 10.5136C21.3468 10.643 21.3334 10.7769 21.2828 10.8987C21.2322 11.0204 21.1467 11.1244 21.037 11.1975C20.9274 11.2706 20.7985 11.3096 20.6667 11.3095ZM2.61867 7.30948H0.666667C0.489856 7.30948 0.320287 7.23924 0.195262 7.11422C0.070238 6.98919 0 6.81962 0 6.64281C0 6.466 0.070238 6.29643 0.195262 6.17141C0.320287 6.04638 0.489856 5.97615 0.666667 5.97615H2.61867C2.79548 5.97615 2.96505 6.04638 3.09007 6.17141C3.2151 6.29643 3.28533 6.466 3.28533 6.64281C3.28533 6.81962 3.2151 6.98919 3.09007 7.11422C2.96505 7.23924 2.79548 7.30948 2.61867 7.30948ZM3.33333 4.65015C3.24545 4.65031 3.15841 4.63301 3.07726 4.59925C2.99612 4.56549 2.9225 4.51594 2.86067 4.45348L1.52733 3.11348C1.46557 3.05141 1.41663 2.97778 1.38332 2.8968C1.35001 2.81581 1.33298 2.72906 1.3332 2.6415C1.33342 2.55393 1.35088 2.46727 1.38459 2.38645C1.4183 2.30563 1.4676 2.23224 1.52967 2.17048C1.59174 2.10871 1.66537 2.05978 1.74635 2.02647C1.82733 1.99316 1.91408 1.97613 2.00165 1.97634C2.08922 1.97656 2.17588 1.99402 2.2567 2.02773C2.33752 2.06144 2.4109 2.11074 2.47267 2.17281L3.806 3.51348C3.89883 3.60686 3.96193 3.72565 3.98733 3.85484C4.01274 3.98404 3.99932 4.11787 3.94876 4.23945C3.8982 4.36103 3.81277 4.46492 3.70325 4.53801C3.59372 4.6111 3.46501 4.65012 3.33333 4.65015ZM2 11.3095C1.86833 11.3095 1.73961 11.2704 1.63008 11.1973C1.52056 11.1243 1.43513 11.0204 1.38457 10.8988C1.33401 10.7772 1.32059 10.6434 1.346 10.5142C1.37141 10.385 1.4345 10.2662 1.52733 10.1728L2.86067 8.83215C2.92199 8.76832 2.99541 8.71735 3.07664 8.6822C3.15787 8.64705 3.24529 8.62843 3.33379 8.62742C3.4223 8.62641 3.51012 8.64303 3.59213 8.67632C3.67414 8.70961 3.7487 8.7589 3.81146 8.8213C3.87423 8.88371 3.92393 8.95799 3.95768 9.03982C3.99144 9.12164 4.00856 9.20936 4.00805 9.29787C4.00754 9.38638 3.98941 9.4739 3.95472 9.55533C3.92003 9.63676 3.86948 9.71046 3.806 9.77215L2.47267 11.1128C2.41084 11.1753 2.33721 11.2248 2.25607 11.2586C2.17493 11.2923 2.08789 11.3096 2 11.3095ZM22.2513 19.7748C22.2142 19.5077 22.112 19.2538 21.9537 19.0354C21.7953 18.8171 21.5857 18.6411 21.3433 18.5228C21.094 18.3979 20.8174 18.3371 20.5387 18.3458C20.2599 18.3545 19.9877 18.4326 19.7467 18.5728L14.2053 22.6928C13.9163 22.8567 13.5896 22.9429 13.2573 22.9428H10.898C10.8148 22.9428 10.7325 22.9264 10.6556 22.8946C10.5788 22.8628 10.509 22.8161 10.4502 22.7573C10.3914 22.6985 10.3447 22.6287 10.3129 22.5518C10.281 22.475 10.2647 22.3927 10.2647 22.3095C10.2647 22.2263 10.281 22.144 10.3129 22.0671C10.3447 21.9903 10.3914 21.9205 10.4502 21.8616C10.509 21.8028 10.5788 21.7562 10.6556 21.7244C10.7325 21.6925 10.8148 21.6761 10.898 21.6761H12.6293C12.9243 21.6755 13.2072 21.559 13.417 21.3517C13.6269 21.1445 13.747 20.8631 13.7513 20.5681V20.5481C13.7497 20.2515 13.6309 19.9675 13.4207 19.7582C13.2105 19.5488 12.926 19.4312 12.6293 19.4308H5.41333V26.9781C5.41434 27.0601 5.40764 27.1421 5.39333 27.2228H13.8293C14.6998 27.2233 15.5392 26.8996 16.184 26.3148L21.5973 21.3861C21.8342 21.1953 22.0186 20.9471 22.1329 20.6652C22.2472 20.3832 22.2884 20.0768 22.2513 19.7748ZM0.997334 17.9988H3.66867C3.93324 17.999 4.18691 18.1042 4.37393 18.2914C4.56095 18.4785 4.666 18.7322 4.666 18.9968V26.9781C4.666 27.2427 4.56095 27.4965 4.37393 27.6836C4.18691 27.8707 3.93324 27.976 3.66867 27.9761H0.997334C0.732763 27.976 0.479089 27.8707 0.292072 27.6836C0.105055 27.4965 -5.90293e-08 27.2427 0 26.9781V18.9968C0 18.7321 0.105146 18.4783 0.292308 18.2911C0.479469 18.104 0.732648 17.9988 0.997334 17.9988Z" fill="var(--fill-0, white)" fill-opacity="0.4"/>
</g>
</svg>
