<svg preserveAspectRatio="none" width="100%" height="100%" overflow="visible" style="display: block;" viewBox="0 0 144 144" fill="none" xmlns="http://www.w3.org/2000/svg">
<g id="Group">
<path id="Vector" d="M56.0486 15.3594C56.1952 15.4325 56.2663 15.6049 56.2146 15.7607L54.2644 21.6113C53.6558 23.438 55.0229 25.3139 56.9329 25.3139C58.1107 25.3139 59.2079 24.5686 59.6008 23.3899L61.5507 17.5396C62.4825 14.7451 61.1983 11.6446 58.5638 10.3278C58.5216 10.307 58.4842 10.2773 58.4544 10.2408C58.4245 10.2044 58.4028 10.162 58.3907 10.1164C58.3785 10.0708 58.3763 10.0232 58.3841 9.97674C58.3919 9.93026 58.4096 9.88598 58.4359 9.84687L62.0854 4.37291C62.9468 3.08056 62.5978 1.33428 61.3055 0.472812C60.0128 -0.388938 58.2668 -0.0399066 57.4054 1.25272L53.7559 6.72669C53.2875 7.42952 52.9739 8.22386 52.8358 9.05708C52.6977 9.89029 52.7383 10.7433 52.9549 11.5597C53.1719 12.3761 53.5599 13.137 54.0933 13.7921C54.6267 14.4472 55.2932 14.9814 56.0486 15.3594ZM70.1111 15.3594C70.2577 15.4325 70.3288 15.6049 70.2771 15.7607L68.3269 21.6113C67.7183 23.438 69.0854 25.3139 70.9954 25.3139C72.1732 25.3139 73.2704 24.5686 73.6633 23.3899L75.6132 17.5396C76.545 14.7451 75.2608 11.6446 72.6263 10.3278C72.5841 10.307 72.5467 10.2773 72.5169 10.2408C72.487 10.2044 72.4653 10.162 72.4532 10.1164C72.441 10.0708 72.4388 10.0232 72.4466 9.97674C72.4544 9.93026 72.4721 9.88598 72.4984 9.84687L76.1479 4.37291C77.0093 3.08056 76.6603 1.33428 75.368 0.472812C74.0756 -0.388938 72.3293 -0.0399066 71.4679 1.25272L67.8184 6.72669C67.35 7.42952 67.0364 8.22386 66.8983 9.05708C66.7602 9.89029 66.8008 10.7433 67.0174 11.5597C67.2344 12.3761 67.6224 13.137 68.1558 13.7921C68.6892 14.4472 69.3557 14.9814 70.1111 15.3594ZM84.1736 15.3594C84.3202 15.4325 84.3913 15.6049 84.3396 15.7607L82.3894 21.6113C81.8983 23.0847 82.6948 24.6775 84.1683 25.1688C85.6389 25.659 87.2336 24.8662 87.7258 23.3899L89.6757 17.5396C90.6075 14.7451 89.3233 11.6446 86.6888 10.3278C86.6466 10.307 86.6092 10.2773 86.5794 10.2408C86.5495 10.2044 86.5278 10.162 86.5157 10.1164C86.5035 10.0708 86.5013 10.0232 86.5091 9.97674C86.5169 9.93026 86.5346 9.88598 86.5609 9.84687L90.2104 4.37291C91.0718 3.08056 90.7228 1.33428 89.4305 0.472812C88.1381 -0.388938 86.3918 -0.0399066 85.5304 1.25272L81.8809 6.72669C81.4125 7.42952 81.0989 8.22386 80.9608 9.05708C80.8227 9.89029 80.8633 10.7433 81.0799 11.5597C81.2969 12.3761 81.6849 13.137 82.2183 13.7921C82.7517 14.4472 83.4182 14.9814 84.1736 15.3594ZM140.625 137.813H112.797C125.825 127.734 134.001 116.907 137.689 104.888C138.243 103.081 136.89 101.251 135 101.251H127.968V99.8443C127.968 85.1968 119.099 72.9487 106.875 67.6151V66.0943C106.875 46.7092 91.1036 30.9381 71.7185 30.9381C52.3333 30.9381 36.5622 46.7092 36.5622 66.0943V67.6266C24.1574 73.0623 15.4685 85.4567 15.4685 99.8443V101.251H8.4375C7.99524 101.251 7.55921 101.355 7.16481 101.555C6.7704 101.755 6.42875 102.045 6.1676 102.402C5.90645 102.759 5.73316 103.173 5.6618 103.609C5.59044 104.046 5.62302 104.493 5.75691 104.914C10.2538 119.081 19.7871 129.606 32.0394 137.813H2.8125C1.25944 137.813 0 139.073 0 140.626C0 142.179 1.25944 143.438 2.8125 143.438H140.625C142.178 143.438 143.438 142.179 143.438 140.626C143.438 139.073 142.178 137.813 140.625 137.813ZM122.344 99.8443V101.251H116.719V99.8443C116.719 86.6624 105.994 75.9381 92.8125 75.9381C88.105 75.936 83.502 77.326 79.5825 79.9332C78.5133 78.3822 77.322 76.919 76.0199 75.5576C87.5714 67.5785 103.568 68.8393 113.694 78.9612C119.272 84.5415 122.344 91.9581 122.344 99.8443ZM105.469 101.251V99.8443C105.469 92.8657 99.7912 87.1881 92.8125 87.1881C89.6203 87.1881 86.7026 88.3786 84.4737 90.3356C83.9408 88.4424 83.2487 86.5976 82.4048 84.8211C85.4608 82.6994 89.0923 81.5627 92.8125 81.5634C102.893 81.5634 111.094 89.7643 111.094 99.8446V101.251H105.469V101.251ZM85.7812 101.251V99.8443C85.7812 95.9673 88.9355 92.8131 92.8125 92.8131C96.6895 92.8131 99.8438 95.9673 99.8438 99.8443V101.251H85.7812ZM84.3652 65.7093C84.1604 58.9084 78.5683 53.4378 71.7188 53.4378C64.8667 53.4378 59.2732 58.9118 59.0721 65.7161C57.2384 65.2621 55.371 64.9573 53.4881 64.8048C54.1524 55.3244 62.0724 47.8125 71.7188 47.8125C81.3639 47.8125 89.2831 55.3225 89.9491 64.8012C88.0664 64.9534 86.1991 65.2571 84.3652 65.7093ZM64.6875 66.0943C64.6875 62.2173 67.8417 59.0631 71.7188 59.0631C75.5958 59.0631 78.75 62.2173 78.75 66.0943V67.6148C76.2502 68.7073 73.8865 70.0877 71.7067 71.7281C69.5333 70.0943 67.1779 68.7181 64.6875 67.6269V66.0943ZM71.7188 36.5631C87.8743 36.5631 101.039 49.6038 101.245 65.7113C99.3876 65.2539 97.4959 64.9486 95.5887 64.7983C94.9132 52.2166 84.4658 42.1878 71.7188 42.1878C58.9719 42.1878 48.5249 52.2161 47.8488 64.7972C45.9414 64.9472 44.0496 65.2534 42.1923 65.7127C42.3976 49.6047 55.5626 36.5631 71.7188 36.5631ZM21.0938 99.8443C21.0938 83.5608 34.3415 70.3131 50.625 70.3131C66.9085 70.3131 80.1562 83.5608 80.1562 99.8443V101.251H74.5312V99.8443C74.5312 86.6624 63.8069 75.9381 50.625 75.9381C37.4431 75.9381 26.7188 86.6624 26.7188 99.8443V101.251H21.0938V99.8443ZM63.2812 101.251V99.8443C63.2812 92.8657 57.6037 87.1881 50.625 87.1881C43.6463 87.1881 37.9688 92.8657 37.9688 99.8443V101.251H32.3438V99.8443C32.3438 89.7641 40.5447 81.5631 50.625 81.5631C60.7053 81.5631 68.9062 89.7641 68.9062 99.8443V101.251H63.2812ZM43.5938 101.251V99.8443C43.5938 95.9673 46.748 92.8131 50.625 92.8131C54.502 92.8131 57.6562 95.9673 57.6562 99.8443V101.251H43.5938ZM131.024 106.876C130.258 108.779 129.354 110.653 128.316 112.501H15.1588C14.1342 110.685 13.2265 108.807 12.4414 106.876H131.024Z" fill="url(#paint0_linear_2067_48637)"/>
</g>
<defs>
<linearGradient id="paint0_linear_2067_48637" x1="0" y1="0" x2="123.02" y2="125.061" gradientUnits="userSpaceOnUse">
<stop stop-color="white" stop-opacity="0.24"/>
<stop offset="0.3" stop-color="white" stop-opacity="0.12"/>
<stop offset="1" stop-color="white" stop-opacity="0.04"/>
</linearGradient>
</defs>
</svg>
