<svg preserveAspectRatio="none" width="100%" height="100%" overflow="visible" style="display: block;" viewBox="0 0 41 31" fill="none" xmlns="http://www.w3.org/2000/svg">
<path id="Vector" opacity="0.5" d="M36.2229 0H4.15202C1.85671 0 0 1.86159 0 4.15202V26.5008C0 28.7961 1.86158 30.6528 4.15202 30.6528H36.2229C38.5182 30.6528 40.3749 28.7912 40.3749 26.5008V4.15202C40.3749 1.85671 38.5134 0 36.2229 0ZM39.6732 26.5008C39.6732 28.4013 38.1235 29.951 36.2229 29.951H4.15202C2.25145 29.951 0.701748 28.4013 0.701748 26.5008V4.15202C0.701748 2.25145 2.25145 0.70175 4.15202 0.70175H36.2229C38.1235 0.70175 39.6732 2.25145 39.6732 4.15202V26.5008Z" fill="url(#paint0_linear_2172_46151)"/>
<defs>
<linearGradient id="paint0_linear_2172_46151" x1="1.34502" y1="-0.482453" x2="45.2579" y2="36.3691" gradientUnits="userSpaceOnUse">
<stop stop-color="white" stop-opacity="0"/>
<stop offset="0.05" stop-color="white" stop-opacity="0.02"/>
<stop offset="0.12" stop-color="white" stop-opacity="0.08"/>
<stop offset="0.18" stop-color="white" stop-opacity="0.17"/>
<stop offset="0.26" stop-color="white" stop-opacity="0.3"/>
<stop offset="0.33" stop-color="white" stop-opacity="0.47"/>
<stop offset="0.41" stop-color="white" stop-opacity="0.67"/>
<stop offset="0.48" stop-color="white" stop-opacity="0.91"/>
<stop offset="0.51" stop-color="white" stop-opacity="0.96"/>
<stop offset="0.53" stop-color="white" stop-opacity="0.78"/>
<stop offset="0.56" stop-color="white" stop-opacity="0.61"/>
<stop offset="0.58" stop-color="white" stop-opacity="0.47"/>
<stop offset="0.61" stop-color="white" stop-opacity="0.34"/>
<stop offset="0.64" stop-color="white" stop-opacity="0.23"/>
<stop offset="0.67" stop-color="white" stop-opacity="0.15"/>
<stop offset="0.71" stop-color="white" stop-opacity="0.08"/>
<stop offset="0.75" stop-color="white" stop-opacity="0.03"/>
<stop offset="0.82" stop-color="white" stop-opacity="0"/>
<stop offset="1" stop-color="white" stop-opacity="0"/>
</linearGradient>
</defs>
</svg>
