<svg preserveAspectRatio="none" width="100%" height="100%" overflow="visible" style="display: block;" viewBox="0 0 144 121" fill="none" xmlns="http://www.w3.org/2000/svg">
<g id="Group">
<path id="Vector" d="M121.039 23.1525L116.514 39.4447C115.78 41.9999 115.405 44.6453 115.403 47.304V120.548H59.6478C68.5758 114.334 74.4191 101.866 76.0661 89.4397C78.4511 71.334 70.6346 57.9623 56.1491 55.4513C54.2973 55.1228 52.5266 54.9562 50.8008 54.9562C48.5373 54.9562 46.5618 55.2037 44.8338 55.6155C44.9981 55.1655 45.2456 54.6705 45.4931 54.1755C47.1669 50.8891 49.4579 47.9557 52.2408 45.5355C54.7923 43.272 55.0803 39.3638 52.8168 36.8123C51.6648 35.4533 49.9773 34.713 48.1661 34.713C46.6856 34.713 45.2456 35.2485 44.1341 36.2362C41.2053 38.7546 38.6673 41.6945 36.6033 44.9595C36.7206 43.4698 36.9829 41.9951 37.3863 40.5563L41.7896 24.7973H115.032C117.171 24.7973 119.271 24.2212 121.039 23.1502V23.1525ZM126.939 0.00900042H113.873V0H52.9878C50.3553 0 47.9028 1.34775 46.4921 3.564L38.5226 16.1302C38.2373 16.5785 38.0779 17.0953 38.0609 17.6263C38.0439 18.1574 38.1701 18.6833 38.4261 19.1489C38.6821 19.6144 39.0586 20.0026 39.5162 20.2727C39.9737 20.5429 40.4955 20.685 41.0268 20.6842H115.041C117.673 20.6842 120.126 19.3365 121.536 17.118L131.279 1.76175C130.154 0.63675 128.606 0.00900042 126.939 0.00900042ZM129.722 11.916L127.458 15.498L120.463 40.5563C119.847 42.777 119.518 45.0405 119.518 47.3063V116.595L129.722 99.8078V11.916ZM121.946 120.546H133.506C136.058 120.546 138.321 119.684 140.133 118.202L131.778 104.377L121.946 120.546ZM143.053 40.5563L133.837 7.515V99.81L142.889 114.746C143.631 113.346 144 111.742 144 110.054V47.304C144 45.0405 143.712 42.7365 143.055 40.554L143.053 40.5563ZM31.9548 49.1152C30.4316 47.5087 28.6631 46.3162 26.8923 45.4117C22.4486 43.2292 17.8811 43.1483 16.5243 44.4218C15.4128 45.4928 15.1248 48.7868 16.1531 52.4475C16.4006 53.3925 16.7718 54.3825 17.2646 55.3275C18.7451 55.08 20.1873 54.9585 21.5846 54.9585C25.6571 54.9585 28.9106 55.863 31.3788 56.7675C31.9143 54.7515 32.5713 52.776 33.3948 50.8838C32.9499 50.2665 32.4691 49.676 31.9548 49.1152ZM49.7298 39.528C49.3687 39.1153 48.8592 38.862 48.3122 38.8232C47.7652 38.7844 47.225 38.9634 46.8093 39.321C43.2466 42.4549 40.3142 46.2395 38.1693 50.472C36.8871 52.9525 35.9059 55.5774 35.2466 58.2908C35.6583 58.455 36.0273 58.5787 36.1916 58.5787C36.5628 58.5382 37.7576 58.0433 38.6216 57.7148C38.9906 57.5505 39.4023 57.3862 39.8141 57.2197C40.3091 55.6582 40.9661 54.0113 41.8301 52.3238C43.7309 48.5527 46.344 45.1855 49.5251 42.408C49.7288 42.2331 49.8958 42.0195 50.0164 41.7797C50.1371 41.5399 50.209 41.2785 50.228 41.0107C50.2471 40.7429 50.2128 40.474 50.1273 40.2195C50.0418 39.965 49.9067 39.73 49.7298 39.528ZM71.9913 88.9043C69.6873 106.351 56.8083 128.984 36.1938 117.38C15.5771 128.984 2.69808 106.351 0.394081 88.9043C-1.82892 72.0743 5.57808 61.4588 16.9361 59.4833C27.7991 57.6315 32.6951 62.694 36.1938 62.694C39.6903 62.694 44.5863 57.6315 55.4493 59.4833C66.8073 61.4588 74.2143 72.0743 71.9913 88.9043ZM12.0401 87.0525C12.1616 85.4888 11.2166 84.132 9.94083 84.0487C8.66508 83.9677 7.55583 85.2008 7.42983 86.7645C7.34883 88.371 8.29383 89.7278 9.56958 89.811C10.8453 89.892 11.9546 88.6568 12.0401 87.0525ZM14.6726 68.535C12.2043 67.7137 9.32208 69.7298 8.25333 73.0215C7.14183 76.3133 8.25333 79.6455 10.6811 80.469C13.1493 81.252 15.9911 79.2765 17.1003 75.9847C18.2096 72.693 17.1003 69.3585 14.6726 68.5373V68.535Z" fill="url(#paint0_linear_2067_48832)"/>
</g>
<defs>
<linearGradient id="paint0_linear_2067_48832" x1="0" y1="0" x2="101.491" y2="123.239" gradientUnits="userSpaceOnUse">
<stop stop-color="white" stop-opacity="0.24"/>
<stop offset="0.3" stop-color="white" stop-opacity="0.12"/>
<stop offset="1" stop-color="white" stop-opacity="0.04"/>
</linearGradient>
</defs>
</svg>
