<svg preserveAspectRatio="none" width="100%" height="100%" overflow="visible" style="display: block;" viewBox="0 0 35 36" fill="none" xmlns="http://www.w3.org/2000/svg">
<g id="Group">
<path id="Vector" d="M9.51348 0C9.72451 0 9.9269 0.0838322 10.0761 0.233054C10.2253 0.382277 10.3092 0.584666 10.3092 0.795698V3.18279C10.3092 3.39382 10.2253 3.59621 10.0761 3.74543C9.9269 3.89466 9.72451 3.97849 9.51348 3.97849C9.30244 3.97849 9.10005 3.89466 8.95083 3.74543C8.80161 3.59621 8.71778 3.39382 8.71778 3.18279V0.795698C8.71778 0.584666 8.80161 0.382277 8.95083 0.233054C9.10005 0.0838322 9.30244 0 9.51348 0ZM4.17673 2.62023C4.25062 2.54631 4.33835 2.48767 4.43491 2.44766C4.53147 2.40766 4.63497 2.38706 4.73949 2.38706C4.84401 2.38706 4.9475 2.40766 5.04406 2.44766C5.14062 2.48767 5.22835 2.54631 5.30224 2.62023L6.89364 4.21163C6.96752 4.28556 7.02611 4.37331 7.06607 4.46989C7.10603 4.56646 7.12658 4.66996 7.12654 4.77447C7.12651 4.87898 7.10588 4.98247 7.06585 5.07901C7.02582 5.17555 6.96717 5.26327 6.89324 5.33714C6.81931 5.41102 6.73156 5.46961 6.63499 5.50957C6.53841 5.54953 6.43492 5.57008 6.3304 5.57005C6.22589 5.57001 6.12241 5.54939 6.02586 5.50936C5.92932 5.46933 5.8416 5.41067 5.76773 5.33675L4.17673 3.74535C4.02756 3.59613 3.94376 3.39378 3.94376 3.18279C3.94376 2.9718 4.02756 2.76945 4.17673 2.62023ZM15.2369 12.6277C15.3412 12.4702 15.3965 12.3055 15.4132 12.1376C15.4566 11.9035 15.4423 11.6624 15.3716 11.4351C15.3009 11.2078 15.1759 11.0012 15.0074 10.833L13.1442 8.9699C12.869 8.69479 12.4958 8.54024 12.1067 8.54024C11.7175 8.54024 11.3443 8.69479 11.0691 8.9699L11.0567 8.98263C11.0169 9.02321 10.9788 9.06578 10.9437 9.10915C10.8761 9.1919 10.8244 9.27824 10.7858 9.36735C10.6529 9.64179 10.6088 9.95079 10.6596 10.2514C10.7104 10.5521 10.8535 10.8295 11.0691 11.0451L12.9322 12.9086C13.1478 13.1241 13.4251 13.2672 13.7256 13.3179C14.0262 13.3687 14.3351 13.3246 14.6095 13.1919C14.6986 13.1537 14.7854 13.1016 14.8681 13.0339C15.0109 12.9182 15.1353 12.7809 15.2369 12.6277ZM8.52005 11.5189L8.52681 11.5122L8.53715 11.5018C8.58139 11.4577 8.62787 11.4159 8.6764 11.3765C8.71778 11.3427 8.75995 11.3128 8.80292 11.287C9.11288 11.087 9.48201 10.9992 9.84882 11.0383C10.2156 11.0774 10.558 11.241 10.8188 11.5018L12.4759 13.1589C12.7365 13.4195 12.9001 13.7616 12.9393 14.1281C12.9785 14.4947 12.8911 14.8636 12.6915 15.1736C12.6643 15.218 12.6341 15.2605 12.6012 15.3009C12.462 15.4717 12.2932 15.6159 12.1027 15.7266C12.0016 15.7854 11.8917 15.8276 11.7772 15.8515C11.5007 15.9303 11.208 15.9337 10.9297 15.8614C10.6514 15.789 10.3974 15.6436 10.1942 15.4401L8.53715 13.7835C8.33368 13.5802 8.18828 13.3261 8.11602 13.0477C8.04375 12.7693 8.04726 12.4766 8.12618 12.2C8.14925 12.0898 8.18983 11.9812 8.2511 11.8746C8.32391 11.7481 8.41382 11.6283 8.52005 11.5189ZM9.81465 15.6701C10.0178 15.873 10.1669 16.1236 10.2482 16.3989C10.3295 16.6743 10.3405 16.9656 10.2801 17.2464C10.269 17.4983 10.1673 17.7378 9.99368 17.9207C9.95643 17.9609 9.9174 17.9994 9.87671 18.0361C9.72058 18.2095 9.53077 18.3493 9.31885 18.447C9.10693 18.5447 8.87734 18.5983 8.64407 18.6044C8.41079 18.6105 8.17872 18.569 7.96198 18.4825C7.74524 18.3961 7.54838 18.2664 7.38339 18.1013L5.87634 16.5943C5.71128 16.4293 5.58155 16.2323 5.49507 16.0156C5.40858 15.7988 5.36714 15.5666 5.37329 15.3333C5.37943 15.1 5.43302 14.8704 5.53079 14.6584C5.62856 14.4465 5.76847 14.2567 5.94199 14.1006C5.96228 14.0779 5.98336 14.0556 6.00524 14.0337C6.16447 13.8702 6.37331 13.7639 6.59923 13.7314C6.8964 13.6424 7.21211 13.6355 7.51288 13.7114C7.81365 13.7874 8.08826 13.9433 8.30759 14.1626L9.81465 15.6701Z" fill="var(--fill-0, #4242FF)" fill-opacity="0.6"/>
<path id="Vector_2" d="M17.8206 10.658C18.2272 10.2514 18.4574 9.70116 18.4615 9.12617C18.4656 8.55119 18.2432 7.99769 17.8424 7.58539L18.6381 6.78969C18.9006 6.52753 19.2379 6.35317 19.6035 6.2906C19.9692 6.22803 20.3453 6.28033 20.68 6.44031C21.0147 6.60029 21.2915 6.86007 21.4725 7.18391C21.6535 7.50774 21.7296 7.87971 21.6904 8.2486L17.4892 12.4499C17.4167 12.5249 17.3766 12.6254 17.3775 12.7297C17.3784 12.8341 17.4202 12.9338 17.494 13.0076C17.5678 13.0814 17.6676 13.1232 17.7719 13.1241C17.8762 13.125 17.9767 13.0849 18.0517 13.0124L22.8979 8.16665C23.0264 8.03192 23.1805 7.92424 23.3512 7.84994C23.5219 7.77564 23.7057 7.73622 23.8919 7.734C24.078 7.73177 24.2627 7.7668 24.4352 7.837C24.6076 7.90721 24.7642 8.01118 24.8959 8.14281C25.0275 8.27443 25.1315 8.43105 25.2018 8.60346C25.272 8.77586 25.3071 8.96057 25.3049 9.14673C25.3027 9.33288 25.2633 9.51672 25.1891 9.68743C25.1148 9.85814 25.0071 10.0123 24.8724 10.1408L23.2405 11.7724L23.2349 11.7779L19.9769 15.0359C19.9023 15.1106 19.8604 15.2118 19.8605 15.3173C19.8605 15.4229 19.9025 15.5241 19.9771 15.5987C20.0518 15.6733 20.153 15.7152 20.2585 15.7151C20.3641 15.7151 20.4653 15.6731 20.5399 15.5985L23.7975 12.3409L23.8018 12.3361C24.0659 12.0829 24.4187 11.9435 24.7845 11.9477C25.1503 11.952 25.4998 12.0996 25.7579 12.3588C26.016 12.6181 26.1621 12.9682 26.1647 13.334C26.1673 13.6999 26.0263 14.0521 25.772 14.315L22.664 17.423C22.5915 17.498 22.5514 17.5985 22.5523 17.7028C22.5532 17.8072 22.5951 17.9069 22.6688 17.9807C22.7426 18.0545 22.8424 18.0963 22.9467 18.0972C23.051 18.0981 23.1515 18.058 23.2265 17.9856L25.9812 15.2309C26.3502 15.1916 26.7222 15.2677 27.0461 15.4486C27.37 15.6295 27.6299 15.9064 27.7899 16.2411C27.9499 16.5759 28.0023 16.952 27.9397 17.3177C27.8771 17.6834 27.7028 18.0207 27.4406 18.2832L20.7189 25.0052C20.1372 25.5865 19.3511 25.9175 18.5287 25.9266C17.7064 25.9358 16.9202 26.2668 16.3386 26.8484L14.2228 28.9642L7.38738 20.5775L8.72733 19.2372C8.8443 19.1202 8.95092 18.9953 9.0468 18.8632C9.49344 18.7876 9.90537 18.5745 10.2252 18.2537C10.4738 18.0056 10.6589 17.7012 10.7649 17.3664C10.8708 17.0315 10.8945 16.6761 10.8339 16.3301C11.1798 16.3906 11.5352 16.3669 11.87 16.2609C12.2047 16.155 12.5091 15.9699 12.7571 15.7214C13.0056 15.4733 13.1907 15.169 13.2966 14.8342C13.4026 14.4995 13.4263 14.1441 13.3659 13.7982C13.7117 13.8587 14.0671 13.8349 14.4019 13.729C14.7366 13.623 15.041 13.438 15.2891 13.1895C15.5376 12.9414 15.7226 12.6371 15.8286 12.3023C15.9345 11.9676 15.9583 11.6122 15.8978 11.2663C16.2436 11.3267 16.5989 11.303 16.9336 11.197C17.2683 11.0911 17.5725 10.906 17.8206 10.6576V10.658ZM6.61634 20.8911C5.42518 19.4294 3.23145 19.318 1.89825 20.6511L0.932276 21.6171C0.636709 21.9127 0.402252 22.2636 0.242291 22.6497C0.0823307 23.0359 0 23.4498 0 23.8678C0 24.2857 0.0823307 24.6996 0.242291 25.0858C0.402252 25.472 0.636709 25.8228 0.932276 26.1184L8.87812 34.0638C9.17367 34.3594 9.52454 34.5939 9.91071 34.7538C10.2969 34.9138 10.7108 34.9961 11.1287 34.9961C11.5467 34.9961 11.9606 34.9138 12.3468 34.7538C12.733 34.5939 13.0838 34.3594 13.3794 34.0638L13.5357 33.9075C14.0931 33.3501 14.4238 32.6057 14.4638 31.8184C14.5037 31.0312 14.2502 30.2571 13.7522 29.6461L6.61634 20.8911Z" fill="var(--fill-0, #4242FF)" fill-opacity="0.6"/>
<path id="Vector_3" d="M17.0185 27.0533C17.5106 26.6916 18.1111 26.5081 18.7213 26.5329C19.2026 26.5526 19.6828 26.4722 20.1315 26.297C20.5802 26.1218 20.9877 25.8555 21.3284 25.5148L27.1593 19.684C27.3407 19.9752 27.5488 20.2541 27.7751 20.5254L27.7672 20.5354L20.9138 28.9578L19.6857 27.7297C19.437 27.481 19.1345 27.2929 18.8015 27.1798C18.4685 27.0667 18.1139 27.0318 17.7653 27.0776C17.5167 27.1105 17.2644 27.1021 17.0185 27.0533ZM21.3439 29.6903C20.8467 30.3014 20.5938 31.0752 20.6342 31.862C20.6745 32.6487 21.0052 33.3926 21.5623 33.9496L21.7203 34.1076C22.0158 34.4032 22.3667 34.6376 22.7529 34.7976C23.139 34.9575 23.5529 35.0399 23.9709 35.0399C24.3889 35.0399 24.8028 34.9575 25.189 34.7976C25.5751 34.6376 25.926 34.4032 26.2215 34.1076L34.0679 26.2608C34.6647 25.6639 35 24.8544 35 24.0104C35 23.1663 34.6647 22.3568 34.0679 21.7599L33.1039 20.7956C31.7699 19.462 29.575 19.5742 28.3846 21.0375L21.3439 29.6903ZM2.35219 7.95698C2.35219 7.74595 2.43603 7.54356 2.58525 7.39434C2.73447 7.24511 2.93686 7.16128 3.14789 7.16128H5.53499C5.74602 7.16128 5.94841 7.24511 6.09763 7.39434C6.24685 7.54356 6.33068 7.74595 6.33068 7.95698C6.33068 8.16801 6.24685 8.3704 6.09763 8.51962C5.94841 8.66884 5.74602 8.75268 5.53499 8.75268H3.14789C2.93686 8.75268 2.73447 8.66884 2.58525 8.51962C2.43603 8.3704 2.35219 8.16801 2.35219 7.95698ZM30.7642 2.62023C30.6903 2.54631 30.6026 2.48767 30.506 2.44766C30.4094 2.40766 30.3059 2.38706 30.2014 2.38706C30.0969 2.38706 29.9934 2.40766 29.8968 2.44766C29.8003 2.48767 29.7126 2.54631 29.6387 2.62023L28.0473 4.21163C27.9734 4.28556 27.9148 4.37331 27.8748 4.46989C27.8349 4.56646 27.8143 4.66996 27.8144 4.77447C27.8144 4.87898 27.835 4.98246 27.8751 5.07901C27.9151 5.17555 27.9737 5.26327 28.0477 5.33714C28.1216 5.41102 28.2094 5.46961 28.3059 5.50957C28.4025 5.54953 28.506 5.57008 28.6105 5.57005C28.715 5.57001 28.8185 5.54939 28.915 5.50936C29.0116 5.46933 29.0993 5.41067 29.1732 5.33675L30.7642 3.74535C30.9134 3.59613 30.9971 3.39378 30.9971 3.18279C30.9971 2.9718 30.9134 2.76945 30.7642 2.62023ZM31.793 7.16128C32.0041 7.16128 32.2064 7.24511 32.3557 7.39434C32.5049 7.54356 32.5887 7.74595 32.5887 7.95698C32.5887 8.16801 32.5049 8.3704 32.3557 8.51962C32.2064 8.66884 32.0041 8.75268 31.793 8.75268H29.4059C29.1949 8.75268 28.9925 8.66884 28.8433 8.51962C28.6941 8.3704 28.6102 8.16801 28.6102 7.95698C28.6102 7.74595 28.6941 7.54356 28.8433 7.39434C28.9925 7.24511 29.1949 7.16128 29.4059 7.16128H31.793ZM25.4274 0C25.2164 0 25.014 0.0838322 24.8648 0.233054C24.7156 0.382277 24.6317 0.584666 24.6317 0.795698V3.18279C24.6317 3.39382 24.7156 3.59621 24.8648 3.74543C25.014 3.89466 25.2164 3.97849 25.4274 3.97849C25.6385 3.97849 25.8409 3.89466 25.9901 3.74543C26.1393 3.59621 26.2231 3.39382 26.2231 3.18279V0.795698C26.2231 0.584666 26.1393 0.382277 25.9901 0.233054C25.8409 0.0838322 25.6385 0 25.4274 0ZM17.698 7.97687L15.9535 6.2323C15.8015 6.07728 15.6203 5.95391 15.4203 5.86934C15.2204 5.78477 15.0057 5.74067 14.7886 5.73959C14.5715 5.73852 14.3563 5.78048 14.1555 5.86306C13.9548 5.94564 13.7723 6.0672 13.6188 6.22071C13.4653 6.37423 13.3438 6.55664 13.2612 6.75742C13.1786 6.9582 13.1366 7.17335 13.1377 7.39045C13.1388 7.60754 13.1829 7.82227 13.2675 8.02222C13.352 8.22216 13.4754 8.40336 13.6304 8.55534L15.375 10.2999C15.5275 10.4525 15.7087 10.5735 15.908 10.6561C16.1073 10.7386 16.321 10.7811 16.5367 10.7811C16.7525 10.7811 16.9661 10.7386 17.1654 10.6561C17.3647 10.5735 17.5459 10.4525 17.6984 10.2999C17.851 10.1474 17.972 9.96624 18.0546 9.76691C18.1371 9.56758 18.1796 9.35394 18.1796 9.13819C18.1796 8.92244 18.1371 8.7088 18.0546 8.50947C17.972 8.31015 17.851 8.12903 17.6984 7.97647L17.698 7.97687Z" fill="var(--fill-0, #4242FF)" fill-opacity="0.6"/>
</g>
</svg>
