<svg preserveAspectRatio="none" width="100%" height="100%" overflow="visible" style="display: block;" viewBox="0 0 114 114" fill="none" xmlns="http://www.w3.org/2000/svg">
<g id="Group">
<path id="Vector" d="M69.1882 87.2033C68.3022 87.2033 67.4102 87.1233 66.5222 86.9633L42.9522 82.7033C42.5603 82.638 42.1852 82.4954 41.8489 82.2839C41.5125 82.0724 41.2215 81.7962 40.9927 81.4713C40.764 81.1464 40.6021 80.7793 40.5164 80.3913C40.4306 80.0033 40.4229 79.6022 40.4935 79.2112C40.5641 78.8202 40.7116 78.4471 40.9276 78.1135C41.1436 77.78 41.4237 77.4927 41.7516 77.2684C42.0795 77.044 42.4487 76.887 42.8378 76.8064C43.2269 76.7259 43.6281 76.7235 44.0182 76.7993L67.5882 81.0593C69.0173 81.3183 70.4878 81.2272 71.8741 80.794C73.2603 80.3607 74.5209 79.5981 75.5482 78.5713L79.9882 74.1313C80.2649 73.8448 80.596 73.6163 80.962 73.459C81.328 73.3018 81.7216 73.219 82.12 73.2156C82.5183 73.2121 82.9134 73.288 83.282 73.4389C83.6507 73.5897 83.9857 73.8125 84.2674 74.0942C84.549 74.3758 84.7718 74.7108 84.9226 75.0795C85.0735 75.4482 85.1494 75.8432 85.1459 76.2415C85.1425 76.6399 85.0597 77.0335 84.9025 77.3995C84.7453 77.7656 84.5167 78.0966 84.2302 78.3733L79.7922 82.8133C76.9795 85.6249 73.1651 87.204 69.1882 87.2033ZM34.2362 73.5073C33.5336 73.5063 32.8536 73.2587 32.3149 72.8077C31.7761 72.3566 31.4128 71.7308 31.2882 71.0393L27.0282 47.4673C26.5974 45.0835 26.7503 42.6308 27.4737 40.3188C28.197 38.0069 29.4695 35.9045 31.1822 34.1913L44.0062 21.3633C44.2849 21.0847 44.6157 20.8636 44.9798 20.7128C45.3439 20.562 45.7341 20.4844 46.1282 20.4844C46.5223 20.4844 46.9125 20.562 47.2766 20.7128C47.6407 20.8636 47.9715 21.0847 48.2502 21.3633C48.5289 21.642 48.7499 21.9728 48.9007 22.3369C49.0515 22.701 49.1291 23.0912 49.1291 23.4853C49.1291 23.8794 49.0515 24.2697 48.9007 24.6338C48.7499 24.9978 48.5289 25.3287 48.2502 25.6073L35.4242 38.4333C34.3967 39.4614 33.6333 40.7229 33.1994 42.1101C32.7654 43.4973 32.6737 44.969 32.9322 46.3993L37.1922 69.9713C37.2704 70.4038 37.2527 70.8482 37.1402 71.2731C37.0277 71.698 36.8232 72.093 36.5412 72.4301C36.2592 72.7673 35.9066 73.0383 35.5083 73.2241C35.11 73.4099 34.6757 73.5079 34.2362 73.5073Z" fill="url(#paint0_linear_2067_48835)"/>
<path id="Vector_2" d="M14.5128 113.997C13.2128 113.997 11.9568 113.487 11.0128 112.541L1.45484 102.983C0.866074 102.397 0.434625 101.672 0.200404 100.875C-0.0338176 100.078 -0.0632471 99.2348 0.114838 98.4234C0.472838 96.7694 1.63484 95.4234 3.22084 94.8314L7.15684 93.3534L32.1168 68.3914C33.2428 67.2654 35.2368 67.2654 36.3608 68.3914L45.6048 77.6354C46.1673 78.198 46.4832 78.9609 46.4832 79.7564C46.4832 80.5519 46.1673 81.3148 45.6048 81.8774L20.6448 106.841L19.1668 110.777C18.8139 111.726 18.1784 112.543 17.3461 113.119C16.5139 113.695 15.5249 114.002 14.5128 113.997ZM6.83684 99.8814L14.1168 107.161L15.2528 104.125C15.4048 103.725 15.6388 103.361 15.9408 103.059L39.2408 79.7574L34.2408 74.7554L10.9408 98.0554C10.638 98.3582 10.2738 98.5928 9.87284 98.7434L6.83684 99.8814Z" fill="url(#paint1_linear_2067_48835)"/>
<path id="Vector_3" d="M33.3408 92.9036C32.5728 92.9036 31.8048 92.6096 31.2188 92.0236L21.9708 82.7756C21.6843 82.4988 21.4558 82.1678 21.2985 81.8018C21.1413 81.4358 21.0585 81.0421 21.0551 80.6438C21.0516 80.2454 21.1275 79.8504 21.2784 79.4817C21.4292 79.113 21.652 78.7781 21.9337 78.4964C22.2153 78.2147 22.5503 77.992 22.919 77.8411C23.2877 77.6903 23.6827 77.6144 24.081 77.6178C24.4794 77.6213 24.873 77.7041 25.239 77.8613C25.6051 78.0185 25.9361 78.2471 26.2128 78.5336L35.4608 87.7816C35.8799 88.2011 36.1652 88.7354 36.2807 89.317C36.3962 89.8986 36.3368 90.5014 36.11 91.0493C35.8831 91.5971 35.499 92.0655 35.0062 92.3951C34.5133 92.7248 33.9338 92.9011 33.3408 92.9016V92.9036ZM23.4408 102.802C22.6728 102.802 21.9068 102.51 21.3208 101.922L12.0708 92.6736C11.7796 92.398 11.5465 92.0668 11.3855 91.6995C11.2244 91.3323 11.1386 90.9365 11.1331 90.5356C11.1277 90.1346 11.2026 89.7367 11.3536 89.3652C11.5045 88.9937 11.7284 88.6562 12.012 88.3728C12.2957 88.0893 12.6332 87.8655 13.0048 87.7148C13.3763 87.564 13.7743 87.4892 14.1753 87.4949C14.5762 87.5006 14.972 87.5865 15.3391 87.7478C15.7063 87.909 16.0374 88.1422 16.3128 88.4336L25.5628 97.6816C25.9819 98.1011 26.2672 98.6354 26.3827 99.217C26.4982 99.7986 26.4388 100.401 26.212 100.949C25.9851 101.497 25.601 101.965 25.1082 102.295C24.6153 102.625 24.0338 102.801 23.4408 102.802ZM90.5008 70.8636C89.8869 70.8637 89.2877 70.6754 88.7841 70.3242C88.2805 69.973 87.8969 69.4758 87.6848 68.8996C84.1061 59.1328 78.4334 50.2674 71.0648 42.9256C63.7227 35.5575 54.8574 29.8848 45.0908 26.3056C44.618 26.1319 44.1965 25.8419 43.8653 25.4623C43.534 25.0828 43.3037 24.626 43.1955 24.134C43.0873 23.642 43.1047 23.1307 43.2461 22.6472C43.3876 22.1637 43.6485 21.7237 44.0048 21.3676L61.0708 4.30158C65.7968 -0.42242 73.1708 -1.36242 79.0028 2.01358C93.8368 10.6056 103.393 20.1616 111.983 35.0016C115.353 40.8276 114.415 48.1896 109.703 52.9016L92.6228 69.9836C92.3443 70.2625 92.0135 70.4837 91.6494 70.6347C91.2853 70.7857 90.895 70.8635 90.5008 70.8636ZM51.4608 22.3996C60.3636 26.2793 68.4545 31.8039 75.3088 38.6836C82.1871 45.5375 87.7104 53.6277 91.5888 62.5296L105.459 48.6616C108.253 45.8656 108.799 41.4836 106.789 38.0076C98.6628 23.9676 90.0288 15.3336 75.9968 7.20758C72.5128 5.18958 68.1208 5.73958 65.3128 8.54358L51.4608 22.3996Z" fill="url(#paint2_linear_2067_48835)"/>
<path id="Vector_4" d="M82.4547 23.2264C81.6867 23.2264 80.9187 22.9344 80.3327 22.3464C77.6967 19.7124 75.4107 18.4224 73.9547 17.8024C73.5907 17.6402 73.1864 17.5911 72.7942 17.6613C72.4019 17.7316 72.0398 17.918 71.7547 18.1964L69.0207 20.9344C68.4582 21.4972 67.6951 21.8134 66.8994 21.8136C66.1037 21.8138 65.3405 21.4979 64.7777 20.9354C64.2149 20.3728 63.8986 19.6098 63.8984 18.8141C63.8983 18.0184 64.2142 17.2552 64.7767 16.6924L67.5127 13.9524C68.6419 12.8248 70.084 12.0626 71.6518 11.7648C73.2196 11.467 74.8407 11.6473 76.3047 12.2824C79.1307 13.4844 81.9127 15.4424 84.5747 18.1064C84.9937 18.5259 85.279 19.0602 85.3946 19.6418C85.5101 20.2234 85.4507 20.8262 85.2238 21.3741C84.997 21.9219 84.6129 22.3903 84.12 22.7199C83.6272 23.0496 83.0477 23.2258 82.4547 23.2264Z" fill="url(#paint3_linear_2067_48835)"/>
</g>
<defs>
<linearGradient id="paint0_linear_2067_48835" x1="26.7891" y1="20.4844" x2="83.626" y2="71.0229" gradientUnits="userSpaceOnUse">
<stop stop-color="white" stop-opacity="0.24"/>
<stop offset="0.3" stop-color="white" stop-opacity="0.12"/>
<stop offset="1" stop-color="white" stop-opacity="0.04"/>
</linearGradient>
<linearGradient id="paint1_linear_2067_48835" x1="0" y1="67.5469" x2="39.8379" y2="108.074" gradientUnits="userSpaceOnUse">
<stop stop-color="white" stop-opacity="0.24"/>
<stop offset="0.3" stop-color="white" stop-opacity="0.12"/>
<stop offset="1" stop-color="white" stop-opacity="0.04"/>
</linearGradient>
<linearGradient id="paint2_linear_2067_48835" x1="11.1329" y1="0" x2="99.2999" y2="89.6816" gradientUnits="userSpaceOnUse">
<stop stop-color="white" stop-opacity="0.24"/>
<stop offset="0.3" stop-color="white" stop-opacity="0.12"/>
<stop offset="1" stop-color="white" stop-opacity="0.04"/>
</linearGradient>
<linearGradient id="paint3_linear_2067_48835" x1="63.8984" y1="11.625" x2="72.1289" y2="27.1698" gradientUnits="userSpaceOnUse">
<stop stop-color="white" stop-opacity="0.24"/>
<stop offset="0.3" stop-color="white" stop-opacity="0.12"/>
<stop offset="1" stop-color="white" stop-opacity="0.04"/>
</linearGradient>
</defs>
</svg>
