<svg preserveAspectRatio="none" width="100%" height="100%" overflow="visible" style="display: block;" viewBox="0 0 104 104" fill="none" xmlns="http://www.w3.org/2000/svg">
<g id="Div [icon-box]" filter="url(#filter0_d_2067_48640)">
<path d="M32 16.5H72C78.3513 16.5 83.5 21.6487 83.5 28V68C83.5 74.3513 78.3513 79.5 72 79.5H32C25.6487 79.5 20.5 74.3513 20.5 68V28C20.5 21.6487 25.6487 16.5 32 16.5Z" stroke="var(--stroke-0, #303038)" shape-rendering="crispEdges"/>
<path id="Vector" d="M67.715 59.0364L64.4653 55.7868C62.9054 54.2268 60.7812 53.2998 58.5825 53.2061L57.1147 51.7382C60.5287 48.0941 62.696 43.9806 63.9345 41.0931C65.3633 37.7616 65.8911 35.3441 65.9128 35.2428C65.947 35.0839 65.9408 34.9189 65.8948 34.763C65.8488 34.607 65.7644 34.4651 65.6495 34.3502C65.5345 34.2352 65.3926 34.1508 65.2367 34.1048C65.0807 34.0588 64.9157 34.0526 64.7568 34.0868C64.6555 34.1085 62.2379 34.6363 58.9065 36.0652C56.019 37.3036 51.9055 39.471 48.2614 42.885L46.7943 41.4178C46.7006 39.2191 45.7733 37.0946 44.2133 35.5347L40.9636 32.285C40.7811 32.1025 40.5335 32 40.2754 32C40.0173 32 39.7697 32.1025 39.5872 32.285L36.2851 35.5872C35.905 35.9673 35.905 36.5835 36.2851 36.9636L39.5348 40.2133C41.0947 41.7732 43.2189 42.7001 45.4176 42.7939L46.885 44.2614C43.4712 47.9053 41.304 52.0186 40.0657 54.906C38.6368 58.2375 38.109 60.6551 38.0872 60.7563C38.0531 60.9153 38.0593 61.0803 38.1053 61.2362C38.1513 61.3921 38.2356 61.5341 38.3506 61.649C38.4655 61.764 38.6075 61.8483 38.7634 61.8943C38.9193 61.9404 39.0843 61.9466 39.2433 61.9124C39.3446 61.8906 41.7622 61.3628 45.0936 59.934C47.981 58.6956 52.0943 56.5284 55.7382 53.1146L57.2058 54.5821C57.2995 56.7808 58.2268 58.9053 59.7867 60.4653L63.0364 63.7149C63.1267 63.8055 63.2339 63.8772 63.352 63.9262C63.4702 63.9751 63.5968 64.0002 63.7246 64C63.9737 64 64.2228 63.9049 64.4128 63.7149L67.715 60.4128C67.8975 60.2302 68 59.9827 68 59.7246C68 59.4665 67.8975 59.2189 67.715 59.0364ZM50.4953 52.6366C49.6711 53.0631 49.0263 53.2201 48.5237 53.2201C47.9202 53.2201 47.5218 52.9938 47.2638 52.7357C46.791 52.2629 46.4243 51.3184 47.3629 49.5043C47.8146 48.6313 48.5081 47.6681 49.3539 46.7303L50.7325 48.1088C50.1492 48.7641 49.6497 49.4314 49.2892 50.0428C48.9557 50.6084 48.8103 51.0055 48.7542 51.2453C48.994 51.1892 49.391 51.0439 49.9567 50.7103C50.5681 50.3498 51.2355 49.8503 51.8908 49.2671L53.2693 50.6456C52.3315 51.4915 51.3683 52.1849 50.4953 52.6366ZM54.6458 49.2694L53.2672 47.8908C53.8507 47.2354 54.3502 46.568 54.7109 45.9564C55.0445 45.3908 55.1898 44.9937 55.2459 44.7539C55.0062 44.81 54.6091 44.9553 54.0434 45.2889C53.4319 45.6495 52.7644 46.1491 52.109 46.7326L50.7304 45.354C51.6684 44.508 52.6317 43.8143 53.5049 43.3626C55.3188 42.424 56.2635 42.7906 56.7363 43.2636C57.2092 43.7364 57.5758 44.6809 56.6372 46.495C56.1854 47.3681 55.4918 48.3313 54.6458 49.2694Z" fill="var(--fill-0, white)" fill-opacity="0.4"/>
</g>
<defs>
<filter id="filter0_d_2067_48640" x="0" y="0" width="104" height="104" filterUnits="userSpaceOnUse" color-interpolation-filters="sRGB">
<feFlood flood-opacity="0" result="BackgroundImageFix"/>
<feColorMatrix in="SourceAlpha" type="matrix" values="0 0 0 0 0 0 0 0 0 0 0 0 0 0 0 0 0 0 127 0" result="hardAlpha"/>
<feOffset dy="4"/>
<feGaussianBlur stdDeviation="10"/>
<feComposite in2="hardAlpha" operator="out"/>
<feColorMatrix type="matrix" values="0 0 0 0 0 0 0 0 0 0 0 0 0 0 0 0 0 0 0.25 0"/>
<feBlend mode="normal" in2="BackgroundImageFix" result="effect1_dropShadow_2067_48640"/>
<feBlend mode="normal" in="SourceGraphic" in2="effect1_dropShadow_2067_48640" result="shape"/>
</filter>
</defs>
</svg>
