<svg preserveAspectRatio="none" width="100%" height="100%" overflow="visible" style="display: block;" viewBox="0 0 32 27" fill="none" xmlns="http://www.w3.org/2000/svg">
<g id="Group">
<path id="Vector" d="M23.2213 11.7125C23.2213 10.01 24.61 8.6225 26.3113 8.6225C28.0138 8.6225 29.4013 10.01 29.4013 11.7125C29.4013 13.415 28.0138 14.8025 26.3113 14.8025C24.61 14.8019 23.2213 13.415 23.2213 11.7125ZM28.0187 16.035H24.6031C24.0412 16.035 23.5062 16.1538 23.0212 16.3644C24.1944 17.5494 24.9206 19.1775 24.9206 20.9669V23.9963H31.3937C31.7269 23.9963 31.9994 23.7231 31.9994 23.3906V20.0156C32 17.8263 30.2087 16.035 28.0187 16.035ZM7.39687 16.035H3.98125C1.79125 16.035 0 17.8263 0 20.0163V23.3913C0 23.7244 0.273125 23.9969 0.605625 23.9969H7.08125V20.9675C7.08125 19.1781 7.80563 17.55 8.97875 16.365C8.47981 16.1472 7.94126 16.0349 7.39687 16.035ZM5.68875 14.8019C7.39125 14.8019 8.77875 13.4144 8.77875 11.7119C8.77875 10.0094 7.39125 8.62187 5.68875 8.62187C3.98812 8.62187 2.59875 10.0094 2.59875 11.7119C2.59938 13.415 3.98812 14.8019 5.68875 14.8019ZM18.3687 15.4469H16.79L17.27 20.5844C17.2756 20.6519 17.2631 20.7137 17.2294 20.7719L16.2812 22.4512C16.2225 22.5556 16.12 22.6162 15.9994 22.6162C15.8806 22.6162 15.7781 22.5562 15.7194 22.4512L14.7712 20.7719C14.7375 20.7131 14.7231 20.6512 14.7306 20.5844L15.2087 15.4469H13.6319C10.595 15.4469 8.11125 17.9306 8.11125 20.9675V25.6463C8.11125 26.1069 8.49063 26.4863 8.9525 26.4863H11.5956V23.6094C11.5956 23.3244 11.8275 23.0938 12.1131 23.0938C12.3987 23.0938 12.6287 23.3244 12.6287 23.6094V26.4863H19.3681V23.6094C19.3681 23.3244 19.6 23.0938 19.8856 23.0938C20.1694 23.0938 20.4013 23.3244 20.4013 23.6094V26.4863H23.0462C23.5087 26.4863 23.8862 26.1069 23.8862 25.6463V20.9675C23.8875 17.9306 21.4037 15.4469 18.3687 15.4469ZM16 5.17C13.64 5.17 11.7163 7.09375 11.7163 9.45375C11.7163 11.8137 13.64 13.7375 16 13.7375C18.36 13.7375 20.2838 11.8137 20.2838 9.45375C20.2838 7.09375 18.36 5.17 16 5.17ZM16 2.84C16.285 2.84 16.5175 2.60812 16.5175 2.3225V0.5175C16.5175 0.2325 16.2856 0 16 0C15.7144 0 15.4844 0.231875 15.4844 0.5175V2.32312C15.4844 2.60812 15.715 2.84 16 2.84ZM18.9037 3.61625C19.15 3.76 19.4656 3.675 19.6069 3.42875L20.5106 1.86438C20.6544 1.61813 20.5694 1.30437 20.3231 1.16125C20.205 1.09294 20.0646 1.07432 19.9328 1.10948C19.8009 1.14464 19.6884 1.2307 19.62 1.34875L18.7162 2.91313C18.5744 3.15875 18.6575 3.47438 18.9037 3.61625ZM21.735 5.93125L23.2994 5.0275C23.4174 4.95904 23.5034 4.84655 23.5386 4.71472C23.5737 4.5829 23.5551 4.44251 23.4869 4.32438C23.3431 4.07813 23.03 3.99313 22.7838 4.13688L21.2194 5.04063C20.9731 5.1825 20.8881 5.4975 21.0319 5.74375C21.1731 5.99 21.4888 6.07312 21.735 5.93125ZM12.3931 3.42812C12.535 3.67437 12.85 3.75937 13.0962 3.61562C13.3425 3.47375 13.4256 3.15875 13.2837 2.9125L12.38 1.34812C12.2381 1.10187 11.9231 1.01875 11.6769 1.16062C11.5589 1.22908 11.4728 1.34158 11.4377 1.4734C11.4025 1.60523 11.4211 1.74562 11.4894 1.86375L12.3931 3.42812ZM8.70063 5.02812L10.265 5.93188C10.5113 6.07375 10.8269 5.99063 10.97 5.74438C11.1119 5.49813 11.0288 5.1825 10.7825 5.04125L9.21813 4.1375C8.97188 3.99375 8.65625 4.07875 8.51313 4.325C8.37125 4.57062 8.45438 4.88437 8.70063 5.02812Z" fill="var(--fill-0, white)" fill-opacity="0.4"/>
</g>
</svg>
