<svg preserveAspectRatio="none" width="100%" height="100%" overflow="visible" style="display: block;" viewBox="0 0 37 36" fill="none" xmlns="http://www.w3.org/2000/svg">
<g id="Group">
<path id="Vector" d="M6.19329 28.2775C4.48153 29.8246 4.41682 32.4952 6.05212 34.1305C7.68741 35.7658 10.3639 35.6952 11.9109 33.9775L19.5109 25.5422L14.7698 20.507L6.19329 28.2775ZM10.1109 32.3717C9.46388 33.0128 8.41094 33.0187 7.76388 32.3775C7.60936 32.2231 7.48678 32.0397 7.40314 31.8378C7.31951 31.6359 7.27647 31.4196 7.27647 31.2011C7.27647 30.9826 7.31951 30.7662 7.40314 30.5643C7.48678 30.3625 7.60936 30.1791 7.76388 30.0246C8.41094 29.3775 9.458 29.3775 10.1109 30.0305C10.4192 30.3421 10.592 30.7628 10.592 31.2011C10.592 31.6394 10.4192 32.06 10.1109 32.3717ZM26.2227 18.0893C26.4168 17.8775 26.7168 17.7952 26.9933 17.8717C33.5656 19.644 37.408 14.0505 36.2698 9.39166C36.1621 8.95225 35.6021 8.80989 35.2821 9.12989L31.6292 12.7834C31.3351 13.0775 30.8586 13.0775 30.5586 12.7834L27.4233 9.64225C27.1292 9.34813 27.1292 8.87166 27.4233 8.57166L31.1586 4.83519C31.4727 4.52166 31.3362 3.99872 30.9162 3.85519C26.7927 2.44342 20.3862 6.2446 22.2639 13.1422C22.3404 13.4246 22.2639 13.7187 22.0462 13.9128L20.6815 15.154L25.1109 19.3246L26.2227 18.0893ZM15.1815 11.5834L11.5639 15.2011C11.5345 15.2305 11.5051 15.2599 11.4698 15.2893L28.558 33.4187C28.867 33.7453 29.2383 34.0067 29.65 34.1875C30.0616 34.3683 30.5053 34.4648 30.9549 34.4714C31.4044 34.478 31.8508 34.3945 32.2675 34.2258C32.6843 34.0571 33.0631 33.8067 33.3815 33.4893C33.6991 33.1708 33.9495 32.7918 34.118 32.3747C34.2865 31.9577 34.3696 31.5111 34.3625 31.0614C34.3554 30.6117 34.2581 30.1679 34.0765 29.7565C33.8949 29.345 33.6325 28.9741 33.3051 28.6658L15.1815 11.5834ZM6.19623 18.907L7.69035 17.4128C7.77379 17.3295 7.83997 17.2305 7.88513 17.1215C7.93029 17.0126 7.95354 16.8958 7.95354 16.7778C7.95354 16.6599 7.93029 16.5431 7.88513 16.4341C7.83997 16.3252 7.77379 16.2262 7.69035 16.1428L7.27565 15.7287C6.81153 15.264 6.72271 14.5075 7.13859 13.9993C7.24937 13.863 7.38755 13.7514 7.54418 13.6718C7.70081 13.5923 7.8724 13.5465 8.04785 13.5374C8.2233 13.5284 8.39869 13.5563 8.56267 13.6194C8.72665 13.6824 8.87556 13.7792 8.99976 13.9034L9.46447 14.3687C9.54784 14.4522 9.64687 14.5185 9.75588 14.5637C9.86489 14.6089 9.98175 14.6322 10.0998 14.6322C10.2178 14.6322 10.3346 14.6089 10.4436 14.5637C10.5527 14.5185 10.6517 14.4522 10.7351 14.3687L15.2821 9.82166C15.4078 9.69602 15.5075 9.54686 15.5755 9.3827C15.6435 9.21854 15.6785 9.04259 15.6785 8.86489C15.6785 8.6872 15.6435 8.51125 15.5755 8.34709C15.5075 8.18292 15.4078 8.03377 15.2821 7.90813L14.0027 6.62872C13.2992 5.92519 13.2915 5.06637 13.8192 4.53872C15.3586 2.99754 17.2556 1.6546 19.4409 0.470483C19.6627 0.349895 19.5851 0.0134244 19.3327 0.00577736C17.0762 -0.0636344 15.0051 0.495189 13.0762 1.53225C10.9433 2.67931 9.74447 4.06872 4.99859 8.26695C4.90669 8.34821 4.83235 8.44739 4.78015 8.5584C4.72795 8.66941 4.69897 8.78992 4.69501 8.91252C4.69104 9.03513 4.71217 9.15726 4.75709 9.27141C4.80201 9.38557 4.86978 9.48934 4.95623 9.57636L5.24623 9.86636C5.71623 10.337 5.80623 11.1034 5.38506 11.6181C5.27276 11.7562 5.13273 11.8692 4.97402 11.9498C4.81531 12.0304 4.64145 12.0767 4.46369 12.0859C4.28593 12.095 4.10824 12.0668 3.94209 12.0029C3.77594 11.9391 3.62505 11.841 3.49918 11.7152L3.11682 11.3328C3.03346 11.2494 2.93447 11.1832 2.82551 11.1381C2.71656 11.0929 2.59977 11.0697 2.48182 11.0697C2.36388 11.0697 2.24709 11.0929 2.13813 11.1381C2.02918 11.1832 1.93019 11.2494 1.84682 11.3328L0.235058 12.9458C0.0845495 13.0963 0 13.3005 0 13.5134C0 13.7263 0.0845495 13.9305 0.235058 14.0811L5.06094 18.907C5.21151 19.0575 5.41569 19.142 5.62859 19.142C5.84148 19.142 6.04566 19.0575 6.19623 18.907Z" fill="var(--fill-0, white)"/>
</g>
</svg>
