<svg preserveAspectRatio="none" width="100%" height="100%" overflow="visible" style="display: block;" viewBox="0 0 39 36" fill="none" xmlns="http://www.w3.org/2000/svg">
<g id="Group">
<path id="Vector" d="M38.241 15.3858C37.9004 15.732 37.5023 16.0158 37.0641 16.2249C36.8977 16.3028 36.7073 16.3114 36.5346 16.2488C36.3619 16.1862 36.2212 16.0576 36.1433 15.8912C36.0655 15.7249 36.0569 15.5344 36.1195 15.3617C36.182 15.1891 36.3107 15.0483 36.477 14.9705C36.8293 14.8071 37.1433 14.5716 37.3987 14.279C37.654 13.9864 37.845 13.6434 37.9592 13.2723C38.0733 12.9011 38.1082 12.5101 38.0614 12.1246C38.0147 11.7391 37.8873 11.3678 37.6878 11.0347C37.4882 10.7016 37.2207 10.4142 36.9029 10.1912C36.585 9.96813 36.2238 9.81444 35.8426 9.74008C35.4615 9.66572 35.069 9.67235 34.6906 9.75953C34.3122 9.84672 33.9563 10.0125 33.6462 10.2462C33.5734 10.3007 33.4907 10.3404 33.4026 10.363C33.3145 10.3855 33.2229 10.3905 33.1329 10.3777C33.0429 10.3648 32.9563 10.3343 32.8781 10.288C32.7998 10.2417 32.7315 10.1804 32.6769 10.1077C32.6224 10.035 32.5827 9.9522 32.5601 9.86413C32.5376 9.77606 32.5326 9.6844 32.5454 9.5944C32.5583 9.5044 32.5887 9.41781 32.6351 9.33958C32.6814 9.26135 32.7427 9.19301 32.8154 9.13846C33.3139 8.7656 33.8906 8.51066 34.5019 8.39285C34.1872 6.62908 33.2643 5.03136 31.8938 3.87746C30.5232 2.72357 28.7916 2.08647 27 2.07692H26.9377C26.9779 2.30539 26.9986 2.53731 27 2.76923C27 2.95284 26.9271 3.12893 26.7972 3.25877C26.6674 3.3886 26.4913 3.46154 26.3077 3.46154C26.1241 3.46154 25.948 3.3886 25.8182 3.25877C25.6883 3.12893 25.6154 2.95284 25.6154 2.76923C25.6154 2.03479 25.3236 1.33042 24.8043 0.81109C24.285 0.291758 23.5806 1.0123e-06 22.8462 1.0123e-06C22.1117 1.0123e-06 21.4074 0.291758 20.888 0.81109C20.3687 1.33042 20.0769 2.03479 20.0769 2.76923C20.0769 2.95284 20.004 3.12893 19.8742 3.25877C19.7443 3.3886 19.5682 3.46154 19.3846 3.46154C19.201 3.46154 19.0249 3.3886 18.8951 3.25877C18.7653 3.12893 18.6923 2.95284 18.6923 2.76923C18.6923 2.20362 18.8079 1.64354 19.0336 1.125C18.0297 0.393216 16.8193 -0.000728838 15.5769 1.0123e-06C14.5554 0.00354964 13.5521 0.270699 12.6641 0.7756C11.776 1.2805 11.0333 2.00606 10.5079 2.88208C10.2313 3.35145 10.0216 3.85709 9.88478 4.38439C9.83833 4.56212 9.72317 4.71412 9.56464 4.80695C9.40612 4.89979 9.21721 4.92584 9.03947 4.87939C8.86174 4.83293 8.70973 4.71778 8.6169 4.55925C8.52407 4.40072 8.49802 4.21181 8.54447 4.03408C8.64901 3.64777 8.7854 3.27115 8.95155 2.90769C8.62916 2.81781 8.29623 2.77125 7.96155 2.76923C7.01215 2.77056 6.09741 3.12613 5.39637 3.76636C4.69532 4.40659 4.25841 5.28539 4.17117 6.23077C4.8144 6.23113 5.44857 6.38239 6.02271 6.67241C6.59685 6.96242 7.09494 7.3831 7.47693 7.90062C7.5871 8.04751 7.6344 8.23214 7.60844 8.41391C7.58247 8.59567 7.48536 8.75968 7.33847 8.86985C7.19158 8.98001 7.00695 9.02732 6.82518 9.00135C6.64342 8.97538 6.47941 8.87828 6.36924 8.73139C6.11373 8.38428 5.77996 8.10232 5.39503 7.90842C5.0101 7.71451 4.58487 7.61411 4.15386 7.61539C3.54851 7.61578 2.95996 7.81452 2.4783 8.18119C1.99663 8.54786 1.64838 9.06225 1.48684 9.64565C1.32531 10.2291 1.35938 10.8493 1.58386 11.4115C1.80834 11.9737 2.21084 12.4468 2.72978 12.7585C2.88723 12.853 3.0007 13.0062 3.04523 13.1843C3.08976 13.3624 3.06171 13.5509 2.96724 13.7084C2.87277 13.8658 2.71963 13.9793 2.5415 14.0238C2.36337 14.0684 2.17484 14.0403 2.0174 13.9458C1.56123 13.6685 1.163 13.3055 0.844626 12.8769C0.288062 13.9209 -0.00206619 15.0862 1.10766e-05 16.2692C0.000654789 17.3861 0.258493 18.4878 0.753538 19.4889C1.24858 20.4901 1.96753 21.3638 2.85466 22.0423C3.74178 22.7208 4.77325 23.1859 5.86909 23.4016C6.96494 23.6172 8.09572 23.5776 9.17378 23.2858C9.05982 22.8013 9.00152 22.3054 9.00001 21.8077C9.00001 21.6907 9.01732 21.5758 9.02355 21.4615H9.00001C8.08229 21.4604 7.20247 21.0954 6.55355 20.4465C5.90462 19.7975 5.53957 18.9177 5.53847 18C5.53808 17.815 5.61046 17.6372 5.73998 17.5051C5.86951 17.373 6.04579 17.2971 6.23078 17.2938C6.32096 17.2923 6.41055 17.3087 6.49435 17.342C6.57814 17.3754 6.65446 17.4251 6.71888 17.4882C6.7833 17.5514 6.83453 17.6267 6.86958 17.7098C6.90464 17.7929 6.92283 17.8821 6.92309 17.9723V18C6.91868 18.2939 6.97763 18.5853 7.09592 18.8543C7.21421 19.1234 7.38908 19.3638 7.60862 19.5593C7.82816 19.7547 8.08722 19.9005 8.36817 19.9869C8.64912 20.0732 8.94538 20.098 9.23678 20.0596C9.39444 19.4847 9.62993 18.9341 9.9367 18.423C10.0314 18.2656 10.1846 18.1523 10.3628 18.108C10.541 18.0637 10.7295 18.0919 10.8869 18.1866C11.0443 18.2812 11.1576 18.4345 11.2019 18.6127C11.2462 18.7909 11.218 18.9794 11.1233 19.1368C10.7325 19.786 10.4894 20.5134 10.4114 21.2672C10.3334 22.021 10.4223 22.7828 10.6719 23.4983V23.5025C10.9688 24.366 11.4883 25.1358 12.1779 25.7343C12.8676 26.3327 13.703 26.7385 14.5997 26.9108C15.4964 27.083 16.4227 27.0155 17.285 26.7151C18.1473 26.4147 18.915 25.8921 19.5106 25.2C19.6094 25.0993 19.7341 25.0279 19.8711 24.9939C20.008 24.9599 20.1516 24.9647 20.286 25.0075C21.5205 25.4961 22.8503 25.6964 24.174 25.5932C24.8568 25.5476 25.5321 25.4235 26.1866 25.2235C26.3621 25.1696 26.5518 25.1877 26.7141 25.2737C26.8763 25.3597 26.9977 25.5067 27.0516 25.6822C27.1055 25.8577 27.0874 26.0475 27.0014 26.2097C26.9154 26.3719 26.7685 26.4933 26.5929 26.5472C25.8423 26.7767 25.0679 26.9198 24.2848 26.9737H24.2474C24.3478 28.9198 25.0332 30.0005 28.6034 31.1905C32.1155 32.3598 32.9539 34.9449 33.1539 36H35.28C35.1824 34.4153 34.7379 30.6235 32.7718 28.557C32.2754 28.7328 31.7645 28.8644 31.2446 28.9495C31.0632 28.9786 30.8778 28.9345 30.729 28.8269C30.5802 28.7193 30.4803 28.5569 30.4512 28.3756C30.4221 28.1943 30.4662 28.0088 30.5738 27.8601C30.6814 27.7113 30.8438 27.6113 31.0251 27.5822C32.2077 27.3894 33.3275 26.9181 34.2921 26.2071C35.2567 25.4962 36.0383 24.566 36.5725 23.4935C35.6501 23.9751 34.6254 24.228 33.5848 24.2308C32.5441 24.2335 31.5181 23.9861 30.5931 23.5094C30.0693 23.2464 29.5849 22.9115 29.1538 22.5145C28.3384 22.901 27.4038 22.9519 26.5513 22.6561C25.6988 22.3604 24.9965 21.7417 24.5956 20.9333C24.513 20.7692 24.499 20.5789 24.5566 20.4044C24.6143 20.2299 24.7389 20.0855 24.903 20.0028C25.0672 19.9202 25.2574 19.9062 25.4319 19.9638C25.6064 20.0215 25.7508 20.1461 25.8335 20.3102C26.0797 20.8031 26.5116 21.178 27.0343 21.3525C27.5569 21.5269 28.1275 21.4866 28.6204 21.2403C29.1133 20.9941 29.4882 20.5622 29.6626 20.0395C29.837 19.5169 29.7967 18.9464 29.5505 18.4535C29.5096 18.3722 29.4851 18.2836 29.4784 18.1929C29.4717 18.1022 29.4829 18.011 29.5115 17.9246C29.54 17.8382 29.5853 17.7582 29.6447 17.6893C29.7042 17.6204 29.7766 17.5639 29.8579 17.523C29.9391 17.4821 30.0277 17.4576 30.1184 17.4509C30.2092 17.4442 30.3003 17.4554 30.3868 17.484C30.4732 17.5125 30.5531 17.5578 30.622 17.6172C30.6909 17.6767 30.7474 17.7491 30.7883 17.8304C31.0956 18.4441 31.2131 19.1354 31.1258 19.8162C31.0385 20.497 30.7504 21.1363 30.2982 21.6526C30.582 21.8922 30.8915 22.0992 31.221 22.2695C31.9479 22.6502 32.7565 22.8475 33.5769 22.8462C34.3008 22.8439 35.0163 22.6911 35.6779 22.3974C36.3395 22.1038 36.9327 21.6757 37.4199 21.1403L37.4359 21.1237C38.1286 20.3575 38.5756 19.4012 38.7191 18.3784C38.8627 17.3555 38.6961 16.3131 38.241 15.3858ZM24.102 12.8638L17.1789 22.5561C17.0937 22.6755 16.9728 22.7648 16.8335 22.811C16.6943 22.8572 16.5439 22.858 16.4042 22.8133C16.2645 22.7685 16.1426 22.6805 16.0561 22.562C15.9697 22.4435 15.9231 22.3006 15.9231 22.1538V15.9231H13.1539C13.0267 15.9231 12.9019 15.8881 12.7933 15.8218C12.6847 15.7556 12.5965 15.6608 12.5383 15.5477C12.4801 15.4346 12.4541 15.3077 12.4633 15.1808C12.4725 15.0539 12.5164 14.9321 12.5903 14.8285L19.5134 5.13623C19.5986 5.01681 19.7196 4.92754 19.8588 4.88132C19.9981 4.8351 20.1484 4.8343 20.2881 4.87905C20.4278 4.9238 20.5497 5.01179 20.6362 5.1303C20.7227 5.24882 20.7693 5.39175 20.7692 5.53846V11.7692H23.5385C23.6657 11.7692 23.7904 11.8042 23.899 11.8705C24.0076 11.9367 24.0958 12.0316 24.1541 12.1446C24.2123 12.2577 24.2382 12.3847 24.229 12.5115C24.2199 12.6384 24.1759 12.7602 24.102 12.8638Z" fill="var(--fill-0, white)" fill-opacity="0.4"/>
</g>
</svg>
