<svg preserveAspectRatio="none" width="100%" height="100%" overflow="visible" style="display: block;" viewBox="0 0 169 48" fill="none" xmlns="http://www.w3.org/2000/svg">
<g id="Company logo">
<g id="Logomark">
<rect id="Shape" y="19.1992" width="9.59998" height="9.59999" fill="var(--fill-0, #039855)"/>
<rect id="Shape_2" x="28.8008" y="28.8008" width="9.6" height="9.59999" transform="rotate(180 28.8008 28.8008)" fill="var(--fill-0, #027A48)"/>
<path id="Shape_3" d="M9.60156 19.2015L19.2015 9.60156V19.2015L9.60156 28.8015V19.2015Z" fill="var(--fill-0, #A6F4C5)"/>
<path id="Shape_4" d="M19.1992 28.7984L9.59924 38.3984L9.59924 28.7984L19.1992 19.1985L19.1992 28.7984Z" fill="var(--fill-0, #6CE9A6)"/>
<path id="Shape_5" d="M0 19.2L19.2 0V9.59999L9.59998 19.2H0Z" fill="var(--fill-0, #32D583)"/>
<path id="Shape_6" d="M28.8008 28.8L9.6008 48L9.6008 38.4L19.2008 28.8L28.8008 28.8Z" fill="var(--fill-0, #12B76A)"/>
</g>
<g id="Logotype">
<path d="M49.7085 34.2788C48.1965 34.2788 46.7311 34.0641 45.3125 33.6348C43.9125 33.2055 42.8018 32.6361 41.9805 31.9268L43.2405 29.0988C44.0431 29.7335 45.0231 30.2561 46.1805 30.6668C47.3565 31.0588 48.5325 31.2548 49.7085 31.2548C51.1645 31.2548 52.2471 31.0215 52.9565 30.5548C53.6845 30.0881 54.0485 29.4721 54.0485 28.7068C54.0485 28.1468 53.8431 27.6895 53.4325 27.3348C53.0405 26.9615 52.5365 26.6721 51.9205 26.4668C51.3045 26.2615 50.4645 26.0281 49.4005 25.7668C47.9071 25.4121 46.6938 25.0575 45.7605 24.7028C44.8458 24.3481 44.0525 23.7975 43.3805 23.0508C42.7271 22.2855 42.4005 21.2588 42.4005 19.9708C42.4005 18.8881 42.6898 17.9081 43.2685 17.0308C43.8658 16.1348 44.7525 15.4255 45.9285 14.9028C47.1231 14.3801 48.5791 14.1188 50.2965 14.1188C51.4911 14.1188 52.6671 14.2681 53.8245 14.5668C54.9818 14.8655 55.9805 15.2948 56.8205 15.8548L55.6725 18.6828C54.8138 18.1788 53.9178 17.7961 52.9845 17.5348C52.0511 17.2735 51.1458 17.1428 50.2685 17.1428C48.8311 17.1428 47.7578 17.3855 47.0485 17.8708C46.3578 18.3561 46.0125 19.0001 46.0125 19.8028C46.0125 20.3628 46.2085 20.8201 46.6005 21.1748C47.0111 21.5295 47.5245 21.8095 48.1405 22.0148C48.7565 22.2201 49.5965 22.4535 50.6605 22.7148C52.1165 23.0508 53.3111 23.4055 54.2445 23.7788C55.1778 24.1335 55.9711 24.6841 56.6245 25.4308C57.2965 26.1775 57.6325 27.1855 57.6325 28.4548C57.6325 29.5375 57.3338 30.5175 56.7365 31.3948C56.1578 32.2721 55.2711 32.9721 54.0765 33.4948C52.8818 34.0175 51.4258 34.2788 49.7085 34.2788Z" fill="var(--fill-0, #101828)"/>
<path d="M60.9058 19.0468H64.4058V33.9988H60.9058V19.0468ZM62.6698 16.5828C62.0352 16.5828 61.5032 16.3868 61.0738 15.9948C60.6445 15.5841 60.4298 15.0801 60.4298 14.4828C60.4298 13.8855 60.6445 13.3908 61.0738 12.9988C61.5032 12.5881 62.0352 12.3828 62.6698 12.3828C63.3045 12.3828 63.8365 12.5788 64.2658 12.9708C64.6952 13.3441 64.9098 13.8201 64.9098 14.3988C64.9098 15.0148 64.6952 15.5375 64.2658 15.9668C63.8552 16.3775 63.3232 16.5828 62.6698 16.5828Z" fill="var(--fill-0, #101828)"/>
<path d="M73.6196 34.1948C72.4062 34.1948 71.2209 34.0361 70.0636 33.7188C68.9063 33.4015 67.9822 33.0002 67.2916 32.5148L68.6356 29.8548C69.3076 30.3028 70.1102 30.6668 71.0436 30.9468C71.9956 31.2081 72.9289 31.3388 73.8436 31.3388C75.9342 31.3388 76.9796 30.7881 76.9796 29.6868C76.9796 29.1641 76.7089 28.8001 76.1676 28.5948C75.6449 28.3895 74.7956 28.1935 73.6196 28.0068C72.3876 27.8201 71.3796 27.6055 70.5956 27.3628C69.8302 27.1201 69.1582 26.7001 68.5796 26.1028C68.0196 25.4868 67.7396 24.6375 67.7396 23.5548C67.7396 22.1361 68.3276 21.0068 69.5036 20.1668C70.6982 19.3081 72.3036 18.8788 74.3196 18.8788C75.3462 18.8788 76.3729 19.0001 77.3996 19.2428C78.4262 19.4668 79.2662 19.7748 79.9196 20.1668L78.5756 22.8268C77.3062 22.0801 75.8782 21.7068 74.2916 21.7068C73.2649 21.7068 72.4809 21.8655 71.9396 22.1828C71.4169 22.4815 71.1556 22.8828 71.1556 23.3868C71.1556 23.9468 71.4356 24.3481 71.9956 24.5908C72.5742 24.8148 73.4609 25.0295 74.6556 25.2348C75.8502 25.4215 76.8302 25.6361 77.5956 25.8788C78.3609 26.1215 79.0142 26.5321 79.5556 27.1108C80.1156 27.6895 80.3956 28.5108 80.3956 29.5748C80.3956 30.9748 79.7889 32.0948 78.5756 32.9348C77.3622 33.7748 75.7102 34.1948 73.6196 34.1948Z" fill="var(--fill-0, #101828)"/>
<path d="M97.1363 19.0468L90.1363 35.2028C89.483 36.8268 88.6896 37.9655 87.7563 38.6188C86.823 39.2908 85.6936 39.6268 84.3683 39.6268C83.6216 39.6268 82.8843 39.5055 82.1563 39.2628C81.4283 39.0202 80.831 38.6842 80.3643 38.2548L81.7643 35.6788C82.1003 35.9962 82.4923 36.2482 82.9403 36.4348C83.407 36.6215 83.8736 36.7148 84.3403 36.7148C84.9563 36.7148 85.4603 36.5561 85.8523 36.2388C86.263 35.9215 86.6363 35.3895 86.9723 34.6428L87.2243 34.0548L80.7003 19.0468H84.3403L89.0443 30.1068L93.7763 19.0468H97.1363Z" fill="var(--fill-0, #101828)"/>
<path d="M107.612 18.8788C109.068 18.8788 110.365 19.1961 111.504 19.8308C112.661 20.4655 113.566 21.3615 114.22 22.5188C114.873 23.6761 115.2 25.0108 115.2 26.5228C115.2 28.0348 114.873 29.3788 114.22 30.5548C113.566 31.7121 112.661 32.6081 111.504 33.2428C110.365 33.8775 109.068 34.1948 107.612 34.1948C105.596 34.1948 104 33.5228 102.824 32.1788V39.4308H99.3238V19.0468H102.656V21.0068C103.234 20.2975 103.944 19.7655 104.784 19.4108C105.642 19.0561 106.585 18.8788 107.612 18.8788ZM107.22 31.1988C108.508 31.1988 109.562 30.7695 110.384 29.9108C111.224 29.0521 111.644 27.9228 111.644 26.5228C111.644 25.1228 111.224 23.9935 110.384 23.1348C109.562 22.2761 108.508 21.8468 107.22 21.8468C106.38 21.8468 105.624 22.0428 104.952 22.4348C104.28 22.8081 103.748 23.3495 103.356 24.0588C102.964 24.7681 102.768 25.5895 102.768 26.5228C102.768 27.4561 102.964 28.2775 103.356 28.9868C103.748 29.6961 104.28 30.2468 104.952 30.6388C105.624 31.0121 106.38 31.1988 107.22 31.1988Z" fill="var(--fill-0, #101828)"/>
<path d="M127.003 18.8788C128.888 18.8788 130.4 19.4295 131.539 20.5308C132.678 21.6321 133.247 23.2655 133.247 25.4308V33.9988H129.747V25.8788C129.747 24.5721 129.439 23.5921 128.823 22.9388C128.207 22.2668 127.33 21.9308 126.191 21.9308C124.903 21.9308 123.886 22.3228 123.139 23.1068C122.392 23.8721 122.019 24.9828 122.019 26.4388V33.9988H118.519V13.2228H122.019V20.7828C122.598 20.1668 123.307 19.7001 124.147 19.3828C125.006 19.0468 125.958 18.8788 127.003 18.8788Z" fill="var(--fill-0, #101828)"/>
<path d="M152.163 19.0468V33.9988H148.831V32.0948C148.271 32.7668 147.571 33.2895 146.731 33.6628C145.891 34.0175 144.986 34.1948 144.015 34.1948C142.018 34.1948 140.44 33.6442 139.283 32.5428C138.144 31.4228 137.575 29.7708 137.575 27.5868V19.0468H141.075V27.1108C141.075 28.4548 141.374 29.4628 141.971 30.1348C142.587 30.7881 143.455 31.1148 144.575 31.1148C145.826 31.1148 146.815 30.7321 147.543 29.9668C148.29 29.1828 148.663 28.0628 148.663 26.6068V19.0468H152.163Z" fill="var(--fill-0, #101828)"/>
<path d="M161.366 34.1948C160.152 34.1948 158.967 34.0361 157.81 33.7188C156.652 33.4015 155.728 33.0002 155.038 32.5148L156.382 29.8548C157.054 30.3028 157.856 30.6668 158.79 30.9468C159.742 31.2081 160.675 31.3388 161.59 31.3388C163.68 31.3388 164.726 30.7881 164.726 29.6868C164.726 29.1641 164.455 28.8001 163.914 28.5948C163.391 28.3895 162.542 28.1935 161.366 28.0068C160.134 27.8201 159.126 27.6055 158.342 27.3628C157.576 27.1201 156.904 26.7001 156.326 26.1028C155.766 25.4868 155.486 24.6375 155.486 23.5548C155.486 22.1361 156.074 21.0068 157.25 20.1668C158.444 19.3081 160.05 18.8788 162.066 18.8788C163.092 18.8788 164.119 19.0001 165.146 19.2428C166.172 19.4668 167.012 19.7748 167.666 20.1668L166.322 22.8268C165.052 22.0801 163.624 21.7068 162.038 21.7068C161.011 21.7068 160.227 21.8655 159.686 22.1828C159.163 22.4815 158.902 22.8828 158.902 23.3868C158.902 23.9468 159.182 24.3481 159.742 24.5908C160.32 24.8148 161.207 25.0295 162.402 25.2348C163.596 25.4215 164.576 25.6361 165.342 25.8788C166.107 26.1215 166.76 26.5321 167.302 27.1108C167.862 27.6895 168.142 28.5108 168.142 29.5748C168.142 30.9748 167.535 32.0948 166.322 32.9348C165.108 33.7748 163.456 34.1948 161.366 34.1948Z" fill="var(--fill-0, #101828)"/>
</g>
</g>
</svg>
