<svg preserveAspectRatio="none" width="100%" height="100%" overflow="visible" style="display: block;" viewBox="0 0 62 51" fill="none" xmlns="http://www.w3.org/2000/svg">
<g id="Group">
<path id="Vector" fill-rule="evenodd" clip-rule="evenodd" d="M52.9288 2.20545C52.3438 2.20545 51.7816 2.43685 51.3688 2.85025L7.2605 46.9573C6.8475 47.3716 6.61558 47.9327 6.61558 48.5176C6.61558 49.1026 6.8475 49.6637 7.2605 50.0779C7.67476 50.4909 8.23586 50.7229 8.82082 50.7229C9.40579 50.7229 9.96689 50.4909 10.3812 50.0779L18.5581 41.9016H50.7228C56.7873 41.9016 61.7493 36.9395 61.7493 30.875C61.7493 25.571 57.8792 21.32 52.8729 20.2839C52.8781 20.1409 52.9282 20.005 52.9282 19.8614V19.8484C52.9282 16.4879 51.3955 13.4777 49.0054 11.4536L54.4882 5.9709V5.96765C54.9012 5.55403 55.1331 4.99343 55.1331 4.40895C55.1331 3.82447 54.9012 3.26387 54.4882 2.85025C54.0743 2.43689 53.5132 2.20474 52.9282 2.2048L52.9288 2.20545ZM26.4641 0C17.9653 0 11.0266 6.93875 11.0266 15.4375V15.4544C11.0266 15.5948 11.0597 15.7352 11.0656 15.8756C4.849 16.9507 0 22.1559 0 28.6702C0 33.8747 3.0459 38.3877 7.4373 40.5457L39.845 8.13865C37.1962 3.24805 32.1763 0 26.4641 0Z" fill="url(#paint0_linear_2100_58671)"/>
</g>
<defs>
<linearGradient id="paint0_linear_2100_58671" x1="0" y1="0" x2="42.5383" y2="52.645" gradientUnits="userSpaceOnUse">
<stop stop-color="#FF8829" stop-opacity="0.48"/>
<stop offset="0.3" stop-color="#FF8829" stop-opacity="0.24"/>
<stop offset="1" stop-color="#FF8829" stop-opacity="0.08"/>
</linearGradient>
</defs>
</svg>
