<svg preserveAspectRatio="none" width="100%" height="100%" overflow="visible" style="display: block;" viewBox="0 0 982 466" fill="none" xmlns="http://www.w3.org/2000/svg">
<g id="Ellipse 2169" opacity="0.2" filter="url(#filter0_f_2093_58569)">
<path d="M490.626 2.5C625.661 2.50004 747.838 28.4356 836.201 70.3008C924.678 112.22 978.751 169.836 978.751 232.979C978.751 296.121 924.678 353.737 836.201 395.656C747.838 437.521 625.661 463.457 490.626 463.457C355.591 463.457 233.413 437.521 145.05 395.656C56.5729 353.737 2.5 296.121 2.5 232.979C2.50005 169.836 56.5729 112.22 145.05 70.3008C233.413 28.4355 355.591 2.5 490.626 2.5Z" stroke="url(#paint0_linear_2093_58569)" stroke-width="3"/>
</g>
<defs>
<filter id="filter0_f_2093_58569" x="0" y="0" width="981.251" height="465.957" filterUnits="userSpaceOnUse" color-interpolation-filters="sRGB">
<feFlood flood-opacity="0" result="BackgroundImageFix"/>
<feBlend mode="normal" in="SourceGraphic" in2="BackgroundImageFix" result="shape"/>
<feGaussianBlur stdDeviation="0.5" result="effect1_foregroundBlur_2093_58569"/>
</filter>
<linearGradient id="paint0_linear_2093_58569" x1="490.626" y1="1" x2="490.626" y2="464.957" gradientUnits="userSpaceOnUse">
<stop stop-color="#5B5B5B"/>
<stop offset="0.307692" stop-color="white"/>
<stop offset="0.625" stop-color="#8B8B8B"/>
<stop offset="1" stop-color="white"/>
</linearGradient>
</defs>
</svg>
