<svg preserveAspectRatio="none" width="100%" height="100%" overflow="visible" style="display: block;" viewBox="0 0 38 38" fill="none" xmlns="http://www.w3.org/2000/svg">
<g id="Group">
<path id="Vector" d="M31.25 0H6.25C5.42924 0 4.61651 0.161661 3.85823 0.475753C3.09994 0.789845 2.41095 1.25022 1.83058 1.83058C0.65848 3.00269 0 4.5924 0 6.25V31.25C0 32.9076 0.65848 34.4973 1.83058 35.6694C2.41095 36.2498 3.09994 36.7102 3.85823 37.0242C4.61651 37.3383 5.42924 37.5 6.25 37.5H31.25C32.9076 37.5 34.4973 36.8415 35.6694 35.6694C36.8415 34.4973 37.5 32.9076 37.5 31.25V6.25C37.5 5.42924 37.3383 4.61651 37.0242 3.85823C36.7102 3.09994 36.2498 2.41095 35.6694 1.83058C35.0891 1.25022 34.4001 0.789845 33.6418 0.475753C32.8835 0.161661 32.0708 0 31.25 0ZM22.5 28.75H16.25C15.9185 28.75 15.6005 28.6183 15.3661 28.3839C15.1317 28.1495 15 27.8315 15 27.5C15 27.1685 15.1317 26.8505 15.3661 26.6161C15.6005 26.3817 15.9185 26.25 16.25 26.25H22.5C23.8261 26.25 25.0979 25.7232 26.0355 24.7855C26.9732 23.8479 27.5 22.5761 27.5 21.25C27.5 19.9239 26.9732 18.6521 26.0355 17.7145C25.0979 16.7768 23.8261 16.25 22.5 16.25H11.775L14.625 19.125C14.7436 19.2378 14.838 19.3735 14.9026 19.5239C14.9671 19.6744 15.0004 19.8363 15.0004 20C15.0004 20.1637 14.9671 20.3256 14.9026 20.4761C14.838 20.6265 14.7436 20.7622 14.625 20.875C14.5122 20.9936 14.3765 21.088 14.2261 21.1526C14.0756 21.2171 13.9137 21.2504 13.75 21.2504C13.5863 21.2504 13.4244 21.2171 13.2739 21.1526C13.1235 21.088 12.9878 20.9936 12.875 20.875L8.05 16.05C7.85423 15.9094 7.69901 15.7197 7.6 15.5V15.475C7.53402 15.3253 7.49994 15.1636 7.49994 15C7.49994 14.8364 7.53402 14.6747 7.6 14.525V14.5C7.69901 14.2803 7.85423 14.0906 8.05 13.95L12.875 9.125C13.1079 8.8968 13.4214 8.76971 13.7474 8.77136C14.0734 8.773 14.3857 8.90325 14.6162 9.13379C14.8468 9.36434 14.977 9.67655 14.9786 10.0026C14.9803 10.3286 14.8532 10.6421 14.625 10.875L11.775 13.75H22.5C24.4891 13.75 26.3968 14.5402 27.8033 15.9467C29.2098 17.3532 30 19.2609 30 21.25C30 23.2391 29.2098 25.1468 27.8033 26.5533C26.3968 27.9598 24.4891 28.75 22.5 28.75Z" fill="var(--fill-0, white)"/>
</g>
</svg>
