<svg preserveAspectRatio="none" width="100%" height="100%" overflow="visible" style="display: block;" viewBox="0 0 41 31" fill="none" xmlns="http://www.w3.org/2000/svg">
<g id="Vector">
<path d="M36.2229 0H4.15202C1.85892 0 0 1.85892 0 4.15202V26.5056C0 28.7987 1.85892 30.6577 4.15202 30.6577H36.2229C38.516 30.6577 40.3749 28.7987 40.3749 26.5056V4.15202C40.3749 1.85892 38.516 0 36.2229 0Z" fill="url(#paint0_radial_2172_46153)"/>
<path d="M36.2229 0H4.15202C1.85892 0 0 1.85892 0 4.15202V26.5056C0 28.7987 1.85892 30.6577 4.15202 30.6577H36.2229C38.516 30.6577 40.3749 28.7987 40.3749 26.5056V4.15202C40.3749 1.85892 38.516 0 36.2229 0Z" fill="url(#paint1_radial_2172_46153)"/>
</g>
<defs>
<radialGradient id="paint0_radial_2172_46153" cx="0" cy="0" r="1" gradientUnits="userSpaceOnUse" gradientTransform="translate(19.995 5.31672) scale(28.0895 28.0894)">
<stop stop-color="#CE15CB"/>
<stop offset="0.81" stop-color="#D210E8"/>
<stop offset="0.93" stop-color="#D210E8"/>
<stop offset="1" stop-color="#C527F2"/>
</radialGradient>
<radialGradient id="paint1_radial_2172_46153" cx="0" cy="0" r="1" gradientUnits="userSpaceOnUse" gradientTransform="translate(30.1431 3.15738) scale(34.3315 34.2781)">
<stop stop-color="#4242FF"/>
<stop offset="1" stop-color="#303085"/>
</radialGradient>
</defs>
</svg>
