<svg preserveAspectRatio="none" width="100%" height="100%" overflow="visible" style="display: block;" viewBox="0 0 45 16" fill="none" xmlns="http://www.w3.org/2000/svg">
<g id="google-2015 1" clip-path="url(#clip0_2170_45676)">
<path id="Vector" d="M5.54217 0.0018141H5.94233C7.3316 0.0347132 8.69821 0.643346 9.67975 1.72079C9.31733 2.1238 8.94737 2.51037 8.5925 2.91338C8.04133 2.37055 7.3769 1.95108 6.65207 1.80304C5.57992 1.55629 4.42472 1.77836 3.52623 2.44457C2.54468 3.14368 1.88025 4.32804 1.7368 5.59466C1.57824 6.84482 1.9029 8.16078 2.65039 9.13131C3.36767 10.0772 4.46247 10.6693 5.59502 10.7105C6.65207 10.7763 7.75442 10.4226 8.52455 9.61657C9.12858 9.04906 9.40794 8.18546 9.49854 7.34653C8.24519 7.34653 6.99183 7.35476 5.73848 7.34653V5.65223H11.0162C11.288 7.4699 10.8954 9.51787 9.6269 10.8174C8.78126 11.7386 7.61096 12.2814 6.41801 12.3883C5.2628 12.5117 4.06985 12.2732 3.04301 11.6645C1.8123 10.949 0.830757 9.73994 0.347535 8.31705C-0.105485 7.00932 -0.113035 5.52886 0.309784 4.21289C0.694851 3.01208 1.43478 1.95108 2.38613 1.21085C3.29972 0.478851 4.40962 0.075837 5.54217 0.0018141Z" fill="var(--fill-0, #F0F0FF)"/>
<path id="Vector_2" d="M35.8191 0.429688H37.4349V12.1747C36.8988 12.1747 36.3552 12.1829 35.8191 12.1664C35.8266 8.25967 35.8191 4.34468 35.8191 0.429688V0.429688Z" fill="var(--fill-0, #F0F0FF)"/>
<path id="Vector_3" d="M14.6097 4.50069C15.6063 4.29508 16.686 4.52537 17.509 5.17512C18.2565 5.75086 18.7775 6.65558 18.936 7.64255C19.1399 8.7858 18.8832 10.036 18.2036 10.9407C17.4712 11.9523 16.2707 12.4952 15.1004 12.4129C14.0283 12.3471 12.9863 11.7632 12.3521 10.8091C11.6348 9.75632 11.4612 8.30876 11.8538 7.07504C12.2464 5.75086 13.3563 4.73921 14.6097 4.50069V4.50069ZM14.8362 6.0634C14.4285 6.17855 14.0509 6.43351 13.7791 6.7954C13.0467 7.74948 13.0921 9.30396 13.8999 10.1922C14.3605 10.7022 15.0551 10.9407 15.6969 10.8009C16.2934 10.6857 16.8144 10.2498 17.1013 9.67407C17.5996 8.69532 17.4561 7.34646 16.6936 6.58156C16.2028 6.08807 15.4855 5.88245 14.8362 6.0634Z" fill="var(--fill-0, #F0F0FF)"/>
<path id="Vector_4" d="M22.6132 4.5013C23.7533 4.26278 24.9991 4.60822 25.8522 5.48005C27.2415 6.83713 27.3925 9.37859 26.2071 10.9413C25.4898 11.9283 24.3271 12.4711 23.1794 12.4135C22.0846 12.3806 21.0049 11.7884 20.3556 10.8097C19.6232 9.73225 19.4647 8.25179 19.8799 6.9934C20.2952 5.71034 21.3824 4.73159 22.6132 4.5013V4.5013ZM22.8397 6.064C22.4319 6.17915 22.0544 6.43412 21.7826 6.78778C21.0578 7.72541 21.088 9.25521 21.8657 10.1517C22.3262 10.6863 23.0435 10.9495 23.708 10.8015C24.2969 10.6781 24.8254 10.2504 25.1123 9.67468C25.6031 8.6877 25.4596 7.33884 24.6895 6.57394C24.1987 6.08045 23.4814 5.88306 22.8397 6.064Z" fill="var(--fill-0, #F0F0FF)"/>
<path id="Vector_5" d="M29.4008 4.97664C30.2691 4.38446 31.4243 4.21996 32.3605 4.7299C32.655 4.86972 32.8966 5.10823 33.1307 5.34675C33.1382 5.12468 33.1307 4.89439 33.1382 4.6641C33.6441 4.67232 34.15 4.6641 34.6634 4.67232V11.9266C34.6558 13.0205 34.3991 14.1801 33.6743 14.978C32.8815 15.858 31.6659 16.1294 30.5711 15.9485C29.4008 15.7593 28.3815 14.8299 27.9285 13.6538C28.3815 13.4152 28.8572 13.2261 29.3253 13.004C29.5896 13.6784 30.1256 14.2542 30.7976 14.3858C31.4696 14.5174 32.2473 14.3364 32.6852 13.7278C33.1533 13.1027 33.1533 12.2473 33.1307 11.4824C32.7834 11.8525 32.3832 12.1815 31.9 12.3049C30.8505 12.6257 29.6953 12.2309 28.8874 11.4578C28.072 10.6846 27.5887 9.49203 27.634 8.30767C27.6567 6.96703 28.3513 5.67574 29.4008 4.97664V4.97664ZM30.9637 6.02941C30.5032 6.11166 30.0728 6.3913 29.7783 6.77786C29.0686 7.69904 29.0686 9.17127 29.7859 10.076C30.1936 10.6106 30.8505 10.9067 31.4847 10.8327C32.0812 10.7669 32.6324 10.3556 32.9268 9.78813C33.4251 8.82583 33.3421 7.51809 32.6701 6.67916C32.2548 6.161 31.5904 5.90604 30.9637 6.02941V6.02941Z" fill="var(--fill-0, #F0F0FF)"/>
<path id="Vector_6" d="M39.3748 5.39733C40.2808 4.47616 41.6776 4.16361 42.8404 4.64888C43.9427 5.10124 44.6449 6.24448 44.9998 7.42062C43.3614 8.16085 41.7305 8.89286 40.0921 9.63309C40.3186 10.1019 40.6659 10.5296 41.134 10.7023C41.7909 10.9573 42.5761 10.8668 43.1273 10.3898C43.3463 10.2088 43.5199 9.9703 43.686 9.74001C44.1013 10.0443 44.5166 10.3404 44.9318 10.6447C44.3429 11.607 43.3538 12.2815 42.2892 12.3884C41.1113 12.5447 39.858 12.0512 39.0954 11.0477C37.842 9.46859 37.9629 6.82022 39.3748 5.39733V5.39733ZM40.1827 6.91891C39.9259 7.32193 39.8202 7.81541 39.8278 8.30067C40.9226 7.80719 42.0174 7.3137 43.1122 6.81199C42.931 6.3514 42.4931 6.07176 42.0476 5.99774C41.3303 5.85792 40.5828 6.27738 40.1827 6.91891V6.91891Z" fill="var(--fill-0, #F0F0FF)"/>
</g>
<defs>
<clipPath id="clip0_2170_45676">
<rect width="45" height="16" fill="white"/>
</clipPath>
</defs>
</svg>
