<svg preserveAspectRatio="none" width="100%" height="100%" overflow="visible" style="display: block;" viewBox="0 0 47 47" fill="none" xmlns="http://www.w3.org/2000/svg">
<g id="basil:medium-solid">
<path id="Vector" fill-rule="evenodd" clip-rule="evenodd" d="M13.2589 6.03432C20.0662 5.28023 26.9359 5.28023 33.7431 6.03432C37.462 6.44949 40.4602 9.3772 40.8969 13.1098C41.7036 20.0123 41.7036 26.9852 40.8969 33.8877C40.4602 37.6203 37.462 40.548 33.7451 40.9651C26.9372 41.7194 20.0668 41.7194 13.2589 40.9651C9.54007 40.548 6.54186 37.6203 6.10515 33.8897C5.29828 26.9865 5.29828 20.0129 6.10515 13.1098C6.54186 9.3772 9.54007 6.44949 13.2589 6.03432ZM32.1373 17.5846L33.7823 16.012V15.6654H28.0992L24.0474 25.7704L19.4414 15.6654H13.4802V16.012L15.3994 18.3229C15.4934 18.4058 15.5661 18.5101 15.6114 18.627C15.6568 18.7439 15.6734 18.8699 15.6599 18.9946V28.0832C15.6879 28.2446 15.6773 28.4104 15.629 28.567C15.5807 28.7236 15.4959 28.8665 15.3818 28.984L13.2198 31.6082V31.9509H19.3435V31.6062L17.1834 28.986C17.0683 28.8685 16.9817 28.7263 16.9301 28.5701C16.8785 28.414 16.8633 28.2481 16.8858 28.0852V20.2244L22.2614 31.9529H22.8881L27.5039 20.2244V29.5715C27.5039 29.8202 27.5039 29.8672 27.3394 30.0317L25.6787 31.6434V31.9881H33.7412V31.6434L32.1392 30.0689C32.0704 30.0156 32.017 29.9448 31.9847 29.8639C31.9523 29.783 31.9421 29.6949 31.9551 29.6087V18.0448C31.9421 17.9586 31.9523 17.8706 31.9847 17.7897C32.017 17.7088 32.0684 17.638 32.1373 17.5846Z" fill="var(--fill-0, #F0F0FF)"/>
</g>
</svg>
