<svg preserveAspectRatio="none" width="100%" height="100%" overflow="visible" style="display: block;" viewBox="0 0 128 128" fill="none" xmlns="http://www.w3.org/2000/svg">
<g id="Group">
<path id="Vector" d="M126.86 108.146L113.861 95.1471C107.622 88.9074 99.1246 85.1994 90.3301 84.8244L84.4586 78.9529C98.1149 64.3766 106.784 47.9226 111.738 36.3726C117.453 23.0466 119.564 13.3764 119.651 12.9714C119.788 12.3355 119.763 11.6756 119.579 11.0519C119.395 10.4281 119.058 9.86041 118.598 9.40061C118.138 8.94064 117.57 8.60322 116.947 8.41919C116.323 8.23516 115.663 8.21038 115.027 8.34711C114.622 8.43411 104.952 10.5454 91.6259 16.2609C80.0759 21.2146 63.6219 29.8839 49.0456 43.5399L43.1771 37.6714C42.8024 28.8764 39.0931 20.3786 32.8531 14.1389L19.8544 1.14011C19.1243 0.410105 18.1341 0 17.1016 0C16.0692 0 15.079 0.410105 14.3489 1.14011L1.14037 14.3489C-0.380125 15.8694 -0.380125 18.3341 1.14037 19.8544L14.1391 32.8531C20.3789 39.0929 28.8756 42.8006 37.6704 43.1756L43.5401 49.0456C29.8846 63.6214 21.2161 80.0746 16.2626 91.6241C10.5471 104.95 8.43588 114.62 8.34888 115.025C8.21221 115.661 8.23702 116.321 8.42105 116.945C8.60508 117.569 8.94246 118.136 9.40238 118.596C9.86215 119.056 10.4299 119.393 11.0536 119.577C11.6774 119.762 12.3373 119.786 12.9731 119.65C13.3784 119.563 23.0486 117.451 36.3744 111.736C47.9241 106.782 64.3774 98.1136 78.9529 84.4584L84.8231 90.3286C85.1979 99.1234 88.9071 107.621 95.1469 113.861L108.146 126.86C108.507 127.222 108.936 127.509 109.408 127.705C109.881 127.9 110.387 128.001 110.898 128C111.895 128 112.891 127.62 113.651 126.86L126.86 113.651C127.59 112.921 128 111.931 128 110.898C128 109.866 127.59 108.876 126.86 108.146ZM57.9811 82.5466C54.6844 84.2524 52.1051 84.8806 50.0949 84.8806C47.6809 84.8806 46.0874 83.9751 45.0554 82.9429C43.1639 81.0516 41.6971 77.2736 45.4516 70.0174C47.2584 66.5251 50.0324 62.6726 53.4156 58.9211L58.9299 64.4354C56.5966 67.0564 54.5989 69.7256 53.1569 72.1711C51.8226 74.4336 51.2414 76.0221 51.0169 76.9811C51.9759 76.7569 53.5641 76.1756 55.8269 74.8414C58.2724 73.3991 60.9419 71.4011 63.5631 69.0684L69.0774 74.5826C65.3259 77.9661 61.4734 80.7399 57.9811 82.5466ZM74.5831 69.0776L69.0689 63.5634C71.4026 60.9416 73.4009 58.2721 74.8436 55.8256C76.1779 53.5631 76.7591 51.9749 76.9836 51.0156C76.0246 51.2399 74.4364 51.8214 72.1736 53.1556C69.7276 54.5981 67.0576 56.5966 64.4359 58.9304L58.9216 53.4161C62.6736 50.0321 66.5269 47.2574 70.0196 45.4506C77.2754 41.6961 81.0539 43.1624 82.9451 45.0544C84.8366 46.9456 86.3034 50.7236 82.5489 57.9799C80.7416 61.4724 77.9674 65.3254 74.5831 69.0776Z" fill="url(#paint0_linear_2067_48634)"/>
</g>
<defs>
<linearGradient id="paint0_linear_2067_48634" x1="0" y1="0" x2="109.779" y2="111.601" gradientUnits="userSpaceOnUse">
<stop stop-color="white" stop-opacity="0.24"/>
<stop offset="0.3" stop-color="white" stop-opacity="0.12"/>
<stop offset="1" stop-color="white" stop-opacity="0.04"/>
</linearGradient>
</defs>
</svg>
