<svg preserveAspectRatio="none" width="100%" height="100%" overflow="visible" style="display: block;" viewBox="0 0 45 36" fill="none" xmlns="http://www.w3.org/2000/svg">
<g id="Group">
<path id="Vector" d="M39.0193 17.2409C38.1433 17.2404 37.2796 17.4466 36.4984 17.8427C35.7171 18.2389 35.0404 18.8138 34.5232 19.5208L30.0973 17.017C30.4932 16.2126 30.7136 15.3331 30.7439 14.437C30.7741 13.5408 30.6134 12.6485 30.2725 11.8192L32.8161 10.488C33.344 11.0769 34.0374 11.4926 34.8056 11.6806C35.5737 11.8687 36.3807 11.8204 37.1209 11.542C37.8611 11.2636 38.5 10.7682 38.9539 10.1206C39.4078 9.47297 39.6555 8.70338 39.6645 7.91261C39.5004 2.74183 32.0043 2.73705 31.8355 7.91261C31.8329 8.31899 31.8975 8.723 32.0267 9.10832L29.4767 10.4323C28.885 9.66136 28.124 9.03669 27.2526 8.60647C26.3811 8.17625 25.4225 7.95199 24.4507 7.95099C23.4788 7.94999 22.5197 8.17228 21.6474 8.6007C20.7751 9.02912 20.0129 9.65222 19.4195 10.4219L13.8082 7.35976C14.0545 6.73922 14.1797 6.07728 14.1771 5.40967C13.9118 -1.79565 3.5742 -1.81079 3.30256 5.40967C3.30161 6.54198 3.65459 7.64628 4.31212 8.56812C4.96965 9.48996 5.89885 10.1832 6.96978 10.551C8.0407 10.9188 9.19979 10.9427 10.2849 10.6193C11.3701 10.2959 12.3271 9.64145 13.022 8.74746L18.6189 11.8017C17.9841 13.3616 17.9867 15.1084 18.6261 16.6665C18.6444 16.6777 6.79887 23.5859 6.79967 23.5922C6.15005 22.8763 5.25805 22.4267 4.29614 22.3303C3.33423 22.2339 2.37074 22.4976 1.59197 23.0703C0.813197 23.6431 0.274459 24.4843 0.079923 25.4312C-0.114612 26.3782 0.0488737 27.3637 0.538771 28.1971C1.02867 29.0305 1.81018 29.6526 2.73219 29.9432C3.6542 30.2339 4.65122 30.1723 5.53047 29.7704C6.40971 29.3686 7.10873 28.655 7.49237 27.7676C7.876 26.8803 7.917 25.8822 7.60743 24.9664L19.4339 18.0494C19.9416 18.7122 20.5748 19.2684 21.2974 19.6863C22.0201 20.1043 22.818 20.3759 23.6455 20.4855V27.3029C22.5701 27.5023 21.608 28.0964 20.9481 28.9686C20.2881 29.8408 19.9779 30.9281 20.0783 32.0172C20.1787 33.1064 20.6825 34.1187 21.4908 34.8555C22.2991 35.5923 23.3535 36.0005 24.4473 36C25.541 35.9995 26.5951 35.5902 27.4027 34.8526C28.2102 34.1149 28.713 33.1021 28.8123 32.0129C28.9116 30.9236 28.6003 29.8366 27.9395 28.9651C27.2786 28.0935 26.316 27.5004 25.2403 27.3021V20.4855C26.7834 20.2895 28.1989 19.5283 29.213 18.349L33.7656 20.9236C33.4596 21.77 33.3612 22.6775 33.4787 23.5698C33.5963 24.4621 33.9263 25.3132 34.4411 26.0515C34.9559 26.7897 35.6404 27.3936 36.437 27.8124C37.2337 28.2311 38.1193 28.4525 39.0193 28.4579C46.4516 28.1791 46.4572 17.5269 39.0193 17.2409Z" fill="var(--fill-0, white)" fill-opacity="0.4"/>
<path id="Vector_2" d="M24.6379 5.98729C25.378 5.98729 26.0878 5.69329 26.6111 5.16996C27.1344 4.64664 27.4284 3.93686 27.4284 3.19677C27.4284 2.45668 27.1344 1.7469 26.6111 1.22357C26.0878 0.700251 25.378 0.40625 24.6379 0.40625C23.8978 0.40625 23.188 0.700251 22.6647 1.22357C22.1414 1.7469 21.8474 2.45668 21.8474 3.19677C21.8474 3.93686 22.1414 4.64664 22.6647 5.16996C23.188 5.69329 23.8978 5.98729 24.6379 5.98729ZM17.3426 22.4588C16.6025 22.4588 15.8927 22.7528 15.3694 23.2761C14.846 23.7994 14.552 24.5092 14.552 25.2493C14.552 25.9894 14.846 26.6991 15.3694 27.2225C15.8927 27.7458 16.6025 28.0398 17.3426 28.0398C18.0827 28.0398 18.7924 27.7458 19.3158 27.2225C19.8391 26.6991 20.1331 25.9894 20.1331 25.2493C20.1331 24.5092 19.8391 23.7994 19.3158 23.2761C18.7924 22.7528 18.0827 22.4588 17.3426 22.4588ZM14.7998 15.3873C14.7998 14.6472 14.5058 13.9374 13.9825 13.4141C13.4591 12.8907 12.7494 12.5967 12.0093 12.5967C11.2692 12.5967 10.5594 12.8907 10.0361 13.4141C9.51275 13.9374 9.21875 14.6472 9.21875 15.3873C9.21875 16.1274 9.51275 16.8371 10.0361 17.3605C10.5594 17.8838 11.2692 18.1778 12.0093 18.1778C12.7494 18.1778 13.4591 17.8838 13.9825 17.3605C14.5058 16.8371 14.7998 16.1274 14.7998 15.3873Z" fill="var(--fill-0, white)" fill-opacity="0.4"/>
</g>
</svg>
