<svg preserveAspectRatio="none" width="100%" height="100%" overflow="visible" style="display: block;" viewBox="0 0 144 150" fill="none" xmlns="http://www.w3.org/2000/svg">
<g id="Group">
<path id="Vector" d="M80.9338 26.8772C85.8818 21.9292 85.8818 13.907 80.9338 8.95907C75.9859 4.01111 67.9637 4.01111 63.0157 8.95906C58.0678 13.907 58.0678 21.9292 63.0157 26.8772C67.9637 31.8251 75.9859 31.8251 80.9338 26.8772Z" fill="url(#paint0_linear_2067_48626)"/>
<path id="Vector_2" d="M109.482 127.159L107.078 127.818L98.3295 67.4047C102.953 64.8144 101.877 57.9513 96.7939 56.7996L95.7763 49.7732C95.7235 49.4076 95.5992 49.056 95.4104 48.7385C95.2217 48.4209 94.9722 48.1437 94.6763 47.9227C94.3803 47.7016 94.0438 47.541 93.6857 47.4501C93.3277 47.3591 92.9553 47.3396 92.5898 47.3927C91.0524 47.6154 89.9868 49.0419 90.2095 50.5792L91.0988 56.7212L75.5862 56.9566L68.0178 45.9338L73.7969 50.9406L75.3519 47.0695C77.1137 42.6831 74.986 37.6991 70.5997 35.9371L57.1314 30.5275L41.1041 70.4313C39.2948 74.936 34.2456 76.9608 29.8986 75.2148L29.2553 74.9566L33.4598 103.071L25.7015 132.029C24.7089 135.732 27.0298 139.538 30.8323 140.312L0 146.539V149.236H144V118.402L109.482 127.159ZM39.3303 138.596L35.9162 139.285C37.1973 138.415 38.1864 137.103 38.6187 135.49L46.7553 105.123C47.0044 104.194 47.0501 103.222 46.8892 102.274L43.3733 81.5488L44.8276 82.1329L58.8895 104.218V133.759C58.8877 135.244 59.3824 136.687 60.2949 137.858C54.1609 138.074 45.7349 138.37 39.3303 138.596ZM72 137.446L71.1337 137.476C71.8711 136.377 72.2639 135.083 72.2618 133.759V102.269C72.2618 101.021 71.9117 99.7693 71.2156 98.678L61.0414 82.6988L66.3806 69.4058C65.7872 68.852 65.0129 67.9731 64.7184 67.2163L59.5063 53.8203L67.8637 65.9923C68.4008 66.7711 69.1215 67.4057 69.962 67.8401C70.8026 68.2744 71.7371 68.4952 72.6832 68.4828L92.7582 68.1782L101.612 129.319L72 137.446Z" fill="url(#paint1_linear_2067_48626)"/>
<path id="Vector_3" d="M21.1343 68.0617L31.1558 72.087C33.8417 73.1656 36.893 71.8628 37.9716 69.1775L54.5212 27.974C55.5998 25.2884 54.2973 22.2368 51.6117 21.1582L41.5902 17.133C38.9045 16.0544 35.853 17.3571 34.7744 20.0425L18.2248 61.2459C17.1459 63.9313 18.4486 66.9829 21.1343 68.0617Z" fill="url(#paint2_linear_2067_48626)"/>
</g>
<defs>
<linearGradient id="paint0_linear_2067_48626" x1="54.0566" y1="17.9181" x2="85.0467" y2="18.1732" gradientUnits="userSpaceOnUse">
<stop stop-color="white" stop-opacity="0.24"/>
<stop offset="0.3" stop-color="white" stop-opacity="0.12"/>
<stop offset="1" stop-color="white" stop-opacity="0.04"/>
</linearGradient>
<linearGradient id="paint1_linear_2067_48626" x1="0" y1="30.5275" x2="99.6276" y2="153.387" gradientUnits="userSpaceOnUse">
<stop stop-color="white" stop-opacity="0.24"/>
<stop offset="0.3" stop-color="white" stop-opacity="0.12"/>
<stop offset="1" stop-color="white" stop-opacity="0.04"/>
</linearGradient>
<linearGradient id="paint2_linear_2067_48626" x1="17.8457" y1="16.7541" x2="62.194" y2="46.7401" gradientUnits="userSpaceOnUse">
<stop stop-color="white" stop-opacity="0.24"/>
<stop offset="0.3" stop-color="white" stop-opacity="0.12"/>
<stop offset="1" stop-color="white" stop-opacity="0.04"/>
</linearGradient>
</defs>
</svg>
