<svg preserveAspectRatio="none" width="100%" height="100%" overflow="visible" style="display: block;" viewBox="0 0 109 6" fill="none" xmlns="http://www.w3.org/2000/svg">
<path id="Line 268" d="M0.333333 3C0.333333 4.47276 1.52724 5.66667 3 5.66667C4.47276 5.66667 5.66667 4.47276 5.66667 3C5.66667 1.52724 4.47276 0.333333 3 0.333333C1.52724 0.333333 0.333333 1.52724 0.333333 3ZM103.333 3C103.333 4.47276 104.527 5.66667 106 5.66667C107.473 5.66667 108.667 4.47276 108.667 3C108.667 1.52724 107.473 0.333333 106 0.333333C104.527 0.333333 103.333 1.52724 103.333 3ZM3 3V3.5H106V3V2.5H3V3Z" fill="var(--stroke-0, #3232E6)"/>
</svg>
