<svg preserveAspectRatio="none" width="100%" height="100%" overflow="visible" style="display: block;" viewBox="0 0 40 40" fill="none" xmlns="http://www.w3.org/2000/svg">
<g id="streamline:instagram-solid">
<path id="Vector" fill-rule="evenodd" clip-rule="evenodd" d="M9.68219 2.25C7.70947 2.25 5.81751 3.03346 4.42232 4.42812C3.02713 5.82277 2.24295 7.71443 2.24219 9.68714V29.5271C2.24219 31.5004 3.02604 33.3927 4.42131 34.788C5.81658 36.1833 7.70898 36.9671 9.68219 36.9671H29.5222C31.4949 36.9664 33.3866 36.1822 34.7812 34.787C36.1759 33.3918 36.9593 31.4999 36.9593 29.5271V9.68714C36.9586 7.71492 36.1748 5.8237 34.7802 4.42912C33.3856 3.03455 31.4944 2.25076 29.5222 2.25H9.68219ZM31.6622 9.69857C31.6622 10.2669 31.4364 10.8119 31.0346 11.2138C30.6327 11.6157 30.0877 11.8414 29.5193 11.8414C28.951 11.8414 28.406 11.6157 28.0041 11.2138C27.6022 10.8119 27.3765 10.2669 27.3765 9.69857C27.3765 9.13025 27.6022 8.58521 28.0041 8.18334C28.406 7.78148 28.951 7.55571 29.5193 7.55571C30.0877 7.55571 30.6327 7.78148 31.0346 8.18334C31.4364 8.58521 31.6622 9.13025 31.6622 9.69857ZM19.605 13.6643C18.0289 13.6643 16.5173 14.2904 15.4028 15.4049C14.2883 16.5194 13.6622 18.031 13.6622 19.6071C13.6622 21.1833 14.2883 22.6949 15.4028 23.8094C16.5173 24.9239 18.0289 25.55 19.605 25.55C21.1812 25.55 22.6928 24.9239 23.8073 23.8094C24.9218 22.6949 25.5479 21.1833 25.5479 19.6071C25.5479 18.031 24.9218 16.5194 23.8073 15.4049C22.6928 14.2904 21.1812 13.6643 19.605 13.6643ZM10.8022 19.6071C10.8022 17.2732 11.7293 15.0349 13.3796 13.3846C15.03 11.7343 17.2683 10.8071 19.6022 10.8071C21.9361 10.8071 24.1744 11.7343 25.8247 13.3846C27.475 15.0349 28.4022 17.2732 28.4022 19.6071C28.4022 21.941 27.475 24.1794 25.8247 25.8297C24.1744 27.48 21.9361 28.4071 19.6022 28.4071C17.2683 28.4071 15.03 27.48 13.3796 25.8297C11.7293 24.1794 10.8022 21.941 10.8022 19.6071Z" fill="var(--fill-0, #F0F0FF)"/>
</g>
</svg>
