<svg preserveAspectRatio="none" width="100%" height="100%" overflow="visible" style="display: block;" viewBox="0 0 21 32" fill="none" xmlns="http://www.w3.org/2000/svg">
<g id="Group">
<path id="Vector" d="M7.85532 0H2.38846C1.06935 0 0 1.06971 0 2.38926V29.6107C0 30.9303 1.06935 32 2.38846 32H7.85532C9.17443 32 10.2438 30.9303 10.2438 29.6107V2.38926C10.2438 1.06971 9.17443 0 7.85532 0Z" fill="var(--fill-0, #4242FF)"/>
<path id="Vector_2" d="M12.8151 0H6.05151C4.5608 0 3.61871 1.59931 4.33636 2.90481L7.44801 8.55089C7.93013 9.42399 7.93013 10.4828 7.44801 11.3559L5.10942 15.5995C4.04265 17.5369 5.44192 19.9096 7.65305 19.9096H12.8123C13.8708 19.9096 14.8461 19.333 15.356 18.4073L19.2407 11.3587C19.7228 10.4856 19.7228 9.42677 19.2407 8.55366L15.356 1.50507C14.8461 0.579298 13.8708 0.00277176 12.8123 0.00277176L12.8151 0Z" fill="var(--fill-0, #CD00FF)"/>
<path id="Vector_3" d="M13.2143 12.0898H8.24067C5.96859 12.0898 4.52775 14.529 5.62501 16.5191L7.87492 20.5992C8.3709 21.4972 8.3709 22.5865 7.87492 23.4846L4.70232 29.2415C4.02069 30.4805 4.91567 31.9966 6.3288 31.9966H13.2171C14.306 31.9966 15.3063 31.4035 15.8328 30.4528L19.6731 23.4873C20.1691 22.5893 20.1691 21.5 19.6731 20.6019L15.8328 13.6365C15.3063 12.683 14.306 12.0926 13.2171 12.0926L13.2143 12.0898Z" fill="var(--fill-0, #FF8829)"/>
<path id="Vector_4" d="M7.18772 10.166H4.03174V19.6981H7.18772V10.166Z" fill="var(--fill-0, #4242FF)"/>
<path id="Vector_5" d="M12.1251 5.65203H5.01795C3.4552 5.65203 2.46601 7.32894 3.21968 8.69542L6.48095 14.6131C6.82176 15.2312 6.82176 15.9796 6.48095 16.5949L3.21968 22.5127C2.46601 23.8819 3.4552 25.5561 5.01795 25.5561H12.1251C12.8733 25.5561 13.5604 25.1486 13.9234 24.4945L18.2792 16.5922C18.62 15.9741 18.62 15.2257 18.2792 14.6104L13.9234 6.70807C13.5632 6.05393 12.8733 5.64648 12.1251 5.64648V5.65203Z" fill="var(--fill-0, #A8F326)"/>
</g>
</svg>
