<svg preserveAspectRatio="none" width="100%" height="100%" overflow="visible" style="display: block;" viewBox="0 0 35 31" fill="none" xmlns="http://www.w3.org/2000/svg">
<g id="Layer 2">
<path id="Vector" d="M3.4375 6.875C3.18886 6.875 2.9504 6.77623 2.77459 6.60041C2.59877 6.4246 2.5 6.18614 2.5 5.9375V0.9375C2.5 0.68886 2.59877 0.450403 2.77459 0.274587C2.9504 0.0987719 3.18886 0 3.4375 0C3.68614 0 3.9246 0.0987719 4.10041 0.274587C4.27623 0.450403 4.375 0.68886 4.375 0.9375V5.9375C4.375 6.18614 4.27623 6.4246 4.10041 6.60041C3.9246 6.77623 3.68614 6.875 3.4375 6.875Z" fill="var(--fill-0, white)"/>
<path id="Vector_2" d="M5.9375 4.375H0.9375C0.68886 4.375 0.450403 4.27623 0.274587 4.10041C0.0987719 3.9246 0 3.68614 0 3.4375C0 3.18886 0.0987719 2.9504 0.274587 2.77459C0.450403 2.59877 0.68886 2.5 0.9375 2.5H5.9375C6.18614 2.5 6.4246 2.59877 6.60041 2.77459C6.77623 2.9504 6.875 3.18886 6.875 3.4375C6.875 3.68614 6.77623 3.9246 6.60041 4.10041C6.4246 4.27623 6.18614 4.375 5.9375 4.375ZM12.1875 9.375C11.9389 9.375 11.7004 9.27623 11.5246 9.10041C11.3488 8.9246 11.25 8.68614 11.25 8.4375V3.4375C11.25 3.18886 11.3488 2.9504 11.5246 2.77459C11.7004 2.59877 11.9389 2.5 12.1875 2.5C12.4361 2.5 12.6746 2.59877 12.8504 2.77459C13.0262 2.9504 13.125 3.18886 13.125 3.4375V8.4375C13.125 8.68614 13.0262 8.9246 12.8504 9.10041C12.6746 9.27623 12.4361 9.375 12.1875 9.375Z" fill="var(--fill-0, white)"/>
<path id="Vector_3" d="M14.6875 6.875H9.6875C9.43886 6.875 9.2004 6.77623 9.02459 6.60041C8.84877 6.4246 8.75 6.18614 8.75 5.9375C8.75 5.68886 8.84877 5.4504 9.02459 5.27459C9.2004 5.09877 9.43886 5 9.6875 5H14.6875C14.9361 5 15.1746 5.09877 15.3504 5.27459C15.5262 5.4504 15.625 5.68886 15.625 5.9375C15.625 6.18614 15.5262 6.4246 15.3504 6.60041C15.1746 6.77623 14.9361 6.875 14.6875 6.875ZM24.6875 30.625C24.4389 30.625 24.2004 30.5262 24.0246 30.3504C23.8488 30.1746 23.75 29.9361 23.75 29.6875V24.6875C23.75 24.4389 23.8488 24.2004 24.0246 24.0246C24.2004 23.8488 24.4389 23.75 24.6875 23.75C24.9361 23.75 25.1746 23.8488 25.3504 24.0246C25.5262 24.2004 25.625 24.4389 25.625 24.6875V29.6875C25.625 29.9361 25.5262 30.1746 25.3504 30.3504C25.1746 30.5262 24.9361 30.625 24.6875 30.625Z" fill="var(--fill-0, white)"/>
<path id="Vector_4" d="M27.1875 28.125H22.1875C21.9389 28.125 21.7004 28.0262 21.5246 27.8504C21.3488 27.6746 21.25 27.4361 21.25 27.1875C21.25 26.9389 21.3488 26.7004 21.5246 26.5246C21.7004 26.3488 21.9389 26.25 22.1875 26.25H27.1875C27.4361 26.25 27.6746 26.3488 27.8504 26.5246C28.0262 26.7004 28.125 26.9389 28.125 27.1875C28.125 27.4361 28.0262 27.6746 27.8504 27.8504C27.6746 28.0262 27.4361 28.125 27.1875 28.125ZM30.9375 23.125C30.6889 23.125 30.4504 23.0262 30.2746 22.8504C30.0988 22.6746 30 22.4361 30 22.1875V17.1875C30 16.9389 30.0988 16.7004 30.2746 16.5246C30.4504 16.3488 30.6889 16.25 30.9375 16.25C31.1861 16.25 31.4246 16.3488 31.6004 16.5246C31.7762 16.7004 31.875 16.9389 31.875 17.1875V22.1875C31.875 22.4361 31.7762 22.6746 31.6004 22.8504C31.4246 23.0262 31.1861 23.125 30.9375 23.125Z" fill="var(--fill-0, white)"/>
<path id="Vector_5" d="M33.4375 20.625H28.4375C28.1889 20.625 27.9504 20.5262 27.7746 20.3504C27.5988 20.1746 27.5 19.9361 27.5 19.6875C27.5 19.4389 27.5988 19.2004 27.7746 19.0246C27.9504 18.8488 28.1889 18.75 28.4375 18.75H33.4375C33.6861 18.75 33.9246 18.8488 34.1004 19.0246C34.2762 19.2004 34.375 19.4389 34.375 19.6875C34.375 19.9361 34.2762 20.1746 34.1004 20.3504C33.9246 20.5262 33.6861 20.625 33.4375 20.625ZM18.6337 6.21L3.23875 21.6063C3.0119 21.833 2.86044 22.1241 2.805 22.44L1.6675 28.88C1.62341 29.1276 1.63984 29.3822 1.71539 29.6221C1.79094 29.862 1.92337 30.0801 2.1014 30.2577C2.27942 30.4354 2.49776 30.5673 2.73781 30.6424C2.97785 30.7175 3.23248 30.7334 3.48 30.6887L9.91625 29.5537C10.2332 29.4984 10.5253 29.3465 10.7525 29.1187L26.1475 13.7238L18.6337 6.21ZM30.8663 5.02625L27.33 1.49125C26.7943 0.980114 26.0823 0.694939 25.3419 0.694939C24.6014 0.694939 23.8895 0.980114 23.3538 1.49125L19.96 4.885L27.4725 12.3975L30.8663 9.005C31.3929 8.47685 31.6886 7.76145 31.6886 7.01563C31.6886 6.2698 31.3929 5.5544 30.8663 5.02625Z" fill="var(--fill-0, white)"/>
</g>
</svg>
