<svg preserveAspectRatio="none" width="100%" height="100%" overflow="visible" style="display: block;" viewBox="0 0 144 144" fill="none" xmlns="http://www.w3.org/2000/svg">
<g id="Group">
<path id="Vector" d="M80.7609 26.1579L80.6386 26.1562C78.3481 26.1987 76.4978 28.0755 76.4978 30.3761C76.4978 32.6767 78.3475 34.5532 80.638 34.596L80.7545 34.5943C83.0618 34.5752 84.9389 32.6829 84.9389 30.3761C84.9395 28.0693 83.0621 26.1771 80.7609 26.1579ZM51.9598 77.3255H109.478V85.763H51.9598V77.3255ZM51.9598 60.4505H109.478V68.888H51.9598V60.4505ZM84.9375 96.8667C84.9375 99.1966 83.0486 101.085 80.7188 101.085C78.3889 101.085 76.5 99.1966 76.5 96.8667V94.2008H51.9598V115.748H55.8512C58.1811 115.748 60.0699 117.637 60.0699 119.967V143.981L109.477 143.96V94.2005H84.9375V96.8667ZM0 99.0183V115.746H21.9201V94.7995H4.21875C1.88887 94.7995 0 96.6884 0 99.0183Z" fill="url(#paint0_linear_2067_48615)"/>
<path id="Vector_2" d="M125.497 18.5034C113.564 6.57141 97.6998 0 80.8251 0C63.9503 0 48.0859 6.57141 36.1536 18.5034C24.2215 30.4357 17.6501 46.3002 17.6501 63.1749V86.3564H26.1388C28.4687 86.3564 30.3576 88.2453 30.3576 90.5752V115.742H43.5226V56.2261C43.5226 53.8962 45.4115 52.0073 47.7413 52.0073H113.697C116.027 52.0073 117.915 53.8962 117.915 56.2261V143.951L139.781 143.942C142.111 143.942 144 142.053 144 139.723V63.1752C144 46.3002 137.429 30.4357 125.497 18.5034ZM80.8251 43.0259C80.7896 43.0262 80.7545 43.0284 80.7188 43.0284C73.739 43.0284 68.0605 37.35 68.0605 30.3702C68.0605 23.3907 73.739 17.712 80.7188 17.712C80.7545 17.712 80.7893 17.7143 80.8251 17.7145C87.7559 17.7722 93.377 23.4262 93.377 30.3699C93.377 37.3137 87.7559 42.9683 80.8251 43.0259ZM0 139.78C0 142.11 1.88887 143.999 4.21875 143.999L21.9201 143.99V124.178H0V139.78ZM30.3576 143.986L51.6324 143.979V124.18H30.3576V143.986Z" fill="url(#paint1_linear_2067_48615)"/>
</g>
<defs>
<linearGradient id="paint0_linear_2067_48615" x1="0" y1="26.1562" x2="100.902" y2="121.466" gradientUnits="userSpaceOnUse">
<stop stop-color="white" stop-opacity="0.24"/>
<stop offset="0.3" stop-color="white" stop-opacity="0.12"/>
<stop offset="1" stop-color="white" stop-opacity="0.04"/>
</linearGradient>
<linearGradient id="paint1_linear_2067_48615" x1="0" y1="0" x2="123.501" y2="125.552" gradientUnits="userSpaceOnUse">
<stop stop-color="white" stop-opacity="0.24"/>
<stop offset="0.3" stop-color="white" stop-opacity="0.12"/>
<stop offset="1" stop-color="white" stop-opacity="0.04"/>
</linearGradient>
</defs>
</svg>
