<svg preserveAspectRatio="none" width="100%" height="100%" overflow="visible" style="display: block;" viewBox="0 0 40 40" fill="none" xmlns="http://www.w3.org/2000/svg">
<g id="tild6431-3262-4338-b434-626236363833__group_121126.svg" clip-path="url(#clip0_2053_40631)">
<path id="Vector" d="M32 0H8C3.58172 0 0 3.58172 0 8V32C0 36.4183 3.58172 40 8 40H32C36.4183 40 40 36.4183 40 32V8C40 3.58172 36.4183 0 32 0Z" fill="var(--fill-0, white)"/>
<path id="Vector_2" d="M26.8461 12H13.1539C12.5166 12 12 12.5166 12 13.1539V26.8461C12 27.4834 12.5166 28 13.1539 28H26.8461C27.4834 28 28 27.4834 28 26.8461V13.1539C28 12.5166 27.4834 12 26.8461 12ZM17.6753 24.0938H15.7269V18.2321H17.6753V24.0938ZM16.7012 17.4316H16.6885C16.0347 17.4316 15.6118 16.9816 15.6118 16.4191C15.6118 15.8439 16.0476 15.4062 16.7141 15.4062C17.3806 15.4062 17.7908 15.8439 17.8035 16.4191C17.8035 16.9816 17.3806 17.4316 16.7012 17.4316ZM24.7007 24.0938H22.7526V20.9579C22.7526 20.1698 22.4705 19.6323 21.7655 19.6323C21.2273 19.6323 20.9067 19.9949 20.7659 20.3448C20.7144 20.4701 20.7018 20.6451 20.7018 20.8203V24.0938H18.7535C18.7535 24.0938 18.7791 18.782 18.7535 18.2321H20.7018V19.062C20.9607 18.6626 21.424 18.0945 22.4576 18.0945C23.7395 18.0945 24.7007 18.9323 24.7007 20.7327V24.0938Z" fill="var(--fill-0, #111827)"/>
</g>
<defs>
<clipPath id="clip0_2053_40631">
<rect width="40" height="40" fill="white"/>
</clipPath>
</defs>
</svg>
