<svg preserveAspectRatio="none" width="100%" height="100%" overflow="visible" style="display: block;" viewBox="0 0 29 29" fill="none" xmlns="http://www.w3.org/2000/svg">
<g id="Group">
<path id="Vector" d="M17.297 21.8047C17.0755 21.8047 16.8525 21.7847 16.6305 21.7447L10.738 20.6797C10.6401 20.6634 10.5463 20.6278 10.4622 20.5749C10.3781 20.522 10.3054 20.453 10.2482 20.3717C10.191 20.2905 10.1505 20.1987 10.1291 20.1017C10.1077 20.0047 10.1057 19.9045 10.1234 19.8067C10.141 19.7089 10.1779 19.6157 10.2319 19.5323C10.2859 19.4489 10.3559 19.3771 10.4379 19.321C10.5199 19.2649 10.6122 19.2256 10.7095 19.2055C10.8067 19.1854 10.907 19.1848 11.0045 19.2037L16.897 20.2687C17.2543 20.3335 17.622 20.3107 17.9685 20.2024C18.3151 20.0941 18.6302 19.9034 18.887 19.6467L19.997 18.5367C20.0662 18.4651 20.149 18.408 20.2405 18.3687C20.332 18.3294 20.4304 18.3087 20.53 18.3078C20.6296 18.3069 20.7283 18.3259 20.8205 18.3636C20.9127 18.4013 20.9964 18.457 21.0668 18.5274C21.1373 18.5979 21.193 18.6816 21.2307 18.7738C21.2684 18.8659 21.2873 18.9647 21.2865 19.0643C21.2856 19.1639 21.2649 19.2623 21.2256 19.3538C21.1863 19.4453 21.1292 19.5281 21.0575 19.5972L19.948 20.7072C19.2449 21.4101 18.2913 21.8049 17.297 21.8047ZM8.55905 18.3807C8.38339 18.3805 8.2134 18.3186 8.07872 18.2058C7.94403 18.0931 7.85319 17.9366 7.82205 17.7637L6.75705 11.8707C6.64936 11.2748 6.68757 10.6616 6.86841 10.0836C7.04926 9.50563 7.36737 8.98003 7.79555 8.55174L11.0015 5.34474C11.0712 5.27507 11.1539 5.21981 11.2449 5.18211C11.336 5.14441 11.4335 5.125 11.532 5.125C11.6306 5.125 11.7281 5.14441 11.8192 5.18211C11.9102 5.21981 11.9929 5.27507 12.0625 5.34474C12.1322 5.41441 12.1875 5.49711 12.2252 5.58814C12.2629 5.67916 12.2823 5.77672 12.2823 5.87524C12.2823 5.97376 12.2629 6.07132 12.2252 6.16234C12.1875 6.25337 12.1322 6.33607 12.0625 6.40574L8.85605 9.61224C8.59917 9.86926 8.40834 10.1846 8.29985 10.5314C8.19136 10.8782 8.16844 11.2462 8.23305 11.6037L9.29805 17.4967C9.3176 17.6049 9.31317 17.716 9.28505 17.8222C9.25692 17.9284 9.20581 18.0272 9.13531 18.1114C9.06481 18.1957 8.97665 18.2635 8.87707 18.3099C8.77749 18.3564 8.66893 18.3809 8.55905 18.3807Z" fill="var(--fill-0, white)" fill-opacity="0.4"/>
<path id="Vector_2" d="M3.62821 28.5033C3.30321 28.5033 2.98921 28.3758 2.75321 28.1393L0.36371 25.7498C0.216518 25.6032 0.108656 25.4219 0.0501009 25.2227C-0.00845439 25.0234 -0.0158118 24.8126 0.0287094 24.6098C0.118209 24.1963 0.40871 23.8598 0.80521 23.7118L1.78921 23.3423L8.02921 17.1018C8.31071 16.8203 8.80921 16.8203 9.09021 17.1018L11.4012 19.4128C11.5418 19.5534 11.6208 19.7441 11.6208 19.943C11.6208 20.1419 11.5418 20.3326 11.4012 20.4732L5.16121 26.7143L4.79171 27.6983C4.70348 27.9354 4.54461 28.1397 4.33653 28.2837C4.12846 28.4277 3.88122 28.5043 3.62821 28.5033ZM1.70921 24.9743L3.52921 26.7943L3.81321 26.0353C3.85121 25.9353 3.90971 25.8443 3.98521 25.7688L9.81021 19.9433L8.56021 18.6928L2.73521 24.5178C2.65949 24.5935 2.56845 24.6521 2.46821 24.6898L1.70921 24.9743Z" fill="var(--fill-0, white)" fill-opacity="0.4"/>
<path id="Vector_3" d="M8.33521 23.2259C8.14321 23.2259 7.95121 23.1524 7.80471 23.0059L5.49271 20.6939C5.42108 20.6247 5.36394 20.542 5.32463 20.4504C5.28533 20.3589 5.26464 20.2605 5.26377 20.1609C5.26291 20.0614 5.28188 19.9626 5.31959 19.8704C5.3573 19.7783 5.41299 19.6945 5.48341 19.6241C5.55383 19.5537 5.63757 19.498 5.72974 19.4603C5.82192 19.4226 5.92068 19.4036 6.02026 19.4045C6.11984 19.4053 6.21826 19.426 6.30976 19.4653C6.40127 19.5046 6.48402 19.5618 6.55321 19.6334L8.86521 21.9454C8.96997 22.0503 9.04129 22.1839 9.07017 22.3293C9.09906 22.4747 9.08421 22.6254 9.0275 22.7623C8.97078 22.8993 8.87476 23.0164 8.75154 23.0988C8.62833 23.1812 8.48345 23.2253 8.33521 23.2254V23.2259ZM5.86021 25.7004C5.66821 25.7004 5.47671 25.6274 5.33021 25.4804L3.01771 23.1684C2.9449 23.0995 2.88664 23.0167 2.84637 22.9249C2.80611 22.8331 2.78466 22.7341 2.78329 22.6339C2.78192 22.5337 2.80065 22.4342 2.83839 22.3413C2.87613 22.2484 2.93211 22.1641 3.00301 22.0932C3.07391 22.0223 3.1583 21.9664 3.25119 21.9287C3.34408 21.891 3.44358 21.8723 3.54382 21.8737C3.64406 21.8751 3.74299 21.8966 3.83478 21.9369C3.92657 21.9773 4.00934 22.0356 4.07821 22.1084L6.39071 24.4204C6.49547 24.5253 6.56679 24.6589 6.59567 24.8043C6.62456 24.9497 6.60971 25.1004 6.553 25.2373C6.49628 25.3743 6.40026 25.4914 6.27704 25.5738C6.15383 25.6562 6.00845 25.7003 5.86021 25.7004ZM22.6252 17.7159C22.4717 17.7159 22.3219 17.6689 22.196 17.5811C22.0701 17.4933 21.9742 17.3689 21.9212 17.2249C21.0265 14.7832 19.6084 12.5668 17.7662 10.7314C15.9307 8.88937 13.7143 7.47121 11.2727 6.5764C11.1545 6.53296 11.0491 6.46046 10.9663 6.36558C10.8835 6.2707 10.8259 6.1565 10.7989 6.0335C10.7718 5.9105 10.7762 5.78267 10.8115 5.6618C10.8469 5.54093 10.9121 5.43092 11.0012 5.3419L15.2677 1.07539C16.4492 -0.105605 18.2927 -0.340605 19.7507 0.503395C23.4592 2.6514 25.8482 5.04039 27.9957 8.75039C28.8382 10.2069 28.6037 12.0474 27.4257 13.2254L23.1557 17.4959C23.0861 17.5656 23.0034 17.6209 22.9124 17.6587C22.8213 17.6964 22.7238 17.7159 22.6252 17.7159ZM12.8652 5.5999C15.0909 6.56982 17.1136 7.95098 18.8272 9.67089C20.5468 11.3844 21.9276 13.4069 22.8972 15.6324L26.3647 12.1654C27.0632 11.4664 27.1997 10.3709 26.6972 9.50189C24.6657 5.99189 22.5072 3.8334 18.9992 1.8019C18.1282 1.2974 17.0302 1.4349 16.3282 2.1359L12.8652 5.5999Z" fill="var(--fill-0, white)" fill-opacity="0.4"/>
<path id="Vector_4" d="M20.6137 5.80659C20.4217 5.80659 20.2297 5.73359 20.0832 5.58659C19.4242 4.92809 18.8527 4.60559 18.4887 4.45059C18.3977 4.41006 18.2966 4.39777 18.1985 4.41534C18.1005 4.4329 18.0099 4.47949 17.9387 4.54909L17.2552 5.23359C17.1145 5.37429 16.9238 5.45336 16.7248 5.45341C16.5259 5.45345 16.3351 5.37447 16.1944 5.23384C16.0537 5.09321 15.9747 4.90245 15.9746 4.70352C15.9746 4.50459 16.0535 4.31379 16.1942 4.17309L16.8782 3.48809C17.1605 3.20619 17.521 3.01566 17.9129 2.94121C18.3049 2.86676 18.7102 2.91184 19.0762 3.07059C19.7827 3.37109 20.4782 3.86059 21.1437 4.52659C21.2484 4.63148 21.3198 4.76506 21.3486 4.91046C21.3775 5.05585 21.3627 5.20655 21.306 5.34351C21.2492 5.48048 21.1532 5.59756 21.03 5.67998C20.9068 5.7624 20.7619 5.80646 20.6137 5.80659Z" fill="var(--fill-0, white)" fill-opacity="0.4"/>
</g>
</svg>
