<svg preserveAspectRatio="none" width="100%" height="100%" overflow="visible" style="display: block;" viewBox="0 0 1039 495" fill="none" xmlns="http://www.w3.org/2000/svg">
<g id="Ellipse 2167" opacity="0.2" filter="url(#filter0_f_2093_58599)">
<path d="M519.503 2.5C662.511 2.50003 791.908 30.015 885.496 74.4346C979.198 118.908 1036.51 180.055 1036.51 247.097C1036.51 314.139 979.198 375.284 885.496 419.758C791.908 464.177 662.511 491.692 519.503 491.692C376.494 491.692 247.097 464.178 153.509 419.758C59.8072 375.284 2.50024 314.139 2.5 247.097C2.5 180.055 59.807 118.908 153.509 74.4346C247.097 30.0148 376.494 2.5 519.503 2.5Z" stroke="url(#paint0_linear_2093_58599)" stroke-width="3"/>
</g>
<defs>
<filter id="filter0_f_2093_58599" x="0" y="0" width="1039.01" height="494.193" filterUnits="userSpaceOnUse" color-interpolation-filters="sRGB">
<feFlood flood-opacity="0" result="BackgroundImageFix"/>
<feBlend mode="normal" in="SourceGraphic" in2="BackgroundImageFix" result="shape"/>
<feGaussianBlur stdDeviation="0.5" result="effect1_foregroundBlur_2093_58599"/>
</filter>
<linearGradient id="paint0_linear_2093_58599" x1="519.503" y1="1" x2="519.503" y2="493.193" gradientUnits="userSpaceOnUse">
<stop stop-color="#5B5B5B"/>
<stop offset="0.307692" stop-color="white"/>
<stop offset="0.625" stop-color="#8B8B8B"/>
<stop offset="1" stop-color="white"/>
</linearGradient>
</defs>
</svg>
