<svg preserveAspectRatio="none" width="100%" height="100%" overflow="visible" style="display: block;" viewBox="0 0 36 36" fill="none" xmlns="http://www.w3.org/2000/svg">
<g id="Group">
<path id="Vector" fill-rule="evenodd" clip-rule="evenodd" d="M34.2615 1.82759L35.4929 3.65519H30.0844V7.08938C29.7473 7.05406 29.4074 7.05406 29.0703 7.08938V0H35.4929L34.2615 1.82759ZM21.2126 3.0274C21.3287 3.09462 21.4668 3.11298 21.5964 3.07844C21.726 3.0439 21.8366 2.95928 21.9039 2.8432L22.4469 1.90278C22.512 1.78681 22.5289 1.64985 22.4938 1.52154C22.4587 1.39324 22.3745 1.28392 22.2594 1.21725C22.1442 1.15058 22.0075 1.13193 21.8788 1.16534C21.75 1.19875 21.6396 1.28152 21.5714 1.39574L21.0284 2.33616C20.9612 2.45225 20.9429 2.59029 20.9774 2.71992C21.0119 2.84955 21.0966 2.96015 21.2126 3.0274ZM17.7464 2.10002C17.8809 2.10002 18.0099 2.0466 18.105 1.95151C18.2001 1.85642 18.2535 1.72745 18.2535 1.59298V0.507041C18.2535 0.372566 18.2001 0.243598 18.105 0.148509C18.0099 0.0534203 17.8809 0 17.7464 0C17.612 0 17.483 0.0534203 17.3879 0.148509C17.2928 0.243598 17.2394 0.372566 17.2394 0.507041V1.59298C17.2394 1.65956 17.2525 1.7255 17.278 1.78701C17.3035 1.84853 17.3408 1.90443 17.3879 1.95151C17.435 1.99859 17.4909 2.03594 17.5524 2.06142C17.6139 2.0869 17.6799 2.10002 17.7464 2.10002ZM13.589 2.84124C13.6561 2.95659 13.7661 3.04068 13.895 3.07514C14.024 3.1096 14.1613 3.09161 14.277 3.02512C14.3927 2.95863 14.4773 2.84904 14.5125 2.7203C14.5476 2.59156 14.5303 2.45415 14.4644 2.33811L13.9215 1.3977C13.8544 1.28235 13.7443 1.19825 13.6154 1.1638C13.4865 1.12934 13.3492 1.14732 13.2335 1.21382C13.1178 1.28031 13.0331 1.3899 12.998 1.51864C12.9629 1.64737 12.9801 1.78478 13.046 1.90083L13.589 2.84124ZM25.7738 11.8805C25.7738 9.78553 27.4825 8.07695 29.5774 8.07695C31.6723 8.07695 33.381 9.78561 33.381 11.8805C33.381 13.9754 31.6723 15.684 29.5774 15.684C27.4824 15.684 25.7738 13.9754 25.7738 11.8805ZM27.4934 11.8506L28.3569 13.3465C28.522 13.6338 28.9183 13.6881 29.1531 13.4534L31.5822 11.0245C31.6745 10.9288 31.7256 10.8007 31.7245 10.6678C31.7233 10.5349 31.67 10.4077 31.576 10.3137C31.482 10.2197 31.3548 10.1663 31.2218 10.1652C31.0889 10.164 30.9608 10.2151 30.8652 10.3075L28.9019 12.2708L28.3688 11.3476C28.3017 11.2322 28.1917 11.1481 28.0628 11.1137C27.9338 11.0792 27.7965 11.0972 27.6808 11.1637C27.5651 11.2302 27.4805 11.3398 27.4453 11.4685C27.4102 11.5973 27.4275 11.7347 27.4934 11.8507V11.8506ZM35.4929 18.6882V36H0.434607C0.195211 36 0 35.8048 0 35.5654V31.6068C0 31.3675 0.195211 31.1722 0.434607 31.1722H11.831V25.1474C11.831 24.9081 12.0262 24.7128 12.2656 24.7128H23.6619V18.688C23.6619 18.4486 23.8572 18.2534 24.0966 18.2534H35.0584C35.2977 18.2534 35.493 18.4486 35.493 18.688L35.4929 18.6882ZM33.6822 20.5713C33.6822 20.4368 33.6288 20.3079 33.5337 20.2128C33.4386 20.1177 33.3096 20.0643 33.1751 20.0643H25.9796C25.8452 20.0643 25.7162 20.1177 25.6211 20.2128C25.526 20.3079 25.4726 20.4368 25.4726 20.5713V26.5237H14.1487C14.0142 26.5237 13.8853 26.5771 13.7902 26.6722C13.6951 26.7673 13.6417 26.8963 13.6417 27.0307V32.983H2.31776C2.18328 32.983 2.05431 33.0365 1.95923 33.1315C1.86414 33.2266 1.81072 33.3556 1.81072 33.4901C1.81072 33.6245 1.86414 33.7535 1.95923 33.8486C2.05431 33.9437 2.18328 33.9971 2.31776 33.9971H14.1488C14.2832 33.9971 14.4122 33.9437 14.5073 33.8486C14.6024 33.7535 14.6558 33.6245 14.6558 33.4901V27.5378H25.9797C26.1142 27.5378 26.2432 27.4844 26.3382 27.3893C26.4333 27.2942 26.4867 27.1652 26.4867 27.0307V21.0784H33.1752C33.3097 21.0784 33.4386 21.025 33.5337 20.9299C33.6288 20.8348 33.6822 20.7059 33.6822 20.5714L33.6822 20.5713ZM0.0120965 19.3644V17.8584C0.0116785 17.7935 0.0340163 17.7305 0.0752259 17.6803C0.116435 17.6302 0.17391 17.5961 0.237657 17.584L1.05037 17.4237L1.63564 16.0111L1.17424 15.323C1.13774 15.2693 1.12122 15.2046 1.12753 15.14C1.13384 15.0754 1.1626 15.0151 1.20879 14.9695L2.27372 13.9046C2.31931 13.8584 2.37963 13.8297 2.44421 13.8234C2.50878 13.8171 2.57353 13.8336 2.6272 13.87L3.31533 14.3314L4.72801 13.7462L4.88824 12.9335C4.90038 12.8697 4.93448 12.8122 4.98461 12.771C5.03474 12.7298 5.09773 12.7075 5.16262 12.7079H6.66868C6.73357 12.7075 6.79656 12.7298 6.84669 12.771C6.89682 12.8122 6.93092 12.8697 6.94306 12.9335L7.10329 13.7462L8.51597 14.3314L9.20403 13.87C9.25769 13.8335 9.32244 13.817 9.38702 13.8233C9.45161 13.8297 9.51193 13.8584 9.55751 13.9046L10.6224 14.9695C10.6686 15.0151 10.6974 15.0754 10.7037 15.14C10.71 15.2046 10.6934 15.2694 10.6569 15.323L10.1955 16.0111L10.7808 17.4237L11.5934 17.584C11.6572 17.5961 11.7147 17.6302 11.7559 17.6803C11.7971 17.7305 11.8194 17.7935 11.819 17.8584V19.3644C11.8194 19.4293 11.7971 19.4923 11.7559 19.5424C11.7147 19.5926 11.6572 19.6267 11.5934 19.6388L10.7807 19.799L10.1954 21.2117L10.6568 21.8998C10.6933 21.9535 10.7099 22.0182 10.7036 22.0828C10.6973 22.1474 10.6685 22.2077 10.6224 22.2533L9.55744 23.3182C9.51185 23.3644 9.45152 23.3931 9.38695 23.3995C9.32237 23.4058 9.25763 23.3893 9.20396 23.3528L8.51583 22.8913L7.10314 23.4766L6.94292 24.2893C6.93077 24.3531 6.89667 24.4105 6.84654 24.4517C6.79641 24.4929 6.73343 24.5153 6.66853 24.5149H5.16255C5.09765 24.5153 5.03466 24.493 4.98453 24.4518C4.9344 24.4105 4.9003 24.3531 4.88817 24.2893L4.72794 23.4766L3.31525 22.8913L2.62713 23.3528C2.57347 23.3893 2.50871 23.4058 2.44413 23.3995C2.37955 23.3932 2.31922 23.3644 2.27365 23.3182L1.20871 22.2533C1.16255 22.2077 1.13381 22.1474 1.1275 22.0828C1.12119 22.0182 1.1377 21.9535 1.17416 21.8998L1.63557 21.2117L1.0503 19.799L0.237585 19.6388C0.173832 19.6267 0.116349 19.5926 0.0751366 19.5424C0.0339245 19.4923 0.0116644 19.4293 0.0120965 19.3644ZM2.88811 18.6114C2.88811 20.2834 4.24357 21.6389 5.91558 21.6389C7.58758 21.6389 8.94298 20.2834 8.94298 18.6114C8.94298 16.9394 7.58758 15.5839 5.91558 15.5839C4.24357 15.5839 2.88811 16.9394 2.88811 18.6114ZM17.3419 11.6186V15.8324H18.1512V11.6186C17.8821 11.6454 17.611 11.6454 17.3419 11.6186ZM20.2393 8.11983C20.2152 8.12056 20.1388 8.14004 20.0299 8.2358C19.7216 8.50431 19.3976 9.14282 19.2492 10.1944C19.5822 9.97763 19.8741 9.67073 20.0696 9.25213C20.3877 8.57059 20.3067 8.18727 20.2393 8.1199L20.2393 8.11983ZM15.4628 8.2358C15.3542 8.14011 15.2774 8.12056 15.2537 8.11983C15.1863 8.18719 15.1053 8.57059 15.423 9.25205C15.6185 9.67065 15.9107 9.97756 16.2439 10.1944C16.0955 9.14275 15.7715 8.50417 15.4629 8.23573L15.4628 8.2358ZM15.4703 15.8324H16.328V11.4772C16.328 11.4426 16.3272 11.4084 16.3272 11.3742C15.5218 11.0557 14.8699 10.4647 14.5037 9.68014C14.0655 8.74059 14.0715 7.89608 14.5191 7.42156C14.8162 7.10669 15.2509 7.02042 15.6803 7.19042C16.3894 7.47219 17.1404 8.51264 17.308 10.5907C17.6086 10.6371 17.8852 10.6371 18.185 10.5907C18.3526 8.51264 19.1043 7.47219 19.8127 7.19042C20.2428 7.02042 20.6769 7.10669 20.974 7.42156C21.4216 7.89608 21.4271 8.74059 20.989 9.68014C20.623 10.4647 19.9712 11.0557 19.1658 11.3742C19.1658 11.4084 19.1651 11.4426 19.1651 11.4772V15.8324H20.0225C20.1761 15.8331 20.3247 15.7781 20.4408 15.6776C20.557 15.5771 20.6328 15.4379 20.6542 15.2858C20.9964 12.932 23.4843 12.0158 23.4843 8.53778C23.4843 5.11098 20.6154 3.39761 17.7464 3.39761C14.8775 3.39761 12.0085 5.11098 12.0085 8.53778C12.0085 12.0158 14.4965 12.932 14.8386 15.2858C14.86 15.4379 14.9358 15.5771 15.052 15.6776C15.1681 15.7781 15.3167 15.8331 15.4703 15.8324ZM20.327 18.5653C20.327 18.4308 20.2736 18.3019 20.1785 18.2068C20.0834 18.1117 19.9544 18.0583 19.82 18.0583H15.6729C15.5384 18.0583 15.4094 18.1117 15.3143 18.2068C15.2192 18.3019 15.1658 18.4308 15.1658 18.5653C15.1658 18.6998 15.2192 18.8288 15.3143 18.9238C15.4094 19.0189 15.5384 19.0724 15.6729 19.0724H19.82C19.9544 19.0724 20.0834 19.0189 20.1785 18.9238C20.2736 18.8288 20.327 18.6998 20.327 18.5653ZM20.6087 16.9363C20.6087 16.8018 20.5553 16.6728 20.4602 16.5777C20.3651 16.4826 20.2361 16.4292 20.1017 16.4292H15.3912C15.2567 16.4292 15.1277 16.4826 15.0326 16.5777C14.9375 16.6728 14.8841 16.8018 14.8841 16.9363C14.8841 17.0707 14.9375 17.1997 15.0326 17.2948C15.1277 17.3899 15.2567 17.4433 15.3912 17.4433H20.1017C20.2361 17.4433 20.3651 17.3899 20.4602 17.2948C20.5553 17.1997 20.6087 17.0707 20.6087 16.9363ZM17.4451 20.8096H18.0478C18.4838 20.8096 18.8407 20.4526 18.8407 20.0166V19.6873H16.6521V20.0166C16.6521 20.4527 17.0091 20.8096 17.4451 20.8096Z" fill="var(--fill-0, white)" fill-opacity="0.4"/>
</g>
</svg>
