<svg preserveAspectRatio="none" width="100%" height="100%" overflow="visible" style="display: block;" viewBox="0 0 55 16" fill="none" xmlns="http://www.w3.org/2000/svg">
<g id="netflix-3 1" clip-path="url(#clip0_2170_45697)">
<path id="Vector" d="M52.0578 7.61671L55 15.9843C54.1329 15.8513 53.2663 15.6847 52.3838 15.5345L50.7264 10.9111L49.0234 15.1529C48.1875 15.0028 47.3665 14.9528 46.5305 14.8362L49.5189 7.51723L46.8084 0.015625H49.3172L50.8343 4.20689L52.4606 0.015625H54.9995L52.0578 7.61671ZM44.8275 0.015625H42.5512V14.5205C43.2945 14.5706 44.0684 14.6036 44.8275 14.7031V0.015625ZM40.5846 14.354C38.51 14.2044 36.4348 14.0718 34.3136 14.0213V0.0156893H36.636V11.6595C37.9679 11.6925 39.2993 11.8085 40.5846 11.8751V14.354ZM31.8356 5.68822V8.18306H28.6615V13.8551H26.3703V0.015625H32.8737V2.51046H28.662V5.68829H31.8361L31.8356 5.68822ZM22.4678 2.51046V13.9882C21.6933 13.9882 20.9041 13.9882 20.1449 14.0213V2.51046H17.7448V0.015625H24.8828V2.51046H22.4678ZM15.2366 8.31564C14.2148 8.31564 13.0068 8.31564 12.1397 8.36621V12.0752C13.5023 11.9751 14.8649 11.8591 16.2428 11.8091V14.2044L9.81732 14.7537V0.015625H16.2424V2.51046H12.1396V5.8708C13.038 5.8708 14.416 5.8208 15.2365 5.8208V8.31615L15.2366 8.31564ZM2.3685 6.91835V15.6346C1.5331 15.7347 0.789341 15.8512 0 15.9843V0.015625H2.2144L5.23352 9.08166V0.015625H7.55638V14.9528C6.73581 15.1029 5.89945 15.1529 5.01697 15.2855L2.3685 6.91835Z" fill="var(--fill-0, #F0F0FF)"/>
</g>
<defs>
<clipPath id="clip0_2170_45697">
<rect width="55" height="16" fill="white"/>
</clipPath>
</defs>
</svg>
