<svg preserveAspectRatio="none" width="100%" height="100%" overflow="visible" style="display: block;" viewBox="0 0 40 40" fill="none" xmlns="http://www.w3.org/2000/svg">
<g id="Group">
<path id="Vector" fill-rule="evenodd" clip-rule="evenodd" d="M2.48756 21.3712L0.270762 20.1133C-0.0902539 19.925 -0.0902539 19.4489 0.270762 19.2629L2.48756 18.005C2.54092 17.9746 2.59975 17.955 2.66069 17.9473C2.72162 17.9397 2.78347 17.9441 2.8427 17.9603C2.90193 17.9766 2.95738 18.0043 3.00588 18.042C3.05438 18.0797 3.09499 18.1265 3.12537 18.1799C3.15577 18.2333 3.17536 18.2921 3.18302 18.353C3.19068 18.414 3.18625 18.4758 3.17 18.5351C3.15375 18.5943 3.12599 18.6497 3.08831 18.6982C3.05062 18.7467 3.00375 18.7873 2.95037 18.8177L2.2417 19.2186H6.48928C6.74834 19.2186 6.95873 19.429 6.95873 19.6881C6.95873 19.9472 6.74834 20.1554 6.48928 20.1554H2.2417L2.95037 20.5584C3.17404 20.6847 3.25381 20.9703 3.12537 21.194C3.06424 21.302 2.96272 21.3813 2.84313 21.4145C2.72354 21.4478 2.59565 21.4322 2.48756 21.3712ZM10.099 6.09733C10.3581 6.09514 10.5663 5.88475 10.5641 5.62779L10.5597 4.80842L12.6857 8.49123C12.8141 8.71264 13.0976 8.79022 13.3212 8.66178C13.5449 8.53334 13.6224 8.24764 13.494 8.02397L11.368 4.34115L12.0722 4.75529C12.2959 4.88592 12.5816 4.81287 12.7122 4.5892C12.8429 4.36772 12.7676 4.08209 12.5462 3.95139L10.3161 2.64037C10.0061 2.45881 9.60967 2.68248 9.61186 3.04568L9.63178 5.63232C9.63178 5.8892 9.84217 6.09733 10.099 6.09733ZM8.4935 12.6834L4.81068 10.5575L5.62787 10.5641C5.68933 10.5648 5.75031 10.5532 5.80728 10.5301C5.86424 10.507 5.91606 10.4729 5.95973 10.4296C6.00339 10.3864 6.03804 10.3349 6.06166 10.2781C6.08528 10.2214 6.0974 10.1605 6.09733 10.099C6.09951 9.84217 5.88912 9.63178 5.63225 9.62951L3.07443 9.61178C2.68029 9.5985 2.44772 10.0037 2.65592 10.3382L3.95147 12.5439C4.08217 12.7676 4.36779 12.8406 4.59147 12.71C4.81287 12.5815 4.88818 12.2937 4.75756 12.0722L4.34342 11.368L8.02404 13.494C8.13162 13.5558 8.2593 13.5726 8.37921 13.5407C8.49913 13.5087 8.60152 13.4306 8.66404 13.3234C8.72591 13.2158 8.74271 13.0882 8.71075 12.9682C8.6788 12.8483 8.60069 12.7459 8.4935 12.6834ZM31.3501 13.494L35.0351 11.3658L34.6209 12.0722C34.4903 12.2937 34.5633 12.5816 34.787 12.7101C34.8397 12.7412 34.8981 12.7617 34.9588 12.7702C35.0195 12.7787 35.0812 12.7752 35.1405 12.7597C35.1998 12.7443 35.2554 12.7173 35.3042 12.6802C35.353 12.6432 35.394 12.5969 35.4248 12.544L36.7358 10.3139C36.9175 10.0061 36.6937 9.60967 36.3305 9.61186L33.744 9.62959C33.4871 9.63186 33.2789 9.84217 33.2789 10.0991C33.2811 10.3583 33.4893 10.5664 33.7483 10.5642L34.5677 10.5576L30.8849 12.6835C30.6634 12.8119 30.5859 13.0976 30.7144 13.3213C30.8428 13.545 31.1285 13.6225 31.3499 13.494L31.3501 13.494ZM26.0528 8.66178C26.2765 8.7924 26.5622 8.7149 26.6928 8.49123L28.8188 4.81061L28.8122 5.62779C28.8099 5.88467 29.0181 6.09506 29.2772 6.09733C29.5341 6.09733 29.7445 5.88912 29.7445 5.63225L29.7644 3.07443C29.7777 2.68022 29.3724 2.44545 29.038 2.65365L26.8323 3.95139C26.7255 4.01375 26.6478 4.11592 26.6163 4.2355C26.5847 4.35507 26.6019 4.48227 26.664 4.5892C26.7947 4.81287 27.0826 4.88592 27.304 4.75529L28.0083 4.34342L25.8823 8.02404C25.7539 8.24772 25.8291 8.53342 26.0529 8.66186L26.0528 8.66178ZM18.1822 3.12537C18.4059 3.25162 18.6916 3.17412 18.8178 2.94818L19.2187 2.2417V6.48928C19.2187 6.74834 19.429 6.95881 19.6881 6.95881C19.9472 6.95881 20.1576 6.74842 20.1576 6.48928V2.2417L20.5584 2.94818C20.6847 3.17404 20.9703 3.25154 21.1962 3.12537C21.4199 2.99693 21.4997 2.71123 21.3712 2.48756L20.1133 0.270762C19.9251 -0.0902539 19.4512 -0.0902539 19.263 0.270762L18.0051 2.48756C17.9442 2.59567 17.9286 2.72353 17.9618 2.84309C17.995 2.96265 18.0743 3.06416 18.1822 3.12537ZM8.02623 25.8822L4.34342 28.0083L4.75756 27.304C4.82014 27.1971 4.8378 27.0697 4.80667 26.9497C4.77554 26.8298 4.69816 26.7271 4.59147 26.664C4.48451 26.6015 4.35711 26.5838 4.23717 26.6149C4.11722 26.6461 4.01449 26.7234 3.95147 26.8301L2.64272 29.0602C2.46115 29.3703 2.68256 29.7666 3.04576 29.7644L5.63232 29.7445C5.69374 29.7444 5.75453 29.7321 5.81119 29.7084C5.86785 29.6847 5.91927 29.6501 5.96249 29.6065C6.00571 29.5628 6.03988 29.5111 6.06303 29.4542C6.08619 29.3973 6.09787 29.3364 6.0974 29.275C6.0974 29.0181 5.88701 28.8099 5.62795 28.8099L4.80857 28.8165L8.49139 26.6906C8.71506 26.5622 8.79256 26.2787 8.66412 26.0551C8.53568 25.8314 8.24998 25.7539 8.02631 25.8823L8.02623 25.8822ZM35.4248 26.8301C35.2942 26.6087 35.0085 26.5333 34.787 26.664C34.5633 26.7946 34.4903 27.0803 34.6209 27.304L35.0328 28.006L31.3522 25.8822C31.1285 25.7537 30.8428 25.829 30.7144 26.0527C30.6834 26.1057 30.6632 26.1643 30.655 26.2252C30.6469 26.286 30.6508 26.3479 30.6667 26.4072C30.6825 26.4665 30.71 26.5221 30.7474 26.5707C30.7849 26.6193 30.8316 26.6601 30.8849 26.6905L34.5655 28.8165L33.7483 28.8098C33.6245 28.8096 33.5057 28.8584 33.4177 28.9456C33.3298 29.0327 33.2799 29.1511 33.2789 29.2749C33.2789 29.534 33.4871 29.7444 33.744 29.7444L36.3018 29.7644C36.6959 29.7776 36.9307 29.3724 36.7226 29.038L35.4248 26.8301ZM29.2772 33.2789C29.2158 33.2788 29.1549 33.291 29.0982 33.3146C29.0414 33.3382 28.9899 33.3729 28.9467 33.4165C28.9034 33.4602 28.8692 33.512 28.8462 33.569C28.8231 33.626 28.8115 33.687 28.8122 33.7484L28.8188 34.5678L26.6928 30.885C26.5644 30.6613 26.2787 30.5838 26.055 30.7122C25.8313 30.8407 25.7538 31.1264 25.8822 31.3501L28.0082 35.0329L27.304 34.6187C27.0826 34.4881 26.7946 34.5633 26.664 34.7848C26.5355 35.0085 26.6086 35.2942 26.8322 35.4248L29.0623 36.7337C29.3701 36.9152 29.7665 36.6915 29.7644 36.3306L29.7444 33.744C29.7444 33.4848 29.534 33.2767 29.2772 33.2789H29.2772ZM39.1055 19.2629L36.8887 18.005C36.665 17.8765 36.3793 17.9562 36.2508 18.1799C36.1898 18.288 36.1742 18.4159 36.2074 18.5355C36.2406 18.6551 36.32 18.7566 36.428 18.8177L37.1344 19.2186H32.8869C32.6278 19.2186 32.4174 19.429 32.4174 19.6881C32.4174 19.9472 32.6278 20.1554 32.8869 20.1554H37.1344L36.428 20.5584C36.2021 20.6847 36.1246 20.9703 36.2508 21.194C36.3121 21.3019 36.4136 21.3811 36.5331 21.4143C36.6527 21.4475 36.7805 21.432 36.8887 21.3712L39.1055 20.1133C39.4665 19.925 39.4665 19.4489 39.1055 19.2629ZM21.1962 36.2508C20.9704 36.1224 20.6847 36.2021 20.5584 36.4258L20.1576 37.1344V32.8869C20.1576 32.6278 19.9472 32.4174 19.6881 32.4174C19.429 32.4174 19.2187 32.6278 19.2187 32.8869V37.1344L18.8178 36.4258C18.6915 36.2021 18.4059 36.1224 18.1822 36.2508C18.0742 36.3119 17.9948 36.4135 17.9616 36.5331C17.9284 36.6527 17.944 36.7806 18.0051 36.8887L19.263 39.1055C19.4512 39.4665 19.9251 39.4665 20.1133 39.1055L21.3712 36.8887C21.4016 36.8353 21.4212 36.7765 21.4289 36.7155C21.4365 36.6546 21.4321 36.5927 21.4159 36.5335C21.3996 36.4743 21.3719 36.4188 21.3342 36.3703C21.2965 36.3218 21.2496 36.2812 21.1962 36.2508ZM13.3235 30.7122C13.0998 30.5837 12.8141 30.659 12.6857 30.8827L10.5597 34.5655L10.5663 33.7483C10.5663 33.4892 10.3581 33.2788 10.099 33.2788C9.84217 33.2766 9.63178 33.4847 9.63178 33.7439L9.61186 36.3017C9.59858 36.6959 10.0039 36.9284 10.3383 36.7203L12.5462 35.4247C12.6529 35.3617 12.7303 35.259 12.7614 35.1391C12.7925 35.0191 12.7748 34.8917 12.7122 34.7847C12.6492 34.678 12.5465 34.6006 12.4266 34.5695C12.3066 34.5384 12.1792 34.5561 12.0722 34.6187L11.3702 35.0328L13.494 31.3522C13.5558 31.2446 13.5726 31.1169 13.5407 30.997C13.5087 30.8771 13.4306 30.7747 13.3234 30.7122H13.3235ZM23.5593 23.5857C23.763 21.7233 25.2269 20.8618 26.9431 20.7377C27.0251 20.7333 27.1137 20.7178 27.1734 20.6558C27.3661 20.4587 27.4281 19.8895 27.448 19.6304C27.4923 19.048 27.4436 18.388 27.5521 17.8233C27.7957 16.5544 28.7169 16.0007 29.7933 16.2088C29.6316 15.7415 29.439 15.2831 29.213 14.8402C28.8853 15.7571 27.9441 16.0671 27.0029 15.6795C26.3916 15.4271 25.8158 14.931 25.353 14.4681C25.2822 14.3972 25.1382 14.2577 24.9965 14.1382C24.8083 14.9708 24.8592 16.1047 24.4739 16.9019C23.9955 17.8919 22.7022 18.5451 21.781 19.0545C21.2562 19.3446 20.6648 19.4731 20.0957 19.2206C19.4867 18.9505 19.1744 18.3702 18.9065 17.7966C18.7847 17.5375 18.2819 16.448 18.0229 16.1733C17.7837 16.2376 17.2412 16.541 17.0839 16.6251C15.9987 17.2076 14.7342 17.212 13.7975 16.3483C12.6393 15.2854 12.564 13.3166 14.0367 12.5282C14.3468 12.3599 15.4673 11.7553 15.9568 11.3589C15.598 10.916 15.4009 10.4576 15.423 9.88842C12.9361 10.9691 10.9363 12.98 9.86889 15.4713L9.96639 15.5201C10.6662 15.881 11.5011 16.727 11.9994 17.3315C12.7102 18.1997 13.5252 19.5107 13.0557 20.6622C12.9737 21.1406 13.2705 21.7363 13.7001 22.2058C13.6359 21.763 13.7179 21.3266 14.1276 21.0144C14.7831 20.5183 15.5914 20.9258 16.1849 21.3001C17.2213 21.9512 18.0319 23.2379 18.6541 24.2743C19.0173 24.8789 20.0582 26.8055 20.6096 27.1532C20.9728 27.3835 21.243 27.7157 21.3138 28.1497C21.4644 29.0466 20.6982 29.649 20.4989 30.34C22.2616 30.2071 23.9979 29.638 25.5326 28.6347C23.8517 28.0169 23.3933 25.1335 23.5594 23.5855L23.5593 23.5857ZM14.4795 13.3544C13.0024 14.145 14.3644 17.0217 16.6387 15.7992C18.3683 14.869 18.5544 14.8447 19.7547 17.3981C20.1156 18.1688 20.4456 18.7224 21.327 18.2352C24.1306 16.6828 23.6523 16.6828 24.0177 14.28C24.2901 12.4751 25.0873 12.8782 26.0152 13.8061C28.1855 15.9741 28.7834 14.5103 28.1456 13.155C27.8669 12.7954 27.5659 12.4536 27.2443 12.1319C24.3211 9.20865 20.1244 8.33389 16.4394 9.50756C15.8038 11.4276 19.2319 10.8054 14.4795 13.3544ZM19.5354 30.3711C19.7081 29.1553 20.9438 28.4732 20.109 27.9461C18.7913 27.1156 17.4647 23.2136 15.6843 22.093C14.9247 21.6146 14.2426 21.3909 14.8472 22.7462C15.1085 23.3308 15.3654 23.9532 14.9822 23.931C13.5007 23.8469 11.78 21.8803 12.1587 20.37C12.761 19.1587 10.3804 16.789 9.53662 16.3528C8.32303 20.06 9.1867 24.2965 12.1343 27.2418C14.1805 29.2903 16.8513 30.3311 19.5354 30.371V30.3711ZM28.4733 18.0005C28.2851 18.9727 28.7679 21.5461 27.0095 21.6745C26.2787 21.7255 24.6776 21.9868 24.4915 23.6854C24.2767 25.674 25.2976 29.1886 27.2443 27.2419C29.9416 24.5446 30.8939 20.7621 30.1033 17.2963C29.2462 16.88 28.6438 17.1147 28.4733 18.0005Z" fill="var(--fill-0, white)"/>
</g>
</svg>
