<svg preserveAspectRatio="none" width="100%" height="100%" overflow="visible" style="display: block;" viewBox="0 0 64 64" fill="none" xmlns="http://www.w3.org/2000/svg">
<g id="Icon Container">
<path id="Vector" d="M57.1043 0H6.89575C3.09337 0 0 3.0935 0 6.89587V45.0542C0 48.8566 3.09337 51.95 6.89575 51.95H36.4168V44.05C36.4168 37.6261 41.6429 32.4 48.0666 32.4C54.4904 32.4 59.7165 37.6262 59.7165 44.05V51.4345C62.227 50.4029 64 47.9322 64 45.0542V6.89587C64 3.0935 60.9065 0 57.1043 0ZM17.9416 8.16663H46.0584C47.0938 8.16663 47.9334 9.00612 47.9334 10.0416C47.9334 11.0771 47.0938 11.9166 46.0584 11.9166H17.9416C16.9063 11.9166 16.0666 11.0771 16.0666 10.0416C16.0666 9.00612 16.9063 8.16663 17.9416 8.16663ZM30.2582 41.9084H9.90825C8.87287 41.9084 8.03325 41.0689 8.03325 40.0334C8.03325 38.9979 8.87287 38.1584 9.90825 38.1584H30.2584C31.294 38.1584 32.1334 38.9979 32.1334 40.0334C32.1334 41.0689 31.294 41.9084 30.2582 41.9084ZM54.0915 27.9834H9.90825C8.87287 27.9834 8.03325 27.1439 8.03325 26.1084C8.03325 25.0729 8.87287 24.2334 9.90825 24.2334H54.0916C55.1273 24.2334 55.9666 25.0729 55.9666 26.1084C55.9665 27.1439 55.1272 27.9834 54.0915 27.9834ZM54.0915 19.95H9.90825C8.87287 19.95 8.03325 19.1105 8.03325 18.075C8.03325 17.0395 8.87287 16.2 9.90825 16.2H54.0916C55.1273 16.2 55.9666 17.0395 55.9666 18.075C55.9665 19.1105 55.1272 19.95 54.0915 19.95Z" fill="url(#paint0_linear_2100_58674)"/>
<path id="Vector_2" d="M48.0678 36.1484C43.7118 36.1484 40.168 39.6924 40.168 44.0484C40.168 48.4044 43.712 51.9483 48.0678 51.9483C52.424 51.9483 55.9677 48.4044 55.9677 44.0484C55.9677 39.6924 52.424 36.1484 48.0678 36.1484ZM40.168 52.6024V62.1234C40.1679 62.4628 40.26 62.7959 40.4344 63.087C40.6087 63.3782 40.8589 63.6166 41.1581 63.7767C41.4574 63.9368 41.7945 64.0127 42.1334 63.9963C42.4724 63.9799 42.8006 63.8718 43.083 63.6834L48.0678 60.3602L53.0527 63.6834C53.3607 63.8889 53.7227 63.9985 54.093 63.9984C54.3392 63.9984 54.583 63.9499 54.8105 63.8557C55.0379 63.7615 55.2446 63.6234 55.4187 63.4492C55.5928 63.2751 55.7309 63.0684 55.8251 62.841C55.9193 62.6135 55.9677 62.3697 55.9677 62.1234V52.6024C53.8898 54.5228 51.1137 55.6984 48.0678 55.6984C45.022 55.6984 42.2458 54.5228 40.168 52.6024Z" fill="url(#paint1_linear_2100_58674)"/>
</g>
<defs>
<linearGradient id="paint0_linear_2100_58674" x1="0" y1="0" x2="43.4558" y2="54.4241" gradientUnits="userSpaceOnUse">
<stop stop-color="#FF8829" stop-opacity="0.48"/>
<stop offset="0.3" stop-color="#FF8829" stop-opacity="0.24"/>
<stop offset="1" stop-color="#FF8829" stop-opacity="0.08"/>
</linearGradient>
<linearGradient id="paint1_linear_2100_58674" x1="40.168" y1="36.1484" x2="60.8452" y2="48.0736" gradientUnits="userSpaceOnUse">
<stop stop-color="#FF8829" stop-opacity="0.48"/>
<stop offset="0.3" stop-color="#FF8829" stop-opacity="0.24"/>
<stop offset="1" stop-color="#FF8829" stop-opacity="0.08"/>
</linearGradient>
</defs>
</svg>
