<svg preserveAspectRatio="none" width="100%" height="100%" overflow="visible" style="display: block;" viewBox="0 0 32 32" fill="none" xmlns="http://www.w3.org/2000/svg">
<g id="Group">
<path id="Vector" d="M12.4552 3.41319C12.4878 3.42944 12.5036 3.46776 12.4921 3.50238L12.0588 4.80251C11.9235 5.20844 12.2273 5.62532 12.6517 5.62532C12.9135 5.62532 13.1573 5.45969 13.2446 5.19776L13.6779 3.89769C13.885 3.27669 13.5996 2.58769 13.0142 2.29507C13.0048 2.29044 12.9965 2.28385 12.9899 2.27574C12.9832 2.26764 12.9784 2.25821 12.9757 2.24809C12.973 2.23797 12.9725 2.22738 12.9742 2.21705C12.976 2.20672 12.9799 2.19688 12.9858 2.18819L13.7968 0.971757C13.9882 0.684569 13.9106 0.296507 13.6234 0.105069C13.3362 -0.0864306 12.9482 -0.00886813 12.7568 0.278382L11.9458 1.49482C11.8417 1.651 11.772 1.82753 11.7413 2.01268C11.7106 2.19784 11.7196 2.38741 11.7677 2.56882C11.816 2.75024 11.9022 2.91934 12.0207 3.06491C12.1393 3.21048 12.2874 3.3292 12.4552 3.41319ZM15.5802 3.41319C15.6128 3.42944 15.6286 3.46776 15.6171 3.50238L15.1838 4.80251C15.0485 5.20844 15.3523 5.62532 15.7767 5.62532C16.0385 5.62532 16.2823 5.45969 16.3696 5.19776L16.8029 3.89769C17.01 3.27669 16.7246 2.58769 16.1392 2.29507C16.1298 2.29044 16.1215 2.28385 16.1149 2.27574C16.1082 2.26764 16.1034 2.25821 16.1007 2.24809C16.098 2.23797 16.0975 2.22738 16.0992 2.21705C16.101 2.20672 16.1049 2.19688 16.1108 2.18819L16.9217 0.971757C17.1132 0.684569 17.0356 0.296507 16.7484 0.105069C16.4613 -0.0864306 16.0732 -0.00886813 15.8818 0.278382L15.0708 1.49482C14.9667 1.651 14.897 1.82753 14.8663 2.01268C14.8356 2.19784 14.8446 2.38741 14.8927 2.56882C14.941 2.75024 15.0272 2.91934 15.1457 3.06491C15.2643 3.21048 15.4124 3.3292 15.5802 3.41319ZM18.7052 3.41319C18.7378 3.42944 18.7536 3.46776 18.7421 3.50238L18.3088 4.80251C18.1996 5.12994 18.3766 5.48388 18.7041 5.59307C19.0309 5.70201 19.3853 5.52582 19.4946 5.19776L19.9279 3.89769C20.135 3.27669 19.8496 2.58769 19.2642 2.29507C19.2548 2.29044 19.2465 2.28385 19.2399 2.27574C19.2332 2.26764 19.2284 2.25821 19.2257 2.24809C19.223 2.23797 19.2225 2.22738 19.2242 2.21705C19.226 2.20672 19.2299 2.19688 19.2358 2.18819L20.0467 0.971757C20.2382 0.684569 20.1606 0.296507 19.8734 0.105069C19.5863 -0.0864306 19.1982 -0.00886813 19.0068 0.278382L18.1957 1.49482C18.0917 1.651 18.022 1.82753 17.9913 2.01268C17.9606 2.19784 17.9696 2.38741 18.0177 2.56882C18.066 2.75024 18.1522 2.91934 18.2707 3.06491C18.3893 3.21048 18.5374 3.3292 18.7052 3.41319ZM31.25 30.6251H25.066C27.9611 28.3854 29.7779 25.9793 30.5975 23.3085C30.7206 22.9069 30.4199 22.5001 29.9999 22.5001H28.4374V22.1876C28.4374 18.9326 26.4664 16.2108 23.7499 15.0256V14.6876C23.7499 10.3798 20.2452 6.87513 15.9374 6.87513C11.6296 6.87513 8.12494 10.3798 8.12494 14.6876V15.0281C5.36831 16.2361 3.43744 18.9904 3.43744 22.1876V22.5001H1.875C1.77672 22.5001 1.67982 22.5233 1.59218 22.5678C1.50453 22.6122 1.42861 22.6767 1.37058 22.756C1.31254 22.8354 1.27403 22.9272 1.25818 23.0242C1.24232 23.1212 1.24956 23.2206 1.27931 23.3143C2.27863 26.4625 4.39713 28.8013 7.11987 30.6252H0.625C0.279875 30.6252 0 30.9051 0 31.2502C0 31.5953 0.279875 31.8752 0.625 31.8752H31.25C31.5951 31.8752 31.875 31.5953 31.875 31.2502C31.875 30.9051 31.5951 30.6251 31.25 30.6251ZM27.1875 22.1876V22.5001H25.9375V22.1876C25.9375 19.2583 23.5543 16.8751 20.625 16.8751C19.5789 16.8747 18.556 17.1836 17.685 17.7629C17.4474 17.4183 17.1827 17.0931 16.8933 16.7906C19.4603 15.0174 23.015 15.2976 25.2654 17.5469C26.5049 18.787 27.1875 20.4351 27.1875 22.1876ZM23.4375 22.5001V22.1876C23.4375 20.6368 22.1758 19.3751 20.625 19.3751C19.9156 19.3751 19.2673 19.6397 18.7719 20.0746C18.6535 19.6539 18.4997 19.2439 18.3122 18.8491C18.9913 18.3776 19.7983 18.125 20.625 18.1252C22.8651 18.1252 24.6875 19.9476 24.6875 22.1877V22.5002H23.4375V22.5001ZM19.0625 22.5001V22.1876C19.0625 21.3261 19.7634 20.6251 20.625 20.6251C21.4866 20.6251 22.1875 21.3261 22.1875 22.1876V22.5001H19.0625ZM18.7478 14.6021C18.7023 13.0908 17.4596 11.8751 15.9375 11.8751C14.4148 11.8751 13.1718 13.0915 13.1271 14.6036C12.7196 14.5027 12.3047 14.435 11.8862 14.4011C12.0339 12.2943 13.7939 10.625 15.9375 10.625C18.0809 10.625 19.8407 12.2939 19.9887 14.4003C19.5703 14.4341 19.1553 14.5016 18.7478 14.6021ZM14.375 14.6876C14.375 13.8261 15.0759 13.1251 15.9375 13.1251C16.7991 13.1251 17.5 13.8261 17.5 14.6876V15.0255C16.9445 15.2683 16.4192 15.575 15.9348 15.9396C15.4518 15.5765 14.9284 15.2707 14.375 15.0282V14.6876ZM15.9375 8.12513C19.5276 8.12513 22.4531 11.0231 22.4989 14.6025C22.0861 14.5009 21.6658 14.433 21.2419 14.3996C21.0918 11.6037 18.7702 9.37507 15.9375 9.37507C13.1049 9.37507 10.7833 11.6036 10.6331 14.3994C10.2092 14.4327 9.7888 14.5008 9.37606 14.6028C9.42169 11.0233 12.3472 8.12513 15.9375 8.12513ZM4.6875 22.1876C4.6875 18.5691 7.63144 15.6251 11.25 15.6251C14.8686 15.6251 17.8125 18.5691 17.8125 22.1876V22.5001H16.5625V22.1876C16.5625 19.2583 14.1793 16.8751 11.25 16.8751C8.32069 16.8751 5.9375 19.2583 5.9375 22.1876V22.5001H4.6875V22.1876ZM14.0625 22.5001V22.1876C14.0625 20.6368 12.8008 19.3751 11.25 19.3751C9.69919 19.3751 8.4375 20.6368 8.4375 22.1876V22.5001H7.1875V22.1876C7.1875 19.9476 9.00994 18.1251 11.25 18.1251C13.4901 18.1251 15.3125 19.9476 15.3125 22.1876V22.5001H14.0625ZM9.6875 22.5001V22.1876C9.6875 21.3261 10.3884 20.6251 11.25 20.6251C12.1116 20.6251 12.8125 21.3261 12.8125 22.1876V22.5001H9.6875ZM29.1164 23.7501C28.9462 24.1732 28.7453 24.5896 28.5147 25.0001H3.36862C3.14093 24.5967 2.93923 24.1792 2.76475 23.7501H29.1164Z" fill="var(--fill-0, white)" fill-opacity="0.4"/>
</g>
</svg>
