<svg preserveAspectRatio="none" width="100%" height="100%" overflow="visible" style="display: block;" viewBox="0 0 24 24" fill="none" xmlns="http://www.w3.org/2000/svg">
<g id="doc-on-doc-svgrepo-com 1" clip-path="url(#clip0_2327_47669)">
<path id="Vector" d="M4.93071 24H14.1019C16.057 24 16.9827 23.0082 16.9827 21.0342V19.2869H18.8244C20.7702 19.2869 21.743 18.2952 21.743 16.3211V8.4156C21.743 7.25383 21.5163 6.51711 20.8079 5.78983L16.0382 0.935057C15.3581 0.245571 14.5742 1.14441e-07 13.5636 1.14441e-07H9.7005C7.75479 1.14441e-07 6.7725 0.991757 6.7725 2.96576V4.71309H4.93071C2.98504 4.71309 2.00276 5.70484 2.00276 7.67889V21.0342C2.00276 23.0177 2.98504 24 4.93071 24ZM16.9827 13.4215C16.9827 12.2125 16.841 11.6836 16.0854 10.9091L10.8811 5.61039C10.1633 4.87367 9.56824 4.71309 8.50097 4.71309H8.29316V2.98466C8.29316 2.05903 8.8032 1.52066 9.77606 1.52066H13.7619V6.46046C13.7619 7.54663 14.3003 8.07553 15.377 8.07553H20.2224V16.3022C20.2224 17.2373 19.7218 17.7662 18.7395 17.7662H16.9827V13.4215ZM15.6037 6.70603C15.2637 6.70603 15.1314 6.56434 15.1314 6.23379V1.82289L19.9296 6.70603H15.6037ZM5.00627 22.4793C4.03341 22.4793 3.52341 21.9504 3.52341 21.0059V7.69774C3.52341 6.77216 4.03341 6.23379 5.0157 6.23379H8.29316V11.7119C8.29316 12.902 8.89766 13.4876 10.0689 13.4876H15.462V21.0059C15.462 21.9504 14.952 22.4793 13.9697 22.4793H5.00627ZM10.2483 12.0614C9.87052 12.0614 9.7194 11.9103 9.7194 11.5419V6.52654L15.1692 12.0614H10.2483Z" fill="var(--fill-0, #9CA3AF)"/>
</g>
<defs>
<clipPath id="clip0_2327_47669">
<rect width="24" height="24" fill="white"/>
</clipPath>
</defs>
</svg>
