<svg preserveAspectRatio="none" width="100%" height="100%" overflow="visible" style="display: block;" viewBox="0 0 19 15" fill="none" xmlns="http://www.w3.org/2000/svg">
<path id="Vector" d="M3.875 1.925L1 7.66667V12.6667C1 13.1087 1.17559 13.5326 1.48816 13.8452C1.80072 14.1577 2.22464 14.3333 2.66667 14.3333H16C16.442 14.3333 16.866 14.1577 17.1785 13.8452C17.4911 13.5326 17.6667 13.1087 17.6667 12.6667V7.66667L14.7917 1.925C14.6537 1.64732 14.441 1.41364 14.1775 1.25023C13.9139 1.08682 13.6101 1.00016 13.3 1H5.36667C5.0566 1.00016 4.75272 1.08682 4.4892 1.25023C4.22569 1.41364 4.01298 1.64732 3.875 1.925Z" stroke="var(--stroke-0, #111827)" stroke-linecap="round" stroke-linejoin="round"/>
</svg>
